<svg width="98" height="98" viewBox="0 0 98 98" fill="none" xmlns="http://www.w3.org/2000/svg">
<g clip-path="url(#clip0)">
<rect width="98" height="98" fill="white"/>
<path d="M47.4902 78.8838C47.4902 80.85 46.6361 82.4417 44.6639 82.4417C42.6917 82.4417 41.8376 80.85 41.8376 78.8838V72.1736H38.2349V78.8838C38.2349 82.7694 40.735 85.906 44.6483 85.906C48.5461 85.906 51.0929 82.7694 51.0929 78.8838V72.158H47.4902V78.8838Z" fill="#2BA9E0"/>
<path d="M87.2289 68.0693H83.6417V85.5627H87.2289V68.0693Z" fill="#2BA9E0"/>
<path d="M89.8845 68.7092H90.9094V71.4869H91.6548V68.7092H92.6797V68.085H89.8845V68.7092Z" fill="#2BA9E0"/>
<path d="M95.6924 68.085L94.947 70.4257H94.9315L94.1395 68.085H93.0835V71.4869H93.7823V69.0993L94.6209 71.4869H95.211L96.034 69.0837H96.0496V71.4869H96.7484V68.085H95.6924Z" fill="#2BA9E0"/>
<path d="M30.1753 74.5298C30.1287 74.6079 30.1287 74.6547 29.989 74.6547C29.8803 74.6547 29.8648 74.5298 29.8648 74.5298L29.4765 72.1891H26.262V85.547H29.8648V78.3219C29.8648 77.7289 31.4642 74.9044 34.57 75.6222C36.1385 75.9967 36.8062 76.6521 36.8062 76.6521C36.8062 76.6521 36.8062 74.0773 36.8062 72.5792C36.2316 72.2827 35.8279 72.1267 35.2999 72.0174C32.2096 71.3152 30.253 74.3738 30.1753 74.5298Z" fill="#2BA9E0"/>
<path d="M59.4785 71.9082C55.5497 71.9082 52.3662 75.076 52.3662 78.9773C52.3662 78.9773 52.3662 88.6525 52.3662 89.9477H55.9845V85.1413V83.3467C55.9845 83.3467 55.9845 83.2063 56.1242 83.2063C56.2329 83.2063 56.264 83.2843 56.295 83.3467C56.5746 84.0178 58.0809 86.6082 61.4041 85.7967C64.3857 84.9541 66.5753 82.2232 66.5753 78.9929C66.5908 75.076 63.4073 71.9082 59.4785 71.9082ZM59.4785 82.5665C57.4908 82.5665 55.8758 80.9592 55.8758 78.9929C55.8758 77.0111 57.4908 75.4194 59.4785 75.4194C61.4662 75.4194 63.0812 77.0267 63.0812 78.9929C63.0812 80.9592 61.4662 82.5665 59.4785 82.5665Z" fill="#2BA9E0"/>
<path d="M75.0697 71.9082C71.1408 71.9082 67.9574 75.076 67.9574 78.9773C67.9574 82.2232 70.147 84.954 73.1441 85.7811C76.4828 86.5926 77.9891 84.0177 78.2531 83.3311C78.2842 83.2687 78.3153 83.1907 78.424 83.1907C78.5482 83.1907 78.5637 83.3311 78.5637 83.3311V85.547H82.182V78.9773C82.182 75.076 78.9985 71.9082 75.0697 71.9082ZM75.0697 82.5665C73.082 82.5665 71.467 80.9591 71.467 78.9929C71.467 77.0111 73.082 75.4193 75.0697 75.4193C77.0574 75.4193 78.6724 77.0267 78.6724 78.9929C78.6724 80.9591 77.0574 82.5665 75.0697 82.5665Z" fill="#2BA9E0"/>
<path d="M15.2676 68.0693H10.8729V85.5471H14.9725C20.3611 85.5471 24.6471 84.5015 24.6471 76.8082C24.6471 69.0369 20.594 68.0693 15.2676 68.0693ZM15.9819 82.5353L14.4911 82.5041V71.0967H15.9353C19.2585 71.0967 20.9978 71.5649 20.9978 76.8082C21.0133 82.27 19.0411 82.5353 15.9819 82.5353Z" fill="#2BA9E0"/>
<path d="M46.7138 33.7693C42.1949 33.7693 38.53 37.4521 38.53 41.9932C38.53 46.5343 42.1949 50.2171 46.7138 50.2171C51.2328 50.2171 54.8976 46.5343 54.8976 41.9932C54.8976 37.4521 51.2328 33.7693 46.7138 33.7693Z" fill="#2BA9E0"/>
<path d="M56.9007 32.1933C59.3232 34.7369 60.814 38.1857 60.814 41.9933C60.814 46.8153 58.4225 51.0599 54.7732 53.6191C61.5283 51.528 67.1188 46.4251 69.6189 40.2455C73.0819 31.6939 69.8519 25.2646 64.4478 19.4283C64.6186 20.1774 64.7118 20.9732 64.7118 21.7691C64.6962 26.7315 61.4041 30.8981 56.9007 32.1933Z" fill="#2BA9E0"/>
<path d="M47.6455 21.7847C47.6455 25.2646 50.4563 28.0736 53.9037 28.0736C57.3511 28.0736 60.1774 25.249 60.1774 21.7847C60.1774 18.3048 57.3667 15.4958 53.9192 15.4958C50.4718 15.4958 47.6455 18.3048 47.6455 21.7847Z" fill="#2BA9E0"/>
<path d="M35.9211 51.1223C33.8557 48.6566 32.6134 45.4732 32.6134 41.9933C32.6134 34.7369 38.033 28.7602 45.0366 27.9331C43.8409 26.1853 43.1265 24.063 43.1265 21.7847C43.1265 15.7923 47.9561 10.9547 53.9192 10.9547C54.4161 10.9547 54.8975 10.9859 55.3634 11.0484C51.8383 7.98977 48.3132 4.88435 45.5335 1.49805C46.9467 16.3541 32.0699 10.9547 26.5571 24.656C22.8767 33.8318 26.1999 45.1767 35.9211 51.1223Z" fill="#2BA9E0"/>
</g>
<defs>
<clipPath id="clip0">
<rect width="98" height="98" fill="white"/>
</clipPath>
</defs>
</svg>
