<svg width="98" height="98" viewBox="0 0 98 98" fill="none" xmlns="http://www.w3.org/2000/svg">
<rect width="98" height="98" fill="white"/>
<path d="M11.6795 82.1282V92.043C11.6795 92.93 11.7428 93.7536 10.9509 94.3554C10.2223 94.9573 8.98693 95.1474 7.6565 95.1474C5.62918 95.1474 3.47516 94.6722 3.47516 94.6722L3 95.9393C3 95.9393 6.0093 96.5728 8.19501 96.6045C10.0323 96.6362 11.6478 96.2244 12.5347 95.2107C13.2633 94.3871 13.485 93.4368 13.4534 91.8213V82.1282H11.6795Z" fill="#3B3A40"/>
<path d="M26.4468 87.6121C25.1164 86.8835 23.5009 86.5034 21.6636 86.5034C19.858 86.5034 18.2425 86.8835 16.8804 87.6121C15.1699 88.5307 14.3146 89.8928 14.3146 91.6034C14.3146 93.3139 15.1699 94.6761 16.8804 95.5947C18.2425 96.3233 19.8264 96.7034 21.6636 96.7034C23.4692 96.7034 25.0847 96.3233 26.4151 95.5947C28.1257 94.6761 28.981 93.3139 28.981 91.6034C28.981 89.8612 28.1257 88.5307 26.4468 87.6121ZM25.4015 94.581C24.3561 95.1829 23.1207 95.468 21.6636 95.468C20.1748 95.468 18.9077 95.1829 17.8941 94.6127C16.6587 93.9158 16.0568 92.9338 16.0568 91.6034C16.0568 90.3046 16.6903 89.291 17.8941 88.5941C18.9077 88.0239 20.1748 87.7388 21.6636 87.7388C23.1207 87.7388 24.3878 88.0239 25.4332 88.5941C26.6369 89.291 27.2704 90.3046 27.2704 91.6034C27.2387 92.8705 26.6369 93.8841 25.4015 94.581Z" fill="#3B3A40"/>
<path d="M42.0632 87.6121C40.7327 86.8835 39.1172 86.5034 37.2799 86.5034C35.4744 86.5034 33.8588 86.8835 32.4967 87.6121C30.7862 88.5307 29.9309 89.8928 29.9309 91.6034C29.9309 93.3139 30.7862 94.6761 32.4967 95.5947C33.8588 96.3233 35.4427 96.7034 37.2799 96.7034C39.0855 96.7034 40.701 96.3233 42.0315 95.5947C43.742 94.6761 44.5973 93.3139 44.5973 91.6034C44.5973 89.8612 43.742 88.5307 42.0632 87.6121ZM41.0178 94.581C39.9725 95.1829 38.7371 95.468 37.2799 95.468C35.7911 95.468 34.5241 95.1829 33.5104 94.6127C32.275 93.9158 31.6731 92.9338 31.6731 91.6034C31.6731 90.3046 32.3067 89.291 33.5104 88.5941C34.5241 88.0239 35.7911 87.7388 37.2799 87.7388C38.7371 87.7388 40.0042 88.0239 41.0495 88.5941C42.2532 89.291 42.8868 90.3046 42.8868 91.6034C42.8551 92.8705 42.2532 93.8841 41.0178 94.581Z" fill="#3B3A40"/>
<path d="M63.5401 87.3587C62.5898 86.7885 61.3544 86.5034 59.8972 86.5034C58.0283 86.5034 56.5395 87.0736 55.3991 88.214C54.3221 87.0736 52.8016 86.5034 50.9327 86.5034C49.4122 86.5034 48.1768 86.8202 47.2265 87.422C47.2265 87.2003 47.2265 86.6301 47.2265 86.6301H45.5476V96.4816H47.2265V89.7661C47.3532 89.291 47.67 88.8475 48.1768 88.4674C48.8737 87.9922 49.7606 87.7388 50.8693 87.7388C51.8513 87.7388 52.6749 87.9289 53.3718 88.3407C54.1954 88.8158 54.5755 89.4494 54.5755 90.3363V96.545H56.2227V90.3046C56.2227 89.4177 56.6028 88.7842 57.4264 88.309C58.1233 87.9289 58.9786 87.7071 59.9606 87.7071C60.9426 87.7071 61.7979 87.8972 62.4947 88.309C63.3183 88.7842 63.6985 89.4177 63.6985 90.3046V96.5133H65.3773V90.5264C65.3457 89.1326 64.7121 88.0556 63.5401 87.3587Z" fill="#3B3A40"/>
<path d="M66.7036 82.1279V96.5092H68.3825V82.1279H66.7036Z" fill="#3B3A40"/>
<path d="M87.0934 82.1279V93.2465H88.7722V82.1279H87.0934Z" fill="#3B3A40"/>
<path d="M82.6963 86.6325C82.6963 86.6325 82.6963 87.9946 82.6963 88.3114C81.2708 87.1077 79.3702 86.4741 77.0261 86.4741C75.1572 86.4741 73.5416 86.8226 72.2112 87.5511C70.564 88.4698 69.7087 89.8002 69.7087 91.5741C69.7087 93.3163 70.564 94.6784 72.2746 95.5654C73.605 96.294 75.2205 96.6424 77.0895 96.6424C78.0081 96.6424 78.9267 96.5474 79.7503 96.3256C80.9224 96.0089 81.9043 95.5654 82.6646 94.9635C82.6646 95.312 82.6646 96.484 82.6646 96.484H84.3435V86.6325H82.6963ZM71.4826 91.6058C71.4826 90.307 72.1162 89.2934 73.3199 88.5965C74.3336 88.0263 75.6323 87.7412 77.1211 87.7412C78.9584 87.7412 80.3839 88.1847 81.3975 89.0716C82.2845 89.8635 82.7279 90.8772 82.7279 92.1126C82.7279 92.1126 82.7279 93.1896 82.7279 93.2847C82.031 94.0766 80.9857 94.6784 79.6553 95.0902C78.8634 95.3436 78.0081 95.4704 77.1211 95.4704C75.6006 95.4704 74.3336 95.1853 73.3199 94.6468C72.0845 93.9182 71.4826 92.9362 71.4826 91.6058Z" fill="#3B3A40"/>
<path d="M87.9525 94.6357C86.7804 94.6357 86.6221 95.2376 86.6221 95.6177C86.6221 95.9978 86.8121 96.5997 87.9525 96.5997C89.1245 96.5997 89.2829 95.9662 89.2829 95.6177C89.2829 95.2693 89.0929 94.6357 87.9525 94.6357Z" fill="#3B3A40"/>
<path d="M94.0001 83.9042C94.0001 84.8862 93.3666 85.7098 92.2262 85.7098C91.0858 85.7098 90.4523 84.8862 90.4523 83.9042C90.4523 82.9222 91.0858 82.0986 92.2262 82.0986C93.3666 82.0986 94.0001 82.9222 94.0001 83.9042ZM90.8324 83.9042C90.8324 84.7278 91.3392 85.3614 92.2262 85.3614C93.1131 85.3614 93.62 84.7278 93.62 83.9042C93.62 83.0806 93.1131 82.4471 92.2262 82.4471C91.3392 82.4471 90.8324 83.0806 90.8324 83.9042ZM92.5746 84.126C93.2715 83.9992 93.2082 82.9539 92.4162 82.9539H91.561V84.7912H91.9094V84.1576H92.2262L92.733 84.7912H93.1131V84.7278L92.5746 84.126ZM92.4162 83.2707C92.828 83.2707 92.828 83.8725 92.4162 83.8725H91.9094V83.2707H92.4162Z" fill="#3B3A40"/>
<path d="M26.3536 37.7354L25.0265 36.4084C20.761 32.1429 19.5288 26.1712 21.0454 20.7682C16.7799 19.8203 13.6519 16.0288 13.6519 11.4789C13.6519 6.2655 17.9174 2 23.1307 2C27.8702 2 31.7565 5.4124 32.5149 9.96228C37.6335 8.73002 43.226 10.1519 47.2071 14.133L47.7759 14.7017L40.7615 21.7161L40.1928 21.1474C37.9178 18.8724 34.2211 18.8724 31.9461 21.1474C29.6712 23.4223 29.6712 27.1191 31.9461 29.394L47.6811 45.129L40.6667 52.1434L33.2732 44.7498L26.3536 37.7354Z" fill="#7AC143"/>
<path d="M34.2839 29.9561L41.6775 22.5626L48.6919 15.5482L50.0189 14.2211C54.1896 10.0504 60.2561 8.72336 65.5643 10.24C66.2278 5.59533 70.2089 2.08813 74.9484 2.08813C80.1618 2.08813 84.4273 6.35364 84.4273 11.567C84.4273 16.4013 80.8253 20.3824 76.1806 20.9511C77.6973 26.2593 76.3702 32.231 72.1995 36.4017L71.6308 36.9705L64.806 29.9561L65.3747 29.3874C67.6496 27.1124 67.6496 23.4157 65.3747 21.1407C63.0998 18.8658 59.403 18.8658 57.1281 21.1407L55.801 22.4678L48.7866 29.4821L41.3931 36.8757L34.2839 29.9561Z" fill="#F9A541"/>
<path d="M65.7527 65.322C60.3497 66.9334 54.2832 65.7011 50.0177 61.4356L49.449 60.8669L56.4634 53.8525L57.0321 54.4213C59.307 56.6962 63.0038 56.6962 65.2787 54.4213C67.5537 52.1463 67.5537 48.4496 65.2787 46.1746L63.9517 44.8476L56.9373 37.8332L49.5438 30.4397L56.5581 23.4253L72.3879 39.255C76.369 43.2362 77.7909 48.9235 76.5586 54.1369C81.2033 54.8004 84.7105 58.7816 84.7105 63.521C84.7105 68.7344 80.445 72.9999 75.2316 72.9999C70.4921 72.9051 66.6058 69.5875 65.7527 65.322Z" fill="#F44321"/>
<path d="M63.0369 45.6052L55.6434 52.9987L48.629 60.0131L47.3019 61.3401C43.226 65.4161 37.5387 66.7431 32.4201 65.5109C31.4722 69.7764 27.6806 72.9044 23.1307 72.9044C17.9174 72.9044 13.6519 68.6389 13.6519 63.4255C13.6519 58.9704 16.7799 55.1789 20.9506 54.231C19.6236 48.9228 20.9506 43.2355 25.0265 39.1596L25.5953 38.5908L32.6096 45.6052L32.0409 46.1739C29.766 48.4489 29.766 52.1456 32.0409 54.4206C34.3158 56.6955 38.0126 56.6955 40.2875 54.4206L41.6146 53.0935L48.629 46.0791L56.0225 38.6856L63.0369 45.6052Z" fill="#5091CD"/>
</svg>
