<svg width="98" height="98" viewBox="0 0 98 98" fill="none" xmlns="http://www.w3.org/2000/svg">
<rect width="98" height="98" fill="white"/>
<g clip-path="url(#clip0)">
<path d="M71.4607 30.4121L86.0378 7.03357H50.9742L46.1295 14.8247L71.4607 30.4121Z" fill="url(#paint0_linear)"/>
<path opacity="0.15" d="M46.1324 14.8248L48.6134 10.8257L71.4636 30.4122L46.1324 14.8248Z" fill="black"/>
<path d="M79.1714 72.7981V37.6521L71.6071 32.9124L55.7009 58.0981L79.1714 72.7981Z" fill="url(#paint1_linear)"/>
<path opacity="0.15" d="M55.7009 58.0967L59.6302 60.5557L71.6071 32.9124L55.7009 58.0967Z" fill="black"/>
<path d="M22.6979 0V35.1468L30.8106 39.8857L71.4555 30.4078L22.6979 0Z" fill="url(#paint2_linear)"/>
<path d="M30.6407 42.5658L16.0643 65.5487H51.1258L71.6108 32.9124L30.6407 42.5658Z" fill="url(#paint3_linear)"/>
<path d="M11.0015 95.3237H13.0401L14.0594 82.8435H11.9717V80.4351H17.5779L21.412 90.1912C21.7027 91.0427 21.8243 91.6263 21.8243 91.6263H21.8726C21.8726 91.6263 21.9942 91.0427 22.3098 90.1912L26.1197 80.4351H31.7252V82.8435H29.6632L30.6576 95.3237H32.6962V97.7078H25.6335V95.3237H27.5506L26.9201 86.6157C26.8718 86.0065 26.9933 85.0096 26.9933 85.0096H26.9201C26.9201 85.0096 26.7253 85.9573 26.5078 86.5423L23.2068 94.4964H20.4886L17.1883 86.5423C16.9694 85.9573 16.8002 85.0096 16.8002 85.0096H16.7029C16.7029 85.0096 16.8244 86.005 16.7761 86.6157L16.1456 95.3237H18.0868V97.7078H11V95.3237H11.0015Z" fill="black"/>
<path d="M42.8213 80.1429C47.9171 80.1429 51.7512 84.0114 51.7512 88.9507C51.7512 94.0355 47.9171 98 42.8213 98C37.724 98 33.8899 94.0355 33.8899 88.9507C33.8899 84.0106 37.724 80.1429 42.8213 80.1429ZM42.8213 95.2019C45.9275 95.2019 48.4765 92.502 48.4765 88.95C48.4765 85.5433 45.9283 82.9397 42.8213 82.9397C39.7143 82.9397 37.166 85.544 37.166 88.95C37.166 92.5028 39.715 95.2019 42.8213 95.2019Z" fill="black"/>
<path d="M53.332 95.3237H55.3933V82.8435H53.332V80.4351H60.7821C62.1675 80.4351 63.2586 80.5085 64.3745 80.8476C67.7232 81.8452 69.9566 84.8136 69.9566 89.0704C69.9566 93.1575 67.8931 96.101 64.6176 97.1962C63.4512 97.6087 62.2393 97.7056 60.8062 97.7056H53.332V95.3237ZM60.6612 95.1541C61.7523 95.1541 62.6266 95.0565 63.4761 94.7144C65.4422 93.9114 66.6797 91.8927 66.6797 89.0711C66.6797 86.1511 65.3697 84.1574 63.3545 83.3786C62.4816 83.038 61.6798 82.9903 60.6612 82.9903H58.5728V95.1541H60.6612Z" fill="black"/>
<path d="M71.7837 95.3237H73.3134L77.6572 88.95L73.4335 82.8435H71.9038V80.4351H78.4092V82.8435H76.7103L79.0887 86.4205C79.4058 86.808 79.575 87.1501 79.575 87.1501H79.6226C79.6226 87.1736 79.791 86.8323 80.0839 86.4205L82.3883 82.8435H80.7378V80.4351H86.9994V82.8435H85.4946L81.1266 89.1922L85.4213 95.3237H86.9503V97.7078H80.4215V95.3237H82.1203L79.7177 91.699C79.4029 91.2864 79.233 90.9458 79.233 90.9458H79.1847C79.1363 90.9458 78.9899 91.2872 78.7241 91.699L76.4189 95.3237H78.0921V97.7078H71.7844L71.7837 95.3237Z" fill="black"/>
</g>
<defs>
<linearGradient id="paint0_linear" x1="80.0939" y1="20.0743" x2="54.0506" y2="3.15706" gradientUnits="userSpaceOnUse">
<stop stop-color="#80C3E6"/>
<stop offset="1" stop-color="#3380C2"/>
</linearGradient>
<linearGradient id="paint1_linear" x1="84.6571" y1="59.2755" x2="65.1892" y2="46.4505" gradientUnits="userSpaceOnUse">
<stop stop-color="#F38649"/>
<stop offset="0.1849" stop-color="#F28147"/>
<stop offset="0.4091" stop-color="#EF7242"/>
<stop offset="0.6537" stop-color="#EA5A3A"/>
<stop offset="0.911" stop-color="#E4382E"/>
<stop offset="1" stop-color="#E12A29"/>
</linearGradient>
<linearGradient id="paint2_linear" x1="20.6038" y1="31.7861" x2="57.845" y2="8.57167" gradientUnits="userSpaceOnUse">
<stop stop-color="#42AB4A"/>
<stop offset="1" stop-color="#ADD155"/>
</linearGradient>
<linearGradient id="paint3_linear" x1="28.7234" y1="73.4779" x2="59.0584" y2="25.0496" gradientUnits="userSpaceOnUse">
<stop stop-color="#42AB4A"/>
<stop offset="1" stop-color="#ADD155"/>
</linearGradient>
<clipPath id="clip0">
<rect width="76" height="98" fill="white" transform="translate(11)"/>
</clipPath>
</defs>
</svg>
