<svg width="98" height="98" viewBox="0 0 98 98" fill="none" xmlns="http://www.w3.org/2000/svg">
<rect width="98" height="98" fill="white"/>
<g clip-path="url(#clip0)">
<path d="M88.7195 53.4199C88.7008 53.346 88.6598 52.9988 88.6769 52.7735C88.728 52.1013 88.9721 50.9152 89.5815 50.1793C89.8444 49.8612 90.1108 49.6034 90.3668 49.416C90.901 49.0189 91.3978 48.9191 91.7546 49.1925C92.6439 49.8734 91.5276 51.2159 90.3668 52.2217C89.7164 52.7855 89.0542 53.2428 88.7196 53.4199L88.7195 53.4199ZM57.9396 52.875C57.4444 54.0388 56.7925 54.7746 56.1524 55.1099C55.8382 55.2731 55.5292 55.3419 55.2425 55.3179C53.4503 55.1631 53.9384 52.3901 54.4829 51.1917C54.8362 50.413 55.4525 49.6222 56.1524 49.1769C56.545 48.9276 56.9631 48.785 57.378 48.8125C58.6719 48.8985 58.4039 51.7797 57.9396 52.8749L57.9396 52.875ZM18.5116 53.3098C18.4126 53.0244 18.4092 51.3603 19.133 50.3236C19.4215 49.911 19.7202 49.5861 20.0121 49.3712C20.4491 49.0411 20.869 48.9552 21.2019 49.1701C22.1816 49.7993 21.1439 51.35 20.0121 52.3677C19.4607 52.8628 18.8872 53.2325 18.5116 53.3099V53.3098ZM97.9326 52.5379C97.8677 52.4915 97.6543 52.6479 97.4597 52.8199C96.7906 53.4061 96.3058 53.7448 95.6145 54.1282C95.099 54.4135 94.5425 54.6078 93.8785 54.8278C92.5777 55.2593 91.3539 55.4949 90.3673 55.2663C89.9662 55.1734 89.6026 55.0032 89.2919 54.7385C89.2424 54.6955 89.2937 54.6319 89.4063 54.5545C89.6077 54.417 90.002 54.2382 90.3673 54.0662C90.6199 53.9476 90.8572 53.8342 91.0074 53.7396C92.6734 52.6944 94.2592 51.9225 94.9846 49.9506C95.3175 49.0514 95.3005 48.1815 94.8412 47.5281C94.3582 46.8405 93.3817 46.3918 91.8011 46.3952C91.3026 46.3952 90.8247 46.4536 90.3672 46.5602C87.112 47.3166 84.9527 50.5212 84.654 53.1362C84.5618 53.9458 84.6369 54.6765 84.8623 55.3074C84.1573 55.7699 83.4045 56.1756 82.7814 56.2667C82.7762 56.2685 82.7729 56.2719 82.7746 56.2701C83.046 55.8781 83.232 55.4501 83.3259 55.01C83.4489 54.4237 83.4095 53.8151 83.1791 53.2513C82.6107 51.8639 80.716 51.2915 79.929 50.7395C79.5108 50.4473 79.1489 50.2702 78.9901 49.8352C78.6556 48.9206 79.4904 48.3035 80.3881 48.2227C80.8645 48.1796 81.3031 48.3069 81.6001 48.5768C81.8665 48.8192 81.8579 49.7098 81.3851 49.629C80.7961 49.5276 80.9856 50.5074 81.735 50.645C82.7865 50.8359 83.6246 50.2134 83.768 48.6456C83.9575 46.5379 80.6306 45.3481 77.7219 47.2376C74.878 49.0822 75.5217 51.2087 76.0593 52.0838C76.1719 52.266 76.3904 52.4552 76.6704 52.6546C76.6722 52.6597 76.6722 52.6615 76.6722 52.6615C75.9979 53.9147 74.0161 55.1646 73.294 54.9566C73.038 54.8827 72.6795 54.7726 72.8877 53.9441C73.0482 53.3011 73.294 52.3108 73.6201 50.7774C74.04 48.8124 74.4616 47.6863 73.8317 47.1826C73.4767 46.8972 72.7102 46.77 72.0103 46.7597C71.5682 46.7528 71.1655 46.7734 70.9264 47.2307C70.8308 47.4146 70.7011 48.19 70.5987 48.8347C70.2573 50.9699 70.1394 52.3486 68.4803 53.9269C67.8027 54.5698 67.0839 54.9446 66.5821 54.7332C65.3105 54.2002 67.2291 49.1166 66.9338 47.6227C66.7187 46.5259 65.4487 46.5085 64.305 46.837C63.3234 47.1172 61.9869 47.7894 61.2358 48.5096C60.7391 47.3957 59.72 46.4862 57.7553 46.3315C57.2108 46.2885 56.6731 46.3263 56.1524 46.4312C52.8715 47.0913 50.212 50.4214 50.3623 53.2598C50.3623 53.2598 50.335 53.6654 50.4203 54.2362C49.8348 54.8449 49.2305 55.297 48.7441 55.0941C48.3738 54.9394 48.2969 54.4855 48.5838 52.7905C49.0941 49.7768 49.2511 48.0267 48.425 47.1155C47.5988 46.2044 45.436 46.6806 44.3742 47.076C43.5122 47.3975 42.3292 48.4599 41.7147 48.8949C41.469 49.0702 41.3443 48.7419 41.4246 48.2966C41.9401 45.4496 45.9122 31.5822 44.1285 31.0271C43.444 30.8121 41.6277 31.8608 40.6325 32.8046C40.0487 33.3565 40.0249 34.8041 39.9907 35.5588C39.9054 37.4979 39.1065 41.5569 38.4441 44.8045C37.8911 47.519 37.408 50.5998 37.2271 53.3883C37.2271 53.3982 37.2262 53.4084 37.2276 53.4107C36.9705 53.5635 36.6643 53.7637 36.3173 53.9574C35.4348 54.4507 34.0419 55.0851 32.9767 54.8186C32.3724 54.6691 31.8569 54.3269 31.4422 53.8267C30.5135 52.7007 30.8634 49.6611 31.6009 45.5558V45.5524H31.6112C33.8951 45.5283 35.201 45.6022 36.0357 45.5076C36.5614 45.4492 36.7082 45.3477 36.9113 44.8767C37.1487 44.3248 37.4029 43.4394 37.4149 42.9787C37.4269 42.5214 36.995 42.6229 36.6433 42.6211C35.6499 42.6125 34.0538 42.6984 32.2223 42.7845C32.183 42.7861 32.142 42.7879 32.1523 42.7776C33.0518 39.3323 34.1494 36.3443 34.3764 35.1788C34.6051 33.9702 29.6993 37.0906 29.1479 38.4487C29.054 38.6773 28.8611 40.4807 28.4993 42.8292C27.4683 42.8292 26.7787 42.8017 26.7787 42.8017C26.4492 42.8085 26.2512 42.7467 26.0958 43.247C25.9713 43.6544 25.7767 44.8493 25.8672 45.3685C25.9115 45.6195 26.0242 45.6366 26.2529 45.6556C26.5943 45.6814 27.2088 45.6659 28.0571 45.6452C27.784 47.2562 27.5229 48.6693 27.4375 49.4481C27.3659 50.0962 27.2685 50.8732 27.2122 51.6968C26.2051 53.1633 25.2372 53.9368 23.7572 54.5679C22.4701 55.1162 21.0841 55.3982 20.0121 55.1558C19.5171 55.044 19.0886 54.8206 18.766 54.4612C18.766 54.4612 19.2815 54.3702 20.0121 54.0882C21.05 53.6893 22.5247 52.9036 23.5677 51.4492C25.3413 48.9736 25.0221 46.0596 21.0226 46.4001C20.6728 46.4294 20.3364 46.486 20.0121 46.5685C16.6169 47.4196 14.5856 50.9335 14.4985 53.6515C14.4934 53.7908 14.4952 53.9576 14.5003 54.0917C14.4952 54.0967 14.4934 54.0985 14.4883 54.1037C13.8124 54.8137 12.8598 55.1042 12.3051 54.8721C11.9416 54.7209 11.8665 54.2756 12.1481 52.6149C12.6482 49.6614 12.7643 48.109 11.9552 47.2151C11.1461 46.321 9.02591 46.787 7.98471 47.1755C7.76109 47.2598 7.49309 47.4025 7.21321 47.5761C6.19071 48.2035 4.98561 49.223 4.98561 49.223C4.98561 49.223 4.97536 49.0098 5.06236 48.6023C5.29624 47.5141 4.42398 46.5618 3.88456 46.4826C3.34518 46.4053 2.09736 47.2167 1.21146 48.0712C0.852958 48.4184 0.304958 48.9187 0.147958 49.1784C-0.0125419 49.4431 -0.0415419 49.6185 0.0625831 49.768C0.199203 49.9607 0.622463 49.8076 1.10048 49.5635C1.65186 49.2713 1.9386 49.4088 1.9676 50.0552C1.99835 50.7773 1.82935 52.0287 1.67235 52.7508C1.44185 53.8012 0.881973 55.5151 1.70473 56.6843C2.52585 57.8516 4.83193 57.5902 4.83193 57.5902C4.83193 57.5902 4.24643 55.6924 4.97193 53.3439C5.51131 51.5938 6.24533 50.4934 7.21313 50.0792C7.54425 49.9365 7.90438 49.8729 8.29363 49.8952C9.95113 49.9829 6.99973 56.636 8.85013 57.4287C11.018 58.3553 13.2439 56.7496 14.6795 55.2418C15.2514 57.2137 17.0693 58.2917 19.5017 57.9289C19.6741 57.903 19.8431 57.8739 20.0121 57.8429C23.0045 57.2808 25.3191 55.797 27.2019 53.624C27.3454 55.6733 28.1015 57.5335 30.5597 57.8429C31.0888 57.91 31.6009 57.9048 32.0892 57.8429C34.2007 57.6435 36.1416 56.588 37.2374 55.1025C37.3039 55.8263 37.4644 56.4882 37.7734 56.9284C38.6132 58.1196 40.9654 57.8532 40.9654 57.8532C40.9654 57.8532 40.368 55.9174 41.1072 53.5191C41.8463 51.1209 43.101 49.9313 44.6508 50.0137C46.3424 50.1048 43.3313 56.8938 45.2193 57.7018C47.3735 58.6232 49.3468 57.1208 50.7909 55.6234C50.796 55.6182 50.8011 55.613 50.8079 55.6079C51.3405 56.7872 52.4841 57.9649 54.9371 57.9407C55.3689 57.9373 55.7734 57.9013 56.1525 57.8377C59.8294 57.2187 61.0925 54.0503 61.3383 53.1236C61.4083 52.8555 61.5431 52.2917 61.6114 51.5953C61.6798 50.9009 61.7036 50.1581 61.5141 49.369L61.4954 49.2849C62.3591 48.9375 62.7518 48.8396 63.1136 48.9496C63.4088 49.039 63.612 49.6269 63.5147 50.0224C63.4123 50.7427 63.0606 52.0098 62.8899 52.7472C62.6578 53.7565 62.4358 54.8017 62.4376 55.816C62.4393 58.2623 65.2831 58.0715 66.7785 57.5128C68.2739 56.9541 69.6804 54.3461 69.4857 54.8687C69.0061 56.856 69.6342 57.7965 71.0665 57.8704C71.5512 57.8945 71.9267 57.8687 72.234 57.8241C73.2719 57.6693 75.462 56.7392 77.1894 53.0069C77.1894 53.0069 77.1894 53.0051 77.1929 53.0035C78.2444 53.679 79.5588 54.4372 79.3214 55.2882C79.161 55.8607 78.765 56.2252 78.2819 56.3713C77.99 56.459 77.6674 56.4676 77.3465 56.3954C77.0272 56.3249 76.58 56.0859 76.3889 56.2888C76.0952 56.6051 76.918 57.7156 78.3211 57.903C79.2002 58.0182 80.064 57.9907 80.9072 57.8531C82.4724 57.5988 83.8842 56.9369 85.2447 56.1081C86.0179 57.3115 87.4637 57.9717 89.3278 57.8497C89.6828 57.8256 90.0293 57.7895 90.3673 57.7415C92.8134 57.3907 94.8601 56.3901 96.6354 54.879C97.3266 54.2894 97.9583 53.2474 98.0009 52.7661V52.6732C97.9941 52.6114 97.9719 52.565 97.9326 52.5375L97.9326 52.5379ZM2.90162 44.954C3.849 44.4864 4.72972 43.8176 5.66522 43.3569C6.45384 42.9684 6.79522 42.8222 7.21682 42.8842C7.52244 42.9272 7.87057 43.0819 8.46292 43.3328C9.35742 43.7093 10.0265 44.0755 10.9227 44.5243C12.4215 45.2738 12.6315 44.9231 13.1845 43.9122C13.7256 42.922 13.7564 42.4921 12.3328 41.8492C10.9177 41.2097 9.64247 40.6991 8.21377 40.087C7.72389 39.8773 7.44565 39.738 7.21689 39.6847C6.86864 39.6056 6.62627 39.7226 5.90939 40.0921C4.67519 40.73 2.84359 41.7289 1.74089 42.3683C0.744008 42.9461 0.721788 43.1161 1.22539 44.0909C1.74601 45.1034 1.66751 45.5625 2.90159 44.9539" fill="#02508B"/>
</g>
<defs>
<clipPath id="clip0">
<rect width="98" height="27" fill="white" transform="translate(0 31)"/>
</clipPath>
</defs>
</svg>
