<svg width="98" height="98" viewBox="0 0 98 98" fill="none" xmlns="http://www.w3.org/2000/svg">
<rect width="98" height="98" fill="white"/>
<path d="M13.3362 77.4788C13.3362 79.3359 12.7834 80.9002 11.674 82.1665C10.5163 83.4933 9.01193 84.1594 7.17041 84.1594C5.324 84.1594 3.82452 83.4933 2.66674 82.1665C1.55688 80.9002 1 79.3359 1 77.4788C1 75.6166 1.55688 74.0528 2.66674 72.7911C3.83737 71.4767 5.34178 70.8198 7.17041 70.8198C9.01193 70.8198 10.5163 71.4767 11.674 72.7911C12.7834 74.0528 13.3362 75.6166 13.3362 77.4788ZM9.66967 77.4788C9.66967 76.6376 9.46814 75.9276 9.06468 75.3536C8.61325 74.7011 7.98151 74.377 7.17041 74.377C6.359 74.377 5.72751 74.7011 5.27563 75.3536C4.86799 75.9276 4.66626 76.6376 4.66626 77.4788C4.66626 78.3153 4.86799 79.0338 5.27563 79.6251C5.72751 80.2776 6.359 80.6022 7.17041 80.6022C7.98151 80.6022 8.61325 80.2776 9.06468 79.6251C9.46814 79.0338 9.66967 78.3153 9.66967 77.4788ZM26.5931 77.4788C26.5931 79.2135 26.0931 80.7292 25.0887 82.0259C24.0143 83.4452 22.6286 84.1594 20.9446 84.1594C19.756 84.1594 18.7477 83.8133 17.9232 83.13C17.9232 83.2874 17.9407 83.6686 17.9759 84.2781C18.0109 84.8908 18.0282 85.3902 18.0282 85.7846C18.0282 87.9625 17.3792 89.0486 16.0815 89.0486C15.5506 89.0486 15.1167 88.8602 14.7701 88.4877C14.4281 88.1113 14.2569 87.6592 14.2569 87.1254V72.9621C14.2569 72.4451 14.4324 71.998 14.7832 71.6217C15.1339 71.2492 15.5683 71.0612 16.0858 71.0612C16.8661 71.0612 17.4363 71.4502 17.7961 72.2263C18.5634 71.2888 19.6116 70.8198 20.9402 70.8198C22.6286 70.8198 24.0099 71.5204 25.0887 72.9271C26.0887 74.2284 26.5931 75.7441 26.5931 77.4788ZM22.9266 77.4788C22.9266 76.6376 22.721 75.9276 22.3175 75.3536C21.8653 74.7011 21.2341 74.377 20.4227 74.377C19.6116 74.377 18.9801 74.7011 18.5282 75.3536C18.1247 75.9276 17.9232 76.6376 17.9232 77.4788C17.9232 78.3153 18.1247 79.0338 18.5282 79.6251C18.9801 80.2776 19.6116 80.6022 20.4227 80.6022C21.2341 80.6022 21.8653 80.2776 22.3175 79.6251C22.721 79.0338 22.9266 78.3153 22.9266 77.4788ZM39.9331 77.0849C39.9331 77.6976 39.7883 78.1182 39.4988 78.3552C39.2095 78.5871 38.7579 78.7053 38.1483 78.7053H31.5307C31.5307 79.4063 31.8597 79.9449 32.5175 80.3213C33.0481 80.6154 33.6971 80.7647 34.4645 80.7647C35.0613 80.7647 35.7759 80.5668 36.6135 80.1775C37.4512 79.783 37.9903 79.5899 38.2232 79.5899C38.6483 79.5899 39.0078 79.7434 39.306 80.0588C39.5997 80.3701 39.7491 80.7467 39.7491 81.1806C39.7491 82.1833 38.9993 82.9639 37.499 83.5244C36.3546 83.9447 35.1925 84.1594 34.0044 84.1594C32.0924 84.1594 30.5486 83.5244 29.369 82.2586C28.1891 80.9922 27.5975 79.402 27.5975 77.4788C27.5975 75.6472 28.2112 74.0834 29.439 72.7785C30.6624 71.4723 32.1845 70.8198 33.9998 70.8198C35.6881 70.8198 37.1002 71.4376 38.2319 72.6729C39.3629 73.9086 39.9331 75.3803 39.9331 77.0849ZM36.2671 76.1644C36.2494 75.6035 35.9908 75.0955 35.4908 74.6351C34.9908 74.1754 34.4604 73.9479 33.8989 73.9479C33.3201 73.9479 32.7805 74.1754 32.2807 74.6351C31.781 75.0955 31.5307 75.6035 31.5307 76.1644H36.2671ZM52.2514 81.9948C52.2514 82.5298 52.0806 82.9807 51.7389 83.3575C51.3922 83.7303 50.9579 83.9187 50.4273 83.9187C49.1468 83.9187 48.5063 82.9022 48.5063 80.874C48.5063 80.484 48.5328 79.8709 48.5853 79.0253C48.6425 78.184 48.669 77.5664 48.669 77.1765C48.669 75.0251 47.9716 73.9479 46.5814 73.9479C45.1911 73.9479 44.4983 75.0251 44.4983 77.1765C44.4983 77.5664 44.5202 78.184 44.5596 79.0253C44.6036 79.8709 44.6254 80.484 44.6254 80.874C44.6254 82.9022 43.9939 83.9187 42.7312 83.9187C42.2003 83.9187 41.7664 83.7303 41.4242 83.3575C41.0778 82.9807 40.9067 82.5298 40.9067 81.9948V72.9582C40.9067 72.4271 41.0778 71.9767 41.4242 71.6129C41.7664 71.2448 42.2049 71.0612 42.7356 71.0612C43.6126 71.0612 44.2219 71.4502 44.5639 72.2263C45.1561 71.2888 46.204 70.8198 47.7039 70.8198C49.0941 70.8198 50.1993 71.1875 51.0107 71.9191C51.8395 72.7039 52.2514 73.7811 52.2514 75.1525V81.9948ZM63.754 81.6056C63.754 82.4334 63.2156 83.0902 62.1362 83.5727C61.2815 83.9621 60.3525 84.1622 59.4131 84.1594C57.5662 84.1594 56.0669 83.4933 54.9093 82.1665C53.7995 80.9002 53.2427 79.3359 53.2427 77.4788C53.2427 75.6166 53.8085 74.0443 54.9442 72.7562C56.0798 71.4641 57.5662 70.8198 59.4131 70.8198C60.4785 70.8198 61.3951 70.9775 62.1586 71.2888C63.2236 71.7093 63.754 72.3661 63.754 73.26C63.754 73.7109 63.6141 74.1096 63.3332 74.4559C63.0527 74.7976 62.6926 74.9729 62.2548 74.9729C61.9559 74.9729 61.526 74.8721 60.9652 74.6754C60.4038 74.4734 59.957 74.377 59.6283 74.377C58.7551 74.377 58.0752 74.688 57.5886 75.3099C57.1368 75.8708 56.9087 76.5893 56.9087 77.4788C56.9087 78.3153 57.1104 79.0253 57.5188 79.5991C57.9696 80.2696 58.6062 80.6022 59.4171 80.6022C59.7772 80.6022 60.2678 80.4971 60.895 80.2819C61.5226 80.0724 61.9743 79.9629 62.2548 79.9629C62.6627 79.9629 63.0129 80.1377 63.3117 80.4796C63.6056 80.8257 63.754 81.1977 63.754 81.6056ZM77.0812 81.9948C77.0812 82.5298 76.9103 82.9807 76.5681 83.3575C76.222 83.7303 75.7836 83.9187 75.2522 83.9187C74.4542 83.9187 73.8844 83.5285 73.5422 82.7532C72.7751 83.691 71.7266 84.1594 70.3982 84.1594C68.6972 84.1594 67.3025 83.4452 66.2231 82.0259C65.2409 80.7292 64.7463 79.2135 64.7463 77.4788C64.7463 75.7441 65.2409 74.2284 66.2231 72.9271C67.3199 71.5204 68.7096 70.8198 70.3982 70.8198C71.7266 70.8198 72.7751 71.2888 73.5422 72.2263C73.8844 71.4502 74.4542 71.0612 75.2522 71.0612C75.7702 71.0612 76.2045 71.2492 76.5557 71.6217C76.9059 71.998 77.0812 72.4407 77.0812 72.9582V81.9948ZM73.4152 77.4788C73.4152 76.6376 73.2139 75.9276 72.81 75.3536C72.3408 74.7011 71.7092 74.377 70.9157 74.377C70.1043 74.377 69.4732 74.7011 69.0209 75.3536C68.6135 75.9276 68.4123 76.6376 68.4123 77.4788C68.4123 78.3153 68.6085 79.0338 68.9985 79.6251C69.4643 80.2776 70.1043 80.6022 70.9157 80.6022C71.7266 80.6022 72.3582 80.2776 72.81 79.6251C73.2139 79.0338 73.4152 78.3153 73.4152 77.4788ZM86.4355 72.7165C86.4355 73.5007 86.054 74.0394 85.2909 74.3328C84.5851 74.5698 83.8827 74.8112 83.1814 75.06C82.4133 75.4986 82.0323 76.3133 82.0323 77.4963V81.9948C82.0323 82.5298 81.8565 82.9807 81.5153 83.3575C81.1681 83.7303 80.7298 83.9187 80.1993 83.9187C79.6648 83.9187 79.2255 83.7303 78.8843 83.3575C78.5371 82.9807 78.3663 82.5298 78.3663 81.9948V72.9582C78.3663 72.4271 78.5371 71.9767 78.8793 71.6129C79.2255 71.2448 79.6648 71.0612 80.1953 71.0612C81.072 71.0612 81.6811 71.4502 82.0238 72.2263C82.8088 71.2888 83.6511 70.8198 84.5587 70.8198C85.0757 70.8198 85.519 71.0078 85.8871 71.3803C86.2507 71.7571 86.4355 72.2039 86.4355 72.7165ZM96 72.8831C96 73.6978 95.6797 74.2104 95.0446 74.4299C94.7323 74.5392 94.0783 74.596 93.0831 74.596V81.9948C93.0831 82.5298 92.9078 82.9807 92.5666 83.3575C92.2194 83.7303 91.7811 83.9187 91.2506 83.9187C90.7336 83.9187 90.2943 83.7303 89.9431 83.3575C89.5929 82.9807 89.4176 82.5298 89.4176 81.9948V74.596C88.663 74.596 88.1151 74.4996 87.7689 74.3117C87.2957 74.0487 87.0616 73.5711 87.0616 72.8831C87.0616 72.1957 87.3032 71.7268 87.7898 71.4767C88.1191 71.2926 88.663 71.1967 89.4176 71.1967V69.6283C89.4176 67.7841 90.0263 66.8643 91.2506 66.8643C92.4695 66.8643 93.0831 67.7841 93.0831 69.6283V71.1967C94.0783 71.1967 94.7323 71.2535 95.0446 71.3628C95.6797 71.5818 96 72.0905 96 72.8831Z" fill="url(#paint0_linear)"/>
<path fill-rule="evenodd" clip-rule="evenodd" d="M49.5 60C64.6878 60 77 47.6878 77 32.5C77 17.3122 64.6878 5 49.5 5C34.3122 5 22 17.3122 22 32.5C22 47.6878 34.3122 60 49.5 60ZM60.7025 23.6809C69.5614 23.6809 72.9836 24.5036 73 26.3162V26.3424C72.9837 28.1415 69.6567 30.9068 64.9737 34.7991C63.2972 36.1925 61.447 37.7304 59.5126 39.4201C60.5694 37.6212 62.295 35.8761 63.8692 34.2841C68.3558 29.7466 71.6119 26.4537 54.6431 26.7095C34.9698 27.0012 31.8716 21.7832 29.7342 18.1833C29.4846 17.763 29.2482 17.3648 29 17C34.6431 22.8119 39.9166 23.6809 60.7025 23.6809ZM40.6525 48C42.3743 47.9996 43.7904 46.6135 43.7912 44.9287C43.7912 43.2265 42.3858 41.8499 40.6525 41.8499H40.6509C38.9258 41.8499 37.5073 43.2387 37.5073 44.9263V44.9287C37.5073 46.6238 38.9135 48 40.6525 48ZM54.9668 48C56.6886 47.9996 58.1047 46.6135 58.1055 44.9287C58.1055 43.2265 56.7001 41.8499 54.9668 41.8499H54.9652C53.2409 41.8499 51.8224 43.2387 51.8224 44.9263V44.9287C51.8224 46.6238 53.2295 48 54.9668 48Z" fill="url(#paint1_linear)"/>
<defs>
<linearGradient id="paint0_linear" x1="63.2266" y1="83.9981" x2="63.2266" y2="64.8789" gradientUnits="userSpaceOnUse">
<stop stop-color="#04B6F0"/>
<stop offset="1" stop-color="#3ECAF0"/>
</linearGradient>
<linearGradient id="paint1_linear" x1="58.0259" y1="47.4786" x2="58.0259" y2="0.0779323" gradientUnits="userSpaceOnUse">
<stop stop-color="#04B6F0"/>
<stop offset="1" stop-color="#3ECAF0"/>
</linearGradient>
</defs>
</svg>
