<svg width="98" height="98" viewBox="0 0 98 98" fill="none" xmlns="http://www.w3.org/2000/svg">
<g clip-path="url(#clip0)">
<rect width="98" height="98" fill="white"/>
<path fill-rule="evenodd" clip-rule="evenodd" d="M65.7775 10.4778C65.9615 10.4778 66.2067 10.6004 66.2373 10.8763C66.2476 10.9686 66.8891 15.3185 67.7372 21.0692V21.0693C69.4241 32.5074 71.9282 49.487 71.9079 49.5278L55.7238 53.0221L25.8999 47.4435C25.8999 47.4435 29.7313 17.8035 29.8846 16.7614C30.0685 15.382 30.0992 15.3514 31.5704 14.8916C31.6867 14.8418 32.2893 14.6569 33.2366 14.3662C34.037 14.1205 35.0835 13.7994 36.2908 13.4203C37.3023 9.12912 40.5513 0.699951 47.2947 0.699951C48.1529 0.699951 49.1951 1.19038 49.992 2.23253H50.2679C53.1798 2.23253 54.8043 4.7153 55.7545 7.44329C56.7047 7.13677 57.2871 6.95286 57.3177 6.95286C57.5629 6.89156 58.1453 6.79961 58.4518 7.10612C58.789 7.38199 61.5783 10.1713 61.5783 10.1713C61.5783 10.1713 65.5936 10.4778 65.7775 10.4778ZM51.5857 8.66945C52.4746 8.36293 53.3635 8.08707 54.0992 7.87251C53.4555 5.91081 52.5053 4.22497 50.9727 4.04106C51.3712 5.11387 51.5857 6.46253 51.5857 8.11772V8.66945ZM49.1028 4.37812C49.5013 5.42028 49.7772 6.89155 49.7772 8.91455V9.22107C49.1146 9.42966 48.4372 9.63826 47.7471 9.85078L47.7471 9.85081C46.7133 10.1692 45.6509 10.4964 44.5664 10.8456C45.5779 6.9835 47.509 5.08311 49.1028 4.37812ZM47.9999 2.78428C47.7546 2.60037 47.4481 2.47777 47.1416 2.47777C42.2987 2.47777 39.54 8.85328 38.4366 12.7767C39.1443 12.5463 39.8698 12.3247 40.6129 12.0977C41.2536 11.9019 41.9075 11.7022 42.5745 11.4893C43.5247 6.33986 45.8236 3.79578 47.9999 2.78428Z" fill="#95BF47"/>
<path fill-rule="evenodd" clip-rule="evenodd" d="M65.7778 10.4165C65.5939 10.4165 61.5785 10.11 61.5785 10.11C61.5785 10.11 58.7892 7.32067 58.4521 7.04481C58.3295 6.9222 58.1762 6.8609 58.0536 6.8609L55.816 53.0221L72 49.5278C72 49.5278 66.3295 11.1521 66.2989 10.8763C66.1763 10.6004 65.9617 10.4778 65.7778 10.4165Z" fill="#5E8E3E"/>
<path fill-rule="evenodd" clip-rule="evenodd" d="M50.2679 19.3667L48.3062 25.2824C48.3062 25.2824 46.5284 24.3322 44.4135 24.3322C41.2564 24.3322 41.1031 26.3246 41.1031 26.815C41.1031 29.5124 48.153 30.5545 48.153 36.8994C48.153 41.8956 44.9959 45.114 40.7353 45.114C35.5858 45.114 33.0111 41.9262 33.0111 41.9262L34.3904 37.3898C34.3904 37.3898 37.0878 39.7193 39.356 39.7193C40.8579 39.7193 41.4709 38.5546 41.4709 37.6963C41.4709 34.1714 35.7084 34.0181 35.7084 28.1943C35.7084 23.3207 39.2027 18.6004 46.2832 18.6004C48.9193 18.5698 50.2679 19.3667 50.2679 19.3667Z" fill="white"/>
<path fill-rule="evenodd" clip-rule="evenodd" d="M81.9762 67.5419H78.7535L78.9102 66.781C79.1787 65.1921 80.1187 63.8045 81.6852 63.8045C82.5133 63.8045 83.1623 64.0507 83.1623 64.0507L84.0574 60.4028C84.0574 60.4028 83.2742 60 81.5286 60C79.8949 60 78.2388 60.47 76.9855 61.5442C75.3966 62.887 74.658 64.834 74.3 66.8034L74.1657 67.5643H71.9949L71.3011 71.0779H73.4719L71.0102 84.058H75.6427L78.1045 71.0779H81.3048L81.9762 67.5419ZM20.0968 69.668C21.3277 68.191 22.939 67.2063 24.9979 67.2063C27.4373 67.2063 28.8025 68.7729 28.8248 71.436C28.8248 72.2641 28.6906 73.4726 28.4891 74.4796L26.6764 84.0581H22.0438L23.7894 74.7706C23.9461 74.1439 23.9909 73.3383 23.9909 72.7117C23.9909 71.7046 23.588 70.9884 22.5362 70.9884C21.0591 70.9884 19.4702 72.8907 18.8659 75.9567L17.3218 84.0581H12.6892L17.2099 60.3358H21.8424L20.0521 69.6457L20.0968 69.668ZM6.60196 72.2192C6.60196 72.9577 7.20621 73.5172 8.39233 74.1439C10.2051 75.1957 11.7045 76.5832 11.7493 78.5974C11.7493 82.29 8.72802 84.3489 4.56543 84.3489C1.70084 84.3489 0 83.2076 0 83.2076L1.14136 79.9178C1.14136 79.9178 2.99886 80.9249 4.94588 80.9249C6.26627 80.9249 6.98242 80.2087 6.98242 79.3359C6.98242 78.4855 6.49007 77.9036 5.05778 77.1203C3.31217 76.1133 1.99178 74.7034 1.99178 72.8459C1.99178 69.5784 4.8116 67.251 8.8623 67.251C11.7716 67.251 12.7563 68.0119 12.7563 68.0119L11.6821 71.3017C11.6821 71.3017 10.317 70.675 8.77278 70.675C7.45239 70.675 6.60196 71.2793 6.60196 72.2192ZM39.2987 67.2061C33.7038 67.2061 30.0112 72.2415 30.0112 77.8588C30.0112 81.4395 32.2267 84.3489 36.3893 84.3489C41.8723 84.3489 45.5649 79.4477 45.5649 73.6962C45.5873 70.3616 43.6627 67.2061 39.2987 67.2061ZM34.7779 77.7694C34.7779 79.4702 35.4269 80.813 37.0158 80.813C39.4552 80.813 40.8651 76.4266 40.8651 73.5844C40.8651 72.2193 40.3056 70.787 38.6719 70.787C36.143 70.787 34.7779 75.1062 34.7779 77.7694ZM57.4481 67.2061C54.3149 67.2061 52.547 69.9812 52.547 69.9812H52.5022L52.7708 67.4971H48.6529C48.4515 69.1755 48.071 71.7492 47.713 73.6514L44.5127 90.6375H49.1453L50.4433 83.767H50.5552C50.5552 83.767 51.5175 84.3712 53.2631 84.3712C58.7237 84.3712 62.2821 78.7764 62.2821 73.1367C62.2597 70.0036 60.8498 67.2061 57.4481 67.2061ZM51.0925 80.1639C51.0925 80.1639 51.8087 80.8577 53.0172 80.8577C55.6132 80.8577 57.4036 76.5832 57.3812 73.5843C57.3812 72.3535 56.956 71.0331 55.5237 71.0331C53.9124 71.0331 52.3905 72.9353 51.8534 75.8447L51.0925 80.1639ZM68.8841 60.5595C67.4071 60.5595 66.221 61.7457 66.221 63.2451C66.221 64.6102 67.0938 65.5726 68.4142 65.5726H68.4589C69.9136 65.5726 71.1445 64.5879 71.1668 62.887C71.1892 61.5219 70.2717 60.5595 68.8841 60.5595ZM67.0266 84.0356H62.394L65.5048 67.5642H70.1597L67.0266 84.0356ZM88.9586 78.8883C90.2343 74.8824 93.1436 67.5643 93.1436 67.5643V67.5419H98L92.3379 79.7387C90.3238 83.9013 88.3544 86.9673 86.2507 88.9367C84.617 90.4809 82.6476 91.2642 81.7077 91.4656L80.4096 87.5268C81.1929 87.2583 82.1776 86.8331 83.0504 86.2064C84.1246 85.4679 85.0422 84.4608 85.5793 83.409C85.7136 83.1852 85.736 82.9838 85.6912 82.6481L82.8938 67.5643H87.7725C87.7725 67.5643 88.8243 77.5903 88.9139 78.8883H88.9586Z" fill="black"/>
</g>
<defs>
<clipPath id="clip0">
<rect width="98" height="98" fill="white"/>
</clipPath>
</defs>
</svg>
