<svg width="98" height="98" viewBox="0 0 98 98" fill="none" xmlns="http://www.w3.org/2000/svg">
<g clip-path="url(#clip0)">
<rect width="98" height="98" fill="white"/>
<path d="M15.6025 51.3521C16.9025 52.6521 19.0066 52.6521 20.3066 51.3521L51.352 20.3067C55.7621 15.8966 62.9377 15.8966 67.3456 20.3043C68.6456 21.6044 70.7497 21.6044 72.0497 20.3043C73.3498 19.0043 73.3498 16.9003 72.0497 15.6002C65.0464 8.59682 53.6512 8.59916 46.6479 15.6026L15.6025 46.648C14.3024 47.948 14.3024 50.0519 15.6025 51.3521ZM30.6543 61.6998L61.6997 30.6544C62.9999 29.3543 62.9999 27.2503 61.6997 25.9502C60.3997 24.6502 58.2956 24.6502 56.9957 25.9502L25.9502 56.9956C21.54 61.4058 14.3645 61.4058 9.95661 56.998C5.54651 52.5879 5.54651 45.4122 9.95661 41.0021L34.9313 16.0275C36.2313 14.7273 36.2313 12.6234 34.9313 11.3233C33.6311 10.0233 31.5272 10.0233 30.2271 11.3233L5.2524 36.2979C-1.75088 43.3013 -1.75088 54.6987 5.2524 61.7021C12.2558 68.7055 23.651 68.7031 30.6543 61.6998ZM51.352 82.3975L82.3974 51.3521C83.6976 50.0519 83.6976 47.948 82.3974 46.648C81.0974 45.3479 78.9933 45.3479 77.6934 46.648L46.6479 77.6934C42.2378 82.1035 35.0622 82.1035 30.6543 77.6957C29.3543 76.3957 27.2502 76.3957 25.9502 77.6957C24.6501 78.9958 24.6501 81.0997 25.9502 82.3997C32.9535 89.4031 44.3487 89.4008 51.352 82.3975ZM67.7729 86.6767L92.7475 61.702C99.7508 54.6987 99.7508 43.3013 92.7475 36.2979C85.7441 29.2946 74.3489 29.2968 67.3456 36.3003L36.3002 67.3457C35 68.6457 35 70.7498 36.3002 72.0498C37.6002 73.3499 39.7043 73.3499 41.0043 72.0498L72.0497 41.0043C76.4599 36.5942 83.6354 36.5942 88.0433 41.0021C92.4534 45.4122 92.4534 52.5879 88.0433 56.998L63.0687 81.9726C61.7687 83.2726 61.7687 85.3767 63.0687 86.6767C64.3688 87.9768 66.4727 87.9768 67.7729 86.6767Z" fill="#222222"/>
</g>
<defs>
<clipPath id="clip0">
<rect width="98" height="98" fill="white"/>
</clipPath>
</defs>
</svg>
