<svg width="98" height="98" viewBox="0 0 98 98" fill="none" xmlns="http://www.w3.org/2000/svg">
<rect width="98" height="98" fill="white"/>
<path d="M52 43.704V76.8048H45.4409V41.4L52 43.704Z" fill="black"/>
<path d="M26.9215 40.7856C26.69 32.184 31.2428 27.7296 37.1845 27.7296C40.8113 27.7296 43.5893 28.8816 49.4538 31.6464C53.7751 33.72 56.9389 35.256 60.1798 35.256C63.2664 35.256 64.7326 32.7216 64.8097 28.0368H69.9798C70.4428 37.6368 65.5042 41.0928 60.1026 41.0928C56.6302 41.0928 53.5436 40.0944 47.6019 37.3296C43.5121 35.3328 40.3483 33.5664 37.2617 33.5664C34.1751 33.5664 32.2459 35.7168 32.1688 40.9392H26.9215V40.7856Z" fill="black"/>
<path fill-rule="evenodd" clip-rule="evenodd" d="M49.222 5C24.7899 5 5 24.7098 5 49.0032C5 73.2966 24.7899 93.0064 49.222 93.0064C73.6542 93.0064 93.4441 73.2966 93.4441 49.0032C93.4441 24.7098 73.6542 5 49.222 5ZM1 49.0032C1 22.4828 22.5987 1 49.222 1C75.8454 1 97.4441 22.4828 97.4441 49.0032C97.4441 75.5236 75.8454 97.0064 49.222 97.0064C22.5987 97.0064 1 75.5236 1 49.0032Z" fill="black"/>
</svg>
