<svg width="98" height="98" viewBox="0 0 98 98" fill="none" xmlns="http://www.w3.org/2000/svg">
<g clip-path="url(#clip0)">
<rect width="98" height="98" fill="white"/>
<path d="M11.8419 66.9543C17.1644 66.9543 20.3337 64.1959 22.4268 60.7623V66.28H26.9726V34.5872H22.4268V52.7325C22.4268 58.6782 18.4196 62.6647 13.1572 62.6647C7.71506 62.6647 4.60512 58.9857 4.60512 53.1003V34.5872H0V54.2655C0 61.8034 4.36596 66.9543 11.8419 66.9543Z" fill="#338FFF"/>
<path d="M72.8258 34.5872H68.3303V66.0552H72.8258V34.5872Z" fill="#212121"/>
<path d="M63.4101 34.8542H57.5805L40.639 52.4161V22H35.9637V66.0552H40.639V57.9077L47.0153 51.5107L58.2494 66.0552H63.8354L50.234 48.2524L63.4101 34.8542Z" fill="#212121"/>
<path d="M73.7248 22.8991H68.3303V28.2936H73.7248V22.8991Z" fill="#212121"/>
<path d="M88.1064 25.5963H83.4617V35.0565H79.1191V39.1797H83.4617V58.1001C83.4617 64.4674 87.264 66.9543 92.2692 66.9543C94.4998 66.9543 96.2512 66.4697 97.8786 65.62V61.6182C96.2503 62.4067 94.9233 62.7106 93.3553 62.7106C90.2193 62.7106 88.1064 61.3161 88.1064 57.495V39.1806H97.9999V35.0574H88.1064V25.5963Z" fill="#212121"/>
</g>
<defs>
<clipPath id="clip0">
<rect width="98" height="98" fill="white"/>
</clipPath>
</defs>
</svg>
