<svg width="98" height="98" viewBox="0 0 98 98" fill="none" xmlns="http://www.w3.org/2000/svg">
<rect width="98" height="98" fill="white"/>
<path d="M31.6442 43.3851C31.6442 41.6734 29.9347 39.8554 26.9764 39.8554C23.6543 39.8554 20.0049 42.2282 19.4472 46.9621C18.8774 51.7432 21.9327 53.8682 25.0122 53.8682C28.0918 53.8682 29.7043 52.6995 31.3532 51.1412C29.9347 49.4058 28.1039 50.2086 27.7523 50.3856C27.3643 50.5745 26.8673 50.8342 25.8488 50.8342C24.6606 50.8342 23.4482 50.3148 23.4482 48.1545C31.0622 47.4225 31.6442 45.0969 31.6442 43.3851ZM27.8736 43.6685C27.8251 44.1997 27.6068 45.1087 23.7513 45.6163C24.5637 42.8067 26.1156 42.5942 26.8309 42.5942C27.4977 42.5942 27.9221 43.1018 27.8736 43.6685ZM14.9734 44.1289C14.9734 44.1289 13.3366 49.1343 13.2033 49.5475C13.1548 49.1225 11.9545 40.1387 11.9545 40.1387C9.1659 40.1387 7.67463 42.0748 6.88655 44.1171C6.88655 44.1171 4.89818 49.1343 4.72844 49.5593C4.71632 49.1697 4.42534 44.1761 4.42534 44.1761C4.2556 41.6734 1.9035 40.1505 0 40.1505L2.3036 53.7619C5.22554 53.7501 6.80168 51.8259 7.62613 49.7836C7.62613 49.7836 9.38414 45.3566 9.45688 45.1559C9.46901 45.3448 10.7178 53.7619 10.7178 53.7619C13.6519 53.7619 15.228 51.9557 16.0767 49.9843L20.1868 40.1505C17.2891 40.1505 15.7615 42.0748 14.9734 44.1289ZM42.4105 39.8318C40.604 39.8318 39.2218 40.788 38.0579 42.1928V42.181L39.1006 34C36.7 34 34.748 36.0305 34.3721 39.0526L32.5535 53.6557C33.9357 53.6557 35.4027 53.2661 36.1908 52.2745C36.894 53.1599 37.9488 53.8682 39.5128 53.8682C43.5623 53.8682 46.3387 49.2878 46.3387 44.9907C46.3145 41.0713 44.3625 39.8318 42.4105 39.8318ZM42.0346 46.8559C41.6103 49.2523 40.2403 50.8815 38.9187 50.8815C37.5851 50.8815 37.0152 50.303 37.0152 50.303C37.2698 48.2017 37.4274 46.9149 37.9124 45.8052C38.3974 44.6955 39.5492 42.9247 40.7495 42.9247C41.9255 42.9247 42.459 44.4476 42.0346 46.8559ZM56.4503 40.1505H53.6254L53.6375 40.0089C53.8315 38.2145 54.268 37.27 55.7108 37.1166C56.6928 37.0221 57.1293 36.5263 57.2384 35.9833C57.3233 35.5583 57.59 34.0826 57.59 34.0826C51.9159 34.0472 50.1336 36.4319 49.6729 40.0679L49.6608 40.1505H49.6001C48.6787 40.1505 47.6603 41.1658 47.4905 42.4525L47.4299 42.9247H49.3213L47.733 55.698L47.2481 57.9882C47.3087 57.9882 47.3814 58 47.442 58C50.0972 57.9056 51.7946 55.8633 52.1705 52.9001L53.4072 42.9247H54.2922C55.1652 42.9247 56.1836 42.0748 56.3655 40.6581L56.4503 40.1505ZM71.1449 39.9144C67.8835 39.9144 64.8039 42.2518 63.8582 45.9233C62.9125 49.5947 64.3432 53.939 69.1444 53.939C73.9334 53.939 76.6978 49.4176 76.6978 45.6517C76.6978 41.9095 74.0911 39.9144 71.1449 39.9144ZM72.4664 46.7378C72.2967 48.4024 71.545 50.9287 69.4839 50.9287C67.4106 50.9287 67.7016 47.9774 67.9077 46.5726C68.1259 45.0733 68.9868 42.9365 70.8418 42.9365C72.5028 42.9365 72.6604 44.8608 72.4664 46.7378ZM92.8108 44.1289C92.8108 44.1289 91.1741 49.1343 91.0407 49.5475C90.9922 49.1225 89.7919 40.1387 89.7919 40.1387C87.0033 40.1387 85.5121 42.0748 84.724 44.1171C84.724 44.1171 82.7356 49.1343 82.5659 49.5593C82.5538 49.1697 82.2628 44.1761 82.2628 44.1761C82.093 41.6734 79.7409 40.1505 77.8374 40.1505L80.1289 53.7619C83.0509 53.7501 84.627 51.8259 85.4514 49.7836C85.4514 49.7836 87.2095 45.3566 87.2701 45.1559C87.2822 45.3448 88.531 53.7619 88.531 53.7619C91.4651 53.7619 93.0412 51.9557 93.8899 49.9843L98 40.1505C95.1144 40.1505 93.5868 42.0748 92.8108 44.1289ZM59.1177 34.0826L56.7413 52.7467L56.2563 55.0487C56.317 55.0487 56.3897 55.0605 56.4503 55.0605C59.0085 55.0251 60.8272 52.8411 61.1666 50.0905L62.5367 39.3832C62.9489 36.1131 60.9484 34.0826 59.1177 34.0826Z" fill="#4353FF"/>
</svg>
