<svg width="98" height="98" viewBox="0 0 98 98" fill="none" xmlns="http://www.w3.org/2000/svg">
<g clip-path="url(#clip0)">
<rect width="98" height="98" fill="white"/>
<path d="M56.3112 29.6943C54.274 30.7182 53.5464 32.4061 53.5464 37.0825C53.5464 37.0825 54.565 36.1416 56.0784 35.6159C57.1843 35.2562 58.1156 34.6751 58.6686 34.2877C60.3857 33.0979 60.6186 31.576 60.6186 29.0026C60.6186 29.0026 57.8246 28.9195 56.3112 29.6943Z" fill="#FFCB29"/>
<path d="M44.5633 30.8696C42.9908 32.283 42.5135 34.516 42.5135 34.516L37.2344 54.9247L32.882 38.1907C32.4607 36.4382 31.6745 34.2051 30.4671 32.7352C28.9507 30.8696 25.8338 30.7565 25.4968 30.7565C25.1599 30.7565 22.0149 30.8696 20.4705 32.7635C19.263 34.2616 18.4768 36.4664 18.0556 38.219L13.7032 54.953L8.48023 34.516C8.48023 34.516 8.03095 32.2547 6.43037 30.8696C3.84699 28.58 0 29.0605 0 29.0605L10.0246 67.3339C10.0246 67.3339 13.3381 67.5883 14.9948 66.712C17.157 65.6096 18.2241 64.7333 19.5438 59.504C20.7232 54.8682 24.0086 41.2435 24.3175 40.2542C24.4579 39.7737 24.6544 38.6147 25.4968 38.6147C26.3673 38.6147 26.5358 39.7454 26.6762 40.2542C26.9851 41.2153 30.2424 54.8682 31.4499 59.504C32.7696 64.7051 33.8086 65.5531 35.9989 66.712C37.6556 67.5883 40.9691 67.3339 40.9691 67.3339L50.9937 29.0888C50.9937 29.0888 47.1467 28.6083 44.5633 30.8696ZM60.2321 35.3075C60.2321 35.3075 59.6143 36.2686 58.1822 37.1166C57.2556 37.6254 56.3851 37.9929 55.4304 38.4451C53.8579 39.2083 53.4086 40.0846 53.4086 41.3849V67.3339C53.4086 67.3339 55.9639 67.6448 57.5926 66.8251C59.7267 65.7227 60.204 64.6768 60.2321 59.8997V35.3075ZM85.2797 48.282L98 29.1736C98 29.1736 92.6367 28.2408 89.9691 30.7C88.2562 32.2547 86.3467 35.0531 86.3467 35.0531L81.6854 41.8937C81.4327 42.2329 81.1799 42.6286 80.7026 42.6286C80.2252 42.6286 79.9163 42.2611 79.7198 41.8937L75.0023 35.0814C75.0023 35.0814 73.1209 32.283 71.3799 30.7283C68.7404 28.2691 63.349 29.2018 63.349 29.2018L76.0974 48.2538L63.349 67.2774C63.349 67.2774 68.965 68.0123 71.6046 65.5531C73.3175 63.9984 74.9742 61.4261 74.9742 61.4261L79.6355 54.6138C79.8883 54.2746 80.141 53.8789 80.6183 53.8789C81.0957 53.8789 81.4046 54.2463 81.6012 54.6138L86.2625 61.4261C86.2625 61.4261 88.0034 63.9419 89.6883 65.5531C92.3278 68.0123 97.8596 67.2774 97.8596 67.2774L85.2797 48.282Z" fill="#2E3133"/>
</g>
<defs>
<clipPath id="clip0">
<rect width="98" height="98" fill="white"/>
</clipPath>
</defs>
</svg>
