<svg width="98" height="98" viewBox="0 0 98 98" fill="none" xmlns="http://www.w3.org/2000/svg">
<g clip-path="url(#clip0)">
<rect width="98" height="98" fill="white"/>
<path fill-rule="evenodd" clip-rule="evenodd" d="M49.0013 6.86687C59.9924 6.86687 70 11.0787 77.5017 17.9746C73.8248 17.876 70.1555 20.0616 70.0038 25.0665C69.6945 35.1845 82.1025 37.3398 75.4166 57.6914L69.8861 74.5257L54.824 30.1568C54.5906 29.47 54.8619 29.0792 55.7062 29.0792H59.9645C60.1858 29.0792 60.3668 28.8902 60.3668 28.6588V26.1366C60.3668 25.9053 60.1854 25.7067 59.9645 25.7163C51.9003 26.0689 43.8835 26.0713 35.9151 25.7163C35.6931 25.7068 35.5129 25.906 35.5129 26.1375V28.6597C35.5129 28.8909 35.6939 29.0801 35.9151 29.0801H40.1968C41.1493 29.0801 41.4159 29.3974 41.6405 30.0114L47.8293 46.9366L38.5195 75.048L23.2164 29.9734C23.0266 29.408 23.2562 29.0798 23.8007 29.0798H28.6795C28.9007 29.0798 29.0816 28.8909 29.0816 28.6594V26.1372C29.0816 25.9059 28.9001 25.7054 28.6795 25.7169C23.5607 25.9888 18.4224 26.0435 13.6361 26.0927C21.147 14.5225 34.1794 6.86603 48.9987 6.86603L48.9987 6.86592L49.0013 6.86687ZM86.0582 28.9375C89.2958 34.9026 91.1343 41.737 91.1343 48.9989C91.1343 64.9366 82.2789 78.8083 69.2231 85.9685L82.3633 48.7503C84.3991 42.9903 86.2887 35.2059 86.0573 28.9375H86.0572H86.0582ZM63.1073 88.7081C58.6962 90.2771 53.9493 91.1328 49.0013 91.1328C44.7382 91.1328 40.625 90.4972 36.7471 89.3209L49.727 52.1236L63.1071 88.71L63.1073 88.7081ZM30.9719 87.0878C16.7234 80.3304 6.86744 65.8141 6.86744 49.0008C6.86744 42.768 8.2233 36.8512 10.6534 31.5279L30.9728 87.0886L30.9729 87.0885L30.9719 87.0878ZM49 2.91302C74.4477 2.91302 95.0858 23.5512 95.0858 48.9989C95.0858 74.4465 74.4477 95.0847 49 95.0847C23.5523 95.0847 2.91416 74.4465 2.91416 48.9989C2.91416 23.5512 23.5523 2.91302 49 2.91302ZM49 0C76.0565 0 98 21.9435 98 49C98 76.0565 76.0565 98 49 98C21.9435 98 0 76.0565 0 49C0 21.9435 21.9435 0 49 0Z" fill="#464342"/>
</g>
<defs>
<clipPath id="clip0">
<rect width="98" height="98" fill="white"/>
</clipPath>
</defs>
</svg>
