<svg width="31" height="30" viewBox="0 0 31 30" fill="none" xmlns="http://www.w3.org/2000/svg">
<g clip-path="url(#clip0)">
<path d="M15.576 29.9974C23.8602 29.9974 30.5758 23.2822 30.5758 14.9987C30.5758 6.71514 23.8602 0 15.576 0C7.29182 0 0.576172 6.71514 0.576172 14.9987C0.576172 23.2822 7.29182 29.9974 15.576 29.9974Z" fill="#41B4E6"/>
<path d="M30.5762 14.999C30.5762 14.6336 30.5624 14.2714 30.5367 13.9124L24.32 7.69629L6.83234 14.5746L13.5232 21.2651L13.611 21.581L13.7246 21.4664L13.7251 21.4669L13.611 21.581L21.0124 28.9818C26.6092 26.8046 30.5762 21.3654 30.5762 14.999Z" fill="#0091C8"/>
<path d="M14.1194 17.1843L20.8982 22.3019L24.32 7.69629L6.83228 14.5746L12.1536 16.337L21.8651 9.82332L14.1194 17.1843Z" fill="white"/>
<path d="M12.1536 16.337L13.611 21.581L14.1194 17.1842L21.8651 9.82324L12.1536 16.337Z" fill="#D2D2D7"/>
<path d="M16.3226 18.8473L13.611 21.5809L14.1194 17.1841L16.3226 18.8473Z" fill="#B9B9BE"/>
</g>
<defs>
<clipPath id="clip0">
<rect width="30" height="29.9977" fill="white" transform="translate(0.576172)"/>
</clipPath>
</defs>
</svg>
