<svg width="31" height="30" viewBox="0 0 31 30" fill="none" xmlns="http://www.w3.org/2000/svg">
<g clip-path="url(#clip0)">
<path d="M15.1655 29.9977C23.4498 29.9977 30.1655 23.2825 30.1655 14.9989C30.1655 6.71522 23.4498 0 15.1655 0C6.88126 0 0.165527 6.71522 0.165527 14.9989C0.165527 23.2825 6.88126 29.9977 15.1655 29.9977Z" fill="#6F3FAA"/>
<path d="M21.673 8.2286C18.0219 7.34683 14.3643 6.31543 10.62 7.62583C8.19579 8.53485 8.19579 11.1609 8.2968 13.383C8.2968 13.989 7.58975 14.797 7.89274 15.504C8.49877 17.5241 9.00385 19.5441 11.1251 20.5541C11.4281 20.7562 11.1251 21.1601 11.3271 21.4632C11.2261 21.4632 11.024 21.5642 11.024 21.6652C11.024 22.1493 11.2413 22.8898 11.097 23.3672L17.5427 29.8097C24.169 28.7545 29.348 23.3609 30.0767 16.6317L21.673 8.2286Z" fill="#512D84"/>
<path d="M23.1007 10.5415L23.0957 10.5217C22.695 8.90154 20.8881 7.16308 19.2287 6.80141L19.21 6.79754C16.526 6.28559 13.8047 6.28559 11.1213 6.79754L11.102 6.80141C9.44322 7.16308 7.63625 8.90166 7.23494 10.5217L7.23049 10.5415C6.73502 12.8041 6.73502 15.0986 7.23049 17.3612L7.23494 17.381C7.6192 18.932 9.29153 20.5906 10.889 21.0468V22.8553C10.889 23.5099 11.6867 23.8314 12.1404 23.359L13.9729 21.4543C14.3704 21.4765 14.7681 21.4889 15.1656 21.4889C16.5166 21.4889 17.8682 21.3611 19.2099 21.1052L19.2286 21.1014C20.888 20.7397 22.6949 19.0011 23.0957 17.3811L23.1006 17.3612C23.5961 15.0986 23.5961 12.8042 23.1007 10.5415ZM21.6504 17.0331C21.3828 18.0902 20.0109 19.4042 18.9208 19.647C17.4938 19.9184 16.0554 20.0343 14.6184 19.9945C14.5898 19.9937 14.5623 20.0049 14.5425 20.0254C14.3385 20.2346 13.2045 21.3988 13.2045 21.3988L11.7814 22.8593C11.6773 22.9678 11.4945 22.894 11.4945 22.7443V19.7482C11.4945 19.6987 11.4591 19.6567 11.4105 19.6471C11.4102 19.647 11.41 19.647 11.4097 19.6469C10.3196 19.4041 8.94816 18.0901 8.6801 17.0331C8.23414 14.988 8.23414 12.9147 8.6801 10.8696C8.94816 9.8126 10.3196 8.49856 11.4097 8.25577C13.902 7.78178 16.4291 7.78178 18.9209 8.25577C20.0115 8.49856 21.3829 9.8126 21.6505 10.8696C22.0969 12.9148 22.0969 14.988 21.6504 17.0331Z" fill="white"/>
<path d="M17.5368 18.416C17.3692 18.3651 17.2095 18.3309 17.0611 18.2695C15.5242 17.6318 14.1097 16.8092 12.9893 15.5483C12.3522 14.8313 11.8535 14.0218 11.432 13.1651C11.232 12.7588 11.0636 12.3367 10.8918 11.9172C10.7353 11.5347 10.9659 11.1396 11.2087 10.8514C11.4366 10.5808 11.7299 10.3739 12.0474 10.2213C12.2953 10.1022 12.5397 10.1709 12.7208 10.3809C13.1121 10.8351 13.4716 11.3125 13.7626 11.839C13.9416 12.1628 13.8925 12.5586 13.5681 12.779C13.4892 12.8326 13.4174 12.8955 13.3439 12.9559C13.2795 13.009 13.2189 13.0625 13.1747 13.1343C13.094 13.2656 13.0902 13.4206 13.1421 13.5633C13.5421 14.6625 14.2163 15.5174 15.3229 15.9778C15.5 16.0515 15.6777 16.1372 15.8818 16.1134C16.2234 16.0735 16.334 15.6988 16.5734 15.5031C16.8074 15.3118 17.1064 15.3092 17.3584 15.4687C17.6106 15.6283 17.8549 15.7995 18.0978 15.9726C18.3363 16.1426 18.5737 16.3087 18.7936 16.5024C19.0051 16.6887 19.0779 16.933 18.9588 17.1857C18.7408 17.6486 18.4236 18.0336 17.966 18.2794C17.8368 18.3487 17.6825 18.3711 17.5368 18.416C17.6825 18.3711 17.3692 18.3651 17.5368 18.416Z" fill="white"/>
<path d="M15.1697 9.6922C17.18 9.74856 18.8312 11.0826 19.185 13.0699C19.2453 13.4086 19.2668 13.7547 19.2936 14.0985C19.3049 14.243 19.223 14.3804 19.067 14.3823C18.9059 14.3842 18.8334 14.2493 18.8229 14.1049C18.8022 13.8189 18.7878 13.5315 18.7484 13.2479C18.5403 11.7504 17.3462 10.5116 15.8556 10.2458C15.6312 10.2057 15.4018 10.1952 15.1745 10.1714C15.0309 10.1563 14.8428 10.1477 14.811 9.96909C14.7843 9.8194 14.9106 9.70023 15.0532 9.69255C15.0918 9.69027 15.1308 9.69208 15.1697 9.6922C15.1308 9.69208 17.1801 9.74856 15.1697 9.6922Z" fill="white"/>
<path d="M18.2248 13.6526C18.2215 13.6777 18.2198 13.7367 18.205 13.7923C18.1517 13.994 17.8456 14.0193 17.7752 13.8157C17.7543 13.7553 17.7512 13.6865 17.7511 13.6215C17.7504 13.1958 17.6578 12.7704 17.4431 12.3999C17.2224 12.0192 16.8851 11.6992 16.4897 11.5055C16.2505 11.3884 15.9919 11.3156 15.7298 11.2723C15.6152 11.2533 15.4994 11.2419 15.3843 11.2258C15.2448 11.2064 15.1702 11.1175 15.1769 10.9801C15.1831 10.8513 15.2772 10.7586 15.4176 10.7666C15.8789 10.7927 16.3246 10.8926 16.7348 11.1097C17.5688 11.5514 18.0453 12.2485 18.1844 13.1794C18.1907 13.2217 18.2008 13.2634 18.204 13.3057C18.2119 13.4101 18.2168 13.5147 18.2248 13.6526C18.2168 13.5147 18.2215 13.6776 18.2248 13.6526Z" fill="white"/>
<path d="M16.9744 13.6038C16.8062 13.6069 16.7162 13.5137 16.6988 13.3596C16.6868 13.2522 16.6772 13.1432 16.6515 13.0386C16.601 12.8325 16.4915 12.6416 16.3182 12.5154C16.2364 12.4558 16.1437 12.4124 16.0466 12.3842C15.9232 12.3485 15.795 12.3584 15.672 12.3283C15.5384 12.2955 15.4644 12.1873 15.4855 12.0619C15.5046 11.9478 15.6156 11.8587 15.7403 11.8678C16.5197 11.9241 17.0768 12.327 17.1563 13.2445C17.162 13.3092 17.1685 13.3776 17.1542 13.4397C17.1294 13.5455 17.0509 13.5987 16.9744 13.6038C17.0509 13.5987 16.8062 13.6068 16.9744 13.6038Z" fill="white"/>
<path d="M23.1006 10.5417L23.0957 10.5219C22.8711 9.61374 22.2044 8.66846 21.3696 7.94922L20.2412 8.94922C20.9122 9.48385 21.4871 10.2245 21.6505 10.8698C22.097 12.915 22.097 14.9881 21.6505 17.0334C21.3829 18.0904 20.0109 19.4044 18.9209 19.6472C17.4938 19.9186 16.0554 20.0345 14.6185 19.9948C14.5899 19.9939 14.5624 20.0051 14.5425 20.0256C14.3386 20.2349 13.2046 21.399 13.2046 21.399L11.7814 22.8595C11.6774 22.968 11.4946 22.8943 11.4946 22.7445V19.7485C11.4946 19.6989 11.4592 19.6569 11.4106 19.6473C11.4103 19.6473 11.4101 19.6472 11.4098 19.6472C10.7903 19.5092 10.0802 19.0251 9.53313 18.439L8.41809 19.427C9.11448 20.1845 10.0127 20.7969 10.8889 21.0471V22.8556C10.8889 23.5102 11.6866 23.8317 12.1403 23.3593L13.9728 21.4546C14.3703 21.4768 14.7678 21.4893 15.1655 21.4893C16.5165 21.4893 17.8681 21.3615 19.2098 21.1056L19.2285 21.1017C20.8879 20.7401 22.6948 19.0016 23.0956 17.3814L23.1005 17.3616C23.596 15.0989 23.596 12.8044 23.1006 10.5417Z" fill="#D1D1D1"/>
<path d="M17.5163 18.402C17.603 18.375 17.4166 18.3714 17.5163 18.402V18.402Z" fill="white"/>
<path d="M18.7937 16.5026C18.5738 16.3089 18.3363 16.1427 18.0979 15.9728C17.855 15.7997 17.6107 15.6285 17.3585 15.4689C17.1065 15.3094 16.8075 15.3119 16.5735 15.5032C16.3341 15.699 16.2235 16.0737 15.8819 16.1136C15.6779 16.1373 15.5001 16.0516 15.323 15.978C14.6422 15.6947 14.1256 15.2617 13.7352 14.7148L12.9055 15.4501C12.9337 15.4828 12.9606 15.5163 12.9892 15.5485C14.1097 16.8094 15.5242 17.632 17.0611 18.2696C17.2094 18.3312 17.3691 18.3654 17.5367 18.4162C17.3691 18.3653 17.6825 18.3713 17.5367 18.4162C17.6825 18.3713 17.8367 18.3488 17.966 18.2795C18.4237 18.0337 18.7409 17.6486 18.9588 17.1858C19.078 16.9332 19.0052 16.6888 18.7937 16.5026Z" fill="#D1D1D1"/>
<path d="M15.1693 9.69238C15.171 9.69238 15.1727 9.69256 15.1744 9.69256C15.2859 9.69659 17.1004 9.74707 15.1693 9.69238Z" fill="white"/>
<path d="M18.0533 10.8882L17.6996 11.2017C18.2555 11.7425 18.6388 12.4592 18.7484 13.2479C18.7877 13.5316 18.8022 13.8189 18.8229 14.1049C18.8334 14.2495 18.9058 14.3843 19.067 14.3824C19.2231 14.3805 19.3049 14.2432 19.2936 14.0986C19.2667 13.7549 19.2454 13.4086 19.1851 13.0701C19.0302 12.2001 18.6267 11.4554 18.0533 10.8882Z" fill="#D1D1D1"/>
<path d="M18.1844 13.179C18.0831 12.5007 17.8016 11.9471 17.3342 11.5254L16.9814 11.838C17.1638 11.9998 17.3216 12.19 17.4432 12.3997C17.6579 12.7701 17.7504 13.1955 17.7511 13.6212C17.7513 13.6862 17.7544 13.755 17.7753 13.8155C17.8458 14.0192 18.1517 13.994 18.2051 13.7921C18.2198 13.7364 18.2215 13.6774 18.2249 13.6524C18.2215 13.6776 18.2168 13.5146 18.2249 13.6524C18.2168 13.5146 18.2119 13.4099 18.204 13.3054C18.2008 13.2629 18.1907 13.2212 18.1844 13.179Z" fill="#D1D1D1"/>
<path d="M18.2231 13.6299C18.2183 13.547 18.2211 13.6449 18.2231 13.6299V13.6299Z" fill="white"/>
<path d="M16.9505 13.6012C16.9521 13.6011 16.9536 13.6003 16.9552 13.6001C16.9508 13.6001 16.9441 13.6002 16.9371 13.6005C16.9416 13.6006 16.9457 13.6013 16.9505 13.6012Z" fill="white"/>
<path d="M16.95 13.6028C16.9455 13.6029 16.9415 13.6022 16.9372 13.6021C16.9155 13.6026 16.8932 13.6038 16.95 13.6028Z" fill="white"/>
<path d="M16.9565 13.6001C16.9542 13.6004 16.9521 13.602 16.95 13.6022C16.9667 13.6006 16.9652 13.6001 16.9565 13.6001Z" fill="white"/>
<path d="M16.6194 12.1587L16.2604 12.477C16.2802 12.489 16.2996 12.5015 16.3184 12.5152C16.4917 12.6414 16.6012 12.8323 16.6517 13.0384C16.6774 13.143 16.6869 13.2519 16.699 13.3594C16.7156 13.5067 16.7992 13.5972 16.9531 13.6025C16.9643 13.6022 16.9753 13.6019 16.9822 13.6019C17.0563 13.5937 17.1305 13.5418 17.1543 13.4393C17.1686 13.3774 17.1621 13.3089 17.1564 13.2442C17.1117 12.7312 16.9178 12.3793 16.6194 12.1587Z" fill="#D1D1D1"/>
</g>
<defs>
<clipPath id="clip0">
<rect width="30" height="29.9977" fill="white" transform="translate(0.165527)"/>
</clipPath>
</defs>
</svg>
