<svg width="30" height="31" viewBox="0 0 30 31" fill="none" xmlns="http://www.w3.org/2000/svg">
<g clip-path="url(#clip0)">
<path d="M15 30.7046C23.2843 30.7046 30 23.9889 30 15.7046C30 7.42032 23.2843 0.70459 15 0.70459C6.71573 0.70459 0 7.42032 0 15.7046C0 23.9889 6.71573 30.7046 15 30.7046Z" fill="#75B73B"/>
<path d="M21.1079 9.6006C20.2382 9.3831 18.9592 8.63193 18.1314 8.33081C14.899 7.32072 10.5556 8.12878 9.34347 11.8662C9.24245 11.9672 9.04042 11.9672 8.9394 11.9672C6.51515 14.7955 8.13134 18.2298 7.92931 21.3611C7.86034 22.465 7.27991 23.441 6.53296 24.2667L12.819 30.5462C13.5312 30.6499 14.2591 30.7046 15 30.7046C22.4084 30.7046 28.5617 25.3336 29.7801 18.2732L21.1079 9.6006Z" fill="#52891D"/>
<path d="M14.5802 7.05884C10.0082 7.27634 6.40033 11.084 6.4141 15.661C6.41832 17.0551 6.75488 18.371 7.34867 19.5338L6.43713 23.9584C6.38785 24.1979 6.60371 24.4075 6.84148 24.3511L11.1771 23.3239C12.2911 23.8789 13.5422 24.1993 14.8663 24.2195C19.5393 24.2909 23.4357 20.5805 23.5815 15.9092C23.7375 10.9019 19.6049 6.81949 14.5802 7.05884ZM19.7537 20.3883C18.484 21.6579 16.7957 22.3573 15 22.3573C13.9485 22.3573 12.9418 22.1213 12.0078 21.6561L11.4042 21.3553L8.74578 21.985L9.30529 19.2688L9.00793 18.6862C8.52301 17.7367 8.27715 16.71 8.27715 15.6344C8.27715 13.8387 8.97646 12.1505 10.2461 10.8807C11.5045 9.62226 13.2203 8.91175 15.0001 8.91175C16.7956 8.91175 18.4839 9.61107 19.7536 10.8807C21.0233 12.1504 21.7226 13.8387 21.7226 15.6343C21.7227 17.4141 21.0121 19.1299 19.7537 20.3883Z" fill="white"/>
<path d="M19.1669 17.4965L17.5038 17.019C17.2853 16.9564 17.0497 17.0184 16.8904 17.1807L16.4837 17.595C16.3122 17.7698 16.0521 17.8259 15.8251 17.7341C15.0383 17.4157 13.3833 15.9441 12.9609 15.2083C12.8388 14.996 12.859 14.7307 13.0088 14.5367L13.3638 14.0774C13.5029 13.8975 13.5322 13.6557 13.4402 13.4477L12.7406 11.8652C12.573 11.4862 12.0887 11.3758 11.7722 11.6435C11.3081 12.0361 10.7574 12.6326 10.6905 13.2935C10.5724 14.4587 11.0722 15.9275 12.9617 17.6912C15.1447 19.729 16.893 19.998 18.0314 19.7223C18.6771 19.5661 19.193 18.9392 19.5185 18.4259C19.7406 18.0757 19.565 17.6109 19.1669 17.4965Z" fill="white"/>
<path d="M20.8596 9.35938L19.5575 10.694C19.6237 10.7553 19.6897 10.8168 19.7538 10.881C21.0236 12.1507 21.7228 13.839 21.7228 15.6345C21.7228 17.4143 21.0122 19.13 19.7538 20.3885C18.4842 21.6581 16.7958 22.3575 15.0001 22.3575C13.9487 22.3575 12.942 22.1215 12.008 21.6563L11.4043 21.3555L8.74594 21.9852L8.8009 21.7184L6.44696 24.1309C6.49887 24.2869 6.66405 24.3931 6.84153 24.351L11.1772 23.3239C12.2911 23.8788 13.5422 24.1992 14.8663 24.2194C19.5394 24.2909 23.4359 20.5805 23.5816 15.9092C23.6621 13.3232 22.5988 10.984 20.8596 9.35938Z" fill="#D1D1D1"/>
<path d="M19.1669 17.4965L17.5038 17.019C17.2853 16.9564 17.0498 17.0185 16.8904 17.1808L16.4837 17.595C16.3122 17.7699 16.0521 17.8259 15.8251 17.7341C15.3706 17.5502 14.6268 16.9815 13.9978 16.3921L12.8417 17.5771C12.8813 17.6151 12.9209 17.653 12.9618 17.6913C15.1448 19.729 16.8931 19.9981 18.0315 19.7224C18.6771 19.5661 19.1931 18.9393 19.5185 18.4259C19.7406 18.0757 19.5651 17.611 19.1669 17.4965Z" fill="#D1D1D1"/>
</g>
<defs>
<clipPath id="clip0">
<rect width="30" height="30" fill="white" transform="translate(0 0.70459)"/>
</clipPath>
</defs>
</svg>
