<svg width="840" height="840" viewBox="0 0 840 840" fill="none" xmlns="http://www.w3.org/2000/svg">
<g clip-path="url(#clip0)">
<g opacity="0.3">
<path d="M819.866 35.4239C819.391 35.4239 818.976 35.2687 818.695 34.9888L783.487 -0.217394L748.956 34.3119C748.676 34.5903 748.263 34.7439 747.786 34.7439C747.187 34.7439 746.567 34.496 746.165 34.0959C745.473 33.3993 745.226 32.0272 745.949 31.3047L780.481 -3.2216L745.954 -37.754C745.674 -38.0339 745.518 -38.4461 745.518 -38.9192C745.518 -39.52 745.766 -40.1406 746.168 -40.5407C746.567 -40.9407 747.186 -41.1887 747.783 -41.1887C748.261 -41.1887 748.678 -41.035 748.961 -40.7536L783.487 -6.2258L818.696 -41.4351C818.976 -41.7165 819.39 -41.8701 819.863 -41.8701C820.465 -41.8701 821.086 -41.6207 821.483 -41.2221C821.886 -40.8221 822.136 -40.2015 822.136 -39.6021C822.134 -39.1275 821.98 -38.7123 821.699 -38.4324L786.494 -3.22464L821.697 31.9862C822.125 32.4121 822.149 33.0053 822.125 33.3217C822.084 33.8708 821.845 34.4139 821.483 34.7774C821.086 35.1744 820.465 35.4239 819.866 35.4239Z" fill="#384548"/>
<path d="M565.64 -35.2924H526.132V30.7049C526.132 31.5304 525.395 32.2004 524.486 32.2004C523.576 32.2004 522.839 31.5304 522.839 30.7049V-35.2924H510.345C509.517 -35.2924 508.847 -36.0288 508.847 -36.9386C508.847 -37.8484 509.517 -38.5848 510.345 -38.5848H582.249C583.077 -38.5848 583.747 -37.8484 583.747 -36.9386C583.747 -36.0288 583.077 -35.2924 582.249 -35.2924H568.618V16.8505C568.618 17.7434 569.154 21.5558 571.776 23.8865C573.66 25.56 576.299 26.2084 579.611 25.8106C580.432 25.7062 581.17 26.2959 581.267 27.1142C581.366 27.9326 580.782 28.6744 579.966 28.7718C579.208 28.8623 578.476 28.908 577.77 28.908C574.561 28.908 571.887 27.9743 569.799 26.1169C566.386 23.0851 565.64 18.3997 565.64 16.8505V-35.2924Z" fill="#384548"/>
<path d="M238.298 49.7C237.714 49.7 237.199 49.6101 236.954 49.0805L221.251 15.1543H211.467C210.454 15.1543 210 14.4344 210 13.7213C210 13.0072 210.454 12.2864 211.467 12.2864H222.199C222.229 12.2864 222.26 12.2854 222.294 12.2841C222.322 12.2829 222.352 12.2814 222.382 12.2799L222.384 12.2798C222.768 12.2602 223.296 12.2334 223.541 12.7663L238.17 44.4192L267.769 -32.8983C267.977 -33.4413 268.505 -33.6 269.151 -33.6H326.833C327.845 -33.6 328.3 -32.8802 328.3 -32.167C328.3 -31.4529 327.845 -30.7321 326.833 -30.7321H270.165L239.677 49.0041C239.458 49.5805 238.929 49.7 238.298 49.7Z" fill="#384548"/>
<path d="M379.764 120.4C378.858 120.4 378.017 119.662 378.017 118.712V93.8H353.106C352.156 93.8 351.417 92.9596 351.417 92.0538C351.417 91.148 352.156 90.3076 353.106 90.3076H378.017V65.3882C378.017 64.4381 378.858 63.7 379.764 63.7C380.669 63.7 381.51 64.4381 381.51 65.3882V90.3076H406.429C407.379 90.3076 408.117 91.148 408.117 92.0538C408.117 92.9596 407.379 93.8 406.429 93.8H381.51V118.712C381.51 119.662 380.669 120.4 379.764 120.4Z" fill="#384548"/>
<path d="M60.7186 160.872H104.546L104.562 160.879L104.577 160.885C104.582 160.888 104.587 160.891 104.592 160.894L104.602 160.901C104.632 160.919 104.675 160.943 104.73 160.963C104.786 160.982 104.859 161 104.946 161C105.008 161 105.086 160.998 105.172 160.977C105.208 160.969 105.238 160.959 105.248 160.956L105.256 160.953C105.283 160.946 105.335 160.929 105.391 160.898C105.427 160.879 105.519 160.824 105.595 160.714C105.637 160.653 105.676 160.571 105.692 160.469C105.707 160.373 105.698 160.282 105.673 160.2V150.929C105.673 150.699 105.542 150.555 105.519 150.529L105.518 150.528C105.476 150.482 105.436 150.452 105.419 150.439C105.38 150.412 105.345 150.392 105.328 150.384C105.289 150.363 105.247 150.344 105.212 150.329C105.139 150.298 105.048 150.262 104.959 150.23C104.87 150.197 104.774 150.165 104.692 150.139C104.651 150.126 104.608 150.114 104.567 150.104L104.564 150.103C104.54 150.097 104.457 150.076 104.366 150.076C103.994 150.076 103.648 150.24 103.404 150.442C103.17 150.634 102.906 150.965 102.906 151.389V158.117H63.2957L83.9893 131.35L84.0543 131.2C84.2865 130.991 84.5582 130.615 84.5582 130.082C84.5582 129.928 84.532 129.732 84.4698 129.561L84.4375 129.472L64.1368 103.555H102.906V109.194C102.906 109.618 103.17 109.949 103.403 110.141C103.648 110.342 103.994 110.507 104.366 110.507C104.423 110.507 104.611 110.502 104.782 110.494C104.867 110.489 104.959 110.484 105.034 110.477C105.046 110.475 105.06 110.474 105.074 110.472C105.102 110.469 105.132 110.465 105.162 110.459C105.181 110.455 105.23 110.445 105.286 110.423C105.311 110.413 105.374 110.387 105.442 110.334C105.499 110.29 105.673 110.135 105.673 109.863V100.8H62.0507C61.7389 100.8 61.4917 100.946 61.3239 101.092C61.1545 101.24 61.022 101.424 60.9222 101.601C60.7285 101.945 60.5906 102.383 60.5906 102.749C60.5906 103.054 60.689 103.273 60.7994 103.452L60.8104 103.47L60.9262 103.631L81.4302 130.316L59.7762 158.524C59.6099 158.741 59.5285 159.004 59.5062 159.245C59.4841 159.484 59.5155 159.752 59.6288 159.997C59.7274 160.223 59.8689 160.419 60.0282 160.567C60.1654 160.694 60.41 160.872 60.7186 160.872Z" fill="#384548"/>
<path fill-rule="evenodd" clip-rule="evenodd" d="M705.994 192.1C704.721 192.1 703.481 191.858 702.307 191.382C701.089 190.889 699.999 190.165 699.064 189.23C698.128 188.292 697.403 187.202 696.912 185.988C696.436 184.812 696.194 183.571 696.194 182.3C696.194 181.028 696.436 179.787 696.912 178.612C697.405 177.394 698.129 176.304 699.064 175.371C700 174.435 701.09 173.71 702.306 173.218C703.482 172.742 704.722 172.5 705.994 172.5C707.266 172.5 708.506 172.742 709.682 173.218C710.899 173.711 711.989 174.434 712.923 175.37C713.859 176.305 714.583 177.395 715.076 178.613C715.552 179.786 715.794 181.027 715.794 182.3C715.794 183.571 715.552 184.812 715.075 185.989C714.582 187.206 713.858 188.296 712.924 189.228C711.99 190.164 710.9 190.889 709.684 191.382C708.507 191.858 707.266 192.1 705.994 192.1ZM705.994 175.061C705.052 175.061 704.135 175.24 703.268 175.592C702.373 175.956 701.569 176.489 700.879 177.178C700.184 177.875 699.648 178.681 699.286 179.574C698.933 180.445 698.755 181.363 698.756 182.303C698.756 183.242 698.934 184.157 699.285 185.024C699.652 185.923 700.186 186.728 700.874 187.417C701.566 188.108 702.37 188.643 703.266 189.007C704.137 189.36 705.054 189.538 705.994 189.538C706.937 189.538 707.855 189.36 708.72 189.008C709.615 188.644 710.417 188.111 711.109 187.422C711.804 186.724 712.34 185.918 712.702 185.025C713.054 184.159 713.233 183.242 713.233 182.3C713.233 181.358 713.054 180.44 712.702 179.574C712.34 178.681 711.806 177.878 711.115 177.185C710.419 176.491 709.615 175.956 708.723 175.592C707.85 175.24 706.933 175.061 705.994 175.061Z" fill="#384548"/>
<path d="M696.841 234.748C696.481 234.748 696.142 234.612 695.888 234.364C695.363 233.853 695.363 233.019 695.888 232.507L746.606 183.106C746.86 182.858 747.2 182.722 747.559 182.722C747.92 182.722 748.258 182.858 748.512 183.106C748.768 183.355 748.908 183.684 748.908 184.033C748.908 184.385 748.768 184.714 748.512 184.962L697.794 234.364C697.539 234.612 697.201 234.748 696.841 234.748Z" fill="#384548"/>
<path fill-rule="evenodd" clip-rule="evenodd" d="M739.102 242.2C737.755 242.2 736.441 241.955 735.196 241.471C733.908 240.971 732.753 240.236 731.762 239.285C730.771 238.337 730.004 237.23 729.482 235.994C728.978 234.8 728.721 233.541 728.721 232.25C728.721 230.959 728.978 229.7 729.482 228.505C730.004 227.269 730.77 226.162 731.759 225.216C732.752 224.265 733.908 223.529 735.196 223.028C736.44 222.545 737.755 222.3 739.102 222.3C740.449 222.3 741.764 222.545 743.008 223.028C744.298 223.529 745.453 224.264 746.441 225.212C747.433 226.163 748.201 227.271 748.723 228.506C749.227 229.697 749.483 230.957 749.483 232.25C749.483 233.541 749.226 234.801 748.722 235.995C748.201 237.229 747.434 238.336 746.444 239.284C745.453 240.235 744.298 240.971 743.009 241.471C741.763 241.955 740.449 242.2 739.102 242.2ZM739.103 224.899C738.106 224.899 737.135 225.08 736.217 225.437C735.267 225.807 734.415 226.35 733.683 227.05C732.95 227.754 732.384 228.571 731.998 229.482C731.625 230.359 731.435 231.291 731.435 232.249C731.435 233.207 731.625 234.139 732 235.02C732.382 235.925 732.947 236.74 733.677 237.443C734.414 238.147 735.267 238.69 736.212 239.059C737.135 239.416 738.107 239.598 739.102 239.598C740.101 239.598 741.073 239.417 741.99 239.06C742.939 238.689 743.791 238.147 744.522 237.448C745.254 236.747 745.82 235.931 746.208 235.019C746.581 234.135 746.771 233.203 746.771 232.249C746.771 231.295 746.581 230.364 746.209 229.483C745.821 228.569 745.254 227.751 744.522 227.051C743.792 226.351 742.942 225.81 741.994 225.439C741.073 225.081 740.101 224.899 739.103 224.899Z" fill="#384548"/>
<path fill-rule="evenodd" clip-rule="evenodd" d="M394.423 702.013C393.15 702.013 391.91 701.771 390.736 701.295C389.518 700.802 388.428 700.078 387.493 699.143C386.556 698.205 385.832 697.115 385.341 695.901C384.865 694.725 384.623 693.484 384.623 692.213C384.623 690.942 384.865 689.701 385.341 688.525C385.834 687.307 386.558 686.217 387.492 685.284C388.429 684.348 389.519 683.623 390.735 683.131C391.911 682.655 393.151 682.413 394.423 682.413C395.695 682.413 396.935 682.655 398.111 683.131C399.328 683.624 400.418 684.347 401.352 685.283C402.288 686.218 403.012 687.308 403.505 688.526C403.981 689.699 404.223 690.94 404.223 692.213C404.223 693.484 403.981 694.725 403.504 695.902C403.011 697.119 402.287 698.209 401.353 699.141C400.419 700.077 399.328 700.802 398.113 701.295C396.936 701.771 395.695 702.013 394.423 702.013ZM394.423 684.974C393.481 684.974 392.563 685.153 391.697 685.505C390.802 685.869 389.998 686.402 389.308 687.092C388.613 687.788 388.077 688.594 387.715 689.487C387.362 690.358 387.184 691.276 387.184 692.216C387.184 693.155 387.363 694.07 387.714 694.938C388.081 695.837 388.615 696.641 389.303 697.33C389.995 698.021 390.799 698.556 391.694 698.92C392.566 699.273 393.483 699.451 394.423 699.451C395.366 699.451 396.284 699.273 397.149 698.921C398.043 698.557 398.846 698.024 399.538 697.335C400.233 696.637 400.769 695.831 401.13 694.938C401.483 694.072 401.661 693.155 401.661 692.213C401.661 691.271 401.483 690.353 401.13 689.487C400.769 688.594 400.235 687.791 399.544 687.098C398.848 686.404 398.043 685.869 397.151 685.505C396.279 685.153 395.362 684.974 394.423 684.974Z" fill="#384548"/>
<path d="M385.27 744.661C384.909 744.661 384.571 744.525 384.317 744.277C383.792 743.766 383.792 742.932 384.317 742.42L435.035 693.019C435.289 692.771 435.628 692.635 435.988 692.635C436.349 692.635 436.687 692.771 436.941 693.019C437.197 693.268 437.337 693.597 437.337 693.947C437.337 694.298 437.197 694.627 436.941 694.875L386.223 744.277C385.968 744.525 385.63 744.661 385.27 744.661Z" fill="#384548"/>
<path fill-rule="evenodd" clip-rule="evenodd" d="M427.531 752.113C426.184 752.113 424.87 751.868 423.624 751.384C422.337 750.884 421.182 750.149 420.191 749.198C419.2 748.25 418.433 747.143 417.911 745.907C417.407 744.713 417.15 743.454 417.15 742.163C417.15 740.872 417.407 739.613 417.911 738.418C418.433 737.182 419.199 736.075 420.188 735.129C421.181 734.178 422.337 733.442 423.624 732.941C424.869 732.458 426.183 732.213 427.531 732.213C428.878 732.213 430.193 732.458 431.437 732.941C432.727 733.442 433.882 734.177 434.87 735.125C435.862 736.076 436.629 737.184 437.152 738.419C437.656 739.61 437.911 740.87 437.911 742.163C437.911 743.454 437.655 744.714 437.151 745.908C436.629 747.142 435.863 748.249 434.873 749.197C433.882 750.148 432.727 750.884 431.438 751.384C430.192 751.868 428.878 752.113 427.531 752.113ZM427.532 734.813C426.535 734.813 425.564 734.993 424.646 735.35C423.696 735.72 422.844 736.263 422.112 736.963C421.379 737.667 420.813 738.485 420.427 739.395C420.054 740.273 419.864 741.204 419.864 742.162C419.864 743.12 420.054 744.052 420.429 744.933C420.811 745.838 421.376 746.653 422.106 747.356C422.843 748.06 423.696 748.603 424.641 748.972C425.564 749.329 426.536 749.511 427.531 749.511C428.53 749.511 429.502 749.33 430.419 748.973C431.368 748.602 432.22 748.06 432.95 747.361C433.682 746.66 434.249 745.844 434.636 744.933C435.009 744.048 435.2 743.116 435.2 742.162C435.2 741.208 435.01 740.277 434.638 739.397C434.25 738.482 433.682 737.664 432.95 736.964C432.221 736.265 431.371 735.723 430.423 735.353C429.502 734.994 428.529 734.813 427.532 734.813Z" fill="#384548"/>
<path d="M73.4996 337.112C73.4996 338.062 74.3404 338.8 75.2458 338.8C76.1513 338.8 76.992 338.062 76.992 337.112V312.2H101.911C102.861 312.2 103.6 311.36 103.6 310.454C103.6 309.548 102.861 308.708 101.911 308.708H76.992V283.788C76.992 282.838 76.1516 282.1 75.2458 282.1C74.34 282.1 73.4996 282.838 73.4996 283.788V308.708H48.5878C47.6377 308.708 46.8996 309.548 46.8996 310.454C46.8996 311.36 47.6377 312.2 48.5878 312.2H73.4996V337.112Z" fill="#384548"/>
<path d="M447.354 508.749H396.222C395.862 508.749 395.576 508.541 395.416 508.391C395.231 508.218 395.065 507.987 394.95 507.722C394.818 507.434 394.782 507.12 394.807 506.839C394.833 506.556 394.928 506.247 395.122 505.992L395.122 505.992L420.385 472.864L396.464 441.524L396.329 441.335L396.316 441.314C396.187 441.105 396.072 440.848 396.072 440.489C396.072 440.059 396.233 439.545 396.459 439.141C396.576 438.933 396.73 438.716 396.928 438.543C397.124 438.371 397.412 438.2 397.776 438.2H448.668V448.844C448.668 449.164 448.465 449.345 448.399 449.397C448.377 449.414 448.356 449.429 448.335 449.442L448.324 449.449C448.317 449.453 448.31 449.457 448.304 449.461C448.285 449.471 448.268 449.479 448.254 449.486C448.248 449.489 448.242 449.491 448.237 449.493C448.229 449.497 448.222 449.5 448.217 449.502C448.152 449.527 448.094 449.539 448.073 449.543C448.019 449.554 447.963 449.56 447.923 449.564C447.836 449.573 447.728 449.579 447.629 449.584C447.429 449.594 447.211 449.6 447.144 449.6C446.71 449.6 446.306 449.407 446.021 449.17C445.749 448.944 445.44 448.555 445.44 448.058V441.436H400.21L423.894 471.873L423.932 471.978C424.004 472.179 424.035 472.408 424.035 472.59C424.035 473.215 423.718 473.657 423.447 473.903L423.371 474.079L399.228 505.514H445.44V497.612C445.44 497.114 445.749 496.725 446.021 496.5C446.307 496.263 446.71 496.071 447.144 496.071C447.201 496.071 447.257 496.078 447.299 496.086C447.307 496.087 447.314 496.089 447.321 496.09C447.329 496.092 447.337 496.093 447.344 496.095C447.356 496.098 447.365 496.1 447.371 496.101L447.375 496.102L447.378 496.103C447.402 496.109 447.428 496.116 447.453 496.123C447.477 496.13 447.501 496.137 447.524 496.145C447.62 496.175 447.732 496.213 447.836 496.251C447.939 496.29 448.046 496.331 448.131 496.368C448.154 496.378 448.179 496.389 448.205 496.401C448.225 496.411 448.246 496.421 448.266 496.432C448.286 496.442 448.327 496.465 448.372 496.498C448.392 496.512 448.439 496.547 448.487 496.601L448.489 496.603C448.516 496.633 448.668 496.802 448.668 497.072V507.961C448.698 508.056 448.709 508.164 448.691 508.276C448.673 508.396 448.626 508.493 448.577 508.564C448.489 508.693 448.381 508.757 448.34 508.78C448.274 508.817 448.214 508.836 448.182 508.845L448.174 508.847L448.172 508.848C448.161 508.852 448.126 508.863 448.085 508.873C447.983 508.897 447.892 508.9 447.82 508.9C447.719 508.9 447.633 508.879 447.568 508.856C447.504 508.833 447.454 508.805 447.419 508.784L447.407 508.776C447.401 508.772 447.395 508.768 447.39 508.764L447.372 508.757L447.354 508.749Z" fill="#384548"/>
<path d="M463.31 275.1C462.976 275.1 462.683 274.99 462.485 274.793L437.674 249.983L413.339 274.316C413.142 274.512 412.851 274.621 412.515 274.621C412.093 274.621 411.655 274.446 411.372 274.164C410.885 273.673 410.711 272.706 411.22 272.197L435.555 247.866L411.223 223.531C411.026 223.333 410.917 223.043 410.917 222.709C410.917 222.286 411.091 221.849 411.374 221.567C411.655 221.285 412.092 221.11 412.513 221.11C412.849 221.11 413.143 221.218 413.343 221.417L437.674 245.749L462.486 220.936C462.683 220.738 462.975 220.63 463.308 220.63C463.733 220.63 464.17 220.806 464.45 221.087C464.734 221.368 464.91 221.806 464.91 222.228C464.908 222.563 464.8 222.855 464.602 223.052L439.793 247.864L464.601 272.677C464.902 272.977 464.919 273.395 464.902 273.618C464.873 274.005 464.705 274.388 464.45 274.644C464.17 274.924 463.733 275.1 463.31 275.1Z" fill="#384548"/>
<path d="M202.114 221.2C201.058 221.2 200.2 220.032 200.2 218.973C200.2 217.913 201.058 216.747 202.114 216.747H206.238C209.194 216.747 212.126 216.114 214.715 214.685C217.256 213.279 219.43 211.307 221.003 208.867C222.08 207.195 222.864 205.39 223.33 203.441L235.647 151.946C236.216 149.572 237.17 147.343 238.484 145.304C239.763 143.318 241.352 141.373 243.21 139.905C246.965 136.929 251.671 135.1 256.457 135.1H260.586C261.642 135.1 262.5 136.267 262.5 137.327C262.5 138.387 261.642 139.553 260.586 139.553H256.46C253.503 139.553 250.573 140.201 247.984 141.63C245.443 143.036 243.27 145.013 241.698 147.452C240.618 149.128 239.836 150.936 239.37 152.884L227.051 204.381C226.485 206.755 225.531 208.984 224.216 211.024C222.936 213.01 221.347 214.941 219.49 216.41C215.734 219.384 211.029 221.2 206.244 221.2H202.114Z" fill="#384548"/>
<path d="M261.305 221.2C260.798 221.2 260.32 221.004 259.962 220.645L251.65 212.332L243.337 220.646C242.979 221.004 242.501 221.2 241.994 221.2C241.489 221.2 241.011 221.004 240.654 220.646C239.915 219.906 239.915 218.702 240.655 217.962L248.967 209.651L240.654 201.338C239.915 200.598 239.915 199.395 240.654 198.655C241.011 198.298 241.489 198.1 241.994 198.1C242.501 198.1 242.979 198.298 243.337 198.657L251.65 206.969L259.962 198.655C260.32 198.298 260.798 198.1 261.305 198.1C261.812 198.1 262.288 198.298 262.646 198.655C263.384 199.395 263.384 200.598 262.646 201.338L254.332 209.651L262.646 217.963C263.384 218.702 263.384 219.906 262.644 220.646C262.288 221.004 261.812 221.2 261.305 221.2Z" fill="#384548"/>
<path d="M82.5996 743.623C82.5996 744.681 83.4575 745.85 84.5137 745.85H88.6435C93.4287 745.85 98.1339 744.034 101.89 741.059C103.747 739.591 105.336 737.66 106.616 735.673C107.931 733.634 108.885 731.404 109.451 729.03L121.77 677.534C122.236 675.586 123.018 673.778 124.098 672.102C125.67 669.663 127.843 667.686 130.384 666.28C132.973 664.85 135.903 664.203 138.86 664.203H142.986C144.042 664.203 144.9 663.036 144.9 661.976C144.9 660.916 144.042 659.75 142.986 659.75H138.857C134.071 659.75 129.365 661.579 125.61 664.555C123.752 666.023 122.163 667.968 120.884 669.954C119.57 671.992 118.616 674.222 118.047 676.596L105.73 728.091C105.264 730.04 104.48 731.845 103.403 733.517C101.83 735.957 99.656 737.928 97.1148 739.334C94.5262 740.764 91.5945 741.396 88.6376 741.396H84.5137C83.4575 741.396 82.5996 742.563 82.5996 743.623Z" fill="#384548"/>
<path d="M142.362 745.294C142.72 745.653 143.198 745.85 143.705 745.85C144.212 745.85 144.688 745.653 145.044 745.296C145.784 744.556 145.784 743.351 145.046 742.613L136.732 734.3L145.046 725.988C145.784 725.248 145.784 724.045 145.046 723.305C144.688 722.947 144.212 722.75 143.705 722.75C143.198 722.75 142.72 722.947 142.362 723.305L134.05 731.619L125.737 723.306C125.379 722.947 124.901 722.75 124.394 722.75C123.889 722.75 123.411 722.947 123.054 723.305C122.315 724.045 122.315 725.248 123.054 725.988L131.367 734.3L123.055 742.611C122.315 743.351 122.315 744.556 123.054 745.296C123.411 745.653 123.889 745.85 124.394 745.85C124.901 745.85 125.379 745.653 125.737 745.296L134.05 736.982L142.362 745.294Z" fill="#384548"/>
<path d="M573.654 396.981C573.899 397.51 574.414 397.6 574.998 397.6C575.629 397.6 576.158 397.48 576.377 396.904L606.865 317.168H663.533C664.545 317.168 665 316.447 665 315.733C665 315.02 664.545 314.3 663.533 314.3H605.851C605.205 314.3 604.677 314.459 604.469 315.002L574.87 392.319L560.241 360.666C559.996 360.133 559.468 360.16 559.084 360.18C559.017 360.183 558.954 360.186 558.899 360.186H548.167C547.154 360.186 546.7 360.907 546.7 361.621C546.7 362.334 547.154 363.054 548.167 363.054H557.951L573.654 396.981Z" fill="#384548"/>
<path d="M80.1734 510.268C85.8244 514.037 92.4028 515.848 99.1968 515.848H99.2025C105.995 515.848 112.573 514.04 118.223 510.273C118.692 509.96 118.972 509.623 118.972 509.063C118.972 508.139 118.221 507.395 117.299 507.395C116.976 507.395 116.636 507.511 116.369 507.691C111.267 511.09 105.33 512.914 99.1987 512.915C93.3899 512.914 87.754 511.098 82.7747 508.247H82.7443L82.026 507.714C76.3759 503.946 69.7985 501.9 63.0007 501.9C56.2076 501.9 49.6302 503.889 43.9801 507.656C43.5108 507.969 43.2314 508.485 43.2314 509.046C43.2314 509.969 43.982 510.708 44.9055 510.708C45.2276 510.708 45.5667 510.583 45.8347 510.405C50.9356 507.004 56.8717 505.161 63.0035 505.161C69.1353 505.161 75.0724 506.868 80.1734 510.268Z" fill="#384548"/>
<path d="M80.1734 531.17C85.8244 534.939 92.4028 536.75 99.1968 536.75H99.2025C105.995 536.75 112.573 534.942 118.223 531.175C118.692 530.862 118.972 530.525 118.972 529.964C118.972 529.041 118.221 528.297 117.299 528.297C116.976 528.297 116.636 528.413 116.369 528.592C111.267 531.992 105.33 533.816 99.1987 533.817C93.3899 533.816 87.754 531.999 82.7747 529.149H82.7443L82.026 528.615C76.3759 524.848 69.7985 522.802 63.0007 522.802C56.2076 522.802 49.6302 524.791 43.9801 528.557C43.5108 528.871 43.2314 529.387 43.2314 529.947C43.2314 530.871 43.982 531.61 44.9055 531.61C45.2276 531.61 45.5667 531.485 45.8347 531.307C50.9356 527.906 56.8717 526.062 63.0035 526.062C69.1353 526.062 75.0724 527.77 80.1734 531.17Z" fill="#384548"/>
<path fill-rule="evenodd" clip-rule="evenodd" d="M280.798 408.413C278.795 408.413 276.79 408.148 274.837 407.628C273.013 407.139 271.166 406.412 269.351 405.463C266.155 403.792 263.02 401.478 259.486 398.183C257.659 396.478 255.791 394.576 253.426 392.014L250.591 388.942L247.621 391.874L247.21 392.32C244.087 395.687 240.333 399.539 236.171 402.579C233.976 404.179 231.742 405.419 229.142 406.481C226.378 407.617 223.357 408.192 220.165 408.192C217.716 408.192 215.632 407.914 213.796 407.341C211.682 406.682 209.855 405.822 208.212 404.71C204.762 402.377 202.088 399.14 200.479 395.35C199.365 392.717 198.8 389.931 198.8 387.068C198.8 384.915 199.124 382.786 199.763 380.739C200.378 378.759 201.283 376.882 202.45 375.158C204.776 371.718 208.021 369.045 211.838 367.426C214.463 366.313 217.254 365.748 220.133 365.748C222.127 365.748 224.128 366.012 226.083 366.534C227.902 367.02 229.747 367.748 231.565 368.698C234.76 370.368 237.896 372.682 241.434 375.98C243.258 377.683 245.125 379.584 247.488 382.145L250.37 385.269L253.34 382.244L253.697 381.856C256.829 378.479 260.593 374.616 264.747 371.582C267.141 369.838 269.442 368.525 271.778 367.569C274.721 366.361 277.745 365.749 280.765 365.749C282.935 365.749 285.075 366.071 287.126 366.709C289.111 367.33 290.986 368.233 292.702 369.396C296.146 371.725 298.821 374.972 300.437 378.784C301.554 381.416 302.119 384.206 302.116 387.077C302.119 389.233 301.796 391.366 301.156 393.418C300.542 395.393 299.638 397.272 298.469 399.002C296.143 402.442 292.897 405.116 289.082 406.733C286.453 407.848 283.665 408.413 280.798 408.413ZM280.786 367.979C278.971 367.979 277.214 368.212 275.416 368.69C273.739 369.137 272.094 369.786 270.387 370.674C267.409 372.224 264.34 374.494 261.004 377.613C259.255 379.246 257.369 381.167 255.07 383.657L251.93 387.084L255.34 390.796C259.597 395.399 262.904 398.476 266.064 400.777C268.282 402.395 270.489 403.657 272.624 404.529C275.348 405.639 278.016 406.18 280.782 406.182C282.712 406.182 284.621 405.894 286.455 405.324C288.226 404.773 289.908 403.963 291.455 402.917C294.541 400.834 296.937 397.925 298.384 394.507C299.381 392.154 299.887 389.655 299.887 387.08C299.887 385.155 299.598 383.248 299.029 381.412C298.472 379.633 297.663 377.95 296.622 376.409C294.534 373.323 291.626 370.928 288.211 369.482C285.859 368.485 283.361 367.979 280.786 367.979ZM220.133 368.663C217.93 368.663 215.97 368.713 214.466 369.178L214.426 369.191C213.011 369.633 211.318 370.162 209.464 371.417C206.321 373.54 203.989 376.308 202.536 379.739C201.538 382.094 201.033 384.563 201.033 387.122C201.033 389.043 201.322 390.936 201.891 392.771C202.446 394.55 203.258 396.226 204.303 397.767C206.382 400.848 209.289 403.238 212.709 404.685C215.06 405.682 217.558 406.185 220.133 406.185C221.944 406.185 223.701 405.952 225.501 405.475C227.175 405.026 228.869 404.356 230.537 403.485C233.511 401.938 236.578 399.669 239.914 396.551C241.686 394.895 243.573 392.973 245.852 390.501L248.993 387.087L245.594 383.379C241.325 378.765 238.014 375.683 234.858 373.386C232.926 371.975 230.781 370.991 228.298 369.975C225.872 368.989 223.05 368.663 220.137 368.663H220.133Z" fill="#384548"/>
<path fill-rule="evenodd" clip-rule="evenodd" d="M713.686 732.306C715.943 732.908 718.261 733.213 720.576 733.213C723.889 733.213 727.112 732.56 730.151 731.271C734.56 729.402 738.312 726.312 741.001 722.335C742.351 720.336 743.397 718.164 744.107 715.882C744.847 713.51 745.22 711.044 745.216 708.553C745.22 705.235 744.567 702.009 743.276 698.967C741.407 694.561 738.316 690.809 734.335 688.116C732.352 686.772 730.184 685.728 727.89 685.011C725.519 684.274 723.046 683.901 720.538 683.901C717.047 683.901 713.552 684.608 710.15 686.005C707.45 687.109 704.791 688.627 702.024 690.643C697.223 694.149 692.872 698.615 689.252 702.518L688.839 702.966L685.406 706.462L682.075 702.852C679.344 699.892 677.186 697.694 675.078 695.727C670.989 691.914 667.364 689.239 663.671 687.309C661.569 686.211 659.437 685.369 657.334 684.808C655.075 684.205 652.762 683.9 650.458 683.9C647.13 683.9 643.904 684.553 640.87 685.839C636.458 687.71 632.707 690.801 630.018 694.776C628.67 696.768 627.624 698.938 626.913 701.226C626.175 703.593 625.8 706.054 625.8 708.542C625.8 711.851 626.453 715.071 627.741 718.115C629.601 722.495 632.691 726.237 636.679 728.934C638.578 730.218 640.689 731.213 643.133 731.974C645.255 732.636 647.664 732.958 650.494 732.958C654.184 732.958 657.676 732.293 660.87 730.981C663.876 729.753 666.458 728.319 668.995 726.47C673.806 722.957 678.144 718.504 681.754 714.612L682.229 714.097L685.661 710.708L688.939 714.259C691.672 717.22 693.831 719.418 695.943 721.389C700.028 725.198 703.651 727.872 707.345 729.803C709.444 730.9 711.577 731.741 713.686 732.306ZM714.355 687.3C716.434 686.747 718.465 686.479 720.562 686.479C723.538 686.479 726.425 687.063 729.144 688.216C733.091 689.886 736.453 692.655 738.865 696.223C740.069 698.003 741.005 699.948 741.648 702.005C742.305 704.127 742.64 706.331 742.64 708.556C742.64 711.532 742.055 714.42 740.903 717.14C739.229 721.091 736.461 724.453 732.894 726.861C731.105 728.07 729.161 729.006 727.114 729.643C724.994 730.301 722.788 730.635 720.558 730.635C717.361 730.632 714.277 730.007 711.128 728.724C708.66 727.716 706.109 726.257 703.546 724.388C699.893 721.728 696.071 718.171 691.151 712.851L687.21 708.561L690.839 704.6C693.496 701.721 695.676 699.501 697.698 697.614C701.554 694.008 705.1 691.385 708.543 689.594C710.516 688.567 712.417 687.817 714.355 687.3ZM643.908 687.864C645.646 687.327 647.911 687.269 650.458 687.269H650.462C653.829 687.269 657.091 687.646 659.895 688.786C662.765 689.96 665.244 691.098 667.477 692.728C671.125 695.383 674.952 698.945 679.886 704.279L683.815 708.564L680.184 712.51C677.55 715.368 675.369 717.589 673.32 719.502C669.465 723.107 665.92 725.729 662.483 727.517C660.555 728.524 658.597 729.298 656.662 729.817C654.581 730.369 652.551 730.638 650.458 730.638C647.481 730.638 644.594 730.056 641.876 728.904C637.924 727.231 634.564 724.469 632.16 720.908C630.952 719.127 630.015 717.19 629.372 715.134C628.715 713.013 628.381 710.825 628.381 708.605C628.381 705.646 628.965 702.793 630.118 700.071C631.798 696.105 634.493 692.906 638.126 690.452C640.269 689.001 642.225 688.39 643.861 687.879L643.908 687.864Z" fill="#384548"/>
<path d="M285.6 573.3H252V629.428C252 630.13 251.373 630.7 250.6 630.7C249.826 630.7 249.2 630.13 249.2 629.428V573.3H238.574C237.87 573.3 237.3 572.673 237.3 571.9C237.3 571.126 237.87 570.5 238.574 570.5H299.726C300.43 570.5 301 571.126 301 571.9C301 572.673 300.43 573.3 299.726 573.3H288.133V617.645C288.133 618.405 288.588 621.647 290.818 623.629C292.42 625.052 294.665 625.604 297.482 625.265C298.18 625.177 298.808 625.678 298.89 626.374C298.974 627.07 298.477 627.701 297.783 627.784C297.139 627.861 296.517 627.9 295.916 627.9C293.187 627.9 290.913 627.106 289.137 625.526C286.235 622.947 285.6 618.963 285.6 617.645V573.3Z" fill="#384548"/>
<path d="M525.834 804.907H565.342V857.05C565.342 858.599 566.088 863.284 569.501 866.316C571.589 868.174 574.263 869.107 577.472 869.107C578.178 869.107 578.91 869.062 579.668 868.971C580.484 868.874 581.068 868.132 580.969 867.313C580.872 866.495 580.134 865.905 579.313 866.01C576.001 866.408 573.362 865.759 571.478 864.086C568.856 861.755 568.32 857.943 568.32 857.05V804.907H581.951C582.779 804.907 583.449 804.17 583.449 803.261C583.449 802.351 582.779 801.614 581.951 801.614H510.047C509.219 801.614 508.549 802.351 508.549 803.261C508.549 804.17 509.219 804.907 510.047 804.907H522.541V870.904C522.541 871.73 523.278 872.4 524.187 872.4C525.097 872.4 525.834 871.73 525.834 870.904V804.907Z" fill="#384548"/>
<path d="M537.6 602.952C537.6 604.005 538.457 605.304 539.511 605.304H620.247C621.299 605.304 622.156 604.005 622.156 602.952C622.156 601.898 621.299 600.6 620.247 600.6H539.511C538.457 600.6 537.6 601.898 537.6 602.952Z" fill="#384548"/>
<path d="M596.472 120.119C602.426 124.092 609.357 126 616.515 126H616.521C623.677 126 630.608 124.095 636.561 120.124C637.055 119.795 637.35 119.44 637.35 118.849C637.35 117.875 636.559 117.091 635.587 117.091C635.246 117.091 634.889 117.214 634.607 117.403C629.231 120.986 622.976 122.908 616.517 122.909C610.397 122.908 604.459 120.994 599.212 117.99H599.18L598.424 117.427C592.471 113.457 585.541 111.3 578.378 111.3C571.221 111.3 564.291 113.397 558.338 117.366C557.844 117.696 557.55 118.24 557.55 118.831C557.55 119.804 558.34 120.583 559.313 120.583C559.653 120.583 560.01 120.451 560.292 120.264C565.667 116.679 571.921 114.736 578.381 114.736C584.842 114.736 591.097 116.536 596.472 120.119Z" fill="#384548"/>
<path d="M596.472 142.519C602.426 146.492 609.357 148.4 616.515 148.4H616.521C623.677 148.4 630.608 146.495 636.561 142.524C637.055 142.195 637.35 141.84 637.35 141.249C637.35 140.275 636.559 139.491 635.587 139.491C635.246 139.491 634.889 139.614 634.607 139.803C629.231 143.386 622.976 145.308 616.517 145.309C610.397 145.308 604.459 143.394 599.212 140.39H599.18L598.424 139.827C592.471 135.857 585.541 133.7 578.378 133.7C571.221 133.7 564.291 135.797 558.338 139.766C557.844 140.096 557.55 140.64 557.55 141.231C557.55 142.204 558.34 142.983 559.313 142.983C559.653 142.983 560.01 142.851 560.292 142.664C565.667 139.079 571.921 137.136 578.381 137.136C584.842 137.136 591.097 138.936 596.472 142.519Z" fill="#384548"/>
<path fill-rule="evenodd" clip-rule="evenodd" d="M741.224 492.8C750.158 492.8 757.4 485.558 757.4 476.625C757.4 467.692 750.158 460.45 741.224 460.45C732.291 460.45 725.049 467.692 725.049 476.625C725.049 485.558 732.291 492.8 741.224 492.8ZM741.224 489.3C748.225 489.3 753.9 483.625 753.9 476.625C753.9 469.624 748.225 463.95 741.224 463.95C734.224 463.95 728.549 469.624 728.549 476.625C728.549 483.625 734.224 489.3 741.224 489.3Z" fill="#384548"/>
<path fill-rule="evenodd" clip-rule="evenodd" d="M783.849 476.625C783.849 500.166 764.765 519.25 741.224 519.25C717.683 519.25 698.6 500.166 698.6 476.625C698.6 453.084 717.683 434 741.224 434C764.765 434 783.849 453.084 783.849 476.625ZM780.349 476.625C780.349 498.233 762.832 515.75 741.224 515.75C719.616 515.75 702.1 498.233 702.1 476.625C702.1 455.017 719.616 437.5 741.224 437.5C762.832 437.5 780.349 455.017 780.349 476.625Z" fill="#384548"/>
<path d="M236.954 889.08C237.199 889.61 237.714 889.7 238.298 889.7C238.929 889.7 239.458 889.581 239.677 889.004L270.165 809.268H326.833C327.845 809.268 328.3 808.547 328.3 807.833C328.3 807.12 327.845 806.4 326.833 806.4H269.151C268.505 806.4 267.977 806.559 267.769 807.102L238.17 884.419L223.541 852.766C223.296 852.233 222.768 852.26 222.384 852.28C222.343 852.282 222.305 852.284 222.268 852.285C222.253 852.286 222.238 852.286 222.223 852.286L222.199 852.286H211.467C210.454 852.286 210 853.007 210 853.721C210 854.434 210.454 855.154 211.467 855.154H221.251L236.954 889.08Z" fill="#384548"/>
<path d="M818.764 875.095C819.045 875.375 819.46 875.53 819.935 875.53C820.534 875.53 821.155 875.281 821.552 874.884C821.914 874.52 822.153 873.977 822.194 873.428C822.218 873.111 822.194 872.518 821.766 872.092L786.564 836.882L821.768 801.675C822.049 801.395 822.203 800.979 822.204 800.505C822.204 799.906 821.955 799.285 821.552 798.885C821.155 798.486 820.534 798.237 819.932 798.237C819.459 798.237 819.045 798.39 818.765 798.672L783.556 833.881L749.03 799.353C748.748 799.072 748.331 798.918 747.853 798.918C747.255 798.918 746.636 799.166 746.238 799.566C745.836 799.966 745.588 800.587 745.588 801.188C745.588 801.661 745.743 802.073 746.023 802.353L780.551 836.885L746.019 871.411C745.296 872.133 745.543 873.505 746.235 874.202C746.636 874.602 747.257 874.85 747.856 874.85C748.332 874.85 748.746 874.696 749.026 874.418L783.556 839.889L818.764 875.095Z" fill="#384548"/>
</g>
</g>
<defs>
<clipPath id="clip0">
<rect width="840" height="840" fill="white"/>
</clipPath>
</defs>
</svg>
