<svg width="209" height="260" viewBox="0 0 209 260" fill="none" xmlns="http://www.w3.org/2000/svg">
<g opacity="0.3">
<path opacity="0.3" d="M207.945 22.0219C207.822 22.0219 207.715 21.9785 207.642 21.9006L198.487 12.0932L189.508 21.712C189.435 21.7896 189.328 21.8324 189.203 21.8324C189.047 21.8324 188.886 21.7634 188.782 21.6518C188.601 21.4577 188.537 21.0756 188.726 20.8744L197.705 11.2562L188.726 1.63642C188.653 1.55853 188.613 1.4437 188.613 1.31187C188.613 1.14447 188.678 0.971518 188.782 0.860151C188.886 0.748783 189.047 0.679566 189.203 0.679566C189.326 0.679566 189.435 0.722414 189.508 0.800822L198.487 10.4194L207.642 0.611048C207.715 0.53264 207.822 0.489792 207.945 0.489792C208.101 0.489792 208.263 0.559351 208.367 0.670371C208.471 0.781738 208.537 0.95469 208.537 1.12157C208.535 1.25375 208.495 1.36945 208.422 1.44752L199.269 11.2553L208.422 21.0641C208.533 21.1828 208.54 21.3481 208.533 21.4362C208.523 21.5892 208.46 21.7405 208.367 21.8418C208.263 21.9523 208.101 22.0219 207.945 22.0219Z" fill="white"/>
<path opacity="0.3" d="M141.84 2.32214H131.567V20.7073C131.567 20.9371 131.375 21.1238 131.139 21.1238C130.902 21.1238 130.711 20.9371 130.711 20.7073V2.32214H127.462C127.247 2.32214 127.072 2.11711 127.072 1.86367C127.072 1.61006 127.247 1.40501 127.462 1.40501H146.159C146.374 1.40501 146.549 1.61006 146.549 1.86367C146.549 2.11711 146.374 2.32214 146.159 2.32214H142.615V16.8478C142.615 17.0965 142.754 18.1585 143.436 18.8078C143.926 19.2739 144.612 19.4547 145.473 19.3438C145.687 19.3147 145.878 19.479 145.904 19.7069C145.929 19.935 145.778 20.1416 145.566 20.1687C145.368 20.194 145.178 20.2067 144.995 20.2067C144.16 20.2067 143.465 19.9466 142.922 19.4292C142.034 18.5846 141.84 17.2794 141.84 16.8478V2.32214Z" fill="white"/>
<path opacity="0.3" d="M93.5076 45.6938C93.2719 45.6938 93.0533 45.4883 93.0533 45.2236V38.2837H86.5757C86.3287 38.2837 86.1365 38.0497 86.1365 37.7973C86.1365 37.5451 86.3287 37.3109 86.5757 37.3109H93.0533V30.369C93.0533 30.1043 93.2719 29.8988 93.5076 29.8988C93.7429 29.8988 93.9615 30.1043 93.9615 30.369V37.3109H100.441C100.688 37.3109 100.88 37.5451 100.88 37.7973C100.88 38.0497 100.688 38.2837 100.441 38.2837H93.9615V45.2236C93.9615 45.4883 93.7429 45.6938 93.5076 45.6938Z" fill="white"/>
<path opacity="0.3" d="M170.499 259C170.163 259 169.852 258.701 169.852 258.315V248.21H160.626C160.274 248.21 160 247.869 160 247.502C160 247.134 160.274 246.793 160.626 246.793H169.852V236.685C169.852 236.299 170.163 236 170.499 236C170.834 236 171.146 236.299 171.146 236.685V246.793H180.375C180.727 246.793 181 247.134 181 247.502C181 247.869 180.727 248.21 180.375 248.21H171.146V258.315C171.146 258.701 170.834 259 170.499 259Z" fill="white"/>
<path opacity="0.3" d="M10.5471 56.9683H21.9434L21.9476 56.9702L21.9515 56.9719C21.9528 56.9728 21.9541 56.9735 21.9554 56.9744L21.958 56.9763C21.9658 56.9813 21.977 56.9881 21.9913 56.9936C22.0058 56.999 22.0248 57.0039 22.0475 57.0039C22.0636 57.0039 22.0839 57.0033 22.1062 56.9976C22.1156 56.9954 22.1234 56.9926 22.126 56.9917L22.1281 56.9908C22.1351 56.9889 22.1486 56.9841 22.1632 56.9756C22.1725 56.9702 22.1965 56.9549 22.2162 56.9242C22.2271 56.9072 22.2373 56.8845 22.2414 56.8561C22.2453 56.8294 22.243 56.8039 22.2365 56.7811V54.1985C22.2365 54.1343 22.2024 54.0943 22.1965 54.087L22.1962 54.0868C22.1853 54.074 22.1749 54.0655 22.1704 54.062C22.1603 54.0544 22.1512 54.0488 22.1468 54.0466C22.1367 54.0408 22.1257 54.0354 22.1166 54.0313C22.0976 54.0226 22.074 54.0126 22.0508 54.0037C22.0277 53.9945 22.0027 53.9857 21.9814 53.9784C21.9707 53.9747 21.9596 53.9714 21.9489 53.9687L21.9481 53.9683C21.9419 53.9666 21.9203 53.9609 21.8966 53.9609C21.7999 53.9609 21.7099 54.0065 21.6465 54.0627C21.5857 54.1163 21.517 54.2084 21.517 54.3265V56.2009H11.2173L16.5982 48.7443L16.6151 48.7025C16.6754 48.6442 16.7461 48.5394 16.7461 48.3911C16.7461 48.3481 16.7393 48.2934 16.7231 48.2459L16.7147 48.2211L11.436 41.0013H21.517V42.5722C21.517 42.6904 21.5857 42.7825 21.6462 42.8359C21.7099 42.8919 21.7999 42.9379 21.8966 42.9379C21.9115 42.9379 21.9603 42.9365 22.0048 42.9343C22.0269 42.9329 22.0508 42.9315 22.0703 42.9296C22.0735 42.9291 22.0771 42.9287 22.0807 42.9282C22.088 42.9273 22.0958 42.9263 22.1036 42.9245C22.1086 42.9235 22.1213 42.9207 22.1359 42.9145C22.1424 42.9117 22.1587 42.9044 22.1764 42.8897C22.1913 42.8775 22.2365 42.8343 22.2365 42.7585V40.2339H10.8935C10.8124 40.2339 10.7482 40.2744 10.7045 40.3152C10.6605 40.3563 10.626 40.4077 10.6001 40.4569C10.5497 40.5529 10.5139 40.6748 10.5139 40.7768C10.5139 40.8616 10.5394 40.9227 10.5681 40.9727L10.571 40.9777L10.6011 41.0224L15.9327 48.4561L10.3021 56.3141C10.2588 56.3747 10.2377 56.4479 10.2319 56.515C10.2261 56.5816 10.2343 56.6562 10.2638 56.7246C10.2894 56.7875 10.3262 56.842 10.3676 56.8833C10.4033 56.9187 10.4669 56.9683 10.5471 56.9683Z" fill="white"/>
<path opacity="0.3" fill-rule="evenodd" clip-rule="evenodd" d="M183.73 74.4599C183.399 74.4599 183.077 74.3926 182.771 74.2599C182.455 74.1227 182.171 73.921 181.928 73.6604C181.685 73.3992 181.496 73.0956 181.369 72.7573C181.245 72.4298 181.182 72.0841 181.182 71.7301C181.182 71.3757 181.245 71.0299 181.369 70.7026C181.497 70.3633 181.685 70.0597 181.928 69.7997C182.172 69.539 182.455 69.3371 182.771 69.2C183.077 69.0675 183.399 69 183.73 69C184.061 69 184.383 69.0675 184.689 69.2C185.005 69.3374 185.289 69.5388 185.532 69.7995C185.775 70.0599 185.964 70.3636 186.092 70.703C186.215 71.0296 186.279 71.3753 186.279 71.7301C186.279 72.0841 186.215 72.4298 186.092 72.7577C185.964 73.0967 185.775 73.4004 185.532 73.6599C185.289 73.9206 185.007 74.1227 184.69 74.2599C184.384 74.3926 184.061 74.4599 183.73 74.4599ZM183.73 69.7135C183.485 69.7135 183.247 69.7633 183.021 69.8613C182.789 69.9627 182.58 70.1112 182.4 70.3031C182.22 70.4974 182.08 70.7219 181.986 70.9706C181.894 71.2133 181.848 71.469 181.848 71.7308C181.848 71.9923 181.894 72.2473 181.986 72.4888C182.081 72.7393 182.22 72.9636 182.399 73.1555C182.579 73.348 182.788 73.497 183.021 73.5983C183.247 73.6967 183.486 73.7463 183.73 73.7463C183.975 73.7463 184.214 73.6967 184.439 73.5987C184.672 73.4972 184.88 73.3487 185.06 73.1569C185.241 72.9624 185.381 72.7379 185.475 72.4892C185.567 72.2479 185.612 71.9923 185.612 71.7301C185.612 71.4676 185.567 71.2119 185.475 70.9706C185.381 70.7219 185.241 70.4981 185.062 70.305C184.882 70.1118 184.672 69.9627 184.44 69.8613C184.213 69.7633 183.974 69.7135 183.73 69.7135Z" fill="white"/>
<path opacity="0.3" d="M181.35 86.3405C181.256 86.3405 181.168 86.3027 181.102 86.2337C180.966 86.0913 180.966 85.859 181.102 85.7164L194.29 71.9545C194.356 71.8855 194.444 71.8475 194.538 71.8475C194.632 71.8475 194.72 71.8855 194.786 71.9545C194.852 72.0239 194.888 72.1155 194.888 72.2128C194.888 72.3108 194.852 72.4024 194.786 72.4717L181.598 86.2337C181.532 86.3027 181.444 86.3405 181.35 86.3405Z" fill="white"/>
<path opacity="0.3" fill-rule="evenodd" clip-rule="evenodd" d="M192.339 88.4164C191.989 88.4164 191.648 88.3483 191.323 88.2135C190.989 88.0742 190.689 87.8695 190.43 87.6044C190.174 87.3404 189.974 87.032 189.837 86.6876C189.707 86.3551 189.64 86.0043 189.64 85.6447C189.64 85.2851 189.707 84.9344 189.837 84.6015C189.974 84.2572 190.172 83.9487 190.43 83.6852C190.689 83.4203 190.989 83.2153 191.323 83.0757C191.648 82.9412 191.989 82.8729 192.339 82.8729C192.69 82.8729 193.031 82.9412 193.356 83.0757C193.69 83.2153 193.99 83.42 194.247 83.6842C194.505 83.9491 194.705 84.2577 194.842 84.6017C194.972 84.9335 195.039 85.2844 195.039 85.6447C195.039 86.0043 194.972 86.3553 194.84 86.688C194.705 87.0318 194.505 87.3401 194.249 87.6043C193.99 87.8691 193.69 88.0742 193.356 88.2135C193.031 88.3483 192.69 88.4164 192.339 88.4164ZM192.339 83.5969C192.079 83.5969 191.828 83.6474 191.589 83.7468C191.342 83.8499 191.12 84.0011 190.93 84.1961C190.739 84.3923 190.592 84.6199 190.493 84.8737C190.396 85.1179 190.345 85.3776 190.345 85.6444C190.345 85.9114 190.396 86.1709 190.493 86.4163C190.592 86.6686 190.739 86.8955 190.928 87.0913C191.12 87.2875 191.342 87.4388 191.587 87.5415C191.828 87.641 192.081 87.6917 192.339 87.6917C192.6 87.6917 192.851 87.6412 193.09 87.5418C193.336 87.4384 193.558 87.2875 193.749 87.0927C193.938 86.8975 194.086 86.6701 194.186 86.4162C194.283 86.1698 194.333 85.9102 194.333 85.6444C194.333 85.3786 194.283 85.1193 194.188 84.8738C194.086 84.6194 193.938 84.3914 193.749 84.1964C193.558 84.0015 193.338 83.8507 193.092 83.7473C192.851 83.6476 192.6 83.5969 192.339 83.5969Z" fill="white"/>
<path opacity="0.3" fill-rule="evenodd" clip-rule="evenodd" d="M97.3192 207.716C96.9881 207.716 96.6658 207.649 96.3605 207.515C96.0438 207.378 95.7603 207.177 95.5172 206.917C95.2736 206.655 95.0853 206.351 94.9577 206.013C94.8339 205.685 94.7709 205.34 94.7709 204.986C94.7709 204.632 94.8339 204.285 94.9577 203.957C95.0858 203.619 95.2741 203.315 95.5171 203.055C95.7607 202.795 96.044 202.592 96.3603 202.455C96.666 202.323 96.9885 202.256 97.3192 202.256C97.65 202.256 97.9723 202.323 98.2782 202.455C98.5947 202.592 98.8782 202.795 99.1209 203.055C99.3644 203.315 99.5527 203.619 99.6808 203.959C99.8046 204.285 99.8676 204.63 99.8676 204.986C99.8676 205.34 99.8046 205.685 99.6805 206.013C99.5523 206.353 99.364 206.656 99.1213 206.915C98.8783 207.177 98.5947 207.378 98.2787 207.515C97.9727 207.649 97.65 207.716 97.3192 207.716ZM97.3192 202.968C97.0743 202.968 96.8356 203.019 96.6103 203.118C96.3776 203.218 96.1687 203.367 95.9892 203.558C95.8085 203.753 95.6691 203.978 95.575 204.226C95.4832 204.469 95.4369 204.724 95.4369 204.986C95.4369 205.248 95.4834 205.503 95.5746 205.744C95.6702 205.995 95.8091 206.219 95.9878 206.41C96.1678 206.603 96.3769 206.752 96.6096 206.854C96.8364 206.951 97.0748 207.002 97.3192 207.002C97.5645 207.002 97.8031 206.951 98.028 206.854C98.2605 206.754 98.4693 206.604 98.6493 206.412C98.83 206.218 98.9694 205.994 99.0632 205.744C99.1551 205.503 99.2014 205.248 99.2014 204.986C99.2014 204.722 99.1551 204.467 99.0632 204.226C98.9694 203.978 98.8305 203.754 98.6508 203.56C98.4698 203.367 98.2605 203.218 98.0285 203.118C97.8019 203.019 97.5635 202.968 97.3192 202.968Z" fill="white"/>
<path opacity="0.3" d="M94.9392 219.595C94.8453 219.595 94.7574 219.557 94.6914 219.49C94.5549 219.347 94.5549 219.115 94.6914 218.971L107.879 205.21C107.946 205.14 108.034 205.104 108.127 205.104C108.221 205.104 108.309 205.14 108.375 205.21C108.442 205.279 108.478 205.371 108.478 205.468C108.478 205.567 108.442 205.657 108.375 205.727L95.1871 219.49C95.1207 219.557 95.0328 219.595 94.9392 219.595Z" fill="white"/>
<path opacity="0.3" fill-rule="evenodd" clip-rule="evenodd" d="M105.928 221.672C105.578 221.672 105.236 221.604 104.912 221.469C104.578 221.33 104.277 221.126 104.02 220.86C103.762 220.596 103.562 220.288 103.427 219.942C103.296 219.611 103.229 219.259 103.229 218.9C103.229 218.541 103.296 218.19 103.427 217.857C103.562 217.512 103.762 217.203 104.019 216.941C104.277 216.676 104.578 216.471 104.912 216.331C105.236 216.197 105.578 216.128 105.928 216.128C106.279 216.128 106.62 216.197 106.944 216.331C107.279 216.471 107.58 216.676 107.836 216.94C108.094 217.205 108.294 217.514 108.43 217.857C108.561 218.189 108.627 218.541 108.627 218.9C108.627 219.259 108.561 219.611 108.43 219.944C108.294 220.288 108.095 220.595 107.837 220.86C107.58 221.124 107.279 221.33 106.944 221.469C106.62 221.604 106.279 221.672 105.928 221.672ZM105.928 216.853C105.669 216.853 105.417 216.903 105.178 217.002C104.931 217.105 104.709 217.257 104.519 217.451C104.329 217.647 104.181 217.875 104.081 218.13C103.984 218.374 103.935 218.633 103.935 218.9C103.935 219.167 103.984 219.426 104.081 219.672C104.181 219.923 104.328 220.151 104.518 220.347C104.709 220.543 104.931 220.694 105.177 220.798C105.417 220.897 105.67 220.947 105.928 220.947C106.188 220.947 106.441 220.897 106.679 220.798C106.926 220.694 107.147 220.543 107.337 220.348C107.528 220.152 107.675 219.925 107.776 219.672C107.873 219.426 107.922 219.165 107.922 218.9C107.922 218.634 107.873 218.374 107.776 218.13C107.675 217.875 107.528 217.647 107.337 217.451C107.148 217.257 106.927 217.106 106.68 217.004C106.441 216.903 106.188 216.853 105.928 216.853Z" fill="white"/>
<path opacity="0.3" d="M8.91671 110.325C8.91671 110.59 9.13534 110.795 9.37078 110.795C9.60623 110.795 9.82483 110.59 9.82483 110.325V103.385H16.3044C16.5515 103.385 16.7436 103.151 16.7436 102.899C16.7436 102.646 16.5515 102.412 16.3044 102.412H9.82483V95.4703C9.82483 95.2056 9.6063 95 9.37078 95C9.13524 95 8.91671 95.2056 8.91671 95.4703V102.412H2.43898C2.19193 102.412 2 102.646 2 102.899C2 103.151 2.19193 103.385 2.43898 103.385H8.91671V110.325Z" fill="white"/>
<path opacity="0.3" d="M111.083 153.877H97.787C97.6934 153.877 97.619 153.819 97.5775 153.778C97.5293 153.729 97.4862 153.665 97.4563 153.59C97.422 153.511 97.4126 153.424 97.4191 153.346C97.4258 153.266 97.4506 153.181 97.5011 153.11L104.07 143.881L97.8499 135.151L97.8149 135.097L97.8115 135.092C97.778 135.034 97.748 134.962 97.748 134.863C97.748 134.743 97.7899 134.599 97.8487 134.486C97.8791 134.429 97.9191 134.368 97.9706 134.32C98.0216 134.271 98.0965 134.224 98.1912 134.224H111.424V137.189C111.424 137.279 111.372 137.329 111.355 137.343C111.349 137.348 111.343 137.352 111.338 137.355L111.335 137.357C111.333 137.359 111.331 137.361 111.33 137.361C111.325 137.364 111.32 137.366 111.317 137.368C111.315 137.369 111.314 137.369 111.312 137.371C111.31 137.371 111.308 137.373 111.307 137.373C111.29 137.38 111.275 137.383 111.27 137.385C111.256 137.387 111.241 137.388 111.231 137.39C111.208 137.392 111.18 137.394 111.154 137.395C111.102 137.399 111.046 137.401 111.028 137.401C110.915 137.401 110.81 137.347 110.736 137.281C110.665 137.217 110.585 137.109 110.585 136.97V135.126H98.8241L104.983 143.606L104.992 143.633C105.011 143.691 105.019 143.753 105.019 143.805C105.019 143.978 104.937 144.102 104.866 144.171L104.846 144.22L98.5687 152.976H110.585V150.775C110.585 150.636 110.665 150.527 110.736 150.465C110.81 150.399 110.915 150.345 111.028 150.345C111.043 150.345 111.057 150.348 111.068 150.35C111.071 150.35 111.072 150.35 111.074 150.352C111.076 150.352 111.078 150.352 111.08 150.352C111.083 150.353 111.086 150.353 111.087 150.353H111.088L111.089 150.355C111.095 150.357 111.102 150.359 111.108 150.36C111.115 150.362 111.121 150.364 111.127 150.366C111.152 150.374 111.181 150.385 111.208 150.395C111.235 150.407 111.263 150.418 111.285 150.428C111.291 150.432 111.297 150.435 111.304 150.437C111.309 150.44 111.315 150.444 111.32 150.445C111.325 150.449 111.336 150.456 111.347 150.465C111.353 150.468 111.365 150.478 111.377 150.494H111.378C111.385 150.503 111.424 150.549 111.424 150.624V153.658C111.432 153.684 111.435 153.714 111.43 153.745C111.426 153.779 111.413 153.806 111.401 153.826C111.378 153.861 111.35 153.88 111.339 153.885C111.322 153.896 111.306 153.901 111.298 153.904H111.296H111.295C111.293 153.906 111.283 153.91 111.273 153.911C111.246 153.918 111.223 153.92 111.204 153.92C111.178 153.92 111.155 153.913 111.138 153.908C111.122 153.901 111.109 153.892 111.1 153.887L111.097 153.885C111.095 153.884 111.093 153.882 111.092 153.882L111.088 153.88L111.083 153.877Z" fill="white"/>
<path opacity="0.3" d="M115.232 88.789C115.145 88.789 115.069 88.7585 115.017 88.7035L108.566 81.7921L102.238 88.5706C102.187 88.6252 102.111 88.6556 102.024 88.6556C101.914 88.6556 101.8 88.6069 101.726 88.5283C101.6 88.3916 101.555 88.1222 101.687 87.9803L108.015 81.2023L101.688 74.4233C101.637 74.3681 101.608 74.2873 101.608 74.1943C101.608 74.0765 101.653 73.9548 101.727 73.8762C101.8 73.7976 101.914 73.7489 102.023 73.7489C102.11 73.7489 102.187 73.779 102.239 73.8344L108.566 80.6127L115.017 73.7005C115.069 73.6453 115.145 73.6151 115.231 73.6151C115.342 73.6151 115.455 73.6642 115.528 73.7424C115.602 73.8208 115.648 73.9428 115.648 74.0604C115.647 74.1537 115.619 74.2349 115.568 74.2899L109.117 81.2018L115.567 88.114C115.646 88.1976 115.65 88.314 115.646 88.3761C115.638 88.484 115.594 88.5907 115.528 88.662C115.455 88.7401 115.342 88.789 115.232 88.789Z" fill="white"/>
<path opacity="0.3" d="M47.3138 73.774C47.0391 73.774 46.8161 73.4486 46.8161 73.1535C46.8161 72.8583 47.0391 72.5335 47.3138 72.5335H48.3861C49.1547 72.5335 49.9171 72.3571 50.5904 71.959C51.2511 71.5675 51.8163 71.0181 52.2254 70.3383C52.5054 69.8725 52.7093 69.3698 52.8305 68.8268L56.0332 54.4816C56.1812 53.8204 56.4292 53.1993 56.7709 52.6314C57.1035 52.0782 57.5167 51.5363 57.9998 51.1274C58.9762 50.2984 60.1998 49.7889 61.4443 49.7889H62.518C62.7926 49.7889 63.0158 50.114 63.0158 50.4092C63.0158 50.7045 62.7926 51.0294 62.518 51.0294H61.4452C60.6763 51.0294 59.9144 51.2098 59.2411 51.6079C58.5805 51.9996 58.0154 52.5504 57.6067 53.2299C57.3258 53.6967 57.1224 54.2003 57.0014 54.743L53.7981 69.0886C53.6509 69.75 53.4027 70.3709 53.0608 70.9392C52.7281 71.4925 52.3149 72.0305 51.8319 72.4397C50.8554 73.268 49.6319 73.774 48.3876 73.774H47.3138Z" fill="white"/>
<path opacity="0.3" d="M62.7051 73.774C62.5731 73.774 62.449 73.7194 62.3559 73.6195L60.1945 71.3036L58.0329 73.6196C57.9398 73.7194 57.8155 73.774 57.6837 73.774C57.5523 73.774 57.428 73.7194 57.3352 73.6196C57.1431 73.4136 57.1431 73.0782 57.3355 72.872L59.4967 70.5569L57.3352 68.241C57.1431 68.0348 57.1431 67.6998 57.3352 67.4936C57.428 67.3942 57.5523 67.339 57.6837 67.339C57.8155 67.339 57.9398 67.3942 58.0329 67.4941L60.1945 69.8097L62.3559 67.4936C62.449 67.3942 62.5731 67.339 62.7051 67.339C62.8369 67.339 62.9607 67.3942 63.0538 67.4936C63.2456 67.6998 63.2456 68.0348 63.0538 68.241L60.8919 70.5569L63.0538 72.8723C63.2456 73.0782 63.2456 73.4136 63.0533 73.6196C62.9607 73.7194 62.8369 73.774 62.7051 73.774Z" fill="white"/>
<path opacity="0.3" d="M0 207.365C0 207.659 0.223091 207.984 0.497715 207.984H1.57159C2.81586 207.984 4.03934 207.479 5.01603 206.65C5.4989 206.241 5.91208 205.703 6.24492 205.149C6.58685 204.58 6.83491 203.959 6.98209 203.298L10.1854 188.953C10.3066 188.411 10.5098 187.907 10.7907 187.44C11.1994 186.76 11.7645 186.21 12.4252 185.818C13.0985 185.421 13.8604 185.24 14.6292 185.24H15.7022C15.9766 185.24 16.1998 184.914 16.1998 184.619C16.1998 184.324 15.9766 184 15.7022 184H14.6285C13.384 184 12.1602 184.508 11.1838 185.337C10.7007 185.747 10.2875 186.288 9.95496 186.841C9.61337 187.409 9.36524 188.031 9.21733 188.692L6.01452 203.037C5.89336 203.579 5.68949 204.083 5.40944 204.549C5.00042 205.229 4.43513 205.777 3.77436 206.169C3.10123 206.567 2.33892 206.744 1.57005 206.744H0.497715C0.223091 206.744 0 207.068 0 207.365Z" fill="white"/>
<path opacity="0.3" d="M19.1648 208.28C19.2579 208.38 19.382 208.434 19.514 208.434C19.6458 208.434 19.7696 208.38 19.8622 208.28C20.0545 208.073 20.0545 207.738 19.8627 207.532L17.7008 205.216L19.8627 202.902C20.0545 202.696 20.0545 202.361 19.8627 202.154C19.7696 202.054 19.6458 202 19.514 202C19.382 202 19.2579 202.054 19.1648 202.154L17.0034 204.47L14.8418 202.154C14.7487 202.054 14.6244 202 14.4926 202C14.3612 202 14.2369 202.054 14.1441 202.154C13.952 202.361 13.952 202.696 14.1441 202.902L16.3056 205.216L14.1444 207.532C13.952 207.738 13.952 208.073 14.1441 208.28C14.2369 208.38 14.3612 208.434 14.4926 208.434C14.6244 208.434 14.7487 208.38 14.8418 208.28L17.0034 205.964L19.1648 208.28Z" fill="white"/>
<path opacity="0.3" d="M143.924 122.742C143.988 122.889 144.122 122.914 144.274 122.914C144.438 122.914 144.575 122.881 144.632 122.72L152.56 100.508H167.295C167.558 100.508 167.677 100.307 167.677 100.108C167.677 99.9098 167.558 99.7091 167.295 99.7091H152.296C152.128 99.7091 151.991 99.7535 151.937 99.9048L144.24 121.443L140.436 112.625C140.373 112.477 140.235 112.485 140.136 112.49C140.118 112.491 140.102 112.492 140.087 112.492H137.297C137.033 112.492 136.915 112.693 136.915 112.892C136.915 113.09 137.033 113.291 137.297 113.291H139.841L143.924 122.742Z" fill="white"/>
<path opacity="0.3" d="M9.60591 146.33C11.0753 147.381 12.7859 147.884 14.5525 147.884H14.554C16.3202 147.884 18.0307 147.381 19.4999 146.331C19.6218 146.245 19.6946 146.151 19.6946 145.995C19.6946 145.736 19.4994 145.53 19.2596 145.53C19.1757 145.53 19.0872 145.563 19.0177 145.613C17.691 146.559 16.1473 147.067 14.553 147.067C13.0426 147.067 11.5771 146.562 10.2823 145.768H10.2744L10.0876 145.618C8.61846 144.569 6.90815 144 5.14056 144C3.37416 144 1.66386 144.553 0.194682 145.603C0.0726512 145.69 0 145.834 0 145.99C0 146.246 0.195176 146.453 0.435312 146.453C0.519065 146.453 0.607242 146.418 0.676928 146.368C2.00329 145.421 3.54684 144.907 5.14129 144.907C6.73571 144.907 8.27952 145.383 9.60591 146.33Z" fill="white"/>
<path opacity="0.3" d="M9.60591 152.153C11.0753 153.203 12.7859 153.707 14.5525 153.707H14.554C16.3202 153.707 18.0307 153.204 19.4999 152.155C19.6218 152.068 19.6946 151.973 19.6946 151.817C19.6946 151.56 19.4994 151.353 19.2596 151.353C19.1757 151.353 19.0872 151.385 19.0177 151.435C17.691 152.382 16.1473 152.89 14.553 152.89C13.0426 152.89 11.5771 152.384 10.2823 151.589H10.2744L10.0876 151.442C8.61846 150.392 6.90815 149.822 5.14056 149.822C3.37416 149.822 1.66386 150.377 0.194682 151.424C0.0726512 151.513 0 151.657 0 151.813C0 152.07 0.195176 152.276 0.435312 152.276C0.519065 152.276 0.607242 152.242 0.676928 152.191C2.00329 151.244 3.54684 150.731 5.14129 150.731C6.73571 150.731 8.27952 151.206 9.60591 152.153Z" fill="white"/>
<path opacity="0.3" fill-rule="evenodd" clip-rule="evenodd" d="M67.7738 125.926C67.2529 125.926 66.7315 125.853 66.2236 125.708C65.7494 125.572 65.2691 125.369 64.7973 125.105C63.9662 124.639 63.1509 123.995 62.2321 123.077C61.7569 122.602 61.2713 122.072 60.6562 121.358L59.9191 120.502L59.1468 121.319L59.04 121.443C58.2278 122.381 57.2518 123.454 56.1694 124.301C55.5988 124.747 55.0177 125.092 54.3417 125.388C53.623 125.705 52.8375 125.865 52.0074 125.865C51.3707 125.865 50.8289 125.787 50.3513 125.628C49.8017 125.444 49.3266 125.205 48.8993 124.895C48.0023 124.245 47.307 123.343 46.8886 122.288C46.5989 121.554 46.452 120.778 46.452 119.98C46.452 119.381 46.5363 118.787 46.7024 118.217C46.8623 117.666 47.0977 117.143 47.4012 116.663C48.006 115.704 48.8497 114.96 49.8422 114.509C50.5249 114.199 51.2505 114.041 51.9991 114.041C52.5177 114.041 53.0379 114.115 53.5463 114.26C54.0193 114.396 54.4991 114.598 54.9718 114.863C55.8025 115.328 56.618 115.973 57.5381 116.892C58.0123 117.366 58.4978 117.895 59.1121 118.609L59.8616 119.479L60.6339 118.637L60.7268 118.528C61.5411 117.588 62.5199 116.512 63.6 115.666C64.2225 115.181 64.8208 114.815 65.4283 114.548C66.1935 114.212 66.9798 114.042 67.7651 114.042C68.3293 114.042 68.8858 114.131 69.4191 114.309C69.9353 114.482 70.4229 114.733 70.8691 115.057C71.7647 115.706 72.4601 116.611 72.8805 117.673C73.1709 118.406 73.3178 119.183 73.3169 119.983C73.3178 120.583 73.2338 121.178 73.0674 121.749C72.9077 122.3 72.6726 122.823 72.3686 123.305C71.7638 124.263 70.9197 125.008 69.9277 125.459C69.2442 125.769 68.5192 125.926 67.7738 125.926ZM67.7707 114.663C67.2987 114.663 66.8418 114.728 66.3743 114.861C65.9382 114.985 65.5104 115.166 65.0666 115.413C64.2922 115.845 63.4942 116.478 62.6267 117.346C62.1719 117.801 61.6815 118.336 61.0837 119.03L60.2673 119.985L61.1539 121.019C62.2608 122.301 63.1207 123.158 63.9424 123.799C64.5191 124.25 65.0931 124.602 65.6483 124.844C66.3566 125.154 67.0504 125.304 67.7696 125.305C68.2714 125.305 68.7679 125.225 69.2447 125.066C69.7052 124.912 70.1425 124.687 70.5448 124.395C71.3473 123.815 71.9703 123.005 72.3466 122.053C72.6058 121.397 72.7374 120.701 72.7374 119.984C72.7374 119.447 72.6622 118.916 72.5142 118.405C72.3695 117.909 72.1591 117.44 71.8885 117.011C71.3454 116.151 70.5892 115.484 69.7012 115.081C69.0897 114.804 68.4401 114.663 67.7707 114.663ZM51.9991 114.853C51.4264 114.853 50.9166 114.867 50.5256 114.997L50.5152 115C50.1472 115.123 49.707 115.271 49.2249 115.62C48.4077 116.212 47.8014 116.983 47.4235 117.939C47.164 118.595 47.0327 119.283 47.0327 119.995C47.0327 120.53 47.1078 121.058 47.2557 121.569C47.4001 122.065 47.6111 122.531 47.8829 122.961C48.4235 123.819 49.1795 124.485 50.0687 124.888C50.6801 125.166 51.3296 125.306 51.9991 125.306C52.47 125.306 52.9269 125.241 53.3949 125.108C53.8303 124.983 54.2708 124.796 54.7044 124.554C55.4778 124.123 56.2754 123.491 57.1427 122.622C57.6036 122.161 58.0941 121.625 58.6868 120.937L59.5035 119.986L58.6197 118.953C57.5096 117.667 56.6487 116.809 55.828 116.169C55.3257 115.776 54.7679 115.502 54.1223 115.219C53.4915 114.944 52.7577 114.853 52.0001 114.853H51.9991Z" fill="white"/>
<path opacity="0.3" fill-rule="evenodd" clip-rule="evenodd" d="M180.335 216.154C180.923 216.322 181.525 216.407 182.128 216.407C182.988 216.407 183.828 216.225 184.618 215.866C185.764 215.346 186.739 214.485 187.439 213.377C187.79 212.82 188.062 212.214 188.246 211.579C188.438 210.919 188.535 210.232 188.535 209.538C188.535 208.613 188.365 207.715 188.031 206.866C187.545 205.64 186.741 204.594 185.706 203.844C185.191 203.47 184.625 203.178 184.029 202.979C183.413 202.774 182.77 202.67 182.118 202.67C181.209 202.67 180.301 202.866 179.416 203.256C178.715 203.563 178.023 203.987 177.304 204.549C176.055 205.525 174.924 206.769 173.983 207.857L173.875 207.982L172.983 208.955L172.117 207.949C171.406 207.125 170.845 206.512 170.297 205.964C169.234 204.903 168.291 204.157 167.331 203.619C166.784 203.314 166.23 203.079 165.683 202.923C165.096 202.755 164.494 202.67 163.895 202.67C163.03 202.67 162.191 202.852 161.402 203.21C160.255 203.732 159.28 204.592 158.58 205.699C158.23 206.254 157.958 206.859 157.773 207.496C157.581 208.155 157.483 208.84 157.483 209.534C157.483 210.455 157.653 211.352 157.988 212.201C158.472 213.422 159.275 214.464 160.312 215.215C160.806 215.573 161.355 215.85 161.991 216.062C162.542 216.246 163.169 216.336 163.905 216.336C164.864 216.336 165.772 216.15 166.603 215.784C167.384 215.443 168.056 215.044 168.715 214.528C169.966 213.55 171.094 212.31 172.033 211.226L172.157 211.082L173.049 210.138L173.901 211.127C174.612 211.952 175.173 212.565 175.723 213.113C176.785 214.175 177.727 214.919 178.687 215.457C179.233 215.762 179.788 215.998 180.335 216.154ZM180.511 203.617C181.052 203.463 181.579 203.388 182.125 203.388C182.898 203.388 183.649 203.551 184.357 203.872C185.381 204.337 186.257 205.109 186.883 206.103C187.197 206.599 187.439 207.14 187.608 207.713C187.778 208.304 187.864 208.918 187.864 209.538C187.864 210.367 187.713 211.172 187.413 211.93C186.978 213.03 186.259 213.966 185.331 214.638C184.866 214.974 184.36 215.234 183.828 215.413C183.276 215.595 182.702 215.689 182.123 215.689C181.293 215.687 180.49 215.514 179.671 215.156C179.029 214.875 178.366 214.469 177.7 213.949C176.75 213.208 175.756 212.216 174.476 210.735L173.452 209.539L174.395 208.436C175.086 207.635 175.653 207.016 176.179 206.49C177.182 205.486 178.104 204.755 178.999 204.256C179.512 203.969 180.006 203.761 180.511 203.617ZM162.192 203.773C162.644 203.624 163.233 203.609 163.895 203.609H163.896C164.772 203.609 165.62 203.713 166.349 204.03C167.095 204.358 167.74 204.675 168.321 205.128C169.269 205.869 170.264 206.861 171.547 208.346L172.569 209.541L171.625 210.639C170.94 211.436 170.373 212.055 169.84 212.587C168.838 213.592 167.916 214.322 167.022 214.82C166.521 215.101 166.012 215.316 165.508 215.462C164.967 215.614 164.439 215.689 163.895 215.689C163.121 215.689 162.37 215.528 161.664 215.207C160.636 214.74 159.762 213.972 159.137 212.979C158.823 212.483 158.58 211.944 158.412 211.371C158.241 210.78 158.155 210.171 158.155 209.552C158.155 208.728 158.306 207.933 158.606 207.175C159.043 206.07 159.744 205.178 160.689 204.495C161.246 204.091 161.754 203.921 162.18 203.779L162.192 203.773Z" fill="white"/>
<path opacity="0.3" d="M69.0224 171.86H60.2855V187.495C60.2855 187.691 60.1224 187.849 59.9214 187.849C59.7202 187.849 59.5574 187.691 59.5574 187.495V171.86H56.7944C56.6113 171.86 56.463 171.685 56.463 171.47C56.463 171.253 56.6113 171.08 56.7944 171.08H72.6954C72.8786 171.08 73.0268 171.253 73.0268 171.47C73.0268 171.685 72.8786 171.86 72.6954 171.86H69.681V184.213C69.681 184.425 69.7994 185.328 70.3792 185.88C70.7957 186.276 71.3795 186.43 72.112 186.336C72.2935 186.31 72.4569 186.451 72.4782 186.645C72.5 186.838 72.3707 187.015 72.1903 187.037C72.0228 187.058 71.8611 187.07 71.7048 187.07C70.9951 187.07 70.4038 186.848 69.9421 186.409C69.1875 185.689 69.0224 184.581 69.0224 184.213V171.86Z" fill="white"/>
<path opacity="0.3" d="M137.308 226.465H142.582V233.832C142.582 234.051 142.682 234.712 143.138 235.141C143.417 235.403 143.774 235.535 144.202 235.535C144.296 235.535 144.394 235.528 144.495 235.515C144.604 235.502 144.682 235.397 144.669 235.281C144.656 235.166 144.557 235.083 144.448 235.097C144.006 235.154 143.653 235.061 143.402 234.826C143.052 234.496 142.98 233.957 142.98 233.832V226.465H144.8C144.911 226.465 145 226.362 145 226.233C145 226.105 144.911 226 144.8 226H135.2C135.089 226 135 226.105 135 226.233C135 226.362 135.089 226.465 135.2 226.465H136.868V235.789C136.868 235.905 136.967 236 137.088 236C137.209 236 137.308 235.905 137.308 235.789V226.465Z" fill="white"/>
<path opacity="0.3" d="M134.549 180.119C134.549 180.414 134.772 180.775 135.046 180.775H156.04C156.313 180.775 156.536 180.414 156.536 180.119C156.536 179.826 156.313 179.465 156.04 179.465H135.046C134.772 179.465 134.549 179.826 134.549 180.119Z" fill="white"/>
<path opacity="0.3" d="M41 2.65398C41 2.94887 41.2228 3.30969 41.497 3.30969H62.4904C62.7639 3.30969 62.9867 2.94887 62.9867 2.65398C62.9867 2.36082 62.7639 2 62.4904 2H41.497C41.2228 2 41 2.36082 41 2.65398Z" fill="white"/>
<path opacity="0.3" d="M149.857 45.6156C151.406 46.7223 153.208 47.2538 155.069 47.2538H155.071C156.931 47.2538 158.734 46.7232 160.282 45.617C160.41 45.5252 160.487 45.4263 160.487 45.2617C160.487 44.9904 160.281 44.772 160.028 44.772C159.94 44.772 159.847 44.8064 159.774 44.8589C158.376 45.8571 156.749 46.3926 155.07 46.3927C153.478 46.3926 151.934 45.8593 150.57 45.0225H150.562L150.365 44.8657C148.817 43.7597 147.015 43.1588 145.152 43.1588C143.292 43.1588 141.489 43.743 139.942 44.8487C139.813 44.9406 139.737 45.0921 139.737 45.2567C139.737 45.5278 139.942 45.7448 140.195 45.7448C140.284 45.7448 140.376 45.7081 140.45 45.656C141.847 44.6572 143.473 44.116 145.153 44.116C146.833 44.116 148.46 44.6175 149.857 45.6156Z" fill="white"/>
<path opacity="0.3" d="M149.857 51.8556C151.406 52.9624 153.208 53.4939 155.069 53.4939H155.071C156.931 53.4939 158.734 52.9632 160.282 51.857C160.41 51.7653 160.487 51.6664 160.487 51.5018C160.487 51.2305 160.281 51.0121 160.028 51.0121C159.94 51.0121 159.847 51.0464 159.774 51.099C158.376 52.0971 156.749 52.6324 155.07 52.6328C153.478 52.6324 151.934 52.0994 150.57 51.2626H150.562L150.365 51.1057C148.817 49.9997 147.015 49.3988 145.152 49.3988C143.292 49.3988 141.489 49.983 139.942 51.0887C139.813 51.1807 139.737 51.3321 139.737 51.4967C139.737 51.7679 139.942 51.9849 140.195 51.9849C140.284 51.9849 140.376 51.9481 140.45 51.8961C141.847 50.8972 143.473 50.356 145.153 50.356C146.833 50.356 148.46 50.8575 149.857 51.8556Z" fill="white"/>
<path opacity="0.3" fill-rule="evenodd" clip-rule="evenodd" d="M167.083 150.379C169.407 150.379 171.29 148.362 171.29 145.874C171.29 143.385 169.407 141.367 167.083 141.367C164.76 141.367 162.877 143.385 162.877 145.874C162.877 148.362 164.76 150.379 167.083 150.379ZM167.083 149.404C168.904 149.404 170.379 147.824 170.379 145.874C170.379 143.922 168.904 142.342 167.083 142.342C165.263 142.342 163.787 143.922 163.787 145.874C163.787 147.824 165.263 149.404 167.083 149.404Z" fill="white"/>
<path opacity="0.3" fill-rule="evenodd" clip-rule="evenodd" d="M178.167 145.874C178.167 152.431 173.204 157.748 167.083 157.748C160.962 157.748 156 152.431 156 145.874C156 139.315 160.962 134 167.083 134C173.204 134 178.167 139.315 178.167 145.874ZM177.256 145.874C177.256 151.893 172.701 156.773 167.083 156.773C161.465 156.773 156.91 151.893 156.91 145.874C156.91 139.855 161.465 134.975 167.083 134.975C172.701 134.975 177.256 139.855 177.256 145.874Z" fill="white"/>
<path opacity="0.3" fill-rule="evenodd" clip-rule="evenodd" d="M95 251C96.1047 251 97 249.881 97 248.5C97 247.119 96.1047 246 95 246C93.8953 246 93 247.119 93 248.5C93 249.881 93.8953 251 95 251ZM95 250.459C95.8656 250.459 96.5672 249.582 96.5672 248.5C96.5672 247.418 95.8656 246.541 95 246.541C94.1344 246.541 93.4328 247.418 93.4328 248.5C93.4328 249.582 94.1344 250.459 95 250.459Z" fill="white"/>
<path opacity="0.3" fill-rule="evenodd" clip-rule="evenodd" d="M101 248.5C101 252.089 98.3135 255 94.9999 255C91.6864 255 89 252.089 89 248.5C89 244.91 91.6864 242 94.9999 242C98.3135 242 101 244.91 101 248.5ZM100.507 248.5C100.507 251.795 98.0413 254.466 94.9999 254.466C91.9586 254.466 89.4927 251.795 89.4927 248.5C89.4927 245.205 91.9586 242.534 94.9999 242.534C98.0413 242.534 100.507 245.205 100.507 248.5Z" fill="white"/>
<path opacity="0.3" d="M21.373 259.827C21.4368 259.976 21.5707 260 21.7226 260C21.8866 260 22.0241 259.967 22.0812 259.806L30.0088 237.593H44.744C45.0072 237.593 45.1255 237.393 45.1255 237.194C45.1255 236.996 45.0072 236.795 44.744 236.795H29.7452C29.5772 236.795 29.4399 236.838 29.3858 236.991L21.6893 258.529L17.8853 249.712C17.8217 249.562 17.6844 249.571 17.5845 249.576C17.5739 249.576 17.564 249.576 17.5543 249.578C17.5505 249.578 17.5465 249.578 17.5427 249.578H17.5364H14.7458C14.4824 249.578 14.3643 249.779 14.3643 249.977C14.3643 250.176 14.4824 250.376 14.7458 250.376H17.2899L21.373 259.827Z" fill="white"/>
</g>
</svg>
