<svg width="2353" height="1764" viewBox="0 0 2353 1764" fill="none" xmlns="http://www.w3.org/2000/svg">
<g opacity="0.3">
<path opacity="0.3" d="M1164.65 392.126C1163.94 392.126 1163.32 391.876 1162.9 391.427L1110.1 334.89L1058.32 390.34C1057.9 390.787 1057.28 391.034 1056.56 391.034C1055.66 391.034 1054.73 390.636 1054.13 389.993C1053.09 388.874 1052.72 386.671 1053.81 385.511L1105.59 330.065L1053.81 274.61C1053.39 274.161 1053.16 273.499 1053.16 272.739C1053.16 271.774 1053.53 270.777 1054.13 270.135C1054.73 269.493 1055.66 269.094 1056.56 269.094C1057.27 269.094 1057.9 269.341 1058.32 269.793L1110.1 325.241L1162.9 268.699C1163.32 268.247 1163.94 268 1164.65 268C1165.55 268 1166.48 268.401 1167.08 269.041C1167.68 269.683 1168.06 270.68 1168.06 271.642C1168.05 272.404 1167.82 273.071 1167.4 273.521L1114.61 330.06L1167.4 386.605C1168.04 387.289 1168.08 388.242 1168.04 388.75C1167.98 389.632 1167.62 390.504 1167.08 391.088C1166.48 391.725 1165.55 392.126 1164.65 392.126Z" fill="white"/>
<path opacity="0.3" d="M783.412 278.563H724.165V384.548C724.165 385.873 723.06 386.949 721.697 386.949C720.332 386.949 719.227 385.873 719.227 384.548V278.563H700.491C699.249 278.563 698.244 277.381 698.244 275.92C698.244 274.458 699.249 273.276 700.491 273.276H808.319C809.561 273.276 810.566 274.458 810.566 275.92C810.566 277.381 809.561 278.563 808.319 278.563H787.878V362.299C787.878 363.733 788.682 369.855 792.614 373.598C795.439 376.285 799.397 377.327 804.363 376.688C805.595 376.52 806.701 377.467 806.847 378.781C806.995 380.096 806.119 381.287 804.896 381.443C803.759 381.589 802.661 381.662 801.603 381.662C796.79 381.662 792.78 380.163 789.649 377.18C784.531 372.311 783.412 364.787 783.412 362.299V278.563Z" fill="white"/>
<path opacity="0.3" d="M292.525 415.051C291.649 415.051 290.877 414.907 290.509 414.057L266.961 359.575H252.289C250.77 359.575 250.089 358.419 250.089 357.274C250.089 356.127 250.77 354.969 252.289 354.969H268.383C268.428 354.969 268.474 354.968 268.525 354.966C268.567 354.964 268.612 354.961 268.657 354.959L268.66 354.959C269.236 354.927 270.028 354.884 270.395 355.74L292.333 406.571L336.72 282.408C337.032 281.536 337.824 281.281 338.793 281.281H425.293C426.811 281.281 427.493 282.437 427.493 283.582C427.493 284.729 426.811 285.886 425.293 285.886H340.313L294.593 413.934C294.264 414.86 293.471 415.051 292.525 415.051Z" fill="white"/>
<path opacity="0.3" d="M504.67 528.588C503.311 528.588 502.05 527.403 502.05 525.877V485.871H464.693C463.268 485.871 462.16 484.522 462.16 483.067C462.16 481.613 463.268 480.263 464.693 480.263H502.05V440.245C502.05 438.719 503.311 437.534 504.67 437.534C506.027 437.534 507.288 438.719 507.288 440.245V480.263H544.657C546.081 480.263 547.188 481.613 547.188 483.067C547.188 484.522 546.081 485.871 544.657 485.871H507.288V525.877C507.288 527.403 506.027 528.588 504.67 528.588Z" fill="white"/>
<path opacity="0.3" d="M26.2242 593.582H91.9484L91.9724 593.593L91.9949 593.603C92.0024 593.608 92.0099 593.612 92.0174 593.617L92.0324 593.628C92.0774 593.657 92.1419 593.696 92.2244 593.728C92.3083 593.759 92.4178 593.787 92.5483 593.787C92.6413 593.787 92.7582 593.784 92.8872 593.751C92.9412 593.738 92.9862 593.722 93.0012 593.717L93.0132 593.712C93.0536 593.701 93.1316 593.673 93.2156 593.624C93.2696 593.593 93.4076 593.505 93.5215 593.328C93.5845 593.23 93.643 593.099 93.667 592.935C93.6895 592.781 93.676 592.634 93.6385 592.503V577.615C93.6385 577.245 93.442 577.014 93.4076 576.972L93.4061 576.971C93.3431 576.897 93.2831 576.848 93.2576 576.828C93.1991 576.784 93.1466 576.752 93.1211 576.739C93.0627 576.706 92.9997 576.675 92.9472 576.651C92.8377 576.601 92.7012 576.543 92.5678 576.492C92.4343 576.439 92.2904 576.388 92.1674 576.346C92.1059 576.325 92.0414 576.306 91.9799 576.29L91.9754 576.288C91.9394 576.278 91.815 576.245 91.6785 576.245C91.1206 576.245 90.6018 576.508 90.2359 576.832C89.885 577.141 89.4891 577.672 89.4891 578.353V589.158H30.0888L61.1213 546.173L61.2188 545.932C61.567 545.596 61.9744 544.992 61.9744 544.137C61.9744 543.889 61.9351 543.574 61.8419 543.3L61.7934 543.157L31.3502 501.537H89.4891V510.593C89.4891 511.274 89.885 511.805 90.2344 512.113C90.6018 512.436 91.1206 512.701 91.6785 512.701C91.764 512.701 92.0459 512.693 92.3023 512.68C92.4298 512.672 92.5678 512.664 92.6802 512.653C92.6982 512.65 92.7192 512.648 92.7402 512.645C92.7822 512.64 92.8272 512.634 92.8722 512.624C92.9007 512.618 92.9742 512.602 93.0582 512.566C93.0956 512.55 93.1901 512.508 93.2921 512.423C93.3776 512.353 93.6385 512.104 93.6385 511.667V497.113H28.2218C27.7542 497.113 27.3835 497.347 27.1319 497.582C26.8779 497.819 26.6792 498.115 26.5295 498.399C26.239 498.952 26.0322 499.655 26.0322 500.243C26.0322 500.732 26.1798 501.084 26.3453 501.372L26.3618 501.401L26.5355 501.659L57.2836 544.512L24.8109 589.811C24.5615 590.16 24.4395 590.582 24.406 590.969C24.3729 591.353 24.42 591.783 24.5899 592.177C24.7378 592.54 24.9499 592.854 25.1888 593.092C25.3946 593.296 25.7614 593.582 26.2242 593.582Z" fill="white"/>
<path opacity="0.3" fill-rule="evenodd" clip-rule="evenodd" d="M993.889 643.73C991.98 643.73 990.121 643.342 988.36 642.577C986.534 641.786 984.899 640.623 983.497 639.121C982.093 637.615 981.006 635.865 980.27 633.915C979.556 632.027 979.193 630.034 979.193 627.993C979.193 625.95 979.556 623.957 980.27 622.07C981.009 620.114 982.095 618.364 983.497 616.865C984.901 615.362 986.535 614.198 988.359 613.408C990.122 612.644 991.982 612.255 993.889 612.255C995.797 612.255 997.656 612.644 999.42 613.408C1001.24 614.2 1002.88 615.361 1004.28 616.864C1005.68 618.365 1006.77 620.116 1007.51 622.072C1008.22 623.955 1008.59 625.948 1008.59 627.993C1008.59 630.034 1008.22 632.027 1007.51 633.917C1006.77 635.871 1005.68 637.622 1004.28 639.118C1002.88 640.621 1001.25 641.786 999.423 642.577C997.658 643.342 995.797 643.73 993.889 643.73ZM993.889 616.368C992.477 616.368 991.101 616.655 989.801 617.22C988.459 617.805 987.254 618.661 986.219 619.767C985.177 620.887 984.373 622.181 983.83 623.615C983.3 625.014 983.034 626.488 983.035 627.997C983.035 629.505 983.302 630.975 983.828 632.367C984.379 633.811 985.18 635.104 986.211 636.21C987.249 637.32 988.455 638.179 989.798 638.763C991.104 639.33 992.48 639.616 993.889 639.616C995.303 639.616 996.68 639.33 997.977 638.765C999.319 638.18 1000.52 637.324 1001.56 636.218C1002.6 635.097 1003.41 633.803 1003.95 632.369C1004.48 630.978 1004.74 629.505 1004.74 627.993C1004.74 626.48 1004.48 625.006 1003.95 623.615C1003.41 622.181 1002.6 620.891 1001.57 619.778C1000.53 618.664 999.319 617.805 997.982 617.22C996.673 616.655 995.297 616.368 993.889 616.368Z" fill="white"/>
<path opacity="0.3" d="M980.163 712.218C979.623 712.218 979.115 712 978.734 711.602C977.947 710.781 977.947 709.442 978.734 708.62L1054.79 629.287C1055.17 628.889 1055.68 628.67 1056.22 628.67C1056.76 628.67 1057.27 628.889 1057.65 629.287C1058.03 629.687 1058.24 630.215 1058.24 630.776C1058.24 631.341 1058.03 631.869 1057.65 632.268L981.592 711.602C981.21 712 980.703 712.218 980.163 712.218Z" fill="white"/>
<path opacity="0.3" fill-rule="evenodd" clip-rule="evenodd" d="M1043.54 724.185C1041.52 724.185 1039.55 723.792 1037.68 723.015C1035.75 722.212 1034.02 721.032 1032.53 719.504C1031.05 717.982 1029.9 716.204 1029.11 714.219C1028.36 712.302 1027.97 710.28 1027.97 708.207C1027.97 706.134 1028.36 704.112 1029.11 702.193C1029.9 700.208 1031.04 698.43 1032.53 696.911C1034.02 695.384 1035.75 694.202 1037.68 693.397C1039.55 692.622 1041.52 692.228 1043.54 692.228C1045.56 692.228 1047.53 692.622 1049.4 693.397C1051.33 694.202 1053.06 695.382 1054.54 696.905C1056.03 698.432 1057.18 700.211 1057.97 702.194C1058.72 704.107 1059.11 706.13 1059.11 708.207C1059.11 710.28 1058.72 712.303 1057.96 714.221C1057.18 716.203 1056.03 717.98 1054.55 719.503C1053.06 721.03 1051.33 722.212 1049.4 723.015C1047.53 723.792 1045.56 724.185 1043.54 724.185ZM1043.54 696.402C1042.04 696.402 1040.59 696.693 1039.21 697.266C1037.79 697.86 1036.51 698.732 1035.41 699.856C1034.31 700.987 1033.46 702.299 1032.89 703.762C1032.33 705.17 1032.04 706.667 1032.04 708.205C1032.04 709.744 1032.33 711.24 1032.89 712.655C1033.46 714.109 1034.31 715.417 1035.4 716.546C1036.51 717.677 1037.79 718.549 1039.2 719.141C1040.59 719.715 1042.05 720.007 1043.54 720.007C1045.04 720.007 1046.49 719.716 1047.87 719.143C1049.29 718.547 1050.57 717.677 1051.67 716.554C1052.76 715.429 1053.61 714.118 1054.19 712.654C1054.75 711.234 1055.04 709.737 1055.04 708.205C1055.04 706.673 1054.75 705.178 1054.2 703.763C1053.61 702.296 1052.76 700.982 1051.67 699.858C1050.57 698.734 1049.3 697.865 1047.88 697.269C1046.49 696.694 1045.04 696.402 1043.54 696.402Z" fill="white"/>
<path opacity="0.3" fill-rule="evenodd" clip-rule="evenodd" d="M526.652 1462.6C524.743 1462.6 522.884 1462.21 521.123 1461.44C519.297 1460.65 517.662 1459.49 516.26 1457.99C514.855 1456.48 513.769 1454.73 513.033 1452.78C512.319 1450.89 511.956 1448.9 511.956 1446.86C511.956 1444.82 512.319 1442.82 513.033 1440.93C513.772 1438.98 514.858 1437.23 516.259 1435.73C517.664 1434.23 519.298 1433.06 521.122 1432.27C522.885 1431.51 524.745 1431.12 526.652 1431.12C528.56 1431.12 530.419 1431.51 532.183 1432.27C534.008 1433.06 535.643 1434.23 537.043 1435.73C538.447 1437.23 539.533 1438.98 540.272 1440.94C540.986 1442.82 541.349 1444.81 541.349 1446.86C541.349 1448.9 540.986 1450.89 540.27 1452.78C539.531 1454.74 538.445 1456.49 537.045 1457.98C535.644 1459.49 534.008 1460.65 532.186 1461.44C530.421 1462.21 528.56 1462.6 526.652 1462.6ZM526.652 1435.23C525.24 1435.23 523.863 1435.52 522.564 1436.09C521.222 1436.67 520.017 1437.53 518.982 1438.63C517.94 1439.75 517.136 1441.05 516.593 1442.48C516.064 1443.88 515.797 1445.35 515.797 1446.86C515.797 1448.37 516.065 1449.84 516.591 1451.23C517.142 1452.68 517.943 1453.97 518.974 1455.07C520.012 1456.18 521.218 1457.04 522.56 1457.63C523.868 1458.19 525.243 1458.48 526.652 1458.48C528.067 1458.48 529.443 1458.19 530.74 1457.63C532.081 1457.05 533.285 1456.19 534.323 1455.08C535.365 1453.96 536.169 1452.67 536.71 1451.23C537.24 1449.84 537.507 1448.37 537.507 1446.86C537.507 1445.34 537.24 1443.87 536.71 1442.48C536.169 1441.05 535.368 1439.76 534.332 1438.64C533.288 1437.53 532.081 1436.67 530.743 1436.09C529.436 1435.52 528.061 1435.23 526.652 1435.23Z" fill="white"/>
<path opacity="0.3" d="M512.926 1531.08C512.385 1531.08 511.878 1530.86 511.497 1530.47C510.71 1529.65 510.71 1528.31 511.497 1527.48L587.555 1448.15C587.936 1447.75 588.444 1447.54 588.984 1447.54C589.525 1447.54 590.032 1447.75 590.413 1448.15C590.797 1448.55 591.007 1449.08 591.007 1449.64C591.007 1450.21 590.797 1450.73 590.413 1451.13L514.356 1530.47C513.973 1530.86 513.466 1531.08 512.926 1531.08Z" fill="white"/>
<path opacity="0.3" fill-rule="evenodd" clip-rule="evenodd" d="M576.302 1543.05C574.282 1543.05 572.311 1542.66 570.443 1541.88C568.513 1541.08 566.781 1539.9 565.295 1538.37C563.808 1536.85 562.658 1535.07 561.875 1533.08C561.12 1531.17 560.734 1529.14 560.734 1527.07C560.734 1525 561.12 1522.98 561.875 1521.06C562.658 1519.07 563.807 1517.29 565.29 1515.78C566.779 1514.25 568.513 1513.07 570.443 1512.26C572.31 1511.49 574.28 1511.09 576.302 1511.09C578.322 1511.09 580.294 1511.49 582.159 1512.26C584.094 1513.07 585.826 1514.25 587.307 1515.77C588.795 1517.3 589.945 1519.08 590.729 1521.06C591.485 1522.97 591.868 1525 591.868 1527.07C591.868 1529.14 591.484 1531.17 590.728 1533.09C589.945 1535.07 588.796 1536.84 587.312 1538.37C585.826 1539.89 584.094 1541.08 582.161 1541.88C580.292 1542.66 578.322 1543.05 576.302 1543.05ZM576.303 1515.27C574.808 1515.27 573.352 1515.56 571.975 1516.13C570.551 1516.72 569.273 1517.6 568.175 1518.72C567.076 1519.85 566.227 1521.16 565.648 1522.63C565.089 1524.04 564.804 1525.53 564.804 1527.07C564.804 1528.61 565.089 1530.1 565.651 1531.52C566.224 1532.97 567.072 1534.28 568.166 1535.41C569.271 1536.54 570.551 1537.41 571.968 1538.01C573.352 1538.58 574.81 1538.87 576.302 1538.87C577.8 1538.87 579.257 1538.58 580.633 1538.01C582.056 1537.41 583.333 1536.54 584.428 1535.42C585.526 1534.29 586.376 1532.98 586.956 1531.52C587.516 1530.1 587.802 1528.6 587.802 1527.07C587.802 1525.54 587.517 1524.04 586.959 1522.63C586.378 1521.16 585.526 1519.85 584.428 1518.72C583.335 1517.6 582.06 1516.73 580.639 1516.14C579.257 1515.56 577.798 1515.27 576.303 1515.27Z" fill="white"/>
<path opacity="0.3" d="M45.3906 876.604C45.3906 878.13 46.6515 879.315 48.0093 879.315C49.3672 879.315 50.6279 878.13 50.6279 876.604V836.598H87.9968C89.4215 836.598 90.5297 835.249 90.5297 833.794C90.5297 832.339 89.4215 830.991 87.9968 830.991H50.6279V790.972C50.6279 789.446 49.3676 788.261 48.0093 788.261C46.6509 788.261 45.3906 789.446 45.3906 790.972V830.991H8.0325C6.60772 830.991 5.50085 832.339 5.50085 833.794C5.50085 835.249 6.60772 836.598 8.0325 836.598H45.3906V876.604Z" fill="white"/>
<path opacity="0.3" d="M606.029 1152.23H529.35C528.81 1152.23 528.381 1151.9 528.142 1151.66C527.864 1151.38 527.615 1151.01 527.443 1150.58C527.245 1150.12 527.191 1149.62 527.228 1149.17C527.267 1148.71 527.41 1148.22 527.701 1147.81L565.585 1094.61L529.713 1044.28L529.511 1043.97L529.491 1043.94C529.298 1043.61 529.125 1043.19 529.125 1042.62C529.125 1041.93 529.367 1041.1 529.706 1040.45C529.881 1040.12 530.112 1039.77 530.409 1039.49C530.703 1039.21 531.135 1038.94 531.681 1038.94H607.999V1056.03C607.999 1056.55 607.695 1056.84 607.596 1056.92C607.563 1056.95 607.531 1056.97 607.5 1056.99L607.483 1057C607.473 1057.01 607.462 1057.02 607.453 1057.02C607.425 1057.04 607.399 1057.05 607.378 1057.06C607.369 1057.07 607.36 1057.07 607.353 1057.08C607.341 1057.08 607.33 1057.09 607.323 1057.09C607.225 1057.13 607.138 1057.15 607.107 1057.16C607.026 1057.17 606.942 1057.18 606.882 1057.19C606.751 1057.2 606.589 1057.21 606.441 1057.22C606.141 1057.24 605.814 1057.25 605.714 1057.25C605.063 1057.25 604.457 1056.94 604.03 1056.56C603.622 1056.19 603.158 1055.57 603.158 1054.77V1044.14H535.331L570.848 1093.02L570.905 1093.18C571.013 1093.51 571.059 1093.87 571.059 1094.17C571.059 1095.17 570.584 1095.88 570.177 1096.28L570.063 1096.56L533.858 1147.04H603.158V1134.35C603.158 1133.55 603.622 1132.92 604.03 1132.56C604.458 1132.18 605.063 1131.87 605.714 1131.87C605.799 1131.87 605.883 1131.89 605.946 1131.9C605.958 1131.9 605.969 1131.9 605.979 1131.91C605.991 1131.91 606.003 1131.91 606.014 1131.91C606.032 1131.92 606.045 1131.92 606.054 1131.92L606.06 1131.92L606.065 1131.93C606.101 1131.94 606.14 1131.95 606.177 1131.96C606.213 1131.97 606.249 1131.98 606.283 1131.99C606.427 1132.04 606.595 1132.1 606.751 1132.16C606.906 1132.23 607.066 1132.29 607.194 1132.35C607.228 1132.37 607.266 1132.39 607.305 1132.4C607.335 1132.42 607.366 1132.44 607.396 1132.45C607.426 1132.47 607.488 1132.51 607.555 1132.56C607.585 1132.58 607.656 1132.64 607.728 1132.73L607.731 1132.73C607.771 1132.78 607.999 1133.05 607.999 1133.48V1150.97C608.044 1151.12 608.061 1151.29 608.034 1151.47C608.007 1151.67 607.936 1151.82 607.863 1151.94C607.731 1152.14 607.569 1152.25 607.507 1152.28C607.408 1152.34 607.318 1152.37 607.27 1152.39L607.258 1152.39L607.255 1152.39C607.239 1152.4 607.186 1152.42 607.125 1152.43C606.972 1152.47 606.835 1152.48 606.727 1152.48C606.576 1152.48 606.447 1152.44 606.349 1152.41C606.254 1152.37 606.179 1152.32 606.126 1152.29L606.108 1152.28C606.099 1152.27 606.09 1152.26 606.083 1152.26L606.056 1152.25L606.029 1152.23Z" fill="white"/>
<path opacity="0.3" d="M629.956 777.019C629.456 777.019 629.016 776.843 628.719 776.526L591.512 736.684L555.019 775.76C554.724 776.075 554.287 776.25 553.783 776.25C553.151 776.25 552.494 775.969 552.069 775.516C551.339 774.728 551.078 773.175 551.841 772.357L588.335 733.284L551.846 694.205C551.551 693.887 551.387 693.421 551.387 692.885C551.387 692.206 551.648 691.504 552.072 691.051C552.494 690.598 553.149 690.317 553.78 690.317C554.284 690.317 554.725 690.491 555.025 690.81L591.512 729.885L628.721 690.038C629.016 689.72 629.454 689.546 629.953 689.546C630.591 689.546 631.246 689.829 631.666 690.28C632.092 690.732 632.356 691.435 632.356 692.113C632.353 692.651 632.191 693.119 631.894 693.436L594.69 733.281L631.892 773.128C632.344 773.61 632.369 774.281 632.344 774.639C632.3 775.261 632.048 775.876 631.666 776.287C631.246 776.737 630.591 777.019 629.956 777.019Z" fill="white"/>
<path opacity="0.3" d="M238.263 690.462C236.679 690.462 235.393 688.586 235.393 686.885C235.393 685.183 236.679 683.311 238.263 683.311H244.447C248.88 683.311 253.277 682.294 257.16 679.999C260.97 677.742 264.23 674.575 266.589 670.656C268.204 667.971 269.38 665.073 270.079 661.943L288.549 579.247C289.403 575.435 290.833 571.855 292.804 568.581C294.722 565.392 297.105 562.268 299.891 559.911C305.522 555.132 312.579 552.195 319.756 552.195H325.948C327.532 552.195 328.819 554.069 328.819 555.771C328.819 557.473 327.532 559.346 325.948 559.346H319.761C315.327 559.346 310.933 560.386 307.05 562.681C303.24 564.939 299.981 568.114 297.624 572.031C296.004 574.722 294.831 577.625 294.133 580.754L275.659 663.452C274.81 667.265 273.379 670.844 271.407 674.12C269.488 677.31 267.105 680.411 264.32 682.77C258.688 687.545 251.632 690.462 244.456 690.462H238.263Z" fill="white"/>
<path opacity="0.3" d="M327.027 690.462C326.266 690.462 325.55 690.147 325.013 689.571L312.548 676.221L300.082 689.572C299.545 690.147 298.828 690.462 298.068 690.462C297.31 690.462 296.593 690.147 296.058 689.572C294.95 688.384 294.95 686.451 296.06 685.262L308.524 671.916L296.058 658.566C294.95 657.377 294.95 655.446 296.058 654.257C296.593 653.684 297.31 653.366 298.068 653.366C298.828 653.366 299.545 653.684 300.082 654.26L312.548 667.609L325.013 654.257C325.55 653.684 326.266 653.366 327.027 653.366C327.787 653.366 328.501 653.684 329.038 654.257C330.144 655.446 330.144 657.377 329.038 658.566L316.57 671.916L329.038 685.264C330.144 686.451 330.144 688.384 329.035 689.572C328.501 690.147 327.787 690.462 327.027 690.462Z" fill="white"/>
<path opacity="0.3" d="M59.0372 1529.42C59.0372 1531.12 60.3238 1532.99 61.9076 1532.99H68.1008C75.2767 1532.99 82.3327 1530.08 87.9654 1525.3C90.7502 1522.94 93.1331 1519.84 95.0526 1516.65C97.0246 1513.37 98.4552 1509.79 99.304 1505.98L117.778 1423.28C118.477 1420.16 119.649 1417.25 121.269 1414.56C123.626 1410.64 126.885 1407.47 130.695 1405.21C134.578 1402.92 138.972 1401.88 143.406 1401.88H149.594C151.177 1401.88 152.464 1400 152.464 1398.3C152.464 1396.6 151.177 1394.73 149.594 1394.73H143.402C136.225 1394.73 129.167 1397.66 123.536 1402.44C120.75 1404.8 118.367 1407.92 116.449 1411.11C114.479 1414.38 113.048 1417.97 112.195 1421.78L93.7239 1504.47C93.0251 1507.6 91.8494 1510.5 90.2343 1513.19C87.8754 1517.11 84.6153 1520.27 80.8045 1522.53C76.9225 1524.82 72.5261 1525.84 68.0919 1525.84H61.9076C60.3238 1525.84 59.0372 1527.71 59.0372 1529.42Z" fill="white"/>
<path opacity="0.3" d="M148.658 1532.1C149.195 1532.68 149.911 1532.99 150.672 1532.99C151.432 1532.99 152.146 1532.68 152.68 1532.1C153.789 1530.91 153.789 1528.98 152.683 1527.79L140.215 1514.44L152.683 1501.1C153.789 1499.91 153.789 1497.98 152.683 1496.79C152.146 1496.21 151.432 1495.9 150.672 1495.9C149.911 1495.9 149.195 1496.21 148.658 1496.79L136.193 1510.14L123.727 1496.79C123.19 1496.21 122.473 1495.9 121.713 1495.9C120.955 1495.9 120.238 1496.21 119.703 1496.79C118.595 1497.98 118.595 1499.91 119.703 1501.1L132.169 1514.44L119.705 1527.79C118.595 1528.98 118.595 1530.91 119.703 1532.1C120.238 1532.68 120.955 1532.99 121.713 1532.99C122.473 1532.99 123.19 1532.68 123.727 1532.1L136.193 1518.75L148.658 1532.1Z" fill="white"/>
<path opacity="0.3" d="M795.43 972.747C795.798 973.597 796.57 973.741 797.446 973.741C798.392 973.741 799.185 973.548 799.514 972.623L845.234 844.576H930.214C931.732 844.576 932.414 843.418 932.414 842.272C932.414 841.127 931.732 839.97 930.214 839.97H843.713C842.745 839.97 841.953 840.226 841.641 841.098L797.254 965.26L775.316 914.429C774.948 913.573 774.157 913.617 773.581 913.649C773.48 913.654 773.386 913.658 773.303 913.658H757.209C755.69 913.658 755.01 914.816 755.01 915.963C755.01 917.108 755.69 918.264 757.209 918.264H771.882L795.43 972.747Z" fill="white"/>
<path opacity="0.3" d="M55.3988 1154.67C63.8731 1160.73 73.7382 1163.63 83.9266 1163.63H83.9351C94.1213 1163.63 103.986 1160.73 112.459 1154.68C113.162 1154.18 113.582 1153.64 113.582 1152.74C113.582 1151.25 112.456 1150.06 111.073 1150.06C110.589 1150.06 110.079 1150.25 109.678 1150.54C102.027 1155.99 93.124 1158.92 83.9295 1158.92C75.2185 1158.92 66.7668 1156.01 59.2998 1151.43H59.2542L58.177 1150.57C49.704 1144.52 39.8404 1141.24 29.6464 1141.24C19.4593 1141.24 9.59574 1144.43 1.12276 1150.48C0.418991 1150.98 0 1151.81 0 1152.71C0 1154.19 1.12561 1155.38 2.51051 1155.38C2.99353 1155.38 3.50206 1155.18 3.90395 1154.89C11.5533 1149.43 20.4552 1146.47 29.6506 1146.47C38.8459 1146.47 47.7493 1149.21 55.3988 1154.67Z" fill="white"/>
<path opacity="0.3" d="M55.3988 1188.24C63.8731 1194.29 73.7382 1197.2 83.9266 1197.2H83.9351C94.1213 1197.2 103.986 1194.3 112.459 1188.25C113.162 1187.75 113.582 1187.2 113.582 1186.3C113.582 1184.82 112.456 1183.63 111.073 1183.63C110.589 1183.63 110.079 1183.81 109.678 1184.1C102.027 1189.56 93.124 1192.49 83.9295 1192.49C75.2185 1192.49 66.7668 1189.57 59.2998 1184.99H59.2542L58.177 1184.14C49.704 1178.09 39.8404 1174.8 29.6464 1174.8C19.4593 1174.8 9.59574 1178 1.12276 1184.04C0.418991 1184.55 0 1185.38 0 1186.28C0 1187.76 1.12561 1188.95 2.51051 1188.95C2.99353 1188.95 3.50206 1188.75 3.90395 1188.46C11.5533 1183 20.4552 1180.04 29.6506 1180.04C38.8459 1180.04 47.7493 1182.78 55.3988 1188.24Z" fill="white"/>
<path opacity="0.3" fill-rule="evenodd" clip-rule="evenodd" d="M356.259 991.105C353.255 991.105 350.248 990.68 347.319 989.845C344.584 989.06 341.814 987.892 339.093 986.368C334.3 983.685 329.598 979.969 324.299 974.677C321.559 971.939 318.758 968.885 315.211 964.77L310.96 959.837L306.506 964.546L305.89 965.262C301.206 970.669 295.577 976.855 289.335 981.737C286.044 984.306 282.693 986.297 278.794 988.003C274.649 989.827 270.119 990.751 265.332 990.751C261.66 990.751 258.535 990.304 255.781 989.384C252.611 988.326 249.871 986.945 247.407 985.159C242.234 981.412 238.224 976.214 235.811 970.128C234.14 965.899 233.293 961.425 233.293 956.828C233.293 953.37 233.779 949.951 234.737 946.664C235.659 943.484 237.017 940.47 238.767 937.702C242.255 932.177 247.121 927.885 252.845 925.285C256.782 923.497 260.967 922.59 265.284 922.59C268.275 922.59 271.275 923.014 274.207 923.852C276.935 924.633 279.702 925.802 282.428 927.327C287.219 930.009 291.922 933.725 297.228 939.022C299.963 941.756 302.763 944.809 306.306 948.922L310.628 953.939L315.082 949.081L315.618 948.458C320.314 943.035 325.959 936.831 332.188 931.959C335.778 929.158 339.229 927.05 342.732 925.514C347.145 923.575 351.68 922.592 356.209 922.592C359.463 922.592 362.672 923.109 365.748 924.133C368.725 925.131 371.537 926.581 374.11 928.448C379.275 932.189 383.286 937.403 385.71 943.524C387.385 947.751 388.232 952.232 388.227 956.842C388.232 960.304 387.748 963.73 386.788 967.025C385.867 970.197 384.511 973.214 382.758 975.992C379.27 981.517 374.402 985.811 368.681 988.408C364.739 990.198 360.558 991.105 356.259 991.105ZM356.241 926.173C353.519 926.173 350.884 926.547 348.188 927.315C345.673 928.032 343.206 929.075 340.646 930.501C336.18 932.99 331.578 936.635 326.575 941.644C323.952 944.266 321.124 947.351 317.676 951.35L312.968 956.853L318.081 962.814C324.465 970.206 329.424 975.148 334.163 978.843C337.489 981.441 340.799 983.468 344.001 984.868C348.086 986.651 352.087 987.519 356.235 987.523C359.129 987.523 361.992 987.06 364.742 986.145C367.398 985.26 369.92 983.959 372.24 982.279C376.868 978.934 380.461 974.263 382.631 968.774C384.126 964.995 384.885 960.982 384.885 956.847C384.885 953.756 384.451 950.693 383.598 947.745C382.763 944.888 381.55 942.185 379.989 939.711C376.857 934.755 372.496 930.909 367.375 928.586C363.848 926.985 360.102 926.173 356.241 926.173ZM265.284 927.271C261.981 927.271 259.041 927.352 256.786 928.098L256.726 928.119C254.604 928.829 252.065 929.678 249.285 931.694C244.572 935.103 241.075 939.548 238.896 945.058C237.399 948.84 236.642 952.805 236.642 956.914C236.642 959.999 237.075 963.039 237.928 965.986C238.761 968.843 239.978 971.534 241.545 974.009C244.663 978.957 249.023 982.795 254.151 985.119C257.677 986.72 261.423 987.527 265.284 987.527C268 987.527 270.635 987.153 273.334 986.387C275.845 985.666 278.385 984.59 280.886 983.192C285.346 980.707 289.946 977.064 294.948 972.056C297.606 969.397 300.435 966.31 303.853 962.341L308.563 956.858L303.466 950.904C297.064 943.494 292.099 938.545 287.366 934.856C284.469 932.59 281.252 931.01 277.529 929.378C273.891 927.795 269.659 927.271 265.29 927.271H265.284Z" fill="white"/>
<path opacity="0.3" fill-rule="evenodd" clip-rule="evenodd" d="M1005.42 1511.24C1008.81 1512.21 1012.28 1512.7 1015.76 1512.7C1020.72 1512.7 1025.56 1511.65 1030.12 1509.58C1036.73 1506.58 1042.35 1501.62 1046.39 1495.23C1048.41 1492.02 1049.98 1488.53 1051.04 1484.87C1052.15 1481.06 1052.71 1477.1 1052.71 1473.1C1052.71 1467.77 1051.73 1462.59 1049.8 1457.7C1047 1450.63 1042.36 1444.6 1036.39 1440.28C1033.42 1438.12 1030.16 1436.44 1026.72 1435.29C1023.17 1434.11 1019.46 1433.51 1015.7 1433.51C1010.46 1433.51 1005.22 1434.64 1000.12 1436.89C996.073 1438.66 992.085 1441.1 987.936 1444.34C980.736 1449.97 974.211 1457.14 968.783 1463.41L968.163 1464.13L963.015 1469.74L958.02 1463.94C953.924 1459.19 950.688 1455.66 947.527 1452.5C941.395 1446.38 935.959 1442.08 930.421 1438.98C927.269 1437.22 924.072 1435.87 920.918 1434.97C917.53 1434 914.062 1433.51 910.607 1433.51C905.616 1433.51 900.778 1434.56 896.228 1436.62C889.612 1439.63 883.987 1444.59 879.954 1450.97C877.933 1454.17 876.364 1457.66 875.298 1461.33C874.191 1465.13 873.629 1469.08 873.629 1473.08C873.629 1478.39 874.608 1483.56 876.54 1488.45C879.329 1495.49 883.963 1501.5 889.943 1505.83C892.791 1507.89 895.957 1509.49 899.622 1510.71C902.804 1511.77 906.417 1512.29 910.661 1512.29C916.194 1512.29 921.431 1511.22 926.221 1509.11C930.728 1507.14 934.6 1504.84 938.405 1501.87C945.62 1496.23 952.125 1489.08 957.539 1482.83L958.251 1482L963.398 1476.56L968.313 1482.26C972.412 1487.02 975.649 1490.55 978.817 1493.71C984.943 1499.83 990.376 1504.12 995.915 1507.22C999.063 1508.98 1002.26 1510.34 1005.42 1511.24ZM1006.43 1438.97C1009.55 1438.08 1012.59 1437.65 1015.74 1437.65C1020.2 1437.65 1024.53 1438.59 1028.61 1440.44C1034.52 1443.12 1039.57 1447.57 1043.18 1453.3C1044.99 1456.16 1046.39 1459.28 1047.36 1462.58C1048.34 1465.99 1048.84 1469.53 1048.84 1473.1C1048.84 1477.88 1047.97 1482.52 1046.24 1486.89C1043.73 1493.23 1039.58 1498.63 1034.23 1502.5C1031.55 1504.44 1028.63 1505.94 1025.56 1506.97C1022.38 1508.02 1019.07 1508.56 1015.73 1508.56C1010.94 1508.55 1006.31 1507.55 1001.59 1505.49C997.887 1503.87 994.062 1501.53 990.218 1498.53C984.74 1494.26 979.009 1488.54 971.63 1480L965.72 1473.11L971.163 1466.75C975.147 1462.13 978.416 1458.56 981.448 1455.53C987.231 1449.74 992.549 1445.53 997.712 1442.65C1000.67 1441 1003.52 1439.8 1006.43 1438.97ZM900.784 1439.87C903.39 1439.01 906.787 1438.92 910.607 1438.92H910.613C915.662 1438.92 920.554 1439.52 924.758 1441.35C929.062 1443.24 932.78 1445.07 936.129 1447.68C941.599 1451.95 947.338 1457.67 954.737 1466.23L960.629 1473.12L955.184 1479.45C951.234 1484.04 947.964 1487.61 944.891 1490.68C939.11 1496.47 933.794 1500.68 928.639 1503.55C925.748 1505.17 922.812 1506.41 919.91 1507.25C916.789 1508.13 913.745 1508.56 910.607 1508.56C906.142 1508.56 901.813 1507.63 897.737 1505.78C891.81 1503.09 886.772 1498.66 883.167 1492.94C881.355 1490.08 879.95 1486.97 878.986 1483.67C878 1480.26 877.5 1476.75 877.5 1473.18C877.5 1468.43 878.375 1463.85 880.104 1459.48C882.624 1453.11 886.665 1447.97 892.113 1444.03C895.327 1441.7 898.26 1440.72 900.714 1439.9L900.784 1439.87Z" fill="white"/>
<path opacity="0.3" d="M363.46 1255.9H313.073V1346.03C313.073 1347.16 312.132 1348.07 310.973 1348.07C309.813 1348.07 308.874 1347.16 308.874 1346.03V1255.9H292.939C291.883 1255.9 291.028 1254.89 291.028 1253.65C291.028 1252.4 291.883 1251.4 292.939 1251.4H384.643C385.699 1251.4 386.554 1252.4 386.554 1253.65C386.554 1254.89 385.699 1255.9 384.643 1255.9H367.258V1327.11C367.258 1328.33 367.941 1333.54 371.285 1336.72C373.687 1339 377.054 1339.89 381.278 1339.35C382.325 1339.2 383.267 1340.01 383.39 1341.13C383.516 1342.24 382.77 1343.26 381.73 1343.39C380.764 1343.51 379.831 1343.58 378.93 1343.58C374.837 1343.58 371.427 1342.3 368.764 1339.77C364.412 1335.62 363.46 1329.23 363.46 1327.11V1255.9Z" fill="white"/>
<path opacity="0.3" d="M723.719 1627.83H782.965V1711.57C782.965 1714.06 784.084 1721.58 789.202 1726.45C792.333 1729.43 796.343 1730.93 801.156 1730.93C802.214 1730.93 803.312 1730.86 804.449 1730.71C805.673 1730.56 806.548 1729.36 806.4 1728.05C806.254 1726.74 805.148 1725.79 803.916 1725.96C798.95 1726.6 794.992 1725.55 792.167 1722.87C788.235 1719.12 787.431 1713 787.431 1711.57V1627.83H807.872C809.114 1627.83 810.119 1626.65 810.119 1625.19C810.119 1623.73 809.114 1622.54 807.872 1622.54H700.044C698.802 1622.54 697.798 1623.73 697.798 1625.19C697.798 1626.65 698.802 1627.83 700.044 1627.83H718.78V1733.82C718.78 1735.14 719.886 1736.22 721.249 1736.22C722.613 1736.22 723.719 1735.14 723.719 1733.82V1627.83Z" fill="white"/>
<path opacity="0.3" d="M741.363 1303.51C741.363 1305.21 742.648 1307.29 744.229 1307.29H865.302C866.879 1307.29 868.164 1305.21 868.164 1303.51C868.164 1301.82 866.879 1299.74 865.302 1299.74H744.229C742.648 1299.74 741.363 1301.82 741.363 1303.51Z" fill="white"/>
<path opacity="0.3" d="M829.648 528.137C838.577 534.517 848.971 537.581 859.705 537.581H859.714C870.445 537.581 880.839 534.522 889.766 528.145C890.507 527.616 890.95 527.046 890.95 526.097C890.95 524.533 889.763 523.274 888.306 523.274C887.794 523.274 887.259 523.472 886.836 523.775C878.774 529.529 869.394 532.616 859.708 532.617C850.531 532.616 841.626 529.542 833.757 524.718H833.709L832.576 523.814C823.648 517.438 813.256 513.974 802.514 513.974C791.782 513.974 781.389 517.342 772.462 523.716C771.721 524.246 771.28 525.119 771.28 526.068C771.28 527.631 772.465 528.882 773.924 528.882C774.434 528.882 774.969 528.67 775.392 528.37C783.453 522.612 792.831 519.492 802.519 519.492C812.208 519.492 821.588 522.383 829.648 528.137Z" fill="white"/>
<path opacity="0.3" d="M829.648 564.109C838.577 570.489 848.971 573.553 859.705 573.553H859.714C870.445 573.553 880.839 570.494 889.766 564.117C890.507 563.588 890.95 563.018 890.95 562.069C890.95 560.505 889.763 559.246 888.306 559.246C887.794 559.246 887.259 559.444 886.836 559.747C878.774 565.501 869.394 568.587 859.708 568.589C850.531 568.587 841.626 565.514 833.757 560.69H833.709L832.576 559.786C823.648 553.41 813.256 549.946 802.514 549.946C791.782 549.946 781.389 553.314 772.462 559.688C771.721 560.218 771.28 561.091 771.28 562.04C771.28 563.603 772.465 564.854 773.924 564.854C774.434 564.854 774.969 564.642 775.392 564.342C783.453 558.584 792.831 555.464 802.519 555.464C812.208 555.464 821.588 558.355 829.648 564.109Z" fill="white"/>
<path opacity="0.3" fill-rule="evenodd" clip-rule="evenodd" d="M1046.72 1126.62C1060.12 1126.62 1070.98 1114.99 1070.98 1100.65C1070.98 1086.3 1060.12 1074.67 1046.72 1074.67C1033.32 1074.67 1022.46 1086.3 1022.46 1100.65C1022.46 1114.99 1033.32 1126.62 1046.72 1126.62ZM1046.72 1121C1057.22 1121 1065.73 1111.89 1065.73 1100.65C1065.73 1089.4 1057.22 1080.29 1046.72 1080.29C1036.22 1080.29 1027.71 1089.4 1027.71 1100.65C1027.71 1111.89 1036.22 1121 1046.72 1121Z" fill="white"/>
<path opacity="0.3" fill-rule="evenodd" clip-rule="evenodd" d="M1110.64 1100.65C1110.64 1138.45 1082.02 1169.1 1046.72 1169.1C1011.42 1169.1 982.801 1138.45 982.801 1100.65C982.801 1062.84 1011.42 1032.2 1046.72 1032.2C1082.02 1032.2 1110.64 1062.84 1110.64 1100.65ZM1105.39 1100.65C1105.39 1135.35 1079.12 1163.48 1046.72 1163.48C1014.32 1163.48 988.05 1135.35 988.05 1100.65C988.05 1065.95 1014.32 1037.82 1046.72 1037.82C1079.12 1037.82 1105.39 1065.95 1105.39 1100.65Z" fill="white"/>
<path opacity="0.3" d="M290.509 1763C290.877 1763.86 291.649 1764 292.525 1764C293.471 1764 294.264 1763.81 294.593 1762.88L340.313 1634.83H425.293C426.811 1634.83 427.493 1633.68 427.493 1632.53C427.493 1631.39 426.811 1630.23 425.293 1630.23H338.793C337.824 1630.23 337.032 1630.48 336.72 1631.36L292.333 1755.52L270.395 1704.69C270.028 1703.83 269.236 1703.88 268.66 1703.91C268.599 1703.91 268.542 1703.91 268.486 1703.92C268.464 1703.92 268.441 1703.92 268.419 1703.92H268.383H252.289C250.77 1703.92 250.089 1705.08 250.089 1706.22C250.089 1707.37 250.77 1708.52 252.289 1708.52H266.961L290.509 1763Z" fill="white"/>
<path opacity="0.3" d="M1163 1740.55C1163.42 1741 1164.04 1741.24 1164.76 1741.24C1165.66 1741.24 1166.59 1740.85 1167.18 1740.21C1167.72 1739.62 1168.08 1738.75 1168.14 1737.87C1168.18 1737.36 1168.14 1736.41 1167.5 1735.72L1114.71 1679.18L1167.51 1622.64C1167.93 1622.19 1168.16 1621.52 1168.16 1620.76C1168.16 1619.8 1167.79 1618.8 1167.18 1618.16C1166.59 1617.52 1165.66 1617.12 1164.75 1617.12C1164.04 1617.12 1163.42 1617.37 1163 1617.82L1110.2 1674.36L1058.43 1618.91C1058 1618.46 1057.38 1618.21 1056.66 1618.21C1055.76 1618.21 1054.84 1618.61 1054.24 1619.26C1053.64 1619.9 1053.27 1620.89 1053.27 1621.86C1053.27 1622.62 1053.5 1623.28 1053.92 1623.73L1105.7 1679.19L1053.91 1734.63C1052.83 1735.79 1053.2 1737.99 1054.24 1739.11C1054.84 1739.75 1055.77 1740.15 1056.67 1740.15C1057.38 1740.15 1058 1739.91 1058.42 1739.46L1110.2 1684.01L1163 1740.55Z" fill="white"/>
</g>
<g opacity="0.3">
<path opacity="0.3" d="M2348.65 146.362C2347.94 146.362 2347.32 146.068 2346.9 145.538L2294.1 78.8726L2242.32 144.257C2241.9 144.784 2241.28 145.075 2240.56 145.075C2239.66 145.075 2238.73 144.605 2238.13 143.847C2237.09 142.528 2236.72 139.93 2237.81 138.562L2289.59 73.1839L2237.81 7.79415C2237.39 7.26413 2237.16 6.4836 2237.16 5.58775C2237.16 4.45009 2237.53 3.27494 2238.13 2.51732C2238.73 1.75989 2239.66 1.29028 2240.56 1.29028C2241.27 1.29028 2241.9 1.58132 2242.32 2.11417L2294.1 67.4952L2346.9 0.823701C2347.32 0.290849 2347.94 0 2348.65 0C2349.55 0 2350.48 0.472256 2351.08 1.22704C2351.68 1.98447 2352.06 3.15962 2352.06 4.29463C2352.05 5.19332 2351.82 5.97954 2351.4 6.50955L2298.61 73.1782L2351.4 139.853C2352.04 140.659 2352.08 141.782 2352.04 142.381C2351.98 143.421 2351.62 144.45 2351.08 145.138C2350.48 145.89 2349.55 146.362 2348.65 146.362Z" fill="white"/>
<path opacity="0.3" d="M1967.41 12.4555H1908.17V137.426C1908.17 138.99 1907.06 140.258 1905.7 140.258C1904.33 140.258 1903.23 138.99 1903.23 137.426V12.4555H1884.49C1883.25 12.4555 1882.24 11.0611 1882.24 9.33828C1882.24 7.6155 1883.25 6.22107 1884.49 6.22107H1992.32C1993.56 6.22107 1994.57 7.6155 1994.57 9.33828C1994.57 11.0611 1993.56 12.4555 1992.32 12.4555H1971.88V111.192C1971.88 112.883 1972.68 120.102 1976.61 124.515C1979.44 127.684 1983.4 128.912 1988.36 128.159C1989.59 127.961 1990.7 129.078 1990.85 130.627C1991 132.177 1990.12 133.582 1988.9 133.766C1987.76 133.937 1986.66 134.024 1985.6 134.024C1980.79 134.024 1976.78 132.256 1973.65 128.739C1968.53 122.998 1967.41 114.126 1967.41 111.192V12.4555Z" fill="white"/>
<path opacity="0.3" d="M1476.52 173.395C1475.65 173.395 1474.88 173.225 1474.51 172.222L1450.96 107.98H1436.29C1434.77 107.98 1434.09 106.617 1434.09 105.267C1434.09 103.914 1434.77 102.549 1436.29 102.549H1452.38C1452.43 102.549 1452.47 102.548 1452.53 102.545C1452.57 102.543 1452.61 102.54 1452.66 102.537L1452.66 102.537C1453.24 102.5 1454.03 102.449 1454.4 103.458L1476.33 163.395L1520.72 16.9888C1521.03 15.9605 1521.82 15.66 1522.79 15.66H1609.29C1610.81 15.66 1611.49 17.023 1611.49 18.3735C1611.49 19.7257 1610.81 21.0906 1609.29 21.0906H1524.31L1478.59 172.077C1478.26 173.169 1477.47 173.395 1476.52 173.395Z" fill="white"/>
<path opacity="0.3" d="M1688.67 307.271C1687.31 307.271 1686.05 305.874 1686.05 304.075V256.902H1648.69C1647.27 256.902 1646.16 255.311 1646.16 253.595C1646.16 251.88 1647.27 250.289 1648.69 250.289H1686.05V203.102C1686.05 201.303 1687.31 199.905 1688.67 199.905C1690.03 199.905 1691.29 201.303 1691.29 203.102V250.289H1728.66C1730.08 250.289 1731.19 251.88 1731.19 253.595C1731.19 255.311 1730.08 256.902 1728.66 256.902H1691.29V304.075C1691.29 305.874 1690.03 307.271 1688.67 307.271Z" fill="white"/>
<path opacity="0.3" d="M1210.22 383.908H1275.95L1275.97 383.921L1275.99 383.933C1276 383.938 1276.01 383.944 1276.02 383.95L1276.03 383.963C1276.08 383.997 1276.14 384.042 1276.22 384.08C1276.31 384.116 1276.42 384.15 1276.55 384.15C1276.64 384.15 1276.76 384.147 1276.89 384.107C1276.94 384.092 1276.99 384.073 1277 384.067L1277.01 384.061C1277.05 384.048 1277.13 384.016 1277.22 383.957C1277.27 383.921 1277.41 383.817 1277.52 383.609C1277.58 383.493 1277.64 383.338 1277.67 383.145C1277.69 382.963 1277.68 382.791 1277.64 382.635V365.08C1277.64 364.645 1277.44 364.372 1277.41 364.323L1277.41 364.321C1277.34 364.234 1277.28 364.177 1277.26 364.152C1277.2 364.101 1277.15 364.063 1277.12 364.048C1277.06 364.008 1277 363.972 1276.95 363.944C1276.84 363.885 1276.7 363.817 1276.57 363.757C1276.43 363.694 1276.29 363.633 1276.17 363.584C1276.11 363.56 1276.04 363.537 1275.98 363.518L1275.98 363.516C1275.94 363.505 1275.81 363.465 1275.68 363.465C1275.12 363.465 1274.6 363.775 1274.24 364.158C1273.88 364.522 1273.49 365.148 1273.49 365.951V378.691H1214.09L1245.12 328.006L1245.22 327.722C1245.57 327.326 1245.97 326.614 1245.97 325.605C1245.97 325.313 1245.94 324.942 1245.84 324.618L1245.79 324.45L1215.35 275.374H1273.49V286.052C1273.49 286.855 1273.88 287.481 1274.23 287.845C1274.6 288.225 1275.12 288.538 1275.68 288.538C1275.76 288.538 1276.05 288.528 1276.3 288.513C1276.43 288.504 1276.57 288.494 1276.68 288.481C1276.7 288.477 1276.72 288.475 1276.74 288.472C1276.78 288.466 1276.83 288.458 1276.87 288.447C1276.9 288.439 1276.97 288.421 1277.06 288.379C1277.1 288.36 1277.19 288.311 1277.29 288.21C1277.38 288.127 1277.64 287.834 1277.64 287.318V270.157H1212.22C1211.75 270.157 1211.38 270.433 1211.13 270.71C1210.88 270.99 1210.68 271.339 1210.53 271.674C1210.24 272.325 1210.03 273.155 1210.03 273.848C1210.03 274.425 1210.18 274.84 1210.35 275.179L1210.36 275.213L1210.54 275.518L1241.28 326.048L1208.81 379.462C1208.56 379.873 1208.44 380.371 1208.41 380.827C1208.37 381.28 1208.42 381.787 1208.59 382.251C1208.74 382.679 1208.95 383.05 1209.19 383.33C1209.39 383.571 1209.76 383.908 1210.22 383.908Z" fill="white"/>
<path opacity="0.3" fill-rule="evenodd" clip-rule="evenodd" d="M2177.89 443.04C2175.98 443.04 2174.12 442.582 2172.36 441.681C2170.53 440.747 2168.9 439.376 2167.5 437.606C2166.09 435.83 2165.01 433.766 2164.27 431.467C2163.56 429.24 2163.19 426.89 2163.19 424.483C2163.19 422.075 2163.56 419.725 2164.27 417.5C2165.01 415.193 2166.09 413.129 2167.5 411.363C2168.9 409.59 2170.54 408.218 2172.36 407.286C2174.12 406.385 2175.98 405.926 2177.89 405.926C2179.8 405.926 2181.66 406.385 2183.42 407.286C2185.24 408.219 2186.88 409.588 2188.28 411.361C2189.68 413.131 2190.77 415.195 2191.51 417.502C2192.22 419.723 2192.59 422.073 2192.59 424.483C2192.59 426.89 2192.22 429.24 2191.51 431.469C2190.77 433.773 2189.68 435.837 2188.28 437.602C2186.88 439.374 2185.25 440.747 2183.42 441.681C2181.66 442.582 2179.8 443.04 2177.89 443.04ZM2177.89 410.776C2176.48 410.776 2175.1 411.115 2173.8 411.781C2172.46 412.47 2171.25 413.48 2170.22 414.784C2169.18 416.104 2168.37 417.63 2167.83 419.321C2167.3 420.971 2167.03 422.709 2167.04 424.489C2167.04 426.267 2167.3 428 2167.83 429.641C2168.38 431.344 2169.18 432.868 2170.21 434.173C2171.25 435.481 2172.45 436.494 2173.8 437.184C2175.1 437.852 2176.48 438.189 2177.89 438.189C2179.3 438.189 2180.68 437.852 2181.98 437.185C2183.32 436.496 2184.52 435.487 2185.56 434.182C2186.6 432.861 2187.41 431.334 2187.95 429.643C2188.48 428.003 2188.74 426.267 2188.74 424.483C2188.74 422.7 2188.48 420.961 2187.95 419.321C2187.41 417.63 2186.6 416.11 2185.57 414.798C2184.53 413.484 2183.32 412.47 2181.98 411.781C2180.67 411.115 2179.3 410.776 2177.89 410.776Z" fill="white"/>
<path opacity="0.3" d="M2164.16 523.798C2163.62 523.798 2163.12 523.54 2162.73 523.071C2161.95 522.103 2161.95 520.524 2162.73 519.554L2238.79 426.01C2239.17 425.54 2239.68 425.282 2240.22 425.282C2240.76 425.282 2241.27 425.54 2241.65 426.01C2242.03 426.481 2242.24 427.104 2242.24 427.765C2242.24 428.431 2242.03 429.054 2241.65 429.524L2165.59 523.071C2165.21 523.54 2164.7 523.798 2164.16 523.798Z" fill="white"/>
<path opacity="0.3" fill-rule="evenodd" clip-rule="evenodd" d="M2227.54 537.908C2225.52 537.908 2223.55 537.445 2221.68 536.528C2219.75 535.581 2218.02 534.19 2216.53 532.389C2215.05 530.594 2213.9 528.497 2213.11 526.157C2212.36 523.896 2211.97 521.512 2211.97 519.067C2211.97 516.623 2212.36 514.239 2213.11 511.976C2213.9 509.636 2215.04 507.539 2216.53 505.748C2218.02 503.947 2219.75 502.554 2221.68 501.605C2223.55 500.69 2225.52 500.226 2227.54 500.226C2229.56 500.226 2231.53 500.69 2233.4 501.605C2235.33 502.554 2237.06 503.945 2238.54 505.74C2240.03 507.541 2241.18 509.639 2241.97 511.978C2242.72 514.233 2243.11 516.619 2243.11 519.067C2243.11 521.512 2242.72 523.898 2241.96 526.159C2241.18 528.496 2240.03 530.592 2238.55 532.387C2237.06 534.188 2235.33 535.581 2233.4 536.528C2231.53 537.445 2229.56 537.908 2227.54 537.908ZM2227.54 505.148C2226.04 505.148 2224.59 505.49 2223.21 506.166C2221.79 506.867 2220.51 507.895 2219.41 509.221C2218.31 510.554 2217.46 512.101 2216.89 513.826C2216.33 515.487 2216.04 517.251 2216.04 519.065C2216.04 520.88 2216.33 522.644 2216.89 524.313C2217.46 526.026 2218.31 527.57 2219.4 528.901C2220.51 530.234 2221.79 531.262 2223.2 531.961C2224.59 532.637 2226.05 532.981 2227.54 532.981C2229.04 532.981 2230.49 532.639 2231.87 531.963C2233.29 531.26 2234.57 530.234 2235.67 528.91C2236.76 527.583 2237.61 526.038 2238.19 524.311C2238.75 522.637 2239.04 520.872 2239.04 519.065C2239.04 517.259 2238.75 515.496 2238.2 513.828C2237.61 512.097 2236.76 510.548 2235.67 509.223C2234.57 507.897 2233.3 506.873 2231.88 506.17C2230.49 505.492 2229.04 505.148 2227.54 505.148Z" fill="white"/>
<path opacity="0.3" fill-rule="evenodd" clip-rule="evenodd" d="M1710.65 1408.6C1708.74 1408.6 1706.88 1408.14 1705.12 1407.24C1703.3 1406.31 1701.66 1404.94 1700.26 1403.17C1698.85 1401.39 1697.77 1399.33 1697.03 1397.03C1696.32 1394.8 1695.96 1392.45 1695.96 1390.04C1695.96 1387.64 1696.32 1385.29 1697.03 1383.06C1697.77 1380.75 1698.86 1378.69 1700.26 1376.92C1701.66 1375.15 1703.3 1373.78 1705.12 1372.85C1706.89 1371.94 1708.74 1371.49 1710.65 1371.49C1712.56 1371.49 1714.42 1371.94 1716.18 1372.85C1718.01 1373.78 1719.64 1375.15 1721.04 1376.92C1722.45 1378.69 1723.53 1380.75 1724.27 1383.06C1724.99 1385.28 1725.35 1387.63 1725.35 1390.04C1725.35 1392.45 1724.99 1394.8 1724.27 1397.03C1723.53 1399.33 1722.45 1401.4 1721.04 1403.16C1719.64 1404.93 1718.01 1406.31 1716.19 1407.24C1714.42 1408.14 1712.56 1408.6 1710.65 1408.6ZM1710.65 1376.34C1709.24 1376.34 1707.86 1376.67 1706.56 1377.34C1705.22 1378.03 1704.02 1379.04 1702.98 1380.35C1701.94 1381.66 1701.14 1383.19 1700.59 1384.88C1700.06 1386.53 1699.8 1388.27 1699.8 1390.05C1699.8 1391.83 1700.07 1393.56 1700.59 1395.2C1701.14 1396.91 1701.94 1398.43 1702.97 1399.73C1704.01 1401.04 1705.22 1402.05 1706.56 1402.74C1707.87 1403.41 1709.24 1403.75 1710.65 1403.75C1712.07 1403.75 1713.44 1403.41 1714.74 1402.74C1716.08 1402.06 1717.29 1401.05 1718.32 1399.74C1719.37 1398.42 1720.17 1396.89 1720.71 1395.2C1721.24 1393.56 1721.51 1391.83 1721.51 1390.04C1721.51 1388.26 1721.24 1386.52 1720.71 1384.88C1720.17 1383.19 1719.37 1381.67 1718.33 1380.36C1717.29 1379.04 1716.08 1378.03 1714.74 1377.34C1713.44 1376.67 1712.06 1376.34 1710.65 1376.34Z" fill="white"/>
<path opacity="0.3" d="M1696.93 1489.36C1696.39 1489.36 1695.88 1489.1 1695.5 1488.63C1694.71 1487.66 1694.71 1486.08 1695.5 1485.11L1771.55 1391.57C1771.94 1391.1 1772.44 1390.84 1772.98 1390.84C1773.53 1390.84 1774.03 1391.1 1774.41 1391.57C1774.8 1392.04 1775.01 1392.66 1775.01 1393.33C1775.01 1393.99 1774.8 1394.61 1774.41 1395.08L1698.36 1488.63C1697.97 1489.1 1697.47 1489.36 1696.93 1489.36Z" fill="white"/>
<path opacity="0.3" fill-rule="evenodd" clip-rule="evenodd" d="M1760.3 1503.47C1758.28 1503.47 1756.31 1503 1754.44 1502.09C1752.51 1501.14 1750.78 1499.75 1749.29 1497.95C1747.81 1496.15 1746.66 1494.06 1745.88 1491.72C1745.12 1489.46 1744.73 1487.07 1744.73 1484.63C1744.73 1482.18 1745.12 1479.8 1745.88 1477.54C1746.66 1475.2 1747.81 1473.1 1749.29 1471.31C1750.78 1469.51 1752.51 1468.11 1754.44 1467.16C1756.31 1466.25 1758.28 1465.79 1760.3 1465.79C1762.32 1465.79 1764.29 1466.25 1766.16 1467.16C1768.09 1468.11 1769.83 1469.5 1771.31 1471.3C1772.79 1473.1 1773.95 1475.2 1774.73 1477.54C1775.49 1479.79 1775.87 1482.18 1775.87 1484.63C1775.87 1487.07 1775.48 1489.46 1774.73 1491.72C1773.95 1494.06 1772.8 1496.15 1771.31 1497.95C1769.83 1499.75 1768.09 1501.14 1766.16 1502.09C1764.29 1503 1762.32 1503.47 1760.3 1503.47ZM1760.3 1470.71C1758.81 1470.71 1757.35 1471.05 1755.98 1471.73C1754.55 1472.43 1753.27 1473.45 1752.18 1474.78C1751.08 1476.11 1750.23 1477.66 1749.65 1479.39C1749.09 1481.05 1748.8 1482.81 1748.8 1484.63C1748.8 1486.44 1749.09 1488.2 1749.65 1489.87C1750.22 1491.59 1751.07 1493.13 1752.17 1494.46C1753.27 1495.79 1754.55 1496.82 1755.97 1497.52C1757.35 1498.2 1758.81 1498.54 1760.3 1498.54C1761.8 1498.54 1763.26 1498.2 1764.63 1497.52C1766.06 1496.82 1767.33 1495.79 1768.43 1494.47C1769.53 1493.14 1770.38 1491.6 1770.96 1489.87C1771.52 1488.2 1771.8 1486.43 1771.8 1484.63C1771.8 1482.82 1771.52 1481.06 1770.96 1479.39C1770.38 1477.66 1769.53 1476.11 1768.43 1474.78C1767.33 1473.46 1766.06 1472.43 1764.64 1471.73C1763.26 1471.05 1761.8 1470.71 1760.3 1470.71Z" fill="white"/>
<path opacity="0.3" d="M1229.39 717.632C1229.39 719.431 1230.65 720.829 1232.01 720.829C1233.37 720.829 1234.63 719.431 1234.63 717.632V670.46H1272C1273.42 670.46 1274.53 668.869 1274.53 667.153C1274.53 665.438 1273.42 663.847 1272 663.847H1234.63V616.659C1234.63 614.86 1233.37 613.463 1232.01 613.463C1230.65 613.463 1229.39 614.86 1229.39 616.659V663.847H1192.03C1190.61 663.847 1189.5 665.438 1189.5 667.153C1189.5 668.869 1190.61 670.46 1192.03 670.46H1229.39V717.632Z" fill="white"/>
<path opacity="0.3" d="M1790.03 1042.64H1713.35C1712.81 1042.64 1712.38 1042.25 1712.14 1041.96C1711.86 1041.63 1711.62 1041.2 1711.44 1040.7C1711.24 1040.15 1711.19 1039.56 1711.23 1039.02C1711.27 1038.49 1711.41 1037.9 1711.7 1037.42L1749.59 974.689L1713.71 915.344L1713.51 914.986L1713.49 914.946C1713.3 914.551 1713.13 914.064 1713.13 913.384C1713.13 912.57 1713.37 911.597 1713.71 910.832C1713.88 910.438 1714.11 910.027 1714.41 909.699C1714.7 909.374 1715.13 909.05 1715.68 909.05H1792V929.205C1792 929.811 1791.69 930.154 1791.6 930.252C1791.56 930.284 1791.53 930.313 1791.5 930.337L1791.48 930.351C1791.47 930.358 1791.46 930.366 1791.45 930.373C1791.42 930.392 1791.4 930.407 1791.38 930.421C1791.37 930.426 1791.36 930.43 1791.35 930.434C1791.34 930.442 1791.33 930.447 1791.32 930.451C1791.23 930.498 1791.14 930.521 1791.11 930.529C1791.03 930.549 1790.94 930.561 1790.88 930.568C1790.75 930.585 1790.59 930.597 1790.44 930.606C1790.14 930.625 1789.81 930.637 1789.71 930.637C1789.06 930.637 1788.46 930.271 1788.03 929.822C1787.62 929.394 1787.16 928.658 1787.16 927.717V915.177H1719.33L1754.85 972.812L1754.9 973.011C1755.01 973.392 1755.06 973.825 1755.06 974.17C1755.06 975.353 1754.58 976.19 1754.18 976.656L1754.06 976.989L1717.86 1036.51H1787.16V1021.55C1787.16 1020.61 1787.62 1019.87 1788.03 1019.45C1788.46 1019 1789.06 1018.63 1789.71 1018.63C1789.8 1018.63 1789.88 1018.65 1789.95 1018.66C1789.96 1018.66 1789.97 1018.67 1789.98 1018.67C1789.99 1018.67 1790 1018.67 1790.01 1018.68C1790.03 1018.68 1790.05 1018.69 1790.05 1018.69L1790.06 1018.69L1790.06 1018.69C1790.1 1018.7 1790.14 1018.72 1790.18 1018.73C1790.21 1018.74 1790.25 1018.76 1790.28 1018.77C1790.43 1018.83 1790.6 1018.9 1790.75 1018.97C1790.91 1019.05 1791.07 1019.13 1791.19 1019.2C1791.23 1019.21 1791.27 1019.24 1791.3 1019.26C1791.33 1019.28 1791.37 1019.3 1791.4 1019.32C1791.43 1019.34 1791.49 1019.38 1791.56 1019.44C1791.59 1019.47 1791.66 1019.53 1791.73 1019.64L1791.73 1019.64C1791.77 1019.7 1792 1020.02 1792 1020.53V1041.15C1792.04 1041.33 1792.06 1041.53 1792.03 1041.74C1792.01 1041.97 1791.94 1042.16 1791.86 1042.29C1791.73 1042.53 1791.57 1042.65 1791.51 1042.7C1791.41 1042.77 1791.32 1042.8 1791.27 1042.82L1791.26 1042.83L1791.26 1042.83C1791.24 1042.83 1791.19 1042.86 1791.12 1042.87C1790.97 1042.92 1790.84 1042.93 1790.73 1042.93C1790.58 1042.93 1790.45 1042.89 1790.35 1042.84C1790.25 1042.8 1790.18 1042.75 1790.13 1042.71L1790.11 1042.69C1790.1 1042.68 1790.09 1042.68 1790.08 1042.67L1790.06 1042.65L1790.03 1042.64Z" fill="white"/>
<path opacity="0.3" d="M1813.96 600.207C1813.46 600.207 1813.02 599.999 1812.72 599.626L1775.51 552.646L1739.02 598.723C1738.72 599.094 1738.29 599.3 1737.78 599.3C1737.15 599.3 1736.49 598.969 1736.07 598.435C1735.34 597.505 1735.08 595.674 1735.84 594.71L1772.33 548.637L1735.85 502.557C1735.55 502.182 1735.39 501.633 1735.39 501.001C1735.39 500.2 1735.65 499.372 1736.07 498.838C1736.49 498.304 1737.15 497.973 1737.78 497.973C1738.28 497.973 1738.73 498.177 1739.03 498.554L1775.51 544.629L1812.72 497.643C1813.02 497.268 1813.45 497.064 1813.95 497.064C1814.59 497.064 1815.25 497.397 1815.67 497.929C1816.09 498.461 1816.36 499.291 1816.36 500.09C1816.35 500.724 1816.19 501.277 1815.89 501.65L1778.69 548.634L1815.89 595.619C1816.34 596.187 1816.37 596.979 1816.34 597.401C1816.3 598.134 1816.05 598.859 1815.67 599.344C1815.25 599.874 1814.59 600.207 1813.96 600.207Z" fill="white"/>
<path opacity="0.3" d="M1422.26 498.143C1420.68 498.143 1419.39 495.932 1419.39 493.926C1419.39 491.919 1420.68 489.711 1422.26 489.711H1428.45C1432.88 489.711 1437.28 488.513 1441.16 485.807C1444.97 483.144 1448.23 479.41 1450.59 474.79C1452.2 471.624 1453.38 468.206 1454.08 464.515L1472.55 367.006C1473.4 362.51 1474.83 358.29 1476.8 354.428C1478.72 350.668 1481.1 346.985 1483.89 344.205C1489.52 338.57 1496.58 335.106 1503.76 335.106H1509.95C1511.53 335.106 1512.82 337.316 1512.82 339.323C1512.82 341.331 1511.53 343.539 1509.95 343.539H1503.76C1499.33 343.539 1494.93 344.766 1491.05 347.472C1487.24 350.134 1483.98 353.877 1481.62 358.496C1480 361.67 1478.83 365.093 1478.13 368.782L1459.66 466.295C1458.81 470.791 1457.38 475.012 1455.41 478.874C1453.49 482.635 1451.11 486.292 1448.32 489.073C1442.69 494.705 1435.63 498.143 1428.46 498.143H1422.26Z" fill="white"/>
<path opacity="0.3" d="M1511.03 498.144C1510.27 498.144 1509.55 497.773 1509.01 497.093L1496.55 481.351L1484.08 497.095C1483.54 497.773 1482.83 498.144 1482.07 498.144C1481.31 498.144 1480.59 497.773 1480.06 497.095C1478.95 495.693 1478.95 493.414 1480.06 492.012L1492.52 476.275L1480.06 460.533C1478.95 459.132 1478.95 456.854 1480.06 455.453C1480.59 454.777 1481.31 454.402 1482.07 454.402C1482.83 454.402 1483.54 454.777 1484.08 455.457L1496.55 471.196L1509.01 455.453C1509.55 454.777 1510.27 454.402 1511.03 454.402C1511.79 454.402 1512.5 454.777 1513.04 455.453C1514.14 456.854 1514.14 459.132 1513.04 460.533L1500.57 476.275L1513.04 492.014C1514.14 493.414 1514.14 495.693 1513.03 497.095C1512.5 497.773 1511.79 498.144 1511.03 498.144Z" fill="white"/>
<path opacity="0.3" d="M1243.04 1487.39C1243.04 1489.4 1244.32 1491.61 1245.91 1491.61H1252.1C1259.28 1491.61 1266.33 1488.17 1271.97 1482.54C1274.75 1479.76 1277.13 1476.1 1279.05 1472.34C1281.02 1468.48 1282.46 1464.25 1283.3 1459.76L1301.78 1362.25C1302.48 1358.56 1303.65 1355.13 1305.27 1351.96C1307.63 1347.34 1310.88 1343.6 1314.7 1340.94C1318.58 1338.23 1322.97 1337 1327.41 1337H1333.59C1335.18 1337 1336.46 1334.79 1336.46 1332.79C1336.46 1330.78 1335.18 1328.57 1333.59 1328.57H1327.4C1320.22 1328.57 1313.17 1332.04 1307.54 1337.67C1304.75 1340.45 1302.37 1344.13 1300.45 1347.89C1298.48 1351.75 1297.05 1355.98 1296.19 1360.47L1277.72 1457.98C1277.03 1461.67 1275.85 1465.09 1274.23 1468.26C1271.88 1472.88 1268.62 1476.61 1264.8 1479.27C1260.92 1481.98 1256.53 1483.17 1252.09 1483.17H1245.91C1244.32 1483.17 1243.04 1485.38 1243.04 1487.39Z" fill="white"/>
<path opacity="0.3" d="M1332.66 1490.56C1333.19 1491.24 1333.91 1491.61 1334.67 1491.61C1335.43 1491.61 1336.15 1491.24 1336.68 1490.56C1337.79 1489.16 1337.79 1486.88 1336.68 1485.48L1324.21 1469.74L1336.68 1454C1337.79 1452.6 1337.79 1450.32 1336.68 1448.92C1336.15 1448.24 1335.43 1447.87 1334.67 1447.87C1333.91 1447.87 1333.19 1448.24 1332.66 1448.92L1320.19 1464.66L1307.73 1448.92C1307.19 1448.24 1306.47 1447.87 1305.71 1447.87C1304.96 1447.87 1304.24 1448.24 1303.7 1448.92C1302.59 1450.32 1302.59 1452.6 1303.7 1454L1316.17 1469.74L1303.7 1485.48C1302.59 1486.88 1302.59 1489.16 1303.7 1490.56C1304.24 1491.24 1304.96 1491.61 1305.71 1491.61C1306.47 1491.61 1307.19 1491.24 1307.73 1490.56L1320.19 1474.82L1332.66 1490.56Z" fill="white"/>
<path opacity="0.3" d="M1979.43 830.999C1979.8 832 1980.57 832.171 1981.45 832.171C1982.39 832.171 1983.19 831.944 1983.51 830.853L2029.23 679.867H2114.21C2115.73 679.867 2116.41 678.501 2116.41 677.149C2116.41 675.799 2115.73 674.436 2114.21 674.436H2027.71C2026.74 674.436 2025.95 674.737 2025.64 675.765L1981.25 822.171L1959.32 762.233C1958.95 761.224 1958.16 761.275 1957.58 761.313C1957.48 761.319 1957.39 761.325 1957.3 761.325H1941.21C1939.69 761.325 1939.01 762.69 1939.01 764.042C1939.01 765.392 1939.69 766.755 1941.21 766.755H1955.88L1979.43 830.999Z" fill="white"/>
<path opacity="0.3" d="M1239.4 1045.52C1247.87 1052.65 1257.74 1056.08 1267.93 1056.08H1267.94C1278.12 1056.08 1287.99 1052.66 1296.46 1045.53C1297.16 1044.93 1297.58 1044.29 1297.58 1043.23C1297.58 1041.48 1296.46 1040.08 1295.07 1040.08C1294.59 1040.08 1294.08 1040.3 1293.68 1040.64C1286.03 1047.07 1277.12 1050.53 1267.93 1050.53C1259.22 1050.53 1250.77 1047.09 1243.3 1041.69H1243.25L1242.18 1040.68C1233.7 1033.54 1223.84 1029.67 1213.65 1029.67C1203.46 1029.67 1193.6 1033.44 1185.12 1040.57C1184.42 1041.16 1184 1042.14 1184 1043.2C1184 1044.95 1185.13 1046.35 1186.51 1046.35C1186.99 1046.35 1187.5 1046.11 1187.9 1045.78C1195.55 1039.34 1204.46 1035.85 1213.65 1035.85C1222.85 1035.85 1231.75 1039.08 1239.4 1045.52Z" fill="white"/>
<path opacity="0.3" d="M1239.4 1085.1C1247.87 1092.23 1257.74 1095.66 1267.93 1095.66H1267.94C1278.12 1095.66 1287.99 1092.24 1296.46 1085.11C1297.16 1084.51 1297.58 1083.87 1297.58 1082.81C1297.58 1081.06 1296.46 1079.66 1295.07 1079.66C1294.59 1079.66 1294.08 1079.88 1293.68 1080.21C1286.03 1086.65 1277.12 1090.11 1267.93 1090.11C1259.22 1090.11 1250.77 1086.67 1243.3 1081.27H1243.25L1242.18 1080.26C1233.7 1073.12 1223.84 1069.25 1213.65 1069.25C1203.46 1069.25 1193.6 1073.02 1185.12 1080.15C1184.42 1080.74 1184 1081.72 1184 1082.78C1184 1084.53 1185.13 1085.93 1186.51 1085.93C1186.99 1085.93 1187.5 1085.69 1187.9 1085.36C1195.55 1078.92 1204.46 1075.42 1213.65 1075.42C1222.85 1075.42 1231.75 1078.66 1239.4 1085.1Z" fill="white"/>
<path opacity="0.3" fill-rule="evenodd" clip-rule="evenodd" d="M1540.26 852.646C1537.25 852.646 1534.25 852.144 1531.32 851.159C1528.58 850.233 1525.81 848.857 1523.09 847.06C1518.3 843.895 1513.6 839.514 1508.3 833.274C1505.56 830.046 1502.76 826.444 1499.21 821.593L1494.96 815.776L1490.51 821.328L1489.89 822.172C1485.21 828.548 1479.58 835.842 1473.34 841.599C1470.04 844.628 1466.69 846.976 1462.79 848.987C1458.65 851.138 1454.12 852.227 1449.33 852.227C1445.66 852.227 1442.53 851.701 1439.78 850.616C1436.61 849.368 1433.87 847.739 1431.41 845.634C1426.23 841.216 1422.22 835.087 1419.81 827.91C1418.14 822.924 1417.29 817.649 1417.29 812.227C1417.29 808.15 1417.78 804.119 1418.74 800.243C1419.66 796.494 1421.02 792.939 1422.77 789.675C1426.25 783.161 1431.12 778.099 1436.85 775.034C1440.78 772.926 1444.97 771.856 1449.28 771.856C1452.27 771.856 1455.28 772.356 1458.21 773.345C1460.93 774.265 1463.7 775.643 1466.43 777.442C1471.22 780.605 1475.92 784.986 1481.23 791.231C1483.96 794.456 1486.76 798.056 1490.31 802.905L1494.63 808.821L1499.08 803.093L1499.62 802.358C1504.31 795.963 1509.96 788.648 1516.19 782.903C1519.78 779.601 1523.23 777.115 1526.73 775.304C1531.15 773.017 1535.68 771.858 1540.21 771.858C1543.46 771.858 1546.67 772.468 1549.75 773.676C1552.72 774.852 1555.54 776.562 1558.11 778.764C1563.27 783.174 1567.29 789.323 1569.71 796.541C1571.38 801.525 1572.23 806.808 1572.23 812.244C1572.23 816.327 1571.75 820.366 1570.79 824.251C1569.87 827.991 1568.51 831.549 1566.76 834.825C1563.27 841.339 1558.4 846.403 1552.68 849.464C1548.74 851.576 1544.56 852.646 1540.26 852.646ZM1540.24 776.081C1537.52 776.081 1534.88 776.522 1532.19 777.427C1529.67 778.274 1527.21 779.503 1524.65 781.184C1520.18 784.119 1515.58 788.417 1510.58 794.324C1507.95 797.416 1505.12 801.053 1501.68 805.768L1496.97 812.258L1502.08 819.287C1508.47 828.003 1513.42 833.829 1518.16 838.186C1521.49 841.25 1524.8 843.64 1528 845.291C1532.09 847.393 1536.09 848.417 1540.23 848.421C1543.13 848.421 1545.99 847.876 1548.74 846.796C1551.4 845.753 1553.92 844.219 1556.24 842.239C1560.87 838.294 1564.46 832.786 1566.63 826.314C1568.13 821.858 1568.88 817.126 1568.88 812.25C1568.88 808.605 1568.45 804.994 1567.6 801.517C1566.76 798.149 1565.55 794.962 1563.99 792.044C1560.86 786.2 1556.5 781.665 1551.38 778.927C1547.85 777.039 1544.1 776.081 1540.24 776.081ZM1449.28 777.376C1445.98 777.376 1443.04 777.471 1440.79 778.351L1440.73 778.376C1438.6 779.213 1436.07 780.214 1433.29 782.591C1428.57 786.611 1425.07 791.852 1422.9 798.349C1421.4 802.809 1420.64 807.484 1420.64 812.33C1420.64 815.967 1421.08 819.552 1421.93 823.026C1422.76 826.395 1423.98 829.569 1425.55 832.487C1428.66 838.321 1433.02 842.846 1438.15 845.586C1441.68 847.474 1445.42 848.427 1449.28 848.427C1452 848.427 1454.64 847.986 1457.33 847.082C1459.84 846.232 1462.39 844.963 1464.89 843.314C1469.35 840.385 1473.95 836.088 1478.95 830.184C1481.61 827.048 1484.44 823.409 1487.85 818.728L1492.56 812.263L1487.47 805.242C1481.06 796.505 1476.1 790.669 1471.37 786.319C1468.47 783.648 1465.25 781.784 1461.53 779.86C1457.89 777.993 1453.66 777.376 1449.29 777.376H1449.28Z" fill="white"/>
<path opacity="0.3" fill-rule="evenodd" clip-rule="evenodd" d="M2189.42 1465.96C2192.81 1467.1 2196.28 1467.68 2199.76 1467.68C2204.72 1467.68 2209.56 1466.44 2214.12 1464C2220.73 1460.46 2226.35 1454.61 2230.39 1447.08C2232.41 1443.3 2233.98 1439.18 2235.04 1434.86C2236.15 1430.37 2236.71 1425.7 2236.71 1420.98C2236.71 1414.7 2235.73 1408.59 2233.8 1402.83C2231 1394.49 2226.36 1387.38 2220.39 1382.29C2217.42 1379.74 2214.16 1377.76 2210.72 1376.41C2207.17 1375.01 2203.46 1374.3 2199.7 1374.3C2194.46 1374.3 2189.22 1375.64 2184.12 1378.29C2180.07 1380.38 2176.09 1383.25 2171.94 1387.07C2164.74 1393.71 2158.21 1402.17 2152.78 1409.56L2152.16 1410.4L2147.02 1417.02L2142.02 1410.19C2137.92 1404.58 2134.69 1400.42 2131.53 1396.7C2125.4 1389.48 2119.96 1384.41 2114.42 1380.76C2111.27 1378.68 2108.07 1377.08 2104.92 1376.02C2101.53 1374.88 2098.06 1374.3 2094.61 1374.3C2089.62 1374.3 2084.78 1375.54 2080.23 1377.97C2073.61 1381.52 2067.99 1387.37 2063.95 1394.9C2061.93 1398.67 2060.36 1402.78 2059.3 1407.11C2058.19 1411.59 2057.63 1416.25 2057.63 1420.96C2057.63 1427.23 2058.61 1433.33 2060.54 1439.09C2063.33 1447.38 2067.96 1454.47 2073.94 1459.58C2076.79 1462.01 2079.96 1463.89 2083.62 1465.33C2086.8 1466.59 2090.42 1467.2 2094.66 1467.2C2100.19 1467.2 2105.43 1465.94 2110.22 1463.45C2114.73 1461.13 2118.6 1458.41 2122.4 1454.91C2129.62 1448.26 2136.12 1439.83 2141.54 1432.46L2142.25 1431.48L2147.4 1425.06L2152.31 1431.79C2156.41 1437.4 2159.65 1441.56 2162.82 1445.29C2168.94 1452.5 2174.38 1457.57 2179.92 1461.22C2183.06 1463.3 2186.26 1464.89 2189.42 1465.96ZM2190.43 1380.74C2193.55 1379.69 2196.59 1379.19 2199.74 1379.19C2204.2 1379.19 2208.53 1380.29 2212.61 1382.47C2218.52 1385.64 2223.57 1390.88 2227.18 1397.64C2228.99 1401.01 2230.39 1404.69 2231.36 1408.59C2232.34 1412.6 2232.84 1416.78 2232.84 1420.99C2232.84 1426.63 2231.97 1432.09 2230.24 1437.24C2227.73 1444.73 2223.58 1451.09 2218.23 1455.65C2215.55 1457.94 2212.63 1459.71 2209.56 1460.92C2206.38 1462.17 2203.07 1462.8 2199.73 1462.8C2194.94 1462.79 2190.31 1461.61 2185.59 1459.18C2181.89 1457.27 2178.06 1454.51 2174.22 1450.97C2168.74 1445.93 2163.01 1439.2 2155.63 1429.12L2149.72 1421L2155.16 1413.5C2159.15 1408.05 2162.42 1403.84 2165.45 1400.27C2171.23 1393.44 2176.55 1388.48 2181.71 1385.08C2184.67 1383.14 2187.52 1381.72 2190.43 1380.74ZM2084.78 1381.81C2087.39 1380.79 2090.79 1380.68 2094.61 1380.68H2094.61C2099.66 1380.68 2104.55 1381.4 2108.76 1383.55C2113.06 1385.78 2116.78 1387.93 2120.13 1391.02C2125.6 1396.05 2131.34 1402.79 2138.74 1412.89L2144.63 1421.01L2139.18 1428.48C2135.23 1433.89 2131.96 1438.09 2128.89 1441.72C2123.11 1448.54 2117.79 1453.51 2112.64 1456.89C2109.75 1458.8 2106.81 1460.27 2103.91 1461.25C2100.79 1462.29 2097.75 1462.8 2094.61 1462.8C2090.14 1462.8 2085.81 1461.7 2081.74 1459.52C2075.81 1456.35 2070.77 1451.12 2067.17 1444.38C2065.36 1441.01 2063.95 1437.34 2062.99 1433.45C2062 1429.43 2061.5 1425.29 2061.5 1421.08C2061.5 1415.48 2062.38 1410.08 2064.1 1404.92C2066.62 1397.41 2070.67 1391.36 2076.11 1386.71C2079.33 1383.96 2082.26 1382.8 2084.71 1381.84L2084.78 1381.81Z" fill="white"/>
<path opacity="0.3" d="M1547.46 1164.87H1497.07V1271.15C1497.07 1272.48 1496.13 1273.56 1494.97 1273.56C1493.81 1273.56 1492.87 1272.48 1492.87 1271.15V1164.87H1476.94C1475.88 1164.87 1475.03 1163.68 1475.03 1162.22C1475.03 1160.76 1475.88 1159.57 1476.94 1159.57H1568.64C1569.7 1159.57 1570.55 1160.76 1570.55 1162.22C1570.55 1163.68 1569.7 1164.87 1568.64 1164.87H1551.26V1248.84C1551.26 1250.28 1551.94 1256.42 1555.28 1260.17C1557.69 1262.87 1561.05 1263.91 1565.28 1263.27C1566.32 1263.1 1567.27 1264.05 1567.39 1265.37C1567.52 1266.69 1566.77 1267.88 1565.73 1268.04C1564.76 1268.19 1563.83 1268.26 1562.93 1268.26C1558.84 1268.26 1555.43 1266.76 1552.76 1263.77C1548.41 1258.88 1547.46 1251.34 1547.46 1248.84V1164.87Z" fill="white"/>
<path opacity="0.3" d="M1907.72 1603.44H1966.97V1702.17C1966.97 1705.11 1968.08 1713.98 1973.2 1719.72C1976.33 1723.24 1980.34 1725.01 1985.16 1725.01C1986.21 1725.01 1987.31 1724.92 1988.45 1724.75C1989.67 1724.56 1990.55 1723.16 1990.4 1721.61C1990.25 1720.06 1989.15 1718.94 1987.92 1719.14C1982.95 1719.89 1978.99 1718.67 1976.17 1715.5C1972.24 1711.08 1971.43 1703.87 1971.43 1702.17V1603.44H1991.87C1993.11 1603.44 1994.12 1602.04 1994.12 1600.32C1994.12 1598.6 1993.11 1597.2 1991.87 1597.2H1884.04C1882.8 1597.2 1881.8 1598.6 1881.8 1600.32C1881.8 1602.04 1882.8 1603.44 1884.04 1603.44H1902.78V1728.41C1902.78 1729.97 1903.89 1731.24 1905.25 1731.24C1906.61 1731.24 1907.72 1729.97 1907.72 1728.41V1603.44Z" fill="white"/>
<path opacity="0.3" d="M1925.36 1221.02C1925.36 1223.02 1926.65 1225.47 1928.23 1225.47H2049.3C2050.88 1225.47 2052.16 1223.02 2052.16 1221.02C2052.16 1219.03 2050.88 1216.57 2049.3 1216.57H1928.23C1926.65 1216.57 1925.36 1219.03 1925.36 1221.02Z" fill="white"/>
<path opacity="0.3" d="M2013.65 306.739C2022.58 314.262 2032.97 317.875 2043.71 317.875H2043.71C2054.45 317.875 2064.84 314.268 2073.77 306.748C2074.51 306.125 2074.95 305.453 2074.95 304.334C2074.95 302.49 2073.76 301.005 2072.31 301.005C2071.79 301.005 2071.26 301.238 2070.84 301.596C2062.77 308.381 2053.39 312.02 2043.71 312.022C2034.53 312.02 2025.63 308.396 2017.76 302.707H2017.71L2016.58 301.641C2007.65 294.124 1997.26 290.039 1986.51 290.039C1975.78 290.039 1965.39 294.01 1956.46 301.526C1955.72 302.151 1955.28 303.181 1955.28 304.3C1955.28 306.142 1956.46 307.617 1957.92 307.617C1958.43 307.617 1958.97 307.367 1959.39 307.013C1967.45 300.225 1976.83 296.546 1986.52 296.546C1996.21 296.546 2005.59 299.954 2013.65 306.739Z" fill="white"/>
<path opacity="0.3" d="M2013.65 349.155C2022.58 356.678 2032.97 360.291 2043.71 360.291H2043.71C2054.45 360.291 2064.84 356.684 2073.77 349.164C2074.51 348.541 2074.95 347.869 2074.95 346.75C2074.95 344.906 2073.76 343.421 2072.31 343.421C2071.79 343.421 2071.26 343.654 2070.84 344.012C2062.77 350.797 2053.39 354.436 2043.71 354.438C2034.53 354.436 2025.63 350.812 2017.76 345.123H2017.71L2016.58 344.057C2007.65 336.54 1997.26 332.455 1986.51 332.455C1975.78 332.455 1965.39 336.426 1956.46 343.942C1955.72 344.567 1955.28 345.597 1955.28 346.716C1955.28 348.558 1956.46 350.033 1957.92 350.033C1958.43 350.033 1958.97 349.783 1959.39 349.429C1967.45 342.641 1976.83 338.962 1986.52 338.962C1996.21 338.962 2005.59 342.37 2013.65 349.155Z" fill="white"/>
<path opacity="0.3" fill-rule="evenodd" clip-rule="evenodd" d="M2230.72 1012.44C2244.12 1012.44 2254.98 998.726 2254.98 981.81C2254.98 964.895 2244.12 951.182 2230.72 951.182C2217.32 951.182 2206.46 964.895 2206.46 981.81C2206.46 998.726 2217.32 1012.44 2230.72 1012.44ZM2230.72 1005.81C2241.22 1005.81 2249.73 995.065 2249.73 981.81C2249.73 968.553 2241.22 957.809 2230.72 957.809C2220.22 957.809 2211.71 968.553 2211.71 981.81C2211.71 995.065 2220.22 1005.81 2230.72 1005.81Z" fill="white"/>
<path opacity="0.3" fill-rule="evenodd" clip-rule="evenodd" d="M2294.64 981.81C2294.64 1026.39 2266.02 1062.52 2230.72 1062.52C2195.42 1062.52 2166.8 1026.39 2166.8 981.81C2166.8 937.234 2195.42 901.097 2230.72 901.097C2266.02 901.097 2294.64 937.234 2294.64 981.81ZM2289.39 981.81C2289.39 1022.73 2263.12 1055.9 2230.72 1055.9C2198.32 1055.9 2172.05 1022.73 2172.05 981.81C2172.05 940.894 2198.32 907.724 2230.72 907.724C2263.12 907.724 2289.39 940.894 2289.39 981.81Z" fill="white"/>
<path opacity="0.3" d="M1474.51 1762.83C1474.88 1763.83 1475.65 1764 1476.52 1764C1477.47 1764 1478.26 1763.77 1478.59 1762.68L1524.31 1611.7H1609.29C1610.81 1611.7 1611.49 1610.33 1611.49 1608.98C1611.49 1607.63 1610.81 1606.27 1609.29 1606.27H1522.79C1521.82 1606.27 1521.03 1606.57 1520.72 1607.59L1476.33 1754L1454.4 1694.06C1454.03 1693.05 1453.24 1693.1 1452.66 1693.14C1452.6 1693.15 1452.54 1693.15 1452.49 1693.15C1452.46 1693.15 1452.44 1693.15 1452.42 1693.15H1452.38H1436.29C1434.77 1693.15 1434.09 1694.52 1434.09 1695.87C1434.09 1697.22 1434.77 1698.58 1436.29 1698.58H1450.96L1474.51 1762.83Z" fill="white"/>
<path opacity="0.3" d="M2347 1736.34C2347.42 1736.87 2348.04 1737.17 2348.76 1737.17C2349.66 1737.17 2350.59 1736.7 2351.18 1735.95C2351.72 1735.26 2352.08 1734.23 2352.14 1733.19C2352.18 1732.59 2352.14 1731.46 2351.5 1730.66L2298.71 1663.99L2351.51 1597.32C2351.93 1596.79 2352.16 1596 2352.16 1595.1C2352.16 1593.97 2351.79 1592.79 2351.18 1592.04C2350.59 1591.28 2349.66 1590.81 2348.75 1590.81C2348.04 1590.81 2347.42 1591.1 2347 1591.63L2294.2 1658.3L2242.43 1592.92C2242 1592.39 2241.38 1592.1 2240.66 1592.1C2239.76 1592.1 2238.84 1592.57 2238.24 1593.32C2237.64 1594.08 2237.27 1595.26 2237.27 1596.4C2237.27 1597.29 2237.5 1598.07 2237.92 1598.6L2289.7 1663.99L2237.91 1729.37C2236.83 1730.74 2237.2 1733.33 2238.24 1734.65C2238.84 1735.41 2239.77 1735.88 2240.67 1735.88C2241.38 1735.88 2242 1735.59 2242.42 1735.06L2294.2 1669.68L2347 1736.34Z" fill="white"/>
</g>
</svg>
