<svg width="177" height="196" viewBox="0 0 177 196" fill="none" xmlns="http://www.w3.org/2000/svg">
<path d="M-0.00012207 42.4985C-0.00012207 42.4985 32.6825 -26.7016 82.3111 11.8227C141.918 58.1199 157.098 39.1558 176.32 4.01205C176.32 4.01205 154.451 95.4805 90.6668 48.6371C22.599 -1.34945 -0.00012207 42.4985 -0.00012207 42.4985Z" fill="#E5E5E5" fill-opacity="0.25"/>
<path d="M-0.00012207 109.426C-0.00012207 109.426 32.6825 40.2264 82.3111 78.7513C141.918 125.037 157.098 106.084 176.32 70.9399C176.32 70.9399 154.451 162.409 90.6668 115.566C22.599 65.5784 -0.00012207 109.426 -0.00012207 109.426Z" fill="#E5E5E5" fill-opacity="0.25"/>
<path d="M-0.00012207 176.354C-0.00012207 176.354 32.6825 107.153 82.3111 145.678C141.918 191.964 157.098 173.01 176.32 137.867C176.32 137.867 154.451 229.336 90.6668 182.492C22.599 132.506 -0.00012207 176.354 -0.00012207 176.354Z" fill="#E5E5E5" fill-opacity="0.25"/>
</svg>
