<svg width="177" height="197" viewBox="0 0 177 197" fill="none" xmlns="http://www.w3.org/2000/svg">
<path d="M109.31 40.9279C127.457 22.1596 154.869 18.8298 176.323 30.9139C173.791 26.107 170.571 21.582 166.635 17.515C144.552 -5.32303 108.748 -5.32303 86.6646 17.515C64.5784 40.3499 64.5844 77.3724 86.6646 100.207C90.5974 104.274 94.9709 107.607 99.6225 110.221C87.9425 88.0442 91.1597 59.6931 109.31 40.9279Z" fill="#E5E5E5" fill-opacity="0.25"/>
<path d="M154.701 55.7058C164.462 65.7993 166.197 81.0478 159.914 92.979C162.413 91.5664 164.772 89.7776 166.884 87.5882C178.762 75.3056 178.756 55.3969 166.884 43.111C154.999 30.8281 135.749 30.8281 123.87 43.1077C121.756 45.2972 120.02 47.7313 118.66 50.3149C130.202 43.8235 144.939 45.6127 154.701 55.7058Z" fill="#E5E5E5" fill-opacity="0.25"/>
<path d="M67.0125 155.536C48.862 174.305 21.4502 177.634 -0.00012207 165.553C2.53124 170.36 5.7541 174.885 9.68423 178.952C31.7705 201.79 67.5745 201.79 89.6574 178.952C111.741 156.117 111.741 119.098 89.6574 96.2603C85.7246 92.1968 81.3482 88.8636 76.6995 86.2462C88.3799 108.42 85.1627 136.771 67.0125 155.536Z" fill="#E5E5E5" fill-opacity="0.25"/>
<path d="M21.6188 140.762C11.8544 130.665 10.1276 115.419 16.4115 103.488C13.9098 104.898 11.55 106.689 9.4387 108.876C-2.4399 121.156 -2.4369 141.07 9.44171 153.353C21.3203 165.633 40.5734 165.633 52.452 153.353C54.5693 151.164 56.3022 148.73 57.6623 146.146C46.1208 152.644 31.3801 150.852 21.6188 140.762Z" fill="#E5E5E5" fill-opacity="0.25"/>
</svg>
