<svg width="177" height="197" viewBox="0 0 177 197" fill="none" xmlns="http://www.w3.org/2000/svg">
<path d="M-0.00012207 151.824C-0.00012207 151.824 32.6825 97.1603 82.3111 127.592C141.915 164.164 157.099 149.183 176.32 121.422C176.32 121.422 154.451 193.676 90.6668 156.673C22.599 117.187 -0.00012207 151.824 -0.00012207 151.824Z" fill="#E5E5E5" fill-opacity="0.25"/>
<path d="M-0.00012207 188.278C-0.00012207 188.278 16.6483 160.433 41.9281 175.938C72.2914 194.557 80.0189 186.932 89.8129 172.792C89.8129 172.792 78.6745 209.594 46.1847 190.749C11.5103 170.634 -0.00012207 188.278 -0.00012207 188.278Z" fill="#E5E5E5" fill-opacity="0.25"/>
<path d="M151.575 123.461C149.611 122.847 132.111 116.176 132.515 74.2534C132.587 66.8453 133.047 60.6976 133.736 54.5056C121.143 45.1681 111.652 48.1653 111.572 48.1653H111.566H111.555L111.566 47.6127C111.547 47.791 108.417 77.4698 127.785 109.056C137.469 124.852 146.106 125.701 151.566 123.888C151.569 123.792 151.572 123.557 151.575 123.461Z" fill="#E5E5E5" fill-opacity="0.25"/>
<path d="M152.902 0.442856V0.429565V0.442856V0.429565V0.442856C152.902 0.551849 138.502 16.2295 134.295 53.9388C139.529 57.83 145.015 63.6909 150.88 72.6887C166.393 96.4799 159.195 116.406 157.949 119.478C157.963 119.566 157.905 119.648 157.922 119.735C163.677 114.493 171.92 102.284 171.647 74.2529C171.138 21.703 152.902 0.569513 152.902 0.442856Z" fill="#E5E5E5" fill-opacity="0.25"/>
</svg>
