<svg width="60" height="60" fill="none" xmlns="http://www.w3.org/2000/svg"><path d="M51.213 8.787C45.547 3.12 38.013 0 30 0 21.987 0 14.453 3.12 8.787 8.787 3.12 14.453 0 21.987 0 30c0 8.013 3.12 15.547 8.787 21.213C14.453 56.88 21.987 60 30 60c8.013 0 15.547-3.12 21.213-8.787C56.88 45.547 60 38.013 60 30c0-8.013-3.12-15.547-8.787-21.213zM30 56.484C15.396 56.484 3.516 44.604 3.516 30 3.516 15.396 15.396 3.516 30 3.516c14.604 0 26.484 11.88 26.484 26.484 0 14.604-11.88 26.484-26.484 26.484z" fill="#fff"/><path d="M31.883 28.242h-3.766a3.895 3.895 0 0 1-3.89-3.89 3.895 3.895 0 0 1 3.89-3.89h7.531a1.758 1.758 0 0 0 0-3.517h-3.89v-3.89a1.758 1.758 0 0 0-3.516 0v3.89h-.125c-4.084 0-7.406 3.323-7.406 7.407 0 4.083 3.323 7.406 7.406 7.406h3.766a3.895 3.895 0 0 1 3.89 3.89 3.895 3.895 0 0 1-3.89 3.891h-7.531a1.758 1.758 0 0 0 0 3.516h3.89v3.89a1.758 1.758 0 0 0 3.516 0v-3.89h.125c4.084 0 7.406-3.323 7.406-7.407 0-4.083-3.322-7.406-7.406-7.406z" fill="#fff"/></svg>