<svg width="60" height="62" fill="none" xmlns="http://www.w3.org/2000/svg"><path d="M57.415 0H2.585A2.576 2.576 0 0 0 .288 1.399a2.612 2.612 0 0 0 .203 2.718l20.087 28.297.021.03a5.74 5.74 0 0 1 1.127 3.405v23.07a2.565 2.565 0 0 0 2.565 2.581c.348 0 .69-.07 1.012-.202l11.287-4.304c1.012-.309 1.683-1.263 1.683-2.413V35.85a5.74 5.74 0 0 1 1.127-3.406l.02-.029L59.508 4.116a2.61 2.61 0 0 0 .203-2.717A2.576 2.576 0 0 0 57.416 0zM36.883 30.594a8.887 8.887 0 0 0-1.732 5.255v18.353L24.85 58.13V35.85a8.884 8.884 0 0 0-1.733-5.255L3.614 3.122h52.772L36.883 30.594z" fill="#fff"/></svg>