<svg id="Capa_1" fill="#204956" enable-background="new 0 0 492.002 492.002" height="512" viewBox="0 0 492.002 492.002" width="512" xmlns="http://www.w3.org/2000/svg"><path d="m105.607 261.751h39.194c3.314 0 6-2.686 6-6v-52.256c0-3.314-2.686-6-6-6h-39.194c-3.314 0-6 2.686-6 6v52.256c0 3.313 2.686 6 6 6zm6-52.256h27.194v40.256h-27.194z"/><path d="m216.71 261.751h39.191c3.314 0 6-2.686 6-6v-52.256c0-3.314-2.686-6-6-6h-39.191c-3.314 0-6 2.686-6 6v52.256c0 3.313 2.686 6 6 6zm6-52.256h27.191v40.256h-27.191z"/><path d="m105.607 355.811h39.194c3.314 0 6-2.686 6-6v-52.255c0-3.314-2.686-6-6-6h-39.194c-3.314 0-6 2.686-6 6v52.255c0 3.313 2.686 6 6 6zm6-52.255h27.194v40.255h-27.194z"/><path d="m216.71 355.811h39.191c3.314 0 6-2.686 6-6v-52.255c0-3.314-2.686-6-6-6h-39.191c-3.314 0-6 2.686-6 6v52.255c0 3.313 2.686 6 6 6zm6-52.255h27.191v40.255h-27.191z"/><path d="m105.607 449.871h39.194c3.314 0 6-2.686 6-6v-52.256c0-3.314-2.686-6-6-6h-39.194c-3.314 0-6 2.686-6 6v52.256c0 3.313 2.686 6 6 6zm6-52.256h27.194v40.256h-27.194z"/><path d="m216.71 449.871h39.191c3.314 0 6-2.686 6-6v-52.256c0-3.314-2.686-6-6-6h-39.191c-3.314 0-6 2.686-6 6v52.256c0 3.313 2.686 6 6 6zm6-52.256h27.191v40.256h-27.191z"/><path d="m428.822 243.219h-124.492v-103.41c0-3.314-2.686-6-6-6h-235.15c-3.314 0-6 2.686-6 6v346.193c0 3.314 2.686 6 6 6h365.642c3.314 0 6-2.686 6-6v-236.783c0-3.314-2.686-6-6-6zm-136.492 236.783h-223.15v-334.193h223.15zm130.492 0h-118.492v-224.783h118.492z"/><path d="m343.98 354.015h39.192c3.314 0 6-2.686 6-6v-52.256c0-3.314-2.686-6-6-6h-39.192c-3.314 0-6 2.686-6 6v52.256c0 3.313 2.686 6 6 6zm6-52.256h27.192v40.256h-27.192z"/><path d="m343.98 442.902h39.192c3.314 0 6-2.686 6-6v-52.254c0-3.314-2.686-6-6-6h-39.192c-3.314 0-6 2.686-6 6v52.254c0 3.313 2.686 6 6 6zm6-52.255h27.192v40.255h-27.192z"/><path d="m201.406 53.573c.706 2.172 2.584 3.755 4.844 4.083l23.751 3.451 10.621 21.521c1.466 2.972 5.063 4.193 8.035 2.727 1.184-.584 2.143-1.543 2.727-2.727l10.617-21.521 23.749-3.451c3.279-.476 5.552-3.521 5.075-6.8-.19-1.306-.805-2.513-1.749-3.434l-17.183-16.752 4.056-23.653c.561-3.266-1.632-6.368-4.898-6.929-1.301-.223-2.64-.012-3.808.603l-21.242 11.168-21.242-11.168c-2.933-1.542-6.561-.415-8.103 2.518-.614 1.168-.826 2.507-.603 3.808l4.056 23.653-17.185 16.752c-1.636 1.594-2.224 3.979-1.518 6.151zm29.339-16.511c1.414-1.379 2.059-3.365 1.726-5.312l-2.535-14.78 13.273 6.978c1.748.92 3.836.92 5.584 0l13.273-6.978-2.535 14.78c-.333 1.947.312 3.933 1.726 5.312l10.744 10.467-14.84 2.157c-1.954.284-3.644 1.511-4.518 3.282l-6.642 13.448-6.637-13.448c-.874-1.771-2.564-2.998-4.518-3.282l-14.84-2.157z"/><path d="m323.053 53.573c.706 2.172 2.584 3.755 4.844 4.083l23.749 3.451 10.621 21.521c1.466 2.972 5.064 4.192 8.036 2.725 1.183-.584 2.141-1.542 2.725-2.725l10.62-21.521 23.75-3.451c3.279-.476 5.552-3.52 5.076-6.799-.189-1.306-.804-2.513-1.749-3.435l-17.186-16.752 4.062-23.653c.561-3.266-1.632-6.368-4.898-6.929-1.301-.223-2.64-.012-3.808.603l-21.248 11.168-21.246-11.168c-2.933-1.542-6.561-.415-8.103 2.518-.614 1.168-.826 2.507-.603 3.808l4.058 23.653-17.183 16.752c-1.635 1.594-2.223 3.979-1.517 6.151zm29.339-16.511c1.414-1.379 2.059-3.365 1.725-5.312l-2.536-14.78 13.274 6.978c1.748.92 3.836.92 5.584 0l13.274-6.978-2.535 14.78c-.334 1.946.31 3.932 1.723 5.312l10.74 10.467-14.84 2.157c-1.955.283-3.645 1.511-4.519 3.282l-6.636 13.447-6.635-13.447c-.874-1.771-2.564-2.999-4.519-3.282l-14.84-2.157z"/><path d="m79.76 53.573c.706 2.171 2.582 3.754 4.841 4.083l23.75 3.451 10.62 21.521c1.466 2.972 5.064 4.192 8.036 2.725 1.183-.584 2.141-1.542 2.725-2.725l10.621-21.521 23.748-3.451c3.279-.476 5.552-3.52 5.076-6.799-.189-1.306-.804-2.513-1.749-3.435l-17.182-16.752 4.055-23.653c.561-3.266-1.632-6.368-4.898-6.929-1.301-.223-2.64-.012-3.808.603l-21.24 11.168-21.243-11.168c-2.933-1.542-6.561-.415-8.103 2.518-.614 1.168-.826 2.507-.603 3.808l4.057 23.653-17.186 16.752c-1.635 1.594-2.223 3.979-1.517 6.151zm29.341-16.511c1.414-1.379 2.059-3.365 1.725-5.312l-2.535-14.78 13.274 6.978c1.748.92 3.836.92 5.584 0l13.274-6.978-2.536 14.78c-.334 1.947.311 3.933 1.725 5.312l10.74 10.467-14.84 2.157c-1.955.283-3.645 1.511-4.519 3.282l-6.636 13.447-6.636-13.447c-.874-1.771-2.564-2.999-4.519-3.282l-14.841-2.157z"/></svg>