<svg width="328" height="600" fill="none" xmlns="http://www.w3.org/2000/svg"><circle cx="186.94" cy="482.457" r="59.776" fill="#EFF3FC"/><path d="M180.586 515.095c-5.758-1.193-11.13-3.852-15.347-7.598-10.827-9.615-14.173-24.721-8.453-38.162 1.404-3.301 3.688-6.651 6.517-9.561l2.494-2.566.176 15.017c.169 14.374.207 15.098.887 16.909 1.36 3.624 2.818 5.931 5.329 8.431 6.484 6.458 15.996 8.07 24.082 4.081 7.6-3.75 12.392-11.903 11.835-20.138-.374-5.532-2.234-9.588-6.251-13.63-3.037-3.056-6.61-5.052-10.5-5.866-3.958-.828-3.768-.949-3.768 2.401v2.892l2.17.4c8.403 1.548 13.961 9.8 12.209 18.128-.559 2.66-1.807 5.009-3.81 7.172-3.044 3.288-7.327 4.86-11.066 4.853-6.184-.012-11.347-3.526-13.85-8.722 0 0-.655-1.485-.866-2.403-1.239-5.398-.447-16.759-.447-16.759l-.096-16.613.981-.508c.539-.279 1.057-.507 1.149-.507.093 0 .211 7.631.262 16.957 0 0-1.191 12.225.281 16.91.213.675.616 1.832.616 1.832 1.29 2.628 3.358 4.94 6.044 6.213 2.04.966 3.067 1.403 6.084 1.403 1.971 0 3.718-.622 5.727-1.547 2.369-1.089 5.086-3.978 6.091-6.615 2.766-7.266-1.086-15.084-8.508-17.264-3.033-.891-2.971-.94-2.971 2.358v2.881l1.456.39c5.248 1.403 6.849 8.438 2.729 12.052-1.455 1.277-2.767 1.842-5.061 1.842-2.452 0-4.806-1.484-6.015-3.76-.727-1.367-.789-2.664-.789-3.258 0-5.487-.118-15.354-.118-15.354l-.099-16.927.754-.187c.414-.103 2.089-.357 3.722-.566 5.537-.706 13.73 1.106 19.233 4.255 7.504 4.293 13.181 11.668 15.545 20.192.813 2.932.904 3.785.904 8.502 0 4.695-.093 5.576-.889 8.444-3.215 11.586-11.393 19.868-23.088 23.38-2.461.74-3.614.881-7.957.973-3.504.075-5.776-.036-7.328-.357z" fill="#C60C30"/><circle cx="46.119" cy="165.672" r="46.119" fill="#EFF3FC"/><path d="M29.41 180.506v4.439c0 .397.028.766-.326 1.036-.327.269-.88.354-1.476.354-.907 0-1.872-.212-1.872-.212l-.213.567s1.348.284 2.327.298c.822.014 1.546-.17 1.943-.624.326-.369.425-.795.411-1.518v-4.34h-.794zM36.02 182.958c-.596-.326-1.32-.497-2.142-.497-.809 0-1.532.171-2.142.497-.766.411-1.149 1.021-1.149 1.787s.383 1.376 1.15 1.787c.61.326 1.318.497 2.141.497.809 0 1.532-.171 2.127-.497.766-.411 1.15-1.021 1.15-1.787 0-.78-.384-1.376-1.135-1.787zm-.468 3.12c-.468.27-1.022.397-1.674.397-.667 0-1.234-.127-1.688-.383-.553-.312-.822-.751-.822-1.347 0-.582.283-1.035.822-1.347.454-.256 1.021-.383 1.688-.383.652 0 1.22.127 1.688.383.539.312.822.765.822 1.347-.014.567-.283 1.021-.836 1.333zM43.01 182.958c-.595-.326-1.319-.497-2.141-.497-.809 0-1.532.171-2.142.497-.766.411-1.149 1.021-1.149 1.787s.383 1.376 1.149 1.787c.61.326 1.32.497 2.142.497.808 0 1.532-.171 2.127-.497.766-.411 1.15-1.021 1.15-1.787 0-.78-.384-1.376-1.136-1.787zm-.468 3.12c-.468.27-1.02.397-1.673.397-.667 0-1.234-.127-1.688-.383-.553-.312-.823-.751-.823-1.347 0-.582.284-1.035.823-1.347.454-.256 1.021-.383 1.688-.383.652 0 1.22.127 1.688.383.538.312.822.765.822 1.347-.014.567-.283 1.021-.837 1.333zM52.632 182.844c-.426-.255-.98-.383-1.632-.383-.837 0-1.503.256-2.014.766-.482-.51-1.163-.766-2-.766-.68 0-1.234.142-1.66.412v-.355h-.75v4.411h.75v-3.007c.058-.212.2-.411.426-.581.313-.213.71-.326 1.206-.326.44 0 .809.085 1.12.269.37.213.54.497.54.894v2.78h.737v-2.795c0-.397.17-.68.539-.893.312-.17.695-.27 1.135-.27.44 0 .822.086 1.134.27.37.213.54.496.54.893v2.78h.751v-2.68c-.014-.624-.298-1.107-.822-1.419zM54.046 180.506v6.439h.752v-6.439h-.752zM63.176 180.506v4.978h.752v-4.978h-.752zM61.208 182.519v.752c-.638-.539-1.489-.823-2.538-.823-.837 0-1.56.156-2.156.482-.738.412-1.12 1.008-1.12 1.802 0 .78.382 1.39 1.148 1.787.596.326 1.319.482 2.156.482.411 0 .822-.042 1.191-.142.525-.141.965-.34 1.305-.61v.681h.752v-4.411h-.738zm-5.02 2.227c0-.582.283-1.035.822-1.347.454-.256 1.035-.383 1.702-.383.823 0 1.461.198 1.915.595.397.355.595.809.595 1.362v.525c-.312.354-.78.624-1.375.808-.355.114-.738.17-1.135.17-.68 0-1.248-.127-1.702-.368-.553-.327-.823-.766-.823-1.362zM63.56 186.105c-.525 0-.596.27-.596.44 0 .17.085.44.596.44.524 0 .595-.284.595-.44 0-.156-.085-.44-.595-.44zM66.266 181.301c0 .439-.283.808-.794.808-.51 0-.794-.369-.794-.808 0-.44.283-.809.794-.809.51 0 .794.369.794.809zm-1.418 0c0 .368.227.652.624.652s.624-.284.624-.652c0-.369-.227-.653-.624-.653s-.624.284-.624.653zm.78.099c.312-.057.284-.525-.07-.525h-.384v.823h.156v-.284h.142l.227.284h.17v-.029l-.241-.269zm-.07-.383c.183 0 .183.269 0 .269h-.228v-.269h.227z" fill="#3B3A40"/><path d="M35.978 160.623l-.594-.594c-1.91-1.91-2.462-4.584-1.782-7.003a4.238 4.238 0 0 1-3.311-4.159 4.256 4.256 0 0 1 4.244-4.244 4.246 4.246 0 0 1 4.202 3.565 6.983 6.983 0 0 1 6.579 1.867l.254.255-3.14 3.141-.255-.255a2.612 2.612 0 0 0-3.693 0 2.612 2.612 0 0 0 0 3.692l7.046 7.046-3.14 3.141-3.311-3.311-3.099-3.141z" fill="#7AC143"/><path d="M39.53 157.142l3.31-3.311 3.14-3.141.595-.594c1.867-1.867 4.584-2.461 6.96-1.782a4.25 4.25 0 0 1 4.202-3.65 4.256 4.256 0 0 1 4.244 4.244 4.225 4.225 0 0 1-3.692 4.202 7.046 7.046 0 0 1-1.783 6.918l-.254.254-3.056-3.14.255-.255a2.612 2.612 0 0 0 0-3.692 2.612 2.612 0 0 0-3.693 0l-.594.594-3.141 3.14-3.31 3.311-3.184-3.098z" fill="#F9A541"/><path d="M53.622 172.982c-2.42.721-5.136.17-7.046-1.74l-.254-.255 3.14-3.141.255.255a2.612 2.612 0 0 0 3.693-3.693l-.594-.594-3.141-3.141-3.31-3.31 3.14-3.141 7.088 7.088c1.782 1.783 2.42 4.329 1.867 6.664a4.25 4.25 0 0 1 3.65 4.201 4.257 4.257 0 0 1-4.244 4.245c-2.122-.043-3.862-1.528-4.244-3.438z" fill="#F44321"/><path d="M52.404 164.146l-3.31 3.311-3.142 3.14-.594.595a7.06 7.06 0 0 1-6.663 1.867 4.238 4.238 0 0 1-4.16 3.311 4.257 4.257 0 0 1-4.244-4.245c0-1.994 1.4-3.692 3.268-4.117-.594-2.376 0-4.923 1.825-6.748l.255-.255 3.14 3.141-.254.255a2.612 2.612 0 0 0 0 3.692 2.612 2.612 0 0 0 3.692 0l.595-.594 3.14-3.141 3.31-3.31 3.142 3.098z" fill="#5091CD"/><circle cx="157.612" cy="84.178" r="84.178" fill="#E5EAF7"/><path fill-rule="evenodd" clip-rule="evenodd" d="M157.388 41.799c10.998 0 21.011 4.214 28.517 11.114-3.679-.098-7.35 2.088-7.502 7.096-.31 10.124 12.106 12.281 5.416 32.645l-5.534 16.844-15.071-44.395c-.234-.688.038-1.078.883-1.078h4.261c.221 0 .402-.19.402-.421V61.08c0-.231-.181-.43-.402-.42-8.069.352-16.091.355-24.064 0-.222-.01-.403.19-.403.421v2.524c0 .231.181.42.403.42h4.284c.953 0 1.22.318 1.445.932l6.192 16.936-9.315 28.128-15.313-45.102c-.19-.566.04-.894.585-.894h4.882a.413.413 0 0 0 .402-.42V61.08c0-.232-.182-.432-.402-.42-5.122.271-10.264.326-15.053.375 7.516-11.577 20.556-19.238 35.384-19.238h.003zm37.079 22.084a41.95 41.95 0 0 1 5.079 20.073c0 15.947-8.861 29.828-21.924 36.992l13.148-37.24c2.037-5.764 3.928-13.553 3.696-19.825h.001zm-22.965 59.806a42.024 42.024 0 0 1-14.114 2.426c-4.266 0-8.382-.636-12.262-1.813l12.988-37.22 13.388 36.609v-.002zm-32.154-1.621c-14.258-6.761-24.119-21.286-24.119-38.11a41.987 41.987 0 0 1 3.788-17.483l20.331 55.594h.001l-.001-.001zm18.038-84.225c25.464 0 46.114 20.65 46.114 46.113s-20.65 46.114-46.114 46.114c-25.463 0-46.113-20.651-46.113-46.114 0-25.463 20.65-46.114 46.113-46.114zm0-2.915c27.073 0 49.03 21.957 49.03 49.03 0 27.072-21.957 49.029-49.03 49.029-27.072 0-49.029-21.957-49.029-49.03 0-27.072 21.957-49.03 49.029-49.03z" fill="#464342"/><circle cx="229.475" cy="213.804" r="97.835" fill="#EFF3FC" fill-opacity=".8"/><path d="M239.252 188.803c-2.662 1.338-3.612 3.544-3.612 9.655 0 0 1.331-1.23 3.308-1.917 1.445-.47 2.662-1.229 3.385-1.735 2.244-1.555 2.548-3.544 2.548-6.907 0 0-3.651-.108-5.629.904z" fill="#FFCB29"/><path d="M223.902 190.339c-2.055 1.847-2.679 4.765-2.679 4.765l-6.898 26.668-5.687-21.866c-.551-2.29-1.578-5.208-3.156-7.129-1.982-2.438-6.054-2.586-6.495-2.586-.44 0-4.55.148-6.568 2.623-1.578 1.957-2.605 4.839-3.155 7.129l-5.688 21.866-6.825-26.705s-.587-2.955-2.678-4.765c-3.376-2.992-8.403-2.364-8.403-2.364l13.099 50.013s4.33.332 6.495-.813c2.825-1.44 4.22-2.585 5.944-9.419 1.541-6.057 5.835-23.861 6.238-25.154.184-.628.44-2.142 1.541-2.142 1.138 0 1.358 1.477 1.541 2.142.404 1.256 4.66 19.097 6.238 25.154 1.725 6.797 3.082 7.905 5.945 9.419 2.164 1.145 6.494.813 6.494.813l13.1-49.976s-5.027-.628-8.403 2.327zm20.475 5.799s-.808 1.256-2.679 2.364c-1.211.665-2.348 1.145-3.596 1.736-2.055.997-2.642 2.142-2.642 3.842v33.908s3.339.406 5.468-.665c2.788-1.441 3.412-2.807 3.449-9.05v-32.135zm32.73 16.954l16.622-24.969s-7.009-1.219-10.494 1.994c-2.239 2.032-4.734 5.689-4.734 5.689l-6.091 8.938c-.33.444-.66.961-1.284.961s-1.028-.48-1.284-.961l-6.165-8.901s-2.458-3.657-4.733-5.689c-3.449-3.213-10.494-1.994-10.494-1.994l16.658 24.895-16.658 24.859s7.338.96 10.787-2.253c2.239-2.032 4.403-5.393 4.403-5.393l6.091-8.902c.331-.443.661-.96 1.285-.96.624 0 1.027.48 1.284.96l6.091 8.902s2.275 3.287 4.477 5.393c3.449 3.213 10.677 2.253 10.677 2.253l-16.438-24.822z" fill="#2E3133"/><circle cx="255.222" cy="377.012" r="52.388" fill="#E5EAF7"/><path d="M231.116 388.66c3.453 0 5.509-1.789 6.867-4.017v3.58h2.95v-20.562h-2.95v11.772c0 3.858-2.599 6.444-6.014 6.444-3.53 0-5.548-2.387-5.548-6.205v-12.011h-2.988v12.767c0 4.89 2.833 8.232 7.683 8.232z" fill="#338FFF"/><path d="M270.68 367.661h-2.916v20.416h2.916v-20.416zM264.57 367.835h-3.782l-10.992 11.394v-19.734h-3.033v28.583h3.033v-5.286l4.137-4.151 7.289 9.437h3.624l-8.824-11.551 8.548-8.692zM271.264 360.079h-3.5v3.5h3.5v-3.5zM280.593 361.828h-3.013v6.137h-2.818v2.675h2.818v12.276c0 4.131 2.467 5.744 5.714 5.744 1.447 0 2.583-.314 3.639-.865v-2.597c-1.056.512-1.917.709-2.934.709-2.035 0-3.406-.905-3.406-3.384v-11.882h6.419v-2.675h-6.419v-6.138z" fill="#212121"/><circle cx="122.016" cy="357.088" r="72.313" fill="#EFF3FC"/><path d="M124.195 353.24v24.046h-4.765v-25.72l4.765 1.674zM105.977 351.12c-.168-6.249 3.139-9.485 7.456-9.485 2.634 0 4.652.837 8.913 2.846 3.139 1.506 5.437 2.622 7.792 2.622 2.242 0 3.307-1.841 3.363-5.245h3.756c.337 6.974-3.251 9.485-7.175 9.485-2.523 0-4.765-.725-9.082-2.734-2.971-1.45-5.269-2.734-7.511-2.734-2.243 0-3.644 1.563-3.7 5.357h-3.812v-.112z" fill="#000"/><path fill-rule="evenodd" clip-rule="evenodd" d="M122.176 325.123c-17.749 0-32.126 14.318-32.126 31.966 0 17.649 14.377 31.967 32.126 31.967 17.749 0 32.125-14.318 32.125-31.967 0-17.648-14.376-31.966-32.125-31.966zm-35.032 31.966c0-19.266 15.691-34.872 35.032-34.872 19.341 0 35.031 15.606 35.031 34.872 0 19.267-15.69 34.873-35.031 34.873s-35.032-15.606-35.032-34.873z" fill="#000"/><circle cx="89.103" cy="244.923" r="34.925" fill="#E5EAF7"/><path d="M73.133 261.254c0 .831-.248 1.532-.744 2.099-.519.594-1.192.892-2.017.892-.826 0-1.498-.298-2.016-.892-.497-.567-.747-1.268-.747-2.099 0-.834.25-1.534.747-2.099.524-.589 1.197-.883 2.016-.883.825 0 1.498.294 2.017.883.496.565.744 1.265.744 2.099zm-1.642 0c0-.377-.09-.695-.27-.952a.973.973 0 0 0-.849-.437.973.973 0 0 0-.848.437c-.183.257-.273.575-.273.952 0 .374.09.696.273.961a.973.973 0 0 0 .848.437.973.973 0 0 0 .848-.437c.181-.265.271-.587.271-.961zm7.578 0c0 .776-.224 1.455-.674 2.036-.48.635-1.101.955-1.855.955-.533 0-.984-.155-1.353-.461 0 .071.008.241.023.514.016.274.024.498.024.675 0 .975-.29 1.461-.872 1.461a.766.766 0 0 1-.587-.251.874.874 0 0 1-.23-.61v-6.342c0-.231.079-.431.236-.6a.77.77 0 0 1 .583-.251c.35 0 .605.174.766.522.344-.42.813-.63 1.408-.63.756 0 1.374.314 1.857.944.448.582.674 1.261.674 2.038zm-1.642 0c0-.377-.092-.695-.273-.952a.973.973 0 0 0-.848-.437.973.973 0 0 0-.848.437c-.18.257-.271.575-.271.952 0 .374.09.696.27.961a.973.973 0 0 0 .85.437.973.973 0 0 0 .847-.437c.181-.265.273-.587.273-.961zm7.615-.177c0 .275-.065.463-.194.569-.13.104-.332.157-.605.157H81.28c0 .314.147.555.442.723.237.132.528.199.871.199.268 0 .588-.089.963-.263.375-.177.616-.263.72-.263a.64.64 0 0 1 .485.21.708.708 0 0 1 .199.502c0 .449-.336.799-1.008 1.05a4.508 4.508 0 0 1-1.565.284c-.856 0-1.547-.284-2.075-.851-.528-.567-.793-1.279-.793-2.14 0-.82.274-1.521.824-2.105.548-.585 1.23-.877 2.042-.877.756 0 1.389.277 1.895.83.507.553.762 1.212.762 1.975zm-1.642-.412c-.007-.251-.123-.478-.347-.685-.224-.205-.461-.307-.713-.307-.259 0-.5.102-.724.307-.224.207-.336.434-.336.685h2.12zm7.158 2.611a.875.875 0 0 1-.23.61.766.766 0 0 1-.587.251c-.573 0-.86-.455-.86-1.363 0-.175.012-.449.035-.828.026-.377.038-.653.038-.828 0-.963-.313-1.445-.935-1.445-.623 0-.933.482-.933 1.445 0 .175.01.451.028.828.02.379.03.653.03.828 0 .908-.284 1.363-.85 1.363a.758.758 0 0 1-.584-.251.867.867 0 0 1-.232-.61v-4.046c0-.238.077-.44.232-.603a.766.766 0 0 1 .587-.247c.393 0 .665.174.819.522.265-.42.734-.63 1.406-.63.622 0 1.117.165 1.48.492.371.352.556.834.556 1.448v3.064zm5.15-.174c0 .37-.241.664-.724.88a2.914 2.914 0 0 1-1.22.263c-.827 0-1.498-.298-2.016-.892-.497-.567-.747-1.268-.747-2.099 0-.834.254-1.538.762-2.115.509-.578 1.174-.867 2.001-.867.477 0 .888.071 1.23.21.477.188.714.482.714.883 0 .202-.063.38-.188.535a.6.6 0 0 1-.483.232c-.134 0-.327-.045-.578-.134-.251-.09-.451-.133-.598-.133-.391 0-.696.139-.914.418-.202.251-.304.572-.304.971 0 .374.09.692.273.949.202.3.487.449.85.449.161 0 .381-.047.662-.143.28-.094.483-.143.609-.143a.61.61 0 0 1 .473.231.763.763 0 0 1 .198.505zm5.967.174a.874.874 0 0 1-.229.61.77.77 0 0 1-.59.251c-.357 0-.612-.174-.765-.522-.344.42-.813.63-1.408.63-.762 0-1.386-.32-1.87-.955-.44-.581-.66-1.26-.66-2.036 0-.777.22-1.456.66-2.038.492-.63 1.114-.944 1.87-.944.595 0 1.064.21 1.408.63.153-.348.408-.522.765-.522a.77.77 0 0 1 .584.251.848.848 0 0 1 .235.599v4.046zm-1.641-2.022c0-.377-.09-.695-.271-.952a.992.992 0 0 0-.848-.437.973.973 0 0 0-.849.437c-.182.257-.272.575-.272.952 0 .374.088.696.262.961a.998.998 0 0 0 .859.437.973.973 0 0 0 .848-.437c.18-.265.271-.587.271-.961zm5.83-2.133c0 .351-.171.593-.513.724-.316.106-.63.214-.944.326-.344.196-.515.561-.515 1.091v2.014a.876.876 0 0 1-.231.61.772.772 0 0 1-.589.251.763.763 0 0 1-.589-.251.864.864 0 0 1-.232-.61v-4.046c0-.238.076-.44.23-.603a.772.772 0 0 1 .589-.247c.392 0 .665.174.819.522.351-.42.728-.63 1.135-.63.231 0 .43.084.594.251a.835.835 0 0 1 .246.598zm4.283.075c0 .365-.144.594-.428.693-.14.048-.433.074-.879.074v3.313a.876.876 0 0 1-.231.61.77.77 0 0 1-.589.251.776.776 0 0 1-.586-.251.866.866 0 0 1-.235-.61v-3.313c-.338 0-.583-.043-.738-.127-.212-.118-.317-.332-.317-.64s.108-.518.326-.63c.148-.082.391-.125.729-.125v-.702c0-.826.273-1.238.821-1.238.546 0 .82.412.82 1.238v.702c.446 0 .739.025.879.074.284.098.428.326.428.681z" fill="url(#paint0_linear)"/><path fill-rule="evenodd" clip-rule="evenodd" d="M89.326 253.432c6.801 0 12.314-5.513 12.314-12.313 0-6.8-5.513-12.313-12.314-12.313-6.8 0-12.313 5.513-12.313 12.313 0 6.8 5.513 12.313 12.313 12.313zm5.017-16.262c3.966 0 5.498.369 5.506 1.18v.012c-.007.805-1.497 2.044-3.594 3.786-.75.624-1.58 1.313-2.445 2.07.473-.806 1.246-1.587 1.95-2.3 2.01-2.032 3.467-3.506-4.13-3.392-8.81.131-10.197-2.206-11.154-3.817a9.822 9.822 0 0 0-.329-.53c2.527 2.602 4.888 2.991 14.195 2.991zm-8.978 10.889c.77 0 1.405-.621 1.405-1.375 0-.762-.629-1.378-1.405-1.378-.773 0-1.408.621-1.408 1.377v.001c0 .759.63 1.375 1.408 1.375zm6.41 0c.77 0 1.404-.621 1.405-1.375 0-.762-.63-1.378-1.406-1.378-.772 0-1.408.621-1.408 1.377v.001c0 .759.63 1.375 1.408 1.375z" fill="url(#paint1_linear)"/><circle cx="132.759" cy="567.09" r="32.91" fill="#EFF3FC"/><path d="M130.127 582.261c0 .88-.382 1.593-1.265 1.593-.884 0-1.266-.713-1.266-1.593v-3.005h-1.613v3.005c0 1.74 1.119 3.144 2.872 3.144 1.745 0 2.885-1.404 2.885-3.144v-3.011h-1.613v3.011zM147.92 577.416h-1.607v7.832h1.607v-7.832zM149.109 577.702h.459v1.244h.334v-1.244h.458v-.279h-1.251v.279zM151.708 577.423l-.334 1.048h-.007l-.354-1.048h-.473v1.523h.313v-1.069l.375 1.069h.265l.368-1.076h.007v1.076h.313v-1.523h-.473zM122.375 580.307c-.021.035-.021.056-.083.056-.049 0-.056-.056-.056-.056l-.174-1.048h-1.439v5.981h1.613v-3.235c0-.266.716-1.53 2.107-1.209.702.168 1.001.461 1.001.461v-1.823a2.427 2.427 0 0 0-.674-.252c-1.384-.314-2.26 1.055-2.295 1.125zM135.495 579.133a3.175 3.175 0 0 0-3.184 3.165v4.912h1.62v-2.955s0-.063.062-.063c.049 0 .063.035.077.063.125.3.799 1.46 2.287 1.097a3.167 3.167 0 0 0-.862-6.219zm0 4.772a1.61 1.61 0 0 1-1.613-1.6c0-.887.723-1.6 1.613-1.6s1.613.72 1.613 1.6c0 .88-.723 1.6-1.613 1.6zM142.476 579.133a3.175 3.175 0 0 0-3.185 3.165c0 1.453.98 2.676 2.322 3.047 1.495.363 2.17-.79 2.288-1.097.014-.028.028-.063.077-.063.055 0 .062.063.062.063v.992h1.62v-2.942a3.175 3.175 0 0 0-3.184-3.165zm0 4.772a1.61 1.61 0 0 1-1.614-1.6c0-.887.724-1.6 1.614-1.6.89 0 1.613.72 1.613 1.6 0 .88-.723 1.6-1.613 1.6zM115.7 577.416h-1.968v7.825h1.836c2.412 0 4.331-.468 4.331-3.913 0-3.479-1.814-3.912-4.199-3.912zm.32 6.477l-.668-.014v-5.108h.647c1.488 0 2.266.21 2.266 2.557.007 2.446-.876 2.565-2.245 2.565zM129.779 562.061a3.674 3.674 0 0 0-3.664 3.682c0 2.034 1.641 3.683 3.664 3.683 2.024 0 3.664-1.649 3.664-3.683a3.673 3.673 0 0 0-3.664-3.682zM134.338 561.349a6.339 6.339 0 0 1 1.753 4.388 6.343 6.343 0 0 1-2.705 5.206c3.024-.937 5.528-3.222 6.647-5.989 1.551-3.829.104-6.707-2.315-9.321.076.336.118.692.118 1.048a4.86 4.86 0 0 1-3.498 4.668zM130.196 556.689a2.809 2.809 0 0 0 2.802 2.816 2.82 2.82 0 0 0 2.809-2.816 2.809 2.809 0 0 0-2.802-2.815 2.815 2.815 0 0 0-2.809 2.815z" fill="#2BA9E0"/><path d="M124.946 569.831a6.344 6.344 0 0 1-1.481-4.088c0-3.249 2.427-5.925 5.562-6.296a4.871 4.871 0 0 1-.855-2.753 4.837 4.837 0 0 1 5.479-4.807c-1.578-1.369-3.156-2.76-4.401-4.276.633 6.652-6.028 4.234-8.497 10.369-1.648 4.109-.16 9.188 4.193 11.851z" fill="#2BA9E0"/><defs><linearGradient id="paint0_linear" x1="95.472" y1="264.173" x2="95.472" y2="255.612" gradientUnits="userSpaceOnUse"><stop stop-color="#04B6F0"/><stop offset="1" stop-color="#3ECAF0"/></linearGradient><linearGradient id="paint1_linear" x1="93.144" y1="247.826" x2="93.144" y2="226.602" gradientUnits="userSpaceOnUse"><stop stop-color="#04B6F0"/><stop offset="1" stop-color="#3ECAF0"/></linearGradient></defs></svg>