<svg width="153" height="221" fill="none" xmlns="http://www.w3.org/2000/svg"><path d="M10.403 2.656c.695 1.227 1.798 3.27 2.452 4.578.736 1.471 1.226 2.043 1.226 1.512 0-.45.45-1.267 1.022-1.798.98-.9 1.022-.94 1.84-.205.408.368 1.103 1.554 1.47 2.534.613 1.594.654 2.33.287 5.559-.368 2.983-.328 3.842.081 4.046.286.163.736.858 1.022 1.512.286.695 1.063 1.676 1.798 2.207.695.532 2.085 2.452 3.066 4.21 1.021 1.798 2.37 3.842 2.983 4.577.613.736 1.145 1.594 1.145 1.88 0 .532 3.433 3.393 5.19 4.292.531.245.94.735.94 1.062 0 .327.245.613.572.613.327 0 .858.327 1.145.736.653.981 2.084 1.717 3.188 1.717.45 0 2.288.735 4.087 1.634 2.125 1.063 3.841 1.635 4.822 1.635 7.725-.081 9.523 0 11.076.654 1.676.654 1.676.654 3.597-.572 4.782-3.065 4.945-4.087 1.144-7.643L61.9 34.944v-2.493c0-1.962.163-2.657.817-3.229.776-.695 4.455-6.948 6.09-10.38.45-.982 1.021-3.27 1.266-5.069.41-3.147.573-3.637 2.126-5.436.736-.817 0 0 3.596-1.55 1.253-.54 1.095-2.176 6.838-3.597 1.2-.297 2.37-.726 3.432-1.359L88.217.55c.527-.314 1.19-.304 1.68.065 2.923 2.2 5.012 5.273 5.948 6.921 1.145 2.003 3.45 7.778 3.083 9.25v4.712c0 3.719-.188 3.387 0 3.719 1.022 1.798 1.063 1.92.572 4.537-.572 3.106-2.207 5.517-4.659 6.825-.817.45-1.39 1.022-1.308 1.308.123.245-.204 1.226-.695 2.125-.776 1.43-1.144 1.676-3.351 2.207-3.924 1.022-5.517 1.144-5.763.49-.409-1.062-1.39-.122-2.002 1.962-.573 1.962-.573 2.125.49 4.455 1.185 2.616 2.697 4.005 4.455 4.005.613 0 2.289.654 3.72 1.43 1.716.94 3.146 1.431 4.209 1.431.858 0 2.452.409 3.555.9 1.758.817 6.581 1.47 10.831 1.512.613.04 1.226.204 1.349.45.163.285.572.204 1.144-.205.491-.327 1.145-.613 1.512-.613.859 0 4.864-4.169 6.908-7.234 1.185-1.84 2.452-3.066 4.577-4.455 1.635-1.104 3.433-2.738 4.128-3.76.695-.981 1.471-1.676 1.757-1.553.859.327 1.431-.654 1.431-2.412 0-.899.572-3.76 1.226-6.334.695-2.575 1.226-5.232 1.226-5.927 0-2.534.327-2.942 1.962-2.697l1.512.245.45 3.065.408 3.066 1.431-2.248c.817-1.226 1.961-3.229 2.615-4.414.613-1.145 1.267-2.125 1.39-2.125.123.04.858.572 1.635 1.226.858.735 1.267 1.348 1.062 1.716-.163.286.082.082.532-.45.858-1.062 1.635-.858 3.106.736.776.858.736.9-.94 3.27-.899 1.349-1.676 2.534-1.676 2.656 0 .164.736-.245 1.676-.858 1.88-1.226 2.166-1.063 2.616 1.635.204 1.185.122 1.757-.409 2.33-.491.53-.613 1.144-.45 1.798.205.899 0 1.185-2.411 2.493-1.43.817-3.515 2.289-4.578 3.27-1.103.94-2.779 2.002-3.719 2.288-2.575.736-5.395 4.66-5.395 7.48 0 .572-.49 2.084-1.062 3.392-.981 2.207-1.512 2.738-8.501 8.297-4.128 3.27-7.888 5.967-8.379 6.048-.449.082-1.226.613-1.675 1.227-1.267 1.593-3.842 2.125-7.275 1.47-2.493-.449-8.133-1.062-16.022-1.675-2.41-.163-3.719-.04-6.09.613-3.964 1.144-6.375 3.147-2.656 2.207.9-.245 2.085-.531 2.698-.654l1.144-.245v8.42l-4.986.776-4.986.817-1.104 3.474c-.613 1.921-1.308 4.25-1.553 5.19-.286.982-1.144 2.453-2.084 3.434-.9.98-1.635 1.757-1.635 1.798 0 0 .45.9 1.022 2.003 1.267 2.452 1.39 6.498.327 8.542-.368.735-.613 2.043-.572 3.024.04 1.022-.164 2.085-.532 2.657-.572.899-.572 1.43.164 5.885.45 2.657 1.144 6.335 1.594 8.133.53 2.248.735 4.006.572 5.64-.205 2.289-.205 2.371 1.471 4.169 1.022 1.144 1.553 2.044 1.43 2.452-.49 1.226.859.205 3.23-2.452 1.675-1.88 2.656-2.656 3.392-2.656 1.185 0 3.188-2.575 3.923-5.028.409-1.348.777-1.757 2.289-2.37 1.022-.45 1.88-.736 1.962-.695.04.082.368 1.145.694 2.371.532 2.207.573 2.248 1.921 2.125.777-.041 2.003-.49 2.739-.981l1.39-.817 1.144 1.062c1.267 1.186 3.31 6.662 3.31 8.747 0 .694.858 2.983 1.962 5.067 1.88 3.72 1.921 3.883 1.798 7.071-.122 4.7-.858 6.785-2.575 7.643-2.248 1.144-4.046.776-4.046-.818 0-.899-3.188-7.888-4.25-9.236-.532-.695-1.308-2.003-1.758-2.861-.817-1.553-.858-1.594-1.308-.736-.286.491-1.634 1.431-3.024 2.044-1.39.654-4.087 2.207-6.008 3.433-1.92 1.226-5.722 3.392-8.46 4.822l-5.027 2.575-3.065-.531c-1.676-.286-3.23-.736-3.433-.981-.164-.245-.491-1.185-.614-2.084-.163-.899-1.062-3.474-1.961-5.722-.9-2.248-1.962-5.395-2.37-6.948-.41-1.594-.777-2.452-.777-1.962-.041 1.022-1.513 1.88-7.071 4.21-1.717.695-5.518 2.861-8.378 4.782l-5.232 3.474-4.046-.327-4.046-.368-1.185-3.801-1.186-3.76 1.022-6.09c.736-4.455 1.471-7.275 2.657-10.299.94-2.289 2.493-7.112 3.555-10.749 1.186-4.21 2.126-6.826 2.657-7.275.409-.368.654-.94.531-1.267-.122-.327.082-1.226.45-1.921.531-1.063.613-1.921.409-4.332-.246-2.412-.205-3.025.245-3.025 1.349-.04 2.043-1.185 2.534-4.128l.49-2.983 1.717-.45c.94-.204 1.839-.531 2.002-.694.164-.164-.04-1.063-.45-1.921-1.062-2.412-.694-5.395.9-7.112 1.144-1.185 1.267-1.635 1.471-4.863.123-1.962.45-3.924.654-4.333.245-.45.532-2.248.695-4.005.123-1.798.572-3.842.981-4.66l.736-1.47-1.267-1.676c-1.063-1.39-2.33-2.166-7.234-4.455-3.515-1.676-6.621-3.433-7.602-4.332-.94-.859-2.248-1.676-2.902-1.799-2.003-.408-9.523-8.174-11.852-12.302-.695-1.267-1.962-3.106-2.82-4.128-.818-.98-1.717-2.574-1.962-3.474-.736-2.779-2.29-5.15-3.72-5.64-.694-.245-1.839-1.307-2.615-2.37-.818-1.063-2.698-2.738-4.496-3.924C.103 14.55-.019 14.427.103 13.078c.082-.776.246-1.512.327-1.593.082-.123.859.122 1.717.53l1.512.736-1.757-1.798C.962 9.973.185 9.033.185 8.87c0-.205.409-.94.94-1.717.9-1.349.981-1.39 1.717-.695.409.368.245.041-.327-.776-1.39-1.88-1.39-2.166.163-3.27l1.308-.899 1.758 2.003c1.92 2.207 2.084 2.207 1.185.04-.327-.817-.613-1.593-.613-1.675 0-.204 2.248-1.471 2.615-1.471.082 0 .777 1.021 1.472 2.247zM8.44 3.678c.204.695.572 1.226.777 1.226.49 0 .45-.572-.082-1.798-.654-1.43-1.226-.94-.695.572zm-4.74 1.39C4.15 5.64 4.803 6.13 5.252 6.13c.818 0 .736-.122-.94-2.166-.94-1.144-1.512-.122-.613 1.104zm6.538 2.86c.327 1.35-.899 1.758-2.084.655l-.9-.859-.244.818c-.123.49-.041.98.163 1.103.49.286.45 1.43-.04 2.207-.287.49-.491.49-1.186-.204-.98-.858-1.512-.613-1.063.49.205.41.368 1.513.368 2.412.041 1.39.327 1.92 1.349 2.779.736.613 1.676 1.716 2.166 2.493 1.022 1.635 2.984 2.493 3.72 1.594.367-.45.367-.98 0-2.166-.614-2.125-.655-2.044 1.184-1.799 2.33.328 3.474-.817 3.842-3.719.245-2.288-.45-5.19-1.308-5.476-.776-.246-.613 2.656.164 3.106.531.286.409.45-.613.899-.695.286-1.267.695-1.267.9 0 .94-.777-.287-1.635-2.535-.531-1.39-1.308-2.738-1.798-3.065-1.104-.777-1.104-.777-.818.368zm-8.419.573c0 .572 1.594 1.88 1.921 1.594.123-.164-.082-.654-.49-1.104-.777-.858-1.431-1.062-1.431-.49zm70.91 1.308c-.409.45-.858 1.512-1.022 2.37l-.286 1.553 1.594-.408c1.676-.45 2.003-.9.818-1.186-.368-.122.367-.204 1.675-.245 2.044-.04 2.657.123 4.25 1.226l1.84 1.267-.286-1.348-.245-1.39.899 1.349c.776 1.185 1.062 1.348 2.493 1.226l1.635-.123 2.084 3.76c1.144 2.085 2.125 3.72 2.207 3.638.082-.082 0-.9-.245-1.84-.205-.899 3.147-8.296 3.229-8.296.122 0-2.78 7.724-2.166 9.073.899 2.166 1.185 2.452 2.166 2.452 1.062 0 1.185-.163 1.43-2.002.45-3.23-.654-4.823-5.436-7.97L85.4 10.299l-4.087-.286c-2.248-.122-4.741-.409-5.518-.572-2.125-.531-2.248-.531-3.065.368zM1.411 13.487c0 .204.205.409.45.409.204 0 .286-.205.163-.409-.122-.245-.327-.409-.45-.409-.08 0-.163.164-.163.41zm69.194 4.7c-.654 1.921-4.864 9.4-6.335 11.28-.817 1.063-1.144 1.962-1.144 3.066 0 1.553.04 1.634 3.27 3.351 2.737 1.471 3.76 1.798 6.252 2.003l2.943.245 2.248-1.921c1.962-1.676 2.411-1.88 4.21-1.88 1.88 0 2.247-.164 4.577-2.248 1.43-1.226 2.657-2.248 2.738-2.248.123 0 .41 1.022.695 2.248.45 1.921.654 2.248 1.43 2.248 1.758 0 1.921-.777.614-3.31-.654-1.308-1.186-2.494-1.186-2.657 0-.123.9.409 2.003 1.226 1.104.817 2.207 1.471 2.411 1.471.818 0 1.308-1.553 1.308-4.25 0-3.106-.49-3.597-3.065-3.106-.9.163-1.226.327-.776.368.49 0 1.307.408 1.839.858l.98.817-1.348-.45c-.736-.245-1.962-.367-2.657-.245-1.185.164-1.43.041-2.534-1.634-.695-1.022-2.411-2.739-3.842-3.842-2.37-1.799-2.738-1.962-4.168-1.758-1.145.205-1.84.082-2.698-.531-.613-.45-1.962-1.103-2.983-1.43-1.717-.573-1.921-.573-3.066.122-.653.409-1.43 1.349-1.716 2.207zm-52.641 3.76c-.123.409-.531 2.207-.818 3.965l-.572 3.27 1.145 1.552 1.144 1.553.327-1.716.327-1.758.654 3.27c.695 3.433 2.37 6.825 3.719 7.561.736.409.817.286.858-1.103 0-1.39.123-1.186 1.145 1.798 1.185 3.637 3.065 6.09 4.945 6.54.572.122 1.185.367 1.43.571 1.553 1.186 5.763 3.188 7.602 3.638 1.758.408 2.657.94 4.333 2.575 1.185 1.144 2.247 2.002 2.33 1.88.122-.123-.246-.9-.818-1.758s-.981-1.594-.9-1.675c.082-.123 1.227.45 2.494 1.226l2.37 1.43 1.267-1.43c.695-.818 1.308-1.39 1.39-1.308.122.082-.123.98-.49 1.962-.9 2.575-.491 6.866.94 9.359l1.062 1.84-1.676-1.595-1.634-1.553-.695 1.349c-.613 1.185-.654 1.757-.246 4.618.246 1.84.45 3.678.45 4.128 0 .777-.082.736-.776-.163-.654-.859-.777-.859-.981-.246-.368.9-.327 6.05.081 8.46.368 2.167.041 2.535-.735.859l-.49-1.063-.982.981c-1.39 1.349-1.47 3.515-.204 5.19 1.103 1.513 1.144 1.513 2.37.654.859-.613.9-.572.9.491s.04 1.063.776.409c.695-.654.818-.613 1.84.776.612.777 1.43 1.43 1.88 1.43.694 0 .735-.367.694-4.209-.04-3.76.123-4.618 1.43-8.665l1.472-4.495-1.635-3.066-1.635-3.065 2.085 2.044c2.043 1.962 2.411 2.002 1.716.122a47.79 47.79 0 0 1-.613-2.125l-.286-1.185 1.022.654c1.226.817 1.39.613 2.493-3.106.695-2.412.695-2.412-.245-3.393l-.94-1.021 1.594.245c1.553.245 1.675.204 2.166-1.104.49-1.267.45-1.39-.572-2.248-1.022-.776-1.063-1.021-.818-2.82.123-1.062.45-2.574.736-3.31.654-1.758.123-2.207-1.022-.858-.776.899-4.25 2.207-4.7 1.798-.082-.082.531-.572 1.308-1.063 1.471-.899 1.84-1.757 1.022-2.288-.9-.532-6.172-.9-7.561-.49-1.267.326-1.35.49-1.145 1.47l.286 1.104-1.43-1.349c-.777-.695-1.676-1.308-2.003-1.308-.327 0-2.125-.735-4.005-1.634-1.84-.9-3.801-1.635-4.332-1.635-.532 0-1.513-.45-2.166-1.022-.9-.736-1.308-.858-1.635-.531-.286.286-.49.327-.49.163 0-.204-.45-.04-1.022.327-1.186.777-1.267.49-.41-1.553.328-.817.491-1.471.328-1.471-.204 0-1.43-.818-2.78-1.84l-2.41-1.839-.982 1.145c-.53.613-.858.817-.735.409.776-2.616.735-3.597-.327-4.823-.572-.695-1.717-2.534-2.534-4.128-.858-1.594-2.125-3.352-2.861-3.924-.736-.531-1.471-1.348-1.594-1.798-.327-.98-.858-.98-1.226-.082zm125.513 2.616c-.409.695-.613 1.349-.491 1.512.327.286.777-.245 1.39-1.675.654-1.513.041-1.39-.899.163zm3.882 1.553c-1.226 1.717-1.062 2.003.368.654 1.226-1.185 1.553-1.84.858-1.84-.204 0-.776.532-1.226 1.186zm-11.893 1.308c0 .817-.368 2.657-.776 4.087-1.921 6.457-1.962 6.662-.654 8.378l1.144 1.513-1.226-.246c-.858-.163-1.431-.04-1.717.286-.367.45-.163.859 1.063 1.84.858.694 1.676 1.267 1.839 1.267.45 0 1.145-1.472 1.145-2.453 0-.776.163-.858 1.226-.613.654.164 1.88.041 2.656-.204 1.267-.409 1.431-.613 1.431-1.962 0-1.471 0-1.471.654-.572.531.736.776.858 1.226.45 1.021-.859.613-2.248-1.472-5.068-1.144-1.513-2.043-2.943-2.043-3.188 0-.205-.286-.164-.613.122-.532.45-.532.613 0 1.35.327.49.613 1.552.613 2.41 0 1.267-.205 1.635-1.185 2.167l-1.186.613.041-1.799c.082-1.43-.122-1.962-.899-2.575-.817-.653-.899-.94-.531-1.634.327-.573.327-.94 0-1.267-.327-.327-.327-.613.041-1.063.327-.409.408-1.226.204-2.493-.327-2.207-.981-1.757-.981.654zm5.232 2.78c.817.163 1.716-1.064 1.716-2.33 0-.94-.082-.9-1.144.572-.94 1.267-1.063 1.634-.572 1.757zm8.664 1.062c-.409.49-.409.735 0 1.226.695.817 1.635.082 1.349-1.022-.245-.98-.654-1.022-1.349-.204zm-2.452 2.043c0 .409.245.49.858.286.45-.204.817-.45.817-.613-.04-.163-.04-.49-.04-.694 0-.287-.246-.287-.818 0-.449.245-.817.694-.817 1.021zm-1.962.695c-.286.286-.49.817-.49 1.226 0 .695.081.695.98.082.614-.368.9-.858.777-1.226-.245-.695-.613-.736-1.267-.082zm-76.755 8.705c-.286 1.676.45 5.19 1.431 6.376.613.777.736.777 2.493.164 3.556-1.267 6.376-3.393 5.558-4.21-.122-.123-1.021.04-2.043.327-1.758.49-1.88.45-3.638-.817-.98-.695-2.043-1.717-2.33-2.29-.735-1.348-1.144-1.225-1.47.45zm61.102 1.063c-.327.695-.327.94.041 1.185.735.45.122 1.185-.777.94-1.349-.327-5.967 3.27-7.888 6.172-.899 1.348-2.452 3.31-3.433 4.332-1.471 1.512-1.839 2.248-2.125 4.087l-.368 2.248-.327-1.758c-.409-2.37-1.226-2.247-4.046.573-1.267 1.267-2.289 2.207-2.289 2.084 0-.082.286-.94.613-1.88.49-1.471.49-1.676-.041-1.676-.327 0-1.267.49-2.043 1.104l-1.431 1.062.491-1.062c.286-.613.367-1.226.245-1.349-.123-.163-1.594-.368-3.229-.49-1.921-.123-3.637-.532-4.823-1.104-1.267-.613-2.288-.858-3.392-.695-1.226.123-2.002-.122-4.087-1.348-2.37-1.43-2.697-1.513-4.986-1.308-1.349.122-2.902.368-3.474.531-.98.286-.98.245-.368-.49.368-.41.817-1.022.981-1.35.409-.694.613-.816-4.823 2.698-2.82 1.84-4.781 2.82-6.743 3.31-1.513.369-2.82.736-2.902.777-.123.082-.164 1.635-.082 3.515.123 4.455.531 5.027 3.72 5.395 2.37.286 2.574.245 3.719-.858.654-.613 1.185-1.267 1.185-1.43 0-.205-.49-.818-1.104-1.39l-1.144-1.022h8.91l2.084-1.553c3.106-2.33 3.147-2.33 2.452-.613-.368.858-.94 2.084-1.267 2.697l-.572 1.145 1.39-.246c.98-.204 2.084.041 3.923.777 2.33.94 2.984 1.022 8.542.98 4.046-.04 6.458-.203 7.398-.612 1.226-.49 1.471-.45 2.084.082.654.613.817.49 1.758-1.104l1.062-1.757.041 1.308c0 1.348 0 1.348 2.044 1.348h2.043l-.245-1.798-.286-1.84 1.512-.204c.817-.122 2.125-.367 2.943-.49 2.288-.327 3.269-.94 4.005-2.493.613-1.349.613-1.39-.041-1.185-.409.081-1.39.286-2.166.408l-1.431.246 1.635-.818c.899-.45 3.597-1.716 6.008-2.86 4.21-1.922 4.414-2.044 4.414-3.27 0-1.022-.163-1.227-1.022-1.227-1.144 0-1.226-.122-.572-1.144.368-.572.327-1.063-.245-2.084-.572-1.145-.572-1.43-.123-1.717.327-.204.695-.122.981.245.572.777.981.368.981-1.062 0-.818-.368-1.349-1.349-1.962-1.593-1.022-1.389-1.022-1.961 0zm-64.33 1.84c-.736.449-1.308 1.511-1.88 3.473-.9 3.025-.777 4.128.408 3.066.41-.368 1.308-.777 2.003-.9l1.308-.286v-2.983c0-3.23-.204-3.474-1.84-2.37zm5.64 6.784c-1.104.531-1.145.613-.94 3.065l.204 2.575 2.37-1.553c2.33-1.553 2.575-2.125.94-2.125-.653 0-.49-.164.573-.736.776-.368 1.512-1.063 1.553-1.471.163-.695 0-.736-1.676-.532-1.022.164-2.37.49-3.024.777zm-5.436 2.656c0 .777.205.94 1.185.94 1.227 0 1.676-.572 1.676-2.288 0-.981 0-.981-1.43-.287-1.022.49-1.43.94-1.43 1.635zm.368 7.888l.817 2.248v-2.452c.041-1.758-.163-2.78-.695-3.474l-.694-1.022-.123 1.226c-.04.654.245 2.248.695 3.474zm-4.618 2.861c.122 1.022.327 2.207.45 2.657.244.817.244.817-.655 0-1.062-.9-1.39-.613-2.084 1.839-2.943 10.626-2.984 10.749-2.78 14.305.164 2.493.491 4.005 1.186 5.394.94 2.003 1.594 2.494 1.594 1.267 0-.572.082-.572.817.082.981.9.981.817.205-1.43-.695-1.962-.573-1.921 2.125.531l1.267 1.185 2.289-1.062c2.779-1.308 2.942-1.308 2.125-.041-.654.98-.654 1.021.327 1.021.531 0 1.226-.286 1.512-.653.45-.573.45-.736-.163-1.186-.614-.45-.532-.572.94-1.226 1.185-.531 1.675-1.022 1.839-1.92.327-1.513.245-1.595-2.37-2.371l-2.126-.654 1.962-1.308c2.084-1.471 2.411-1.88 1.062-1.39-.49.205-1.43.246-2.084.164-1.103-.164-1.43-.613-3.065-4.128-1.635-3.433-1.921-4.496-2.37-8.624-.328-2.575-.696-5.027-.859-5.476-.531-1.39-1.39.899-1.144 3.024zm3.841 1.144c.368 3.188 1.227 5.559 2.207 5.968.246.081 1.145.49 2.003.858l1.594.654-1.063-1.39c-.572-.735-1.471-2.452-1.961-3.8-.94-2.412-2.82-5.968-3.066-5.763-.04.081.082 1.634.286 3.473zM41.873 92.817c-.163.899.082 2.288.695 3.964.94 2.534.817 2.78-.736 1.43-.736-.613-2.82-.327-2.82.327 0 .205.572 1.513 1.267 2.861.695 1.39 1.144 2.575 1.063 2.698-.123.081-.613-.082-1.063-.368-.98-.613-1.43-.205-1.962 1.676-.204.776.082 1.226 1.349 2.37 1.104.981 1.349 1.349.777 1.185-3.515-.776-3.27-.94-4.374 2.616-.408 1.226-.735 3.147-.735 4.25 0 1.431-.245 2.289-.777 2.861-.45.491-1.716 3.434-2.902 6.581-1.757 4.781-2.002 5.885-1.634 6.702.367.777.286 1.104-.246 1.758-.735.776-2.207 7.847-1.92 8.787.122.286.817.613 1.593.776 1.594.286 2.29.981.981.981-.531 0-.817.205-.735.491.245.735 1.961 1.553 3.228 1.553.9 0 1.063-.164.94-.94-.122-.695.286-1.267 1.799-2.412 1.43-1.103 2.125-1.961 2.493-3.187.572-1.881.368-2.453-.9-2.453-.776 0-.735-.122.45-.899 2.044-1.267 1.145-1.798-2.248-1.267-1.512.245-2.82.368-2.901.327-.041-.041 1.185-.94 2.779-2.003 2.166-1.43 3.106-1.839 3.842-1.634.899.204 1.021.081 1.267-1.553.572-3.965.613-4.006 1.798-4.006 1.103 0 1.185-.122 1.594-2.697.245-1.512.531-2.779.654-2.902.081-.123.654.123 1.267.531l1.144.736-.327-.981c-.163-.572-.327-2.329-.368-3.923-.04-1.799-.286-3.188-.613-3.597-.736-.899-.327-1.267.736-.695.817.45.817.368.654-1.675-.082-1.186-.45-2.984-.818-3.965-.327-.981-.572-1.88-.49-1.921.082-.082.776 1.063 1.553 2.493.777 1.472 1.512 2.657 1.676 2.657.531 0 .367-1.88-.327-3.515l-.654-1.594.817.736c.49.449 1.022.654 1.267.531.286-.163.327.45.164 1.839-.245 1.921-.164 2.125.94 3.065 1.185.94 2.207 1.267 2.207.654 0-.163.367-2.861.817-6.008 1.022-7.03 1.022-7.683.041-8.541-.736-.654-.817-.654-1.676.53-.49.696-1.022 1.268-1.185 1.268-.204 0-.572-.818-.858-1.798-.49-1.758-.532-1.799-1.84-1.594-1.266.204-1.43.081-2.247-1.472-.45-.94-1.308-1.92-1.84-2.166-.572-.245-.858-.654-.735-.98.163-.45 0-.491-.736-.205-.695.245-1.062.736-1.185 1.717zm15.081 6.743c-1.39 1.349-1.512 1.676-1.675 4.373-.123 1.635-.164 2.984-.082 3.065.04.082 1.512-.694 3.27-1.716 1.757-1.022 3.228-1.798 3.31-1.717.531.491-1.104 2.289-2.984 3.311-1.226.654-2.207 1.389-2.207 1.635 0 .286.45.899.981 1.389.94.859 1.022.899 2.493.286 2.37-.981 2.493-.776.613.859-1.594 1.471-1.675 1.634-1.226 2.779.245.654 1.226 2.125 2.166 3.269l1.717 2.044-2.452-1.39c-1.349-.776-2.82-1.634-3.229-1.921-.572-.408-.94-.449-1.349-.081-.858.695-.613 1.471 1.022 3.31 1.512 1.635 4.455 5.518 5.19 6.826.328.613-.04.327-3.392-2.616-.98-.858-1.88-1.471-1.962-1.349-.081.082.123 1.635.45 3.433.368 1.839.613 4.292.572 5.518-.081 2.289 1.43 10.054 2.289 11.73.49.98.49.98.776-.532.164-.817.082-2.575-.204-3.923-.245-1.39-.408-2.575-.286-2.698.368-.327 2.78 6.826 2.78 8.215 0 .736.122 2.166.245 3.147.286 2.003.245 2.003 6.334 4.21.49.204.9-.245 1.594-1.635.49-1.022.859-1.921.777-2.003a37.99 37.99 0 0 0-1.185-.531c-.981-.449-.981-.449.654-.736 2.247-.367 2.779-1.307 2.002-3.514-.327-.94-1.267-2.616-2.043-3.679-.777-1.103-1.349-2.002-1.267-2.002.122 0 .654.163 1.226.408.98.368 1.063.286 1.063-.654 0-.613-.491-1.471-1.267-2.166-1.063-.981-1.186-1.308-.818-2.002.245-.45.45-1.717.45-2.82 0-1.881-.123-2.126-3.106-5.354-1.717-1.881-3.025-3.474-2.902-3.597.082-.123.858.123 1.675.49.777.409 1.553.613 1.676.532.286-.286.368-4.537.082-5.477-.123-.45-.45-1.594-.654-2.493-.368-1.39-.654-1.757-1.635-1.921-1.185-.245-1.185-.286-.654-1.757.286-.818.818-1.676 1.185-1.88 1.553-.859 1.553-1.799-.04-5.436-.818-1.921-1.676-3.433-1.921-3.31-.246.081-.736.285-1.063.408-.409.164-.9-.163-1.39-1.022-.694-1.185-.858-1.267-2.452-1.021-1.144.204-2.166.735-3.147 1.716zm11.321 1.88c-.368 1.39-.327 1.512.613 1.267.49-.163.736-.449.613-.817-.122-.327-.245-.777-.245-.981 0-.736-.736-.327-.98.531zM49.19 123.306c-.818 2.084-2.126 4.577-2.902 5.517-.776.981-1.757 2.289-2.207 2.984l-.776 1.226 1.348-1.104c.736-.613 2.044-2.002 2.902-3.065.858-1.103 2.125-2.452 2.78-3.106l1.184-1.104 1.717 1.554c2.697 2.493 2.82 1.675.49-3.393-2.084-4.536-2.534-4.495-4.536.491zm39.317 4.822c-2.33 4.619-4.7 7.48-5.558 6.744-.654-.531-5.681 4.7-5.354 5.558.327.9 3.106-.653 4.046-2.288.45-.695.858-1.186.94-1.104.286.286-1.308 4.332-2.003 5.15-.327.368-.695 1.062-.817 1.553-.695 2.861 5.109-.899 6.907-4.455l1.063-2.125.776 1.022.777.98.98-1.226c1.88-2.288 2.207-3.147 1.799-4.659l-.368-1.389-1.022 1.185-1.022 1.185.205-1.635c.817-5.681.817-6.008 0-5.844-.409.081-1.022.695-1.349 1.348zm-39.971 1.635c-1.308 1.553-2.984 3.229-3.678 3.679-.736.449-1.676 1.675-2.207 2.861-.49 1.103-.981 2.166-1.104 2.329-.082.164.736.204 1.84.082 2.37-.327 3.8-1.471 3.8-3.106 0-1.349.409-1.472 1.145-.327.694 1.103 3.146 1.144 3.76.041.367-.695.122-.981-1.88-2.085-1.227-.735-2.126-1.43-2.003-1.553.163-.163.98-.531 1.88-.899 2.044-.777 3.229-2.493 2.411-3.474-.817-.981-1.39-.654-3.964 2.452zm46.306.818c-.654.204-.409.49 1.39 1.839 1.226.899 2.247 1.635 2.33 1.635.04 0-.083-.491-.287-1.063-.695-1.757-.45-1.676.817.327.695 1.103 1.308 1.962 1.431 1.962.327 0-1.512-4.659-2.125-5.395-.532-.572-.736-.572-1.676-.123-.613.327-1.471.695-1.88.818zm-22.152 19.454c-.94.981-1.021 1.185-.368.94.859-.286 1.84-1.308 1.84-1.88 0-.531-.164-.409-1.472.94zm26.975 2.616a97.038 97.038 0 0 1 1.185 3.147c.245.613.409.654 1.39.245.613-.286 1.226-.531 1.307-.613.123-.082-.327-.695-.981-1.349-1.144-1.185-1.144-1.226-.286-1.226 1.553 0 .981-.817-1.226-1.839-1.185-.531-2.166-.94-2.248-.899-.04.081.327 1.226.859 2.534zm-34.495-.654c.654 1.267 1.022 1.308 2.902.49 1.553-.695 1.635-.817.736-.981a30.053 30.053 0 0 0-2.534-.245c-1.39-.041-1.513.041-1.104.736z" fill="#F3EFEF"/><path d="M59.224 79.085c.858 1.472 1.512 2.739 1.43 2.861-.082.082-.736-.367-1.43-.98-.94-.777-1.39-1.594-1.553-2.861-.164-.94-.205-1.717-.123-1.717.04 0 .817 1.226 1.676 2.697zM66.008 71.484c0 1.021-.245 2.574-.572 3.474l-.531 1.634-.041-2.084c-.041-1.185.245-2.738.572-3.474l.572-1.39v1.84zM70.586 78.513c.286.736.98 1.962 1.512 2.657.858 1.185.899 1.39.327 1.594-1.104.409-2.207-.94-2.493-3.147-.327-2.493-.082-2.902.654-1.104zM73.16 136.549c1.267 2.289 2.207 4.251 2.085 4.333-.123.122-.613.04-1.104-.205-.654-.286-1.226-1.43-2.207-4.332-.735-2.166-1.267-3.965-1.185-3.965.082 0 1.144 1.881 2.411 4.169zM77.901 207.582c12.711.695 22.03 2.534 24.604 4.863 1.063.94 1.186 1.227.818 1.962-1.063 1.962-8.542 4.046-18.637 5.109-6.417.695-27.956.695-33.963 0-8.951-1.022-14.714-2.33-17.043-3.883-2.739-1.88-1.758-3.474 3.106-5.027 8.296-2.615 25.34-3.882 41.115-3.024z" fill="#F3EFEF"/></svg>