<svg width="250" height="89" viewBox="0 0 250 89" fill="none" xmlns="http://www.w3.org/2000/svg">
<path d="M250 49.8712C250 73.4956 89.1062 88.5513 63.4909 88.5513C37.8756 88.5513 17.1104 69.4 17.1104 45.7757C17.1104 22.1513 37.8756 3 63.4909 3C89.1062 3 250 26.2469 250 49.8712Z" fill="#4BB3A3"/>
<path d="M99.576 0.892165C100.209 0.895588 100.525 1.05563 100.523 1.37229C100.521 1.81561 100.168 2.51039 99.4663 3.45661C92.7028 12.2235 85.3901 22.8875 77.5283 35.4485C69.7297 48.0099 64.3221 57.7975 61.3053 64.8113C60.7925 65.8852 60.3794 66.1363 60.066 65.5646C60.0037 65.3742 59.9741 65.0257 59.977 64.5191C59.9918 61.9225 63.4522 54.8477 70.3583 43.2949C77.3278 31.7424 83.623 21.8013 89.244 13.4715C94.9283 5.14211 98.1188 0.97929 98.8155 0.983055L99.576 0.892165ZM61.5261 9.52166C62.0961 9.52474 62.3802 9.68461 62.3783 10.0013C62.3758 10.4446 62.0235 11.1394 61.3214 12.0856C56.1524 18.8978 50.6292 26.753 44.7516 35.6514C47.7271 35.8575 50.6699 36.2534 53.5799 36.8391C63.0686 38.8538 67.8012 41.9194 67.7776 46.036C67.7762 46.2893 67.7121 46.4156 67.5855 46.4149C67.4588 46.4143 67.333 46.2552 67.2082 45.9379C66.5839 44.3512 63.1068 43.2557 56.7768 42.6515C54.8779 42.4512 52.5668 42.3437 49.8435 42.329C47.1202 42.3143 43.8575 42.4867 40.0554 42.8461C30.5972 57.6786 24.2955 68.7597 21.1502 76.0894C20.8296 76.7844 20.511 77.131 20.1943 77.1293C19.941 77.1279 19.8161 76.8106 19.8197 76.1772C19.8378 73.0106 25.696 61.9588 37.3944 43.0217C33.7182 43.5085 31.0242 43.9057 29.3124 44.2131C18.1547 46.1161 10.7908 49.1164 7.22066 53.2138C6.13642 54.538 5.59104 55.7701 5.58453 56.91C5.57802 58.05 6.20519 59.1301 7.46605 60.1502C7.8446 60.4056 7.78054 60.532 7.27388 60.5292L6.42053 60.2396C3.70917 58.1349 2.36145 55.6893 2.37736 52.9026C2.39291 50.1794 3.70642 47.5264 6.31788 44.9438C10.1395 41.1644 16.6466 38.4762 25.8393 36.8792C31.3546 35.959 36.5189 35.5119 41.3322 35.5379C41.5855 35.5393 41.8705 35.5408 42.1872 35.5425C53.4328 18.2497 59.5939 9.60622 60.6705 9.61204L61.5261 9.52166ZM99.2594 48.3911C102.627 46.5726 104.316 44.7134 104.326 42.8134C104.337 40.9135 103.203 39.9573 100.923 39.945C99.846 39.9392 98.7044 40.218 97.4979 40.7815C94.831 41.9705 92.2541 44.0466 89.7672 47.0098C86.7062 50.6667 85.1667 54.0784 85.1486 57.245C85.1418 58.4483 85.4519 59.59 86.0791 60.6701C86.77 61.6872 87.9704 62.2003 89.6804 62.2096C92.657 62.2257 96.4341 60.6944 101.012 57.6157C105.59 54.4738 109.534 51.3284 112.846 48.1796C113.61 47.4237 113.99 47.3941 113.986 48.0907C113.984 48.5341 113.792 48.913 113.41 49.2276C111.054 51.3683 109.463 52.8164 108.635 53.5719C107.871 54.2644 106.312 55.5544 103.958 57.4417C101.604 59.2656 99.6966 60.5537 98.2357 61.3058C93.7257 63.6248 89.8874 64.7757 86.7207 64.7586C83.6175 64.7419 81.1515 64.0318 79.3228 62.6286C77.5578 61.1624 76.6825 59.1626 76.697 56.6293C76.7278 51.2461 79.1608 46.6358 83.9961 42.7986C88.8318 38.898 93.8779 36.9619 99.1345 36.9903C102.681 37.0095 105.052 37.7823 106.246 39.3088C106.749 40.0715 106.997 40.8962 106.992 41.7828C106.988 42.6062 106.697 43.5229 106.122 44.5332C104.97 46.4903 102.807 48.2203 99.6318 49.7232C96.5202 51.163 93.5711 51.8755 90.7845 51.8604C89.7078 51.8546 89.1067 51.7563 88.9811 51.5656C88.9189 51.3753 89.0146 51.2492 89.2683 51.1872C89.5223 51.0619 89.871 51.0004 90.3144 51.0028C92.8477 51.0165 95.8294 50.146 99.2594 48.3911ZM134.997 42.1242C135.889 41.1157 136.337 40.3264 136.34 39.7564C136.343 39.1864 135.743 38.8982 134.54 38.8917C133.4 38.8855 131.557 39.9839 129.011 42.1868C126.656 44.2008 123.787 47.5737 120.403 52.3055C117.083 57.0376 114.658 60.2545 113.128 61.9563C111.662 63.5951 110.359 64.4114 109.219 64.4052C109.092 64.4045 108.966 64.4038 108.839 64.4031C107.192 64.3942 105.581 63.7205 104.005 62.382C104.389 61.8141 105.314 60.584 106.781 58.6919C110.034 54.7828 112.874 50.9981 115.301 47.3378C112.563 50.0464 110.239 52.1555 108.33 53.6652C107.694 54.1685 107.345 54.1983 107.285 53.7546C107.16 53.3106 107.289 52.9313 107.671 52.6167C108.053 52.2387 108.69 51.6722 109.581 50.917C110.472 50.0984 111.045 49.5632 111.3 49.3112C111.618 49.0596 112.159 48.5875 112.923 47.895C113.751 47.1394 114.356 46.541 114.738 46.0998C116.524 44.0194 117.832 42.2531 118.664 40.8009C118.985 40.0426 119.116 39.315 119.056 38.618C119.061 37.858 118.905 37.3822 118.589 37.1904C118.338 36.9357 118.244 36.6502 118.309 36.3339C118.312 35.8273 118.567 35.5753 119.074 35.578C119.327 35.5794 119.612 35.6443 119.928 35.7727C121.886 36.6699 122.857 38.4485 122.842 41.1085C122.827 43.7051 122.241 46.4886 121.084 49.4591C123.573 46.2425 125.454 43.941 126.729 42.5545C130.043 38.899 133.284 37.0799 136.45 37.097C139.554 37.1137 141.383 38.4536 141.937 41.1167C141.999 41.497 142.027 42.0988 142.022 42.9222C142.018 43.6822 141.695 44.7254 141.054 46.052C140.477 47.3789 139.071 49.5563 136.837 52.5843C134.603 55.6123 133.293 57.5369 132.909 58.3581C132.588 59.1164 132.49 59.6859 132.614 60.0666C132.738 60.4472 133.022 60.6705 133.465 60.7362C134.224 60.867 135.526 60.3673 137.369 59.2373C139.976 57.4146 143.349 54.6145 147.487 50.8368C148.188 50.1439 148.536 50.2091 148.531 51.0325C148.529 51.3491 148.369 51.6649 148.05 51.9799C141.875 57.6466 137.294 61.1685 134.31 62.5458C130.816 64.3003 128.092 64.5705 126.135 63.3566C124.936 62.5901 124.34 61.5419 124.348 60.2119C124.356 58.8186 124.617 57.4266 125.132 56.0361C126.29 52.8123 129.579 48.175 134.997 42.1242ZM169.117 48.7687C172.484 46.9502 174.173 45.0909 174.184 43.191C174.195 41.291 173.06 40.3349 170.78 40.3225C169.703 40.3167 168.562 40.5956 167.355 41.159C164.688 42.348 162.112 44.4241 159.625 47.3874C156.564 51.0442 155.024 54.4559 155.006 57.6225C154.999 58.8259 155.309 59.9676 155.936 61.0476C156.627 62.0647 157.828 62.5779 159.538 62.5871C162.514 62.6032 166.291 61.0719 170.869 57.9933C175.447 54.8513 179.392 51.7059 182.703 48.5571C183.468 47.8012 183.848 47.7716 183.844 48.4683C183.841 48.9116 183.649 49.2905 183.267 49.6052C180.912 51.7458 179.32 53.1939 178.492 53.9494C177.728 54.642 176.169 55.9319 173.815 57.8192C171.461 59.6432 169.554 60.9312 168.093 61.6833C163.583 64.0023 159.745 65.1533 156.578 65.1362C153.475 65.1194 151.009 64.4094 149.18 63.0061C147.415 61.5399 146.54 59.5402 146.554 57.0069C146.585 51.6236 149.018 47.0134 153.853 43.1761C158.689 39.2755 163.735 37.3394 168.992 37.3678C172.539 37.387 174.909 38.1598 176.104 39.6863C176.606 40.449 176.855 41.2737 176.85 42.1604C176.845 42.9837 176.555 43.9005 175.979 44.9107C174.828 46.8678 172.665 48.5978 169.489 50.1007C166.378 51.5406 163.428 52.253 160.642 52.2379C159.565 52.2321 158.964 52.1339 158.839 51.9432C158.776 51.7528 158.872 51.6267 159.126 51.5647C159.38 51.4394 159.728 51.378 160.172 51.3804C162.705 51.3941 165.687 50.5235 169.117 48.7687ZM223.663 42.6984C223.65 45.0417 221.633 48.8941 217.612 54.2558C215.187 57.4728 213.972 59.4612 213.968 60.2212C213.963 60.9812 214.341 61.3633 215.101 61.3674C215.925 61.3718 217.067 60.903 218.529 59.9609C222.153 57.5104 225.78 54.5533 229.41 51.0895C229.92 50.5856 230.269 50.4608 230.457 50.7152C230.646 50.9696 230.74 51.1601 230.739 51.2867C230.738 51.4134 230.038 52.1379 228.637 53.4604C227.236 54.7828 225.676 56.1678 223.958 57.6152C222.303 59.0629 220.204 60.5716 217.662 62.1412C215.12 63.6475 213.026 64.3962 211.379 64.3873C207.959 64.3688 206.258 62.8396 206.275 59.7996C206.281 58.723 206.478 57.4574 206.867 56.0028C207.704 53.5373 211.31 48.775 217.684 41.716C218.512 40.8338 218.928 40.1394 218.93 39.6327C218.933 39.1261 218.302 38.8693 217.035 38.8625C215.768 38.8556 213.767 39.9532 211.031 42.1551C210.077 42.9099 208.898 44.0436 207.496 45.556C206.095 47.0051 204.435 49.3712 202.516 52.6542C200.66 55.9376 199.282 58.8435 198.381 61.372C197.995 62.5099 197.231 63.0758 196.091 63.0697C195.838 63.0683 195.521 63.0349 195.142 62.9695C193.94 62.6464 193.469 62.0738 193.727 61.2519C198.717 52.4754 201.693 46.9814 202.656 44.7699C203.619 42.5584 204.103 40.9776 204.108 40.0276C204.113 39.0777 203.736 38.6006 202.976 38.5965C199.62 38.5784 194.775 44.0306 188.443 54.9532C186.142 58.4875 184.291 61.0109 182.889 62.5233C181.487 64.0357 180.216 64.7889 179.076 64.7827C178.95 64.782 178.823 64.7814 178.696 64.7807C177.05 64.7718 175.438 64.0981 173.863 62.7595C174.246 62.1916 175.171 60.9616 176.639 59.0695C179.891 55.1603 182.731 51.3756 185.159 47.7154C182.42 50.4239 180.096 52.5331 178.188 54.0428C177.551 54.546 177.203 54.5758 177.142 54.1321C177.018 53.6881 177.147 53.3088 177.529 52.9942C177.911 52.6163 178.547 52.0497 179.438 51.2945C180.33 50.476 180.903 49.9407 181.157 49.6888C181.476 49.4371 182.017 48.9651 182.781 48.2725C183.608 47.517 184.213 46.9186 184.596 46.4773C186.381 44.3969 187.69 42.6306 188.521 41.1784C188.842 40.4202 188.973 39.6925 188.914 38.9955C188.918 38.2355 188.762 37.7597 188.447 37.568C188.195 37.3133 188.102 37.0278 188.167 36.7114C188.17 36.2048 188.424 35.9528 188.931 35.9556C189.184 35.9569 189.469 36.0218 189.785 36.1502C191.743 37.0474 192.714 38.9844 192.697 41.961C192.687 43.7343 192.327 45.6641 191.619 47.7503C192.897 45.7938 194.269 43.8695 195.737 41.9774C198.353 38.6349 200.959 36.9706 203.555 36.9846C205.329 36.9942 206.21 38.0123 206.198 40.0389C206.187 41.9389 204.838 45.32 202.15 50.1822C204.829 46.7766 206.902 44.2861 208.368 42.7107C211.744 39.2456 214.984 37.5214 218.087 37.5382C221.381 37.556 223.241 38.991 223.668 41.8434C223.666 42.16 223.665 42.445 223.663 42.6984Z" fill="white"/>
</svg>
