<svg width="85" height="165" viewBox="0 0 85 165" fill="none" xmlns="http://www.w3.org/2000/svg">
<path d="M84.5 154.966C84.5 157 68.4404 162 42.3112 162C16.1819 162 1.5 156.931 1.5 154.966C1.5 153 16.1819 148 42.3112 148C68.4404 148 84.5 151.5 84.5 154.966Z" fill="#D1D3D3"/>
<g filter="url(#filter0_d)">
<path d="M54.9575 151.558C56.7372 152.666 59.2005 152.952 61.0954 152.925C62.0916 152.911 63.425 153.825 62.6994 154.508C61.0645 156.134 58.3022 155.854 56.8071 155.431C56.5457 155.357 56.2729 155.317 56.0017 155.334C51.3106 155.629 49.6266 155.395 49.2356 155.166C49.1397 155.109 49.141 154.984 49.1422 154.873C49.1696 152.368 49.5301 149.645 50.2765 150.056C50.9677 150.383 51.5728 150.554 52.0784 150.63C53.0285 150.772 54.1421 151.05 54.9575 151.558Z" fill="#514947"/>
</g>
<g filter="url(#filter1_d)">
<path d="M54.0369 56.0906L48.8082 59.0377L48.2378 60.7489C51.9644 63.8672 56.2551 64.8368 57.9347 64.9319C54.6644 64.2474 53.9735 58.7525 54.0369 56.0906Z" fill="#EBA874"/>
</g>
<g filter="url(#filter2_d)">
<path d="M53.9418 56.2808C53.6376 56.661 50.3293 58.404 48.7131 59.2279C51.5271 47.0592 51.1263 42.0619 50.7143 41.1429C52.3115 42.664 53.9102 44.6509 54.3221 45.348C53.9418 48.9606 54.3221 55.8054 53.9418 56.2808Z" fill="#E8DCC6"/>
</g>
<g filter="url(#filter3_d)">
<path d="M35.3089 101.343C33.2554 109.557 32.9528 135.879 33.1429 147.857H28.0001C20.3947 108.765 22.6386 89.0869 24.5716 84.4286C36.7672 94.437 43.9722 95.3798 46.0003 94.7143C45.2397 105.134 50.3612 134.173 53.1816 147.07L48.1429 147.857C39.1686 130.593 35.7525 109.55 35.3089 101.343Z" fill="#3E494B"/>
</g>
<g filter="url(#filter4_d)">
<path d="M19.6224 63.3158C12.6254 58.6765 6.75657 57.9603 4.69678 58.1822C6.9784 45.8614 19.8361 38.2183 25.8571 36C28.0436 38.0915 33.1664 41.8435 37.4285 40.7143C41.6477 39.5966 40.5854 36.6957 39.5714 35.1429C47.6331 37.6527 50.4876 39.9926 50.8045 40.9749C51.5017 42.6545 52.0974 48.6564 48.9031 59.2279C45.7089 69.7994 45.9877 87.4629 46.5265 94.9732C40.6703 97.1788 28.5587 88.2235 23.4251 83.9454C29.2812 70.9402 23.7736 63.7594 20.2878 61.7947L19.6224 63.3158Z" fill="#EEE7D5"/>
</g>
<g filter="url(#filter5_d)">
<path d="M25.7068 36.1265C26.4673 34.9856 27.1645 32.4822 27.418 31.3731C32.4376 35.2518 36.9881 33.7498 38.636 32.5139L40.6324 37.4574C40.7591 38.4398 40.157 40.5376 36.7346 41.07C32.4566 41.7354 27.418 37.7426 25.7068 36.1265Z" fill="#FCBA80"/>
</g>
<g filter="url(#filter6_d)">
<path d="M19.147 62.9355C12.3834 74.4587 24.1404 88.5911 28.1784 88.984C28.0962 89.1741 26.7461 91.5732 25.6116 92.7138L23.9004 90.0297C6.25587 78.1653 4.44327 63.8545 5.74254 58.1821C10.3058 58.1061 16.5802 61.2877 19.147 62.9355Z" fill="#FBB97D"/>
</g>
<g filter="url(#filter7_d)">
<path d="M50.5194 151.158L49.4736 148.781L52.7059 148.496L53.8467 150.968L50.5194 151.158Z" fill="#E48565"/>
</g>
<g filter="url(#filter8_d)">
<path d="M29.5095 148.306V151.158H32.5517V148.306H29.5095Z" fill="#E48565"/>
</g>
<g filter="url(#filter9_d)">
<rect x="27.6082" y="147.545" width="6.46459" height="1.90135" rx="0.950674" fill="#526061"/>
</g>
<g filter="url(#filter10_d)">
<rect x="47.5935" y="147.514" width="6.46459" height="1.90135" rx="0.950674" transform="rotate(-5.45457 47.5935 147.514)" fill="#526061"/>
</g>
<g filter="url(#filter11_d)">
<path d="M34.1677 7.41611C30.5932 10.2301 26.3405 11.4406 24.661 11.6941C23.4251 14.6413 24.8511 20.1551 24.8511 22.4368C24.8511 24.7184 25.7067 29.7569 27.513 31.3731C29.3193 32.9892 34.0726 34.13 36.9247 32.7991C39.7767 31.4682 40.6323 29.3767 40.9175 26.0493C41.1457 23.3874 40.0619 12.3913 39.4915 7.22598C39.3647 7.19429 38.1225 7.18795 34.1677 7.41611Z" fill="#FEBC80"/>
<path d="M33.4074 27.8556C32.1906 27.8556 30.6822 25.6373 30.0801 24.5282C30.6037 26.6809 31.7913 27.8211 32.6893 28.3232C33.141 28.5757 33.3506 28.6161 33.868 28.6161C34.6088 28.6161 35.7485 28.535 36.187 27.938C36.4943 27.5196 36.5642 27.0643 36.5447 26.8098C35.6891 28.1408 33.6926 27.8556 33.4074 27.8556Z" fill="#F7AE74"/>
<path d="M34.0728 25.7641C32.3996 25.8402 30.6186 24.8134 29.9849 24.243C29.9849 25.3839 31.7911 26.4771 32.7418 26.7148C33.2488 26.8416 34.453 26.981 35.2136 26.9049C36.0692 26.8194 36.798 25.8275 37.0199 25.3839C36.798 25.3839 35.746 25.6881 34.0728 25.7641Z" fill="#FDFBFC"/>
<path d="M30.7454 26.1444C29.9849 25.2317 29.9215 24.3698 29.9849 24.0529C29.9849 25.0986 32.0193 26.3237 32.2665 26.4296C32.932 26.7148 33.7876 27 35.4037 26.7148C36.2036 26.5736 36.6396 25.574 36.9248 25.3838C37.153 25.2317 37.5269 25.2571 37.6853 25.2888C37.4952 25.7324 37.0579 26.6958 36.8297 27C36.5445 27.3802 35.6889 28.3309 34.1678 28.3309C32.6468 28.3309 31.6961 27.2852 30.7454 26.1444Z" fill="#402426"/>
<path d="M39.4918 15.2116C38.2749 13.9948 35.5623 13.9441 34.3582 14.0708L34.6434 18.539C36.7729 15.4968 38.6996 17.5249 39.3967 18.9193C39.4601 17.9686 39.5679 15.8961 39.4918 15.2116Z" fill="url(#paint0_linear)"/>
<path d="M27.6561 19.1902C26.9954 19.5151 26.6094 19.95 26.5772 20.2456C27.3287 19.3467 28.8351 19.6622 30.002 19.5579L30.4257 19.5201C30.6349 19.5014 30.7893 19.3167 30.7706 19.1075C30.6747 18.033 28.6242 18.7142 27.6561 19.1902Z" fill="#3A171E"/>
<path d="M25.7068 17.3031V16.0733C26.4563 14.5975 28.892 13.8699 30.0162 13.6906C30.391 13.9724 31.0655 14.8435 30.7657 16.0733C28.3674 16.9957 26.3938 17.2775 25.7068 17.3031Z" fill="url(#paint1_linear)"/>
<path d="M39.5869 15.3067C38.4461 14.0138 35.6257 13.944 34.3582 14.0708V12.1695C34.7384 11.2568 35.087 11.2822 35.2138 11.4089L35.4039 12.3596C35.4356 12.2329 35.556 11.8653 35.7842 11.4089C37.9897 11.561 39.1115 12.7399 39.3967 13.3103C39.4601 13.437 39.5869 14.0138 39.5869 15.3067Z" fill="url(#paint2_linear)"/>
<path d="M23.1661 23.3977C23.2052 24.1347 23.4873 25.0293 24.2264 24.9804C24.9656 24.9321 25.5261 24.2952 25.4776 23.5595L25.1833 19.1375C25.1348 18.4015 24.4959 17.8443 23.7536 17.8932C23.0145 17.9421 22.382 18.586 22.5025 19.3135C22.6731 20.3341 23.0635 21.3975 23.1661 23.3977Z" fill="#FCC287"/>
<path d="M42.3051 22.2357C42.4388 22.9615 42.373 23.8972 41.6429 24.0219C40.9128 24.1472 40.2193 23.6586 40.095 22.9318L39.3505 18.563C39.2261 17.836 39.7176 17.1451 40.4508 17.0197C41.181 16.895 41.9462 17.3737 41.9985 18.1093C42.0705 19.1415 41.9387 20.2667 42.3051 22.2357Z" fill="#FCC287"/>
<path d="M32.3699 20.5756C32.4145 19.0821 32.5329 18.3839 32.7366 18.1949L33.9217 24.5371C33.9107 24.5383 33.8998 24.5398 33.8869 24.541C33.0737 24.619 32.3606 24.4046 32.2962 24.0617C32.2962 24.0617 32.3096 22.6214 32.3699 20.5756Z" fill="#F5B47B"/>
<path d="M33.9806 20.413C33.4105 18.9676 33.0005 18.3428 32.7366 18.1949L33.8757 24.5425C33.8867 24.5417 33.8978 24.5413 33.9107 24.5402C34.7258 24.4722 35.3406 24.1373 35.282 23.7923C35.282 23.7923 34.7608 22.3931 33.9806 20.413Z" fill="#FEBC80"/>
<path d="M39.228 8.10869C39.9697 8.79061 39.7292 12.9503 39.7292 12.9503C39.7292 12.9503 39.6053 12.5398 39.6035 12.5179C39.3947 10.8286 39.3968 10.4583 37.5906 10.9336C36.4498 8.21552 35.5619 9.91101 35.5619 9.91101C35.7053 9.84379 35.5198 9.93074 35.5619 9.91101L35.4175 8.21552C35.4175 8.21552 37.5273 7.7483 39.228 8.10869Z" fill="#514947"/>
<path d="M37.6855 29.852C39.6892 31.6663 41.0966 27.0245 40.7613 23.9067L39.1115 8.3668L39.6819 8.17666C40.0895 12.5428 40.4026 15.8752 40.7511 19.5271C41.2353 24.602 41.8821 30.8842 37.5538 33.5777C36.4626 34.2568 35.3959 34.4707 34.6434 34.5103L33.6927 28.7112C35.7842 28.7112 36.0318 28.5306 37.6855 29.852Z" fill="#514947"/>
<path d="M30.56 30.3285C28.9187 32.4702 27.0378 29.2817 25.8019 25.3839L25.1088 22.722L24.7562 21.0108L24.6335 19.7486L24.6611 17.5884L24.8512 16.4476L24.9317 15.9941C25.0414 15.3752 25.4705 14.8606 26.0595 14.6413L26.1821 14.0709L23.4927 12.3334C23.1124 17.3719 23.4652 22.7645 25.8694 28.685C28.2736 34.6054 34.3579 34.7955 35.2135 34.4153L34.1678 28.7113C32.1714 28.6162 31.2352 29.4331 30.56 30.3285Z" fill="#514947"/>
<path d="M36.9778 16.2009C38.9901 15.9501 41.5999 16.1485 41.5999 16.1485C41.7471 17.8693 41.644 17.6876 41.4094 18.0132C40.6305 19.1372 41.1816 21.3895 37.8788 21.8725C34.5761 22.3561 34.0675 20.5007 33.7143 19.6888C33.3828 18.9315 33.1028 18.7265 32.8717 18.7198L32.7514 17.3123C34.2559 17.1378 34.9887 16.448 36.9778 16.2009ZM34.1411 19.0652C34.6654 21.1032 35.2714 21.8016 37.8258 21.5025C40.3782 21.2035 40.5423 19.8273 40.5258 18.6108C40.5092 17.3938 40.3895 16.4676 37.6555 16.6889C36.2652 16.8016 33.6191 17.0276 34.1411 19.0652Z" fill="#3F3B3B"/>
<path d="M35.0965 0.000877057C34.6608 -0.111671 44.7203 10.6484 36.6396 8.84217L32.8995 11.7651C31.5139 12.4751 29.9204 13.332 28.3854 13.9946C23.6525 16.0375 21.9109 9.67163 25.7842 6.26997C28.1122 4.22548 31.3418 2.44852 35.0965 0.000877057Z" fill="url(#paint3_linear)"/>
<path d="M28.284 16.9794C30.3298 16.8659 31.1825 17.4196 32.7299 17.3152C32.7385 17.3142 32.7449 17.3132 32.7513 17.3124L32.8717 18.7198C32.8652 18.7199 32.8586 18.7189 32.8499 18.7195C32.6143 18.7558 32.3572 18.9987 32.1503 19.829C31.9354 20.6915 31.7434 22.6096 28.3541 22.7254C24.9606 22.842 25.1272 20.5253 24.1567 19.5582C23.8659 19.2795 23.7938 19.4768 23.6467 17.7563C23.6467 17.7563 26.2251 17.0931 28.284 16.9794ZM25.1421 19.9882C25.3359 21.1891 25.7336 22.5147 28.3439 22.3514C30.9542 22.1883 31.4396 21.392 31.616 19.2915C31.7903 17.1916 29.1007 17.4431 27.6908 17.5817C24.914 17.8536 24.9504 18.7872 25.1421 19.9882Z" fill="#3F3B3B"/>
<ellipse cx="37.1149" cy="18.9193" rx="2.09148" ry="1.99642" fill="#331F28"/>
<ellipse cx="37.1149" cy="19.1094" rx="2.09148" ry="1.99642" fill="#FFFFFD"/>
<circle cx="37.1149" cy="19.2045" r="1.14081" fill="#492F2E"/>
<path d="M36.987 18.7218L36.5126 18.9907C36.4853 19.0062 36.4537 19.0168 36.4233 19.0089C36.2718 18.9698 36.3941 18.7255 36.5629 18.558C36.696 18.426 36.8773 18.4372 36.9674 18.4535C37.0035 18.46 37.0323 18.4851 37.0488 18.5179C37.0859 18.5914 37.0587 18.6812 36.987 18.7218Z" fill="white"/>
</g>
<g filter="url(#filter12_d)">
<path d="M54.6072 34.6054C51.7765 62.0055 55.4915 65.3964 58.6 65.122C64.8502 64.5705 62.0224 53.7139 61.7372 51.1471C61.452 48.5803 57.7444 35.7462 58.1247 33.1794C58.8852 29.9471 60.4063 26.7148 60.5964 25.574C60.7485 24.6613 60.7232 23.6093 60.6915 23.1973C60.6915 23.1339 60.6345 23.0072 60.4063 23.0072C60.1211 23.0072 59.7408 23.4825 59.4556 25.0986C59.3035 26.0113 58.9486 26.7465 58.7901 27C58.7585 27.0317 58.638 27.0951 58.4099 27.0951C59.3225 22.684 58.9803 21.0108 58.6951 20.7255C58.6 20.5988 57.9345 20.2502 57.7444 20.5354C57.8395 23.8628 57.2691 25.4789 56.8888 26.1444C56.6606 22.1135 56.2233 20.7255 56.0332 20.5354C55.748 20.1234 55.1015 19.4136 54.7973 19.8699C55.0255 20.5544 55.1459 24.5916 55.1776 26.5247H54.8924C54.6706 25.8909 53.8847 24.6233 52.5157 24.6233C50.8045 24.6233 50.4242 25.1937 50.3291 25.2888C50.2341 25.3838 50.3291 26.1444 50.4242 26.2395C50.5193 26.3345 51.7551 26.2395 52.6108 26.2395C53.2953 26.6197 53.7199 27.5387 53.8466 27.9507C53.4664 30.3274 53.2762 29.9471 52.8009 30.0421C50.9946 29.6619 51.0618 29.3882 50.9946 29.1865C50.8995 28.9013 50.9946 27.3803 50.9946 27.0951C50.9946 26.8099 50.2341 26.1444 50.0439 26.3345C49.5116 27.4753 49.5052 29.0915 49.5686 29.757C50.9946 32.2287 51.1847 32.3238 51.7551 32.8942C52.2178 33.3568 53.8149 34.2568 54.6072 34.6054Z" fill="#FAB87E"/>
</g>
<g filter="url(#filter13_d)">
<path d="M28.6538 88.1284C27.8969 89.5068 26.0001 92.5427 24.5659 93.7373C26.4781 92.4737 27.9367 89.7366 28.6538 88.1284Z" fill="#2C3233"/>
</g>
<g filter="url(#filter14_d)">
<path d="M26.9426 152.583C28.2736 151.22 31.753 149.312 35.0234 152.583C33.8826 153.819 29.8897 154.199 26.9426 152.583Z" fill="#514947"/>
</g>
<defs>
<filter id="filter0_d" x="44.8171" y="149.18" width="22.1871" height="15.2592" filterUnits="userSpaceOnUse" color-interpolation-filters="sRGB">
<feFlood flood-opacity="0" result="BackgroundImageFix"/>
<feColorMatrix in="SourceAlpha" type="matrix" values="0 0 0 0 0 0 0 0 0 0 0 0 0 0 0 0 0 0 127 0"/>
<feOffset dy="4"/>
<feGaussianBlur stdDeviation="2"/>
<feColorMatrix type="matrix" values="0 0 0 0 0 0 0 0 0 0 0 0 0 0 0 0 0 0 0.25 0"/>
<feBlend mode="normal" in2="BackgroundImageFix" result="effect1_dropShadow"/>
<feBlend mode="normal" in="SourceGraphic" in2="effect1_dropShadow" result="shape"/>
</filter>
<filter id="filter1_d" x="44.2378" y="56.0906" width="17.6969" height="16.8413" filterUnits="userSpaceOnUse" color-interpolation-filters="sRGB">
<feFlood flood-opacity="0" result="BackgroundImageFix"/>
<feColorMatrix in="SourceAlpha" type="matrix" values="0 0 0 0 0 0 0 0 0 0 0 0 0 0 0 0 0 0 127 0"/>
<feOffset dy="4"/>
<feGaussianBlur stdDeviation="2"/>
<feColorMatrix type="matrix" values="0 0 0 0 0 0 0 0 0 0 0 0 0 0 0 0 0 0 0.25 0"/>
<feBlend mode="normal" in2="BackgroundImageFix" result="effect1_dropShadow"/>
<feBlend mode="normal" in="SourceGraphic" in2="effect1_dropShadow" result="shape"/>
</filter>
<filter id="filter2_d" x="44.7131" y="41.1429" width="13.609" height="26.085" filterUnits="userSpaceOnUse" color-interpolation-filters="sRGB">
<feFlood flood-opacity="0" result="BackgroundImageFix"/>
<feColorMatrix in="SourceAlpha" type="matrix" values="0 0 0 0 0 0 0 0 0 0 0 0 0 0 0 0 0 0 127 0"/>
<feOffset dy="4"/>
<feGaussianBlur stdDeviation="2"/>
<feColorMatrix type="matrix" values="0 0 0 0 0 0 0 0 0 0 0 0 0 0 0 0 0 0 0.25 0"/>
<feBlend mode="normal" in2="BackgroundImageFix" result="effect1_dropShadow"/>
<feBlend mode="normal" in="SourceGraphic" in2="effect1_dropShadow" result="shape"/>
</filter>
<filter id="filter3_d" x="18.6948" y="84.4286" width="38.4868" height="71.4286" filterUnits="userSpaceOnUse" color-interpolation-filters="sRGB">
<feFlood flood-opacity="0" result="BackgroundImageFix"/>
<feColorMatrix in="SourceAlpha" type="matrix" values="0 0 0 0 0 0 0 0 0 0 0 0 0 0 0 0 0 0 127 0"/>
<feOffset dy="4"/>
<feGaussianBlur stdDeviation="2"/>
<feColorMatrix type="matrix" values="0 0 0 0 0 0 0 0 0 0 0 0 0 0 0 0 0 0 0.25 0"/>
<feBlend mode="normal" in2="BackgroundImageFix" result="effect1_dropShadow"/>
<feBlend mode="normal" in="SourceGraphic" in2="effect1_dropShadow" result="shape"/>
</filter>
<filter id="filter4_d" x="0.696777" y="35.1429" width="54.6599" height="68.1744" filterUnits="userSpaceOnUse" color-interpolation-filters="sRGB">
<feFlood flood-opacity="0" result="BackgroundImageFix"/>
<feColorMatrix in="SourceAlpha" type="matrix" values="0 0 0 0 0 0 0 0 0 0 0 0 0 0 0 0 0 0 127 0"/>
<feOffset dy="4"/>
<feGaussianBlur stdDeviation="2"/>
<feColorMatrix type="matrix" values="0 0 0 0 0 0 0 0 0 0 0 0 0 0 0 0 0 0 0.25 0"/>
<feBlend mode="normal" in2="BackgroundImageFix" result="effect1_dropShadow"/>
<feBlend mode="normal" in="SourceGraphic" in2="effect1_dropShadow" result="shape"/>
</filter>
<filter id="filter5_d" x="21.7068" y="31.3731" width="22.941" height="17.771" filterUnits="userSpaceOnUse" color-interpolation-filters="sRGB">
<feFlood flood-opacity="0" result="BackgroundImageFix"/>
<feColorMatrix in="SourceAlpha" type="matrix" values="0 0 0 0 0 0 0 0 0 0 0 0 0 0 0 0 0 0 127 0"/>
<feOffset dy="4"/>
<feGaussianBlur stdDeviation="2"/>
<feColorMatrix type="matrix" values="0 0 0 0 0 0 0 0 0 0 0 0 0 0 0 0 0 0 0.25 0"/>
<feBlend mode="normal" in2="BackgroundImageFix" result="effect1_dropShadow"/>
<feBlend mode="normal" in="SourceGraphic" in2="effect1_dropShadow" result="shape"/>
</filter>
<filter id="filter6_d" x="1.40991" y="58.1808" width="30.7685" height="42.533" filterUnits="userSpaceOnUse" color-interpolation-filters="sRGB">
<feFlood flood-opacity="0" result="BackgroundImageFix"/>
<feColorMatrix in="SourceAlpha" type="matrix" values="0 0 0 0 0 0 0 0 0 0 0 0 0 0 0 0 0 0 127 0"/>
<feOffset dy="4"/>
<feGaussianBlur stdDeviation="2"/>
<feColorMatrix type="matrix" values="0 0 0 0 0 0 0 0 0 0 0 0 0 0 0 0 0 0 0.25 0"/>
<feBlend mode="normal" in2="BackgroundImageFix" result="effect1_dropShadow"/>
<feBlend mode="normal" in="SourceGraphic" in2="effect1_dropShadow" result="shape"/>
</filter>
<filter id="filter7_d" x="45.4736" y="148.496" width="12.3731" height="10.6619" filterUnits="userSpaceOnUse" color-interpolation-filters="sRGB">
<feFlood flood-opacity="0" result="BackgroundImageFix"/>
<feColorMatrix in="SourceAlpha" type="matrix" values="0 0 0 0 0 0 0 0 0 0 0 0 0 0 0 0 0 0 127 0"/>
<feOffset dy="4"/>
<feGaussianBlur stdDeviation="2"/>
<feColorMatrix type="matrix" values="0 0 0 0 0 0 0 0 0 0 0 0 0 0 0 0 0 0 0.25 0"/>
<feBlend mode="normal" in2="BackgroundImageFix" result="effect1_dropShadow"/>
<feBlend mode="normal" in="SourceGraphic" in2="effect1_dropShadow" result="shape"/>
</filter>
<filter id="filter8_d" x="25.5095" y="148.306" width="11.0422" height="10.852" filterUnits="userSpaceOnUse" color-interpolation-filters="sRGB">
<feFlood flood-opacity="0" result="BackgroundImageFix"/>
<feColorMatrix in="SourceAlpha" type="matrix" values="0 0 0 0 0 0 0 0 0 0 0 0 0 0 0 0 0 0 127 0"/>
<feOffset dy="4"/>
<feGaussianBlur stdDeviation="2"/>
<feColorMatrix type="matrix" values="0 0 0 0 0 0 0 0 0 0 0 0 0 0 0 0 0 0 0.25 0"/>
<feBlend mode="normal" in2="BackgroundImageFix" result="effect1_dropShadow"/>
<feBlend mode="normal" in="SourceGraphic" in2="effect1_dropShadow" result="shape"/>
</filter>
<filter id="filter9_d" x="23.6082" y="147.545" width="14.4646" height="9.90135" filterUnits="userSpaceOnUse" color-interpolation-filters="sRGB">
<feFlood flood-opacity="0" result="BackgroundImageFix"/>
<feColorMatrix in="SourceAlpha" type="matrix" values="0 0 0 0 0 0 0 0 0 0 0 0 0 0 0 0 0 0 127 0"/>
<feOffset dy="4"/>
<feGaussianBlur stdDeviation="2"/>
<feColorMatrix type="matrix" values="0 0 0 0 0 0 0 0 0 0 0 0 0 0 0 0 0 0 0.25 0"/>
<feBlend mode="normal" in2="BackgroundImageFix" result="effect1_dropShadow"/>
<feBlend mode="normal" in="SourceGraphic" in2="effect1_dropShadow" result="shape"/>
</filter>
<filter id="filter10_d" x="43.5935" y="146.899" width="14.616" height="10.5072" filterUnits="userSpaceOnUse" color-interpolation-filters="sRGB">
<feFlood flood-opacity="0" result="BackgroundImageFix"/>
<feColorMatrix in="SourceAlpha" type="matrix" values="0 0 0 0 0 0 0 0 0 0 0 0 0 0 0 0 0 0 127 0"/>
<feOffset dy="4"/>
<feGaussianBlur stdDeviation="2"/>
<feColorMatrix type="matrix" values="0 0 0 0 0 0 0 0 0 0 0 0 0 0 0 0 0 0 0.25 0"/>
<feBlend mode="normal" in2="BackgroundImageFix" result="effect1_dropShadow"/>
<feBlend mode="normal" in="SourceGraphic" in2="effect1_dropShadow" result="shape"/>
</filter>
<filter id="filter11_d" x="18.4746" y="0" width="28.8035" height="43.5107" filterUnits="userSpaceOnUse" color-interpolation-filters="sRGB">
<feFlood flood-opacity="0" result="BackgroundImageFix"/>
<feColorMatrix in="SourceAlpha" type="matrix" values="0 0 0 0 0 0 0 0 0 0 0 0 0 0 0 0 0 0 127 0"/>
<feOffset dy="4"/>
<feGaussianBlur stdDeviation="2"/>
<feColorMatrix type="matrix" values="0 0 0 0 0 0 0 0 0 0 0 0 0 0 0 0 0 0 0.25 0"/>
<feBlend mode="normal" in2="BackgroundImageFix" result="effect1_dropShadow"/>
<feBlend mode="normal" in="SourceGraphic" in2="effect1_dropShadow" result="shape"/>
</filter>
<filter id="filter12_d" x="45.5413" y="19.7223" width="21.0795" height="53.4142" filterUnits="userSpaceOnUse" color-interpolation-filters="sRGB">
<feFlood flood-opacity="0" result="BackgroundImageFix"/>
<feColorMatrix in="SourceAlpha" type="matrix" values="0 0 0 0 0 0 0 0 0 0 0 0 0 0 0 0 0 0 127 0"/>
<feOffset dy="4"/>
<feGaussianBlur stdDeviation="2"/>
<feColorMatrix type="matrix" values="0 0 0 0 0 0 0 0 0 0 0 0 0 0 0 0 0 0 0.25 0"/>
<feBlend mode="normal" in2="BackgroundImageFix" result="effect1_dropShadow"/>
<feBlend mode="normal" in="SourceGraphic" in2="effect1_dropShadow" result="shape"/>
</filter>
<filter id="filter13_d" x="20.5659" y="88.1284" width="12.0879" height="13.609" filterUnits="userSpaceOnUse" color-interpolation-filters="sRGB">
<feFlood flood-opacity="0" result="BackgroundImageFix"/>
<feColorMatrix in="SourceAlpha" type="matrix" values="0 0 0 0 0 0 0 0 0 0 0 0 0 0 0 0 0 0 127 0"/>
<feOffset dy="4"/>
<feGaussianBlur stdDeviation="2"/>
<feColorMatrix type="matrix" values="0 0 0 0 0 0 0 0 0 0 0 0 0 0 0 0 0 0 0.25 0"/>
<feBlend mode="normal" in2="BackgroundImageFix" result="effect1_dropShadow"/>
<feBlend mode="normal" in="SourceGraphic" in2="effect1_dropShadow" result="shape"/>
</filter>
<filter id="filter14_d" x="22.9426" y="150.777" width="16.0807" height="10.8799" filterUnits="userSpaceOnUse" color-interpolation-filters="sRGB">
<feFlood flood-opacity="0" result="BackgroundImageFix"/>
<feColorMatrix in="SourceAlpha" type="matrix" values="0 0 0 0 0 0 0 0 0 0 0 0 0 0 0 0 0 0 127 0"/>
<feOffset dy="4"/>
<feGaussianBlur stdDeviation="2"/>
<feColorMatrix type="matrix" values="0 0 0 0 0 0 0 0 0 0 0 0 0 0 0 0 0 0 0.25 0"/>
<feBlend mode="normal" in2="BackgroundImageFix" result="effect1_dropShadow"/>
<feBlend mode="normal" in="SourceGraphic" in2="effect1_dropShadow" result="shape"/>
</filter>
<linearGradient id="paint0_linear" x1="36.9381" y1="14.0235" x2="36.9381" y2="18.9193" gradientUnits="userSpaceOnUse">
<stop stop-color="#EB9973"/>
<stop offset="0.997958" stop-color="#EB9973" stop-opacity="0"/>
</linearGradient>
<linearGradient id="paint1_linear" x1="28.2363" y1="14.1517" x2="28.2363" y2="16.6882" gradientUnits="userSpaceOnUse">
<stop stop-color="#514947"/>
<stop offset="1" stop-color="#3F3B3B"/>
</linearGradient>
<linearGradient id="paint2_linear" x1="36.925" y1="11.6941" x2="36.925" y2="14.1659" gradientUnits="userSpaceOnUse">
<stop stop-color="#514947"/>
<stop offset="1" stop-color="#3F3B3B"/>
</linearGradient>
<linearGradient id="paint3_linear" x1="38.2557" y1="3.70847" x2="24.3759" y2="12.93" gradientUnits="userSpaceOnUse">
<stop offset="0.660573" stop-color="#3F3B3B"/>
<stop offset="1" stop-color="#514947"/>
</linearGradient>
</defs>
</svg>
