<svg width="1300" height="626" class="working_svg" fill="none" xmlns="http://www.w3.org/2000/svg"><g clip-path="url(#clip0)" class="bubble_svg"><path d="M7.674 453.677c45.832 113.66 241.999 168.011 406.239 145.164 250.801-34.887 145.828-92.658 489.563 0 343.754 92.658 166.104-147.864 282.704-270.07 117.81-123.467 154.52-198.399 60.61-208.617-93.91-10.218-94.63 43.052-277.811-76.324C785.796-75.546 612.135 89.927 509.445 61.135S148.937 37.558 201.013 263.206C233.734 404.987-49.616 311.601 7.674 453.677z" fill="#000" fill-opacity=".051"/></g><g clip-path="url(#clip0)"><path d="M644.159 222.238l-1.044-17.028-14.82-4.222c-2.02-5.004-4.04-10.008-6.914-14.96l5.99-14.04-12.678-11.189-13.234 7.645c-4.423-2.293-9.699-4.534-15.724-5.02l-6.008-14.161-17.065 1.043-4.232 14.787c-5.015 2.015-10.03 4.032-14.139 6.847l-14.071-5.977-12.014 13.553 7.662 13.205c-2.299 4.413-3.692 9.626-5.084 14.839l-14.192 5.995 1.045 17.028 14.82 4.222c2.02 5.005 4.039 10.008 6.913 14.96l-5.989 14.04 12.677 11.189 13.234-7.646c4.423 2.294 9.7 4.535 15.724 5.022l6.009 14.161 17.065-1.044 4.231-14.786c5.015-2.017 10.03-4.032 14.993-6.899l14.07 5.977 11.214-12.651-7.662-13.205c2.298-4.413 4.545-9.678 5.031-15.69l14.192-5.995zm-66.692 29.715c-18.772 1.148-35.072-13.239-36.222-31.97-1.15-18.731 13.268-34.995 32.04-36.143 18.771-1.147 35.072 13.239 36.221 31.97 1.15 18.731-13.268 34.995-32.039 36.143z" fill="#4BB3A3"/><path d="M596.337 216.365c.722 11.758-8.241 21.869-20.024 22.59-11.784.719-21.917-8.224-22.639-19.982-.722-11.758 8.241-21.868 20.025-22.589 11.783-.72 21.916 8.223 22.638 19.981z" fill="#C0C7C7"/><path d="M553.602 218.775c.724 11.814 10.789 20.906 22.461 20.193l-2.637-42.942.024.376c-11.672.714-20.575 10.551-19.848 22.373z" fill="#D1D8D8"/><path d="M476.909 224.268v-31.704l-27.008-9.512c-3.177-9.511-6.355-19.023-11.121-28.533l12.71-25.364-22.242-22.194-25.419 12.683c-7.943-4.756-17.476-9.512-28.596-11.097l-9.533-26.95h-31.773l-9.532 26.95c-9.533 3.17-19.065 6.341-27.008 11.097l-25.419-12.683-23.831 23.779 12.71 25.364c-4.766 7.925-7.944 17.437-11.12 26.948l-27.009 9.512v31.704l27.009 9.511c3.176 9.512 6.354 19.023 11.12 28.535l-12.71 25.362 22.243 22.194 25.419-12.682c7.943 4.756 17.475 9.511 28.596 11.096l9.532 26.95H365.7l9.533-26.95c9.532-3.17 19.064-6.34 28.596-11.096l25.419 12.682 22.242-22.194-12.71-25.362c4.766-7.927 9.532-17.438 11.121-28.535l27.008-9.511zm-127.095 47.556c-34.952 0-63.548-28.533-63.548-63.408s28.596-63.409 63.548-63.409c34.951 0 63.547 28.534 63.547 63.409s-28.596 63.408-63.547 63.408z" fill="#70909A"/><path d="M388.871 207.954c0 21.892-17.778 39.63-39.718 39.63-21.94 0-39.717-17.738-39.717-39.63 0-21.892 17.777-39.631 39.717-39.631 21.94 0 39.718 17.739 39.718 39.631z" fill="#C0C7C7"/><path d="M309.324 207.578c0 21.997 17.633 40.004 39.366 40.004v-79.954.7c-21.733 0-39.366 17.239-39.366 39.25z" fill="#D1D8D8"/><path d="M275.372 341.236v-6.568l-5.594-1.97c-.659-1.97-1.317-3.94-2.304-5.91l2.633-5.254-4.607-4.597-5.265 2.626c-1.646-.985-3.621-1.97-5.924-2.298l-1.975-5.583h-6.582l-1.974 5.583c-1.974.657-3.949 1.313-5.594 2.298l-5.266-2.626-4.936 4.925 2.633 5.254c-.988 1.642-1.646 3.612-2.304 5.582l-5.595 1.97v6.568l5.595 1.97c.658 1.97 1.316 3.94 2.304 5.911l-2.633 5.253 4.607 4.597 5.266-2.627c1.645.985 3.619 1.971 5.923 2.299l1.974 5.583h6.582l1.975-5.583c1.974-.657 3.949-1.314 5.924-2.299l5.265 2.627 4.607-4.597-2.633-5.253c.987-1.643 1.974-3.613 2.304-5.911l5.594-1.97zm-26.326 9.851c-7.24 0-13.164-5.911-13.164-13.135s5.924-13.135 13.164-13.135c7.239 0 13.163 5.911 13.163 13.135s-5.924 13.135-13.163 13.135z" fill="#4BB3A3"/><path d="M257.136 337.856c0 4.535-3.682 8.209-8.227 8.209s-8.227-3.674-8.227-8.209 3.682-8.209 8.227-8.209 8.227 3.674 8.227 8.209z" fill="#C0C7C7"/><path d="M240.659 337.779c0 4.556 3.652 8.286 8.154 8.286v-16.563.146c-4.502 0-8.154 3.571-8.154 8.131z" fill="#D1D8D8"/><path d="M702.612 117.493l.726-13.266-11.083-4.595c-1.113-4.052-2.224-8.104-4.001-12.193l5.898-10.323-8.799-9.793-10.926 4.728c-3.214-2.17-7.094-4.378-11.712-5.294l-3.371-11.493-13.295-.724-4.606 11.059c-4.06 1.11-8.121 2.219-11.554 4.028l-10.346-5.885-10.515 9.407 4.738 10.901c-2.175 3.208-3.722 7.116-5.269 11.024l-11.519 3.364-.725 13.266 11.083 4.595c1.112 4.052 2.224 8.104 4.001 12.193l-5.899 10.323 8.8 9.793 10.925-4.728c3.215 2.171 7.095 4.377 11.713 5.294l3.371 11.493 13.295.724 4.605-11.059c4.061-1.11 8.122-2.219 12.219-3.992l10.346 5.885 9.815-8.779-4.739-10.902c2.176-3.208 4.388-7.079 5.306-11.687l11.518-3.364zm-54.267 17.004c-14.624-.795-25.937-13.386-25.14-27.979.798-14.592 13.416-25.88 28.04-25.085 14.625.796 25.938 13.387 25.14 27.979-.797 14.593-13.415 25.881-28.04 25.085z" fill="#70909A"/><path d="M666.148 108.661c-.5 9.16-8.345 16.177-17.525 15.678-9.18-.5-16.213-8.327-15.713-17.487.502-9.16 8.346-16.178 17.526-15.678s16.213 8.326 15.712 17.487z" fill="#C0C7C7"/><path d="M632.444 107.109c-.26 9.214 6.914 16.964 16.017 17.22l.944-33.492-.008.293c-9.103-.254-16.693 6.759-16.953 15.979z" fill="#D1D8D8"/><path d="M790.41 174.334v-9.737l-8.296-2.922c-.976-2.921-1.952-5.842-3.415-8.764l3.903-7.791-6.831-6.815-7.807 3.894c-2.44-1.46-5.368-2.921-8.784-3.408l-2.927-8.277h-9.759l-2.928 8.277c-2.928.974-5.855 1.948-8.295 3.408l-7.807-3.894-7.32 7.303 3.904 7.79c-1.464 2.435-2.44 5.356-3.416 8.277l-8.295 2.922v9.737l8.295 2.921c.976 2.922 1.952 5.843 3.416 8.764l-3.904 7.791 6.831 6.816 7.808-3.895c2.44 1.461 5.367 2.922 8.783 3.409l2.928 8.276h9.759l2.927-8.276c2.929-.975 5.856-1.948 8.784-3.409l7.807 3.895 6.831-6.816-3.903-7.791c1.463-2.434 2.928-5.355 3.415-8.764l8.296-2.921zm-39.037 14.607c-10.735 0-19.518-8.764-19.518-19.476 0-10.711 8.783-19.475 19.518-19.475 10.736 0 19.519 8.764 19.519 19.475 0 10.712-8.783 19.476-19.519 19.476z" fill="#4BB3A3"/><path d="M763.369 169.113c.116 6.724-5.25 12.265-11.988 12.38-6.737.116-12.291-5.238-12.406-11.961-.115-6.723 5.251-12.264 11.988-12.38 6.738-.115 12.291 5.238 12.406 11.961z" fill="#C0C7C7"/><path d="M738.939 169.418c.116 6.754 5.626 12.192 12.3 12.077l-.422-24.553.004.215c-6.674.114-11.998 5.501-11.882 12.261zM526.781 308.317a37.64 37.64 0 0 0-.469-15.2l8.186-4.28-4.988-11.366-8.527 3.49a36.217 36.217 0 0 0-10.774-10.43l2.852-8.969-11.366-4.384-3.633 8.655c-2.098-.395-4.202-.535-6.286-.535l-4.691 9.987 4.691 9.232c9.316 0 16.86 7.77 16.86 17.35 0 9.583-7.544 17.353-16.86 17.353l-4.691 7.566 4.691 11.622c2.883 0 5.727-.319 8.481-1.016l4.156 8.402 11.045-5.12-3.373-8.763a36.36 36.36 0 0 0 10.113-11.106l8.725 2.939 4.268-11.69-8.41-3.737z" fill="#D1D8D8"/><path d="M491.777 319.221c-9.309 0-16.858-7.771-16.858-17.353 0-9.581 7.545-17.351 16.855-17.351l.003-19.219a35.18 35.18 0 0 0-8.471 1.009l-4.154-8.412-11.06 5.139 3.402 8.761a36.133 36.133 0 0 0-10.11 11.072l-8.726-2.897-4.295 11.686 8.416 3.726a37.81 37.81 0 0 0 .446 15.209l-8.152 4.254 5.009 11.383 8.506-3.482a35.588 35.588 0 0 0 10.78 10.421l-2.835 8.952 11.349 4.438 3.619-8.656c2.098.38 4.192.519 6.276.508v-19.188z" fill="#C6E3E5"/><path d="M508.637 301.868c0-9.58-7.546-17.35-16.86-17.35l-4.692 17.529 4.692 17.173c9.314.001 16.86-7.769 16.86-17.352z" fill="#C0C7C7"/><path d="M474.918 301.868c0 9.583 7.546 17.353 16.855 17.353l.004-34.703c-9.31-.001-16.859 7.77-16.859 17.35z" fill="#D1D8D8"/><path d="M423.211 516.402c-2.72 0-3.372-3.786-.808-4.692l41.011-14.494c.259-.091.532-.138.808-.138h74.858c2.721 0 3.372 3.786.808 4.692l-41.011 14.493a2.411 2.411 0 0 1-.807.139h-74.859z" fill="#888E8F" fill-opacity=".17"/><path d="M558.111 241.631H356.116c-8.149 0-14.775 6.621-14.775 14.743v140.75c0 8.131 6.626 14.748 14.775 14.748h94.901v93.59c-18.746.84-33.132 5.367-33.132 9.827 0 .181.074 1.63.126 1.63h78.201c.057 0 .131-1.799.131-1.994 0-4.445-14.39-8.693-33.136-9.476v-93.577h94.905c8.139 0 14.775-6.617 14.775-14.748v-140.75c0-8.122-6.636-14.743-14.776-14.743z" fill="#93C4CC"/><path d="M558.111 241.631H457.11v275.288h39.101c.057 0 .131-1.799.131-1.994 0-4.445-14.39-8.693-33.136-9.476v-93.577h94.905c8.139 0 14.775-6.617 14.775-14.748v-140.75c0-8.122-6.636-14.743-14.775-14.743z" fill="#80B6BC"/><path d="M351.997 250.812a2.7 2.7 0 0 0-2.702 2.697v146.484a2.701 2.701 0 0 0 2.702 2.696h210.232a2.698 2.698 0 0 0 2.698-2.696V253.508a2.696 2.696 0 0 0-2.698-2.696H351.997z" fill="#fff"/><path d="M562.229 250.812H457.11v151.876h105.119a2.697 2.697 0 0 0 2.698-2.695v-146.49a2.694 2.694 0 0 0-2.698-2.691z" fill="#F7FAF9"/><path d="M438.093 277.601c-7.75-7.73-18.282-12.638-30.015-13.034-.509-.016-1.004-.077-1.523-.077v44.581l31.538-31.47z" fill="#F3764B"/><path d="M429.877 290.755c-.202-.207-.42-.39-.627-.589l-25.126 25.074 25.136 25.081c.198-.202.415-.383.617-.592 6.089-6.374 9.854-14.984 9.854-24.489 0-9.496-3.765-18.11-9.854-24.485z" fill="#80B6BC"/><path d="M404.123 315.24v-35.525c-9.525 0-18.15 3.754-24.547 9.831-.201.197-.39.419-.587.622-6.45 6.427-10.473 15.266-10.473 25.073 0 9.812 4.023 18.65 10.469 25.081.202.202.39.422.591.619 6.397 6.075 15.023 9.829 24.547 9.829h.003c.402 0 .801-.046 1.21-.06 9.341-.314 17.746-4.228 23.924-10.388l-25.137-25.082zM398.842 364.083h-30.326v1.756h30.326v-1.756zM398.842 368.329h-30.326v1.756h30.326v-1.756zM398.842 372.574h-30.326v1.757h30.326v-1.757zM439.73 380.829h-71.214v1.755h71.214v-1.755zM439.73 385.075h-71.214v1.756h71.214v-1.756zM439.73 389.32h-71.214v1.757h71.214v-1.757zM550.005 380.829h-79.132v1.755h79.132v-1.755zM550.005 385.075h-79.132v1.756h79.132v-1.756zM550.005 389.32h-79.132v1.757h79.132v-1.757zM550.006 313.491h-24.417v1.756h24.417v-1.756zM550.006 317.735h-24.417v1.757h24.417v-1.757zM550.006 321.981h-24.417v1.757h24.417v-1.757zM550.006 298.96h-24.417v1.756h24.417v-1.756zM550.006 303.206h-24.417v1.757h24.417v-1.757zM550.006 307.451h-24.417v1.756h24.417v-1.756zM439.73 364.083h-30.326v1.756h30.326v-1.756zM439.73 368.329h-30.326v1.756h30.326v-1.756zM439.73 372.574h-30.326v1.757h30.326v-1.757zM470.882 373.687a.388.388 0 0 1-.009-.123v-29.572a3.037 3.037 0 0 1 3.031-3.024h.076c1.668 0 3.097 1.361 3.097 3.024v29.572c0 .075-.07.123-.075.123h-6.12zM479.976 373.687c-.005-.079-.037-.159-.037-.235v-24.887c0-1.664 1.392-3.025 3.06-3.025h.075c1.667 0 3.068 1.361 3.068 3.025v24.887c0 .076-.04.156-.046.235h-6.12z" fill="#93C4CC"/><path d="M489.07 373.688c-.005-.08.015-.108.015-.185v-34.032c0-1.664 1.341-3.026 3.007-3.026h.076c1.668 0 3.12 1.362 3.12 3.026v34.032c0 .077-.091.105-.097.185h-6.121z" fill="#F3764B"/><path d="M498.24 373.688c-.006 0-.009-.048-.009-.124v-14.051a3.037 3.037 0 0 1 3.031-3.025h.075c1.667 0 3.097 1.361 3.097 3.025v14.051a.154.154 0 0 1-.074.124h-6.12zM507.333 373.688c-.004-.08-.036-.159-.036-.235v-38.268c0-1.665 1.391-3.025 3.059-3.025h.075c1.668 0 3.069 1.36 3.069 3.025v38.268c0 .076-.04.155-.046.235h-6.121zM516.429 373.688c-.006-.08.014-.108.014-.185v-34.032a3.018 3.018 0 0 1 3.009-3.026h.075c1.667 0 3.119 1.362 3.119 3.026v34.032c0 .077-.091.105-.097.185h-6.12zM525.598 373.687a.388.388 0 0 1-.009-.123v-29.572a3.037 3.037 0 0 1 3.032-3.024h.075c1.668 0 3.097 1.361 3.097 3.024v29.572a.153.153 0 0 1-.074.123h-6.121zM534.693 373.688c-.005-.08-.038-.159-.038-.235v-33.279c0-1.664 1.392-3.026 3.06-3.026h.075c1.668 0 3.069 1.362 3.069 3.026v33.279c0 .076-.041.155-.047.235h-6.119zM543.787 373.687c-.006-.08.015-.107.015-.185v-23.853c0-1.664 1.34-3.025 3.007-3.025h.075c1.668 0 3.12 1.361 3.12 3.025v23.853c0 .078-.092.105-.097.185h-6.12zM509.542 315.506l4.731-3.547v-41.935h-9.461v41.935l4.73 3.547z" fill="#93C4CC"/><path d="M509.542 323.739a2.877 2.877 0 0 0 2.88-2.875 2.877 2.877 0 0 0-2.88-2.873 2.877 2.877 0 0 0-2.88 2.873 2.878 2.878 0 0 0 2.88 2.875z" fill="#80B6BC"/><path d="M498.23 315.507l4.73-3.547v-30.442h-9.461v30.442l4.731 3.547z" fill="#93C4CC"/><path d="M498.228 323.739a2.877 2.877 0 0 0 2.88-2.875 2.877 2.877 0 0 0-2.88-2.873 2.877 2.877 0 0 0-2.88 2.873 2.878 2.878 0 0 0 2.88 2.875z" fill="#80B6BC"/><path d="M486.916 315.506l4.731-3.547V300.75h-9.462v11.209l4.731 3.547z" fill="#93C4CC"/><path d="M486.916 323.739a2.877 2.877 0 0 0 2.88-2.875 2.877 2.877 0 0 0-2.88-2.873 2.876 2.876 0 0 0-2.879 2.873 2.877 2.877 0 0 0 2.879 2.875z" fill="#80B6BC"/><path d="M475.603 315.506l4.731-3.547v-36.185h-9.461v36.185l4.73 3.547z" fill="#F3764B"/><path d="M475.602 323.739a2.877 2.877 0 0 0 2.88-2.875 2.877 2.877 0 0 0-2.88-2.873 2.876 2.876 0 0 0-2.879 2.873 2.877 2.877 0 0 0 2.879 2.875z" fill="#80B6BC"/><path d="M545.165 282.651c-.038 2.016-.748 3.724-1.958 4.939-1.215 1.219-2.928 1.935-4.952 1.976-.06.002-.12.008-.182.008-1.88 0-3.604-.687-4.883-1.869-1.322-1.219-2.166-2.971-2.208-5.054-.002-.054-.008-.106-.008-.16 0-1.939.812-3.713 2.108-5.002 1.289-1.282 3.059-2.083 4.991-2.083.061 0 .121.009.182.009v-4.509c-.061-.001-.12-.009-.182-.009a11.6 11.6 0 0 0-8.219 3.371 11.55 11.55 0 0 0-3.401 8.223c0 .054.007.106.007.16.043 3.33 1.333 6.262 3.416 8.363 2.094 2.114 4.987 3.39 8.197 3.39.062 0 .121-.008.182-.008 3.319-.047 6.239-1.324 8.34-3.424 2.095-2.099 3.369-5.012 3.409-8.321h-4.839z" fill="#F3764B"/><path d="M538.107 289.69c3.971 0 7.189-3.212 7.189-7.174s-3.218-7.174-7.189-7.174c-3.969 0-7.189 3.212-7.189 7.174s3.22 7.174 7.189 7.174z" fill="#93C4CC"/><path d="M386.968 339.592l-3.603-22.385c-.085-.616.198-1.475.628-1.912l7.147-7.229c.43-.436 1.255-.647 1.834-.468l3.224.996c.578.176.821.773.539 1.323l-3.858 7.537c-.282.55-.129 1.318.341 1.711l2.016 1.682c.469.391 1.317.54 1.887.329l3.081-1.146c.568-.21 1.443-.095 1.941.253l1.608 1.129c.498.351.697 1.096.441 1.659l-4.531 9.921c-.256.56-2.108 7.686-2.654 7.422l-10.041-.822z" fill="#F8B77C"/><path d="M401.883 323.105c-1.08-.096-1.88-1.074-1.788-2.185l.584-7.015c.092-1.113 1.044-1.935 2.124-1.84l.815.071c1.08.095 1.881 1.072 1.788 2.186l-.585 7.014c-.091 1.111-1.043 1.937-2.123 1.84l-.815-.071z" fill="#F8B77C"/><path d="M404.153 300.45c-.136.138-.246.211-.315.346l-14.674 28.14c-.271.523-.053 1.197.458 1.478l1.572.871a1.04 1.04 0 0 0 1.424-.442l14.674-28.139c.069-.134.095-.253.133-.446l-3.272-1.808z" fill="#DE2E46"/><path d="M405.776 301.348l-15.381 29.496.8.441a1.04 1.04 0 0 0 1.424-.441l14.674-28.139c.069-.134.095-.253.132-.446l-1.649-.911z" fill="#A72335"/><path d="M407.423 302.257l-3.279-1.812 5.22-5.961-1.941 7.773z" fill="#FFDBA9"/><path d="M408.669 297.224l.675-2.701-1.813 2.07 1.138.631z" fill="#233250"/><path d="M391.385 309.715c-.395-.963-.032-2.038.811-2.404l9.875-4.295c.844-.367 1.467-.54 1.86.421 0 0 1.709 3.203-2.2 4.682l-7.811 3.396c-.841.367-1.844-.116-2.239-1.076l-.296-.724z" fill="#F8B77C"/><path d="M403.893 340.264l-20.176-3.946c-2.128 17.468-.296 51.558-30.664 30.334-6.704-4.685-11.493 5.874-11.493 5.874l1.616 14.512c43.629 20.92 54.929 7.398 60.717-46.774z" fill="#E96642"/><path d="M356.491 319.338c-.079 2.068-.82 4.588-2.826 4.472-2.007-.112-3.546-1.882-3.433-3.949l.67-12.416c.11-2.068 1.827-3.651 3.837-3.535 2.008.116 3.74 1.904 3.434 3.948-.431 2.869-1.462 5.865-1.682 11.48z" fill="#F8B77C"/><path d="M372.591 377.929l-10.683-.033 10.683.033z" fill="#E1593C"/><path d="M581.823 85.758l-1.046-17.028-14.819-4.222c-2.02-5.004-4.04-10.008-6.913-14.96l5.99-14.04-12.678-11.19-13.234 7.646c-4.423-2.293-9.7-4.534-15.725-5.02l-6.008-14.161-17.065 1.043-4.231 14.787c-5.016 2.015-10.03 4.031-14.14 6.846l-14.07-5.977-12.015 13.554 7.662 13.205c-2.298 4.413-3.691 9.626-5.084 14.839l-14.192 5.995 1.046 17.028 14.819 4.222c2.02 5.004 4.04 10.008 6.913 14.96l-5.989 14.04 12.677 11.189 13.234-7.645c4.423 2.293 9.7 4.534 15.725 5.02l6.008 14.161 17.065-1.043 4.231-14.787c5.016-2.015 10.03-4.032 14.993-6.898l14.071 5.976 11.213-12.65-7.662-13.205c2.298-4.413 4.545-9.678 5.032-15.69l14.192-5.995zm-66.693 29.715c-18.772 1.147-35.072-13.239-36.221-31.97-1.151-18.731 13.267-34.995 32.039-36.143 18.772-1.147 35.072 13.24 36.221 31.97 1.151 18.73-13.267 34.995-32.039 36.143z" fill="#4BB3A3"/><path d="M534.026 80.546c.358 11.774-8.914 21.604-20.714 21.96-11.799.356-21.652-8.897-22.009-20.671-.359-11.774 8.913-21.603 20.713-21.96 11.801-.355 21.652 8.897 22.01 20.671z" fill="#C0C7C7"/><path d="M491.235 81.636c.36 11.83 10.139 21.229 21.828 20.877l-1.308-43.004.011.377c-11.689.352-20.891 9.91-20.531 21.75z" fill="#D1D8D8"/><path d="M920.216 179.818v-3.215l-2.737-.964c-.323-.965-.646-1.929-1.131-2.894l1.292-2.572-2.253-2.251-2.584 1.287c-.8-.483-1.769-.965-2.899-1.126l-.961-2.733h-3.223l-.969 2.733c-.969.321-1.93.643-2.737 1.126l-2.576-1.287-2.423 2.411 1.292 2.573c-.484.804-.807 1.768-1.13 2.733l-2.738.964v3.215l2.738.965c.323.965.646 1.929 1.13 2.894l-1.292 2.572 2.261 2.25 2.576-1.286c.808.482 1.769.965 2.899 1.125l.969 2.733h3.223l.961-2.733c.969-.321 1.938-.643 2.899-1.125l2.584 1.286 2.253-2.25-1.292-2.572c.485-.805.969-1.769 1.131-2.894l2.737-.965zm-12.888 4.823c-3.546 0-6.445-2.893-6.445-6.43s2.899-6.43 6.445-6.43c3.545 0 6.444 2.893 6.444 6.43s-2.899 6.43-6.444 6.43z" fill="#4BB3A3"/><path d="M911.289 178.164c0 2.22-1.8 4.019-4.03 4.019a4.02 4.02 0 1 1 0-8.038 4.02 4.02 0 0 1 4.03 4.019z" fill="#C0C7C7"/><path d="M903.221 178.126c0 2.23 1.791 4.057 3.991 4.057v-8.109.072a3.967 3.967 0 0 0-3.991 3.98z" fill="#D1D8D8"/><path d="M865.533 123.926v-7.397l-6.305-2.22c-.739-2.219-1.479-4.439-2.592-6.658l2.966-5.918-5.192-5.178-5.931 2.959c-1.853-1.11-4.079-2.22-6.671-2.59l-2.226-6.288h-7.41l-2.226 6.288c-2.226.74-4.445 1.48-6.297 2.59l-5.931-2.96-5.566 5.549 2.966 5.918c-1.114 1.849-1.853 4.069-2.592 6.288l-6.305 2.22v7.397l6.305 2.219c.739 2.219 1.478 4.439 2.592 6.658l-2.966 5.918 5.192 5.179 5.931-2.96c1.853 1.11 4.079 2.22 6.671 2.59l2.226 6.288h7.41l2.226-6.288c2.226-.74 4.453-1.48 6.671-2.59l5.931 2.96 5.192-5.179-2.966-5.918c1.113-1.849 2.227-4.069 2.592-6.658l6.305-2.219zm-29.656 11.096c-8.158 0-14.828-6.658-14.828-14.795s6.67-14.796 14.828-14.796c8.157 0 14.828 6.659 14.828 14.796s-6.671 14.795-14.828 14.795z" fill="#70909A"/><path d="M844.994 120.119c0 5.107-4.152 9.247-9.271 9.247-5.119 0-9.263-4.14-9.263-9.247 0-5.108 4.144-9.247 9.263-9.247s9.271 4.139 9.271 9.247z" fill="#C0C7C7"/><path d="M826.428 120.032c0 5.133 4.119 9.334 9.189 9.334V110.71v.163c-5.07 0-9.189 4.023-9.189 9.159z" fill="#D1D8D8"/><path d="M596.368 217.498c.097 11.78-9.388 21.402-21.194 21.498-11.805.095-21.45-9.372-21.548-21.152-.098-11.78 9.388-21.402 21.193-21.498 11.806-.095 21.45 9.372 21.549 21.152z" fill="#C0C7C7"/><path d="M553.565 217.642c.098 11.836 9.666 21.448 21.36 21.354l-.358-43.021.004.376c-11.694.095-21.105 9.447-21.006 21.291z" fill="#D1D8D8"/><path d="M666.17 107.698c.017 9.173-7.42 16.622-16.614 16.641-9.193.018-16.656-7.4-16.673-16.574-.016-9.174 7.419-16.622 16.613-16.64 9.194-.019 16.657 7.4 16.674 16.573z" fill="#C0C7C7"/><path d="M632.432 108.049c.26 9.213 7.86 16.547 16.963 16.289l-.947-33.491.009.293c-9.103.258-16.285 7.688-16.025 16.909zM526.781 308.317a37.644 37.644 0 0 0-.469-15.201l8.186-4.279-4.988-11.366-8.527 3.489a36.213 36.213 0 0 0-10.774-10.429l2.852-8.97-11.366-4.383-3.633 8.655c-2.098-.396-4.202-.535-6.286-.535l-4.691 9.987 4.691 9.232c9.316 0 16.86 7.769 16.86 17.35 0 9.582-7.544 17.352-16.86 17.352l-4.691 7.567 4.691 11.622c2.883 0 5.727-.32 8.481-1.016l4.156 8.401 11.045-5.119-3.373-8.764a36.345 36.345 0 0 0 10.113-11.105l8.725 2.939 4.268-11.691-8.41-3.736z" fill="#D1D8D8"/><path d="M491.777 319.221c-9.309 0-16.858-7.771-16.858-17.353 0-9.581 7.545-17.351 16.855-17.351l.003-19.219a35.18 35.18 0 0 0-8.471 1.009l-4.154-8.412-11.06 5.139 3.402 8.761a36.133 36.133 0 0 0-10.11 11.072l-8.726-2.897-4.295 11.686 8.416 3.726a37.81 37.81 0 0 0 .446 15.209l-8.152 4.254 5.009 11.383 8.506-3.482a35.588 35.588 0 0 0 10.78 10.421l-2.835 8.952 11.349 4.438 3.619-8.656c2.098.38 4.192.519 6.276.508v-19.188z" fill="#C6E3E5"/><path d="M508.638 301.868c0-9.58-7.546-17.35-16.861-17.35l-4.691 17.529 4.691 17.173c9.315.001 16.861-7.769 16.861-17.352z" fill="#C0C7C7"/><path d="M474.918 301.868c0 9.583 7.546 17.353 16.855 17.353l.004-34.703c-9.31-.001-16.859 7.77-16.859 17.35z" fill="#D1D8D8"/><path d="M423.211 516.402c-2.72 0-3.372-3.786-.808-4.692l41.011-14.494c.259-.091.532-.138.808-.138h74.858c2.721 0 3.372 3.787.808 4.692l-41.011 14.493a2.411 2.411 0 0 1-.807.139h-74.859z" fill="#888E8F" fill-opacity=".17"/><path d="M558.111 241.631H356.116c-8.149 0-14.775 6.621-14.775 14.744v140.749c0 8.131 6.626 14.748 14.775 14.748h94.901v93.59c-18.746.84-33.132 5.367-33.132 9.827 0 .181.074 1.63.126 1.63h78.201c.057 0 .131-1.799.131-1.994 0-4.445-14.39-8.692-33.136-9.476v-93.577h94.905c8.139 0 14.775-6.617 14.775-14.748V256.375c0-8.123-6.636-14.744-14.776-14.744z" fill="#93C4CC"/><path d="M558.111 241.631h-101v275.288h39.101c.056 0 .13-1.799.13-1.994 0-4.445-14.39-8.692-33.136-9.476v-93.577h94.906c8.139 0 14.774-6.617 14.774-14.748V256.375c0-8.123-6.635-14.744-14.775-14.744z" fill="#80B6BC"/><path d="M562.23 250.812H457.111v151.876H562.23a2.697 2.697 0 0 0 2.697-2.695v-146.49a2.694 2.694 0 0 0-2.697-2.691z" fill="#F7FAF9"/><path d="M372.591 377.929l-10.683-.033 10.683.033z" fill="#E1593C"/><path d="M775.589 541.369h340.621c-35.98 10.02-197.016 24.502-340.621 0z" fill="#D1D3D3"/><path d="M992.577 146.978c-13.577 0-24.622 11.037-24.622 24.604 0 13.567 11.045 24.604 24.622 24.604 13.573 0 24.623-11.037 24.623-24.604 0-13.567-11.05-24.604-24.623-24.604zm0 43.973c-10.688 0-19.384-8.689-19.384-19.369s8.696-19.369 19.384-19.369c10.693 0 19.383 8.689 19.383 19.369s-8.69 19.369-19.383 19.369z" fill="#70909A"/><rect x="991" y="150" width="3" height="5" rx="1" fill="#70909A"/><path d="M972 170a1 1 0 0 0-1 1v1a1 1 0 0 0 1 1h3a1 1 0 0 0 1-1v-1a1 1 0 0 0-1-1h-3zM1010 170c-.55 0-1 .448-1 1v1c0 .552.45 1 1 1h3c.55 0 1-.448 1-1v-1c0-.552-.45-1-1-1h-3z" fill="#70909A"/><rect x="991" y="188" width="3" height="5" rx="1" fill="#70909A"/><path d="M994 172a1 1 0 0 1-1 1h-1a1 1 0 0 1-1-1v-12.5a1.5 1.5 0 1 1 3 0V172z" fill="#70909A"/><path d="M991.708 173.085a.741.741 0 0 1-.49-.926l.447-1.451a.74.74 0 0 1 .926-.49l7.419 2.279c.79.243 1.23 1.083.99 1.874a1.498 1.498 0 0 1-1.875.993l-7.417-2.279z" fill="#70909A"/><path d="M981.127 460.952H967.64a2.698 2.698 0 0 1-2.697-2.697v-24.267h5.395v21.571h10.789v5.393zM1032.49 534.913l-4.59-6.89h-45.666l-4.586 6.89-4.489-2.994 5.395-8.089a2.7 2.7 0 0 1 2.236-1.2h48.55c.9 0 1.75.451 2.25 1.2l5.39 8.089-4.49 2.994zM1056.32 463.648h-13.49v-5.393h10.79v-21.57h5.39v24.267a2.697 2.697 0 0 1-2.69 2.696z" fill="#9C8358"/><path d="M1002.37 466.345h5.39v70.104h-5.39v-70.104z" fill="#9C8358"/><path d="M972.698 452.863h64.732c4.47 0 8.1 3.621 8.1 8.089 0 4.467-3.63 8.089-8.1 8.089h-64.732a8.091 8.091 0 0 1-8.092-8.089 8.09 8.09 0 0 1 8.092-8.089zM993.414 450.504l-9.521-34.899a59.296 59.296 0 0 1 6.365-46.126l.014-.022a10.79 10.79 0 0 1 9.252-5.236h41.726c3.79 0 7.3 1.988 9.25 5.236l.02.022a59.29 59.29 0 0 1 6.36 46.126l-9.52 34.899h-53.946z" fill="#939498"/><path d="M959.549 431.293a5.392 5.392 0 0 1 5.392-5.393h5.399a5.393 5.393 0 1 1 0 10.785h-5.399a5.392 5.392 0 0 1-5.392-5.392zM1048.22 433.988a5.397 5.397 0 0 1 5.4-5.392h5.39c2.98 0 5.4 2.414 5.4 5.392a5.398 5.398 0 0 1-5.4 5.393h-5.39c-2.98 0-5.4-2.414-5.4-5.393zM999.671 515.89h10.789v16.178h-10.789V515.89zM975.396 531.394a5.393 5.393 0 1 1 0 10.785 5.393 5.393 0 0 1 0-10.785zM1034.74 531.393a5.39 5.39 0 0 1 5.39 5.393 5.39 5.39 0 0 1-5.39 5.393c-2.98 0-5.4-2.415-5.4-5.393a5.398 5.398 0 0 1 5.4-5.393z" fill="#7D7E82"/><path d="M1005.07 531.393c2.97 0 5.39 2.415 5.39 5.393a5.396 5.396 0 0 1-5.39 5.393 5.397 5.397 0 0 1-5.399-5.393 5.397 5.397 0 0 1 5.399-5.393z" fill="#7D7E82"/><path d="M1001.53 331.527l-.49-5.726c4.21-.561 13.16-2.666 17.34-9.946.3-1.768.59-6.754-.13-8.769-.13-.234-.25-.458-.37-.668.15.148.27.377.37.668 2.37 4.195 6.74 11.868 7.89 13.656-3.04 2.191-10.82 6.741-17.7 7.415-1.49 1.078-3.21 3.146-3.88 4.044l-3.03-.674z" fill="#FCBA80"/><path d="M825.02 544.876h-5.563l32.511-122.684h5.757L825.02 544.876z" fill="#9C8358"/><path d="M968.145 531.899l-.674 6.741 5.563-1.011.843-6.235-5.732.505z" fill="#FCBA80"/><path d="M965.374 538.992c-3.488 3.209-9.596 4.061-13.577 4.084-1.049.007-2.024.764-1.871 1.802.074.497.229.945.519 1.177 3.337 2.823 8.671 1.799 11.26.822.248-.094.514-.148.779-.148 9.465-.02 12.417-.728 12.854-1.195.078-.083.053-.21.044-.324-.35-4.504-1.353-9.424-2.685-8.592-1.937 1.049-3.529 1.386-4.651 1.414-.942.025-1.978.322-2.672.96z" fill="#114A55"/><path d="M959.207 483.306c1.522 4.946 13.151 28.418 19.22 39.661l6.407-4.406-8.599-38.136c-1.228-2.174-3.377-7.779-3.355-14.503.006-1.892.951-3.686 2.582-4.645 2.856-1.678 4.371-1.348 4.82-.852.944-13.83 6.687-19.661 9.441-20.847l30.517-3.729v-1.187c-6.69.113-22.492.339-32.203.339-12.139 1.695-28.998 8.136-32.876 12.712-6.744 10.678 2.276 29.842 4.046 35.593z" fill="#394244"/><path d="M982.476 444.64c-3.102 4.465-10.508 58.123-13.824 84.394l5.901-.845c4.832-10.712 15.172-36.532 20.229-49.216 8.768-21.987 11.128-19.337 13.988-20.803l17.2-3.89-1.52-7.441c-.73-3.947-2.66-11.839-4.55-11.839-34.052 1.86-33.547 4.059-37.424 9.64z" fill="#3E494B"/><path d="M1020.24 432.471c-.54.135-13.49.506-19.89.674v2.023h20.56l-.67-2.697z" fill="#323D43"/><path d="M1049.23 544.707l-31.86-121.167h4.39l32.36 121.167h-4.89z" fill="#9C8358"/><path d="M1042.83 423.54h-22.25l32.36 121.167h22.76l-32.87-121.167z" fill="#826A48"/><path d="M985.108 534.632l-4.824-8.799 5.563-4.213 4.775 11.788c-.809 2.696-4.165 1.73-5.514 1.224z" fill="#FCBA80"/><path d="M984.499 543.527V535c0-.775.869-1.252 1.639-1.168 1.014.111 1.844-.295 2.476-.875.645-.593 1.922-.618 2.353.144 1.732 3.062 3.734 5.657 4.658 6.719.955 1.011 2.731 3.37 2.191 4.718-9.305 3.371-12.756.731-13.317-1.011z" fill="#114A55"/><path d="M986.592 521.77l-4.988 3.591a2.262 2.262 0 1 1-2.591-3.706l5.085-3.453a2.177 2.177 0 0 1 2.494 3.568zM974.124 527.856l-6.453.832a1.955 1.955 0 0 0 .496 3.878l6.454-.82a1.962 1.962 0 1 0-.497-3.89z" fill="#526061"/><path d="M959.379 403.149c-.809 0-11.744 5.674-16.352 8.426v2.865l22.758-.168c1.855-10.449-5.394-11.123-6.406-11.123z" fill="#FCBA80"/><path d="M969.664 382.252c.539-25.885 6.855-37.861 9.946-40.614-4.45 11.19-1.405 22.189.674 26.289 3.934 7.022 11.498 22.717 10.284 29.323-3.237 11.055-8.092 16.515-18.713 16.515l-6.406.506c1.872-7.752-3.944-10.624-7.166-11.111a1.185 1.185 0 0 1-.083-.012l.083.012c3.236.433 9.91-3.131 11.381-20.908z" fill="#E8DCC6"/><path d="M963.762 401.97c-1.888-1.079-5.057.73-5.9 1.854 1.011-.675 1.854.168 2.697.674 2.697 3.033 4.72 7.18 4.552 8.191-.135.809-.519 1.348-1.081 1.517h3.778l.869-.024c1.384-.039 2.294-1.431 1.681-2.671-1.993-4.026-5.056-8.662-6.596-9.541z" fill="#F9F9E2"/><path d="M998.659 335.739c-.135-2.561.618-3.875 1.011-4.212 3.37-.505 4.05.337 4.55.506.41.134.28 3.089.17 4.549-1.01.168-3.57.236-5.731-.843z" fill="#2B434C"/><path d="M990.002 429.438c0 2.023 0 2.191 1.013 3.876h29.225l-2.53-9.481 10.09-23.534c0-6.677 1.45-22.499 5.96-37.197.8-2.635 2.02-5.15 3.84-7.227 8.62-9.897 18.33-9.38 22.42-7.892-5.4-7.991-20.47-19.301-27.16-23.533l-22.44 9.481-4.56 1.016-4.17-3.925-.67-3.539c-4.893.677-15.574 3.231-22.66 15.929-7.14 12.794 11.642 47.575 12.655 54.856 1.012 7.28-.507 21.163-1.013 25.565v5.605z" fill="#DED4BB"/><path d="M1047.21 417.551h-20.9l-6.07-12.808 1.74-1.006c3.59-2.071 5.68-5.979 5.75-10.12.17-9.798 1.62-24.296 6.5-34.375 10.92-14.56 21.64-14.008 25.63-11.705 10.62 26.795-2.37 65.892-12.65 70.014z" fill="#E8DCC6"/><path d="M1020.07 404.16c-1.89-1.079-5.4.031-6.24 1.154 1.01-.674 2.19-.143 3.04.363 2.69 3.033 2.36 9.437 2.19 10.448-.14.809-.96 1.18-1.52 1.348l7.61.141a1 1 0 0 0 .95-1.363c-1.73-4.471-4.33-11.12-6.03-12.091z" fill="#F9F9E2"/><path d="M1018.89 417.811H821.816l2.293 5.729h193.261l1.52-5.729z" fill="#8A704D"/><path d="M1075.2 417.811h-56.31l-1.52 5.729h53.61l4.22-5.729z" fill="#442A19"/><path d="M943.532 317.709l-65.578 55.78h53.441l11.632 37.244 20.567-9.438 4.72-7.752 2.023-11.459-26.805-64.375z" fill="url(#paint0_linear)"/><path d="M891.348 417.71c-1.543 0-.857-1.517 0-1.517v-1.517l49.209-.505-15.26-41.129c3.841-.405 5.487 1.404 5.829 2.36l12.86 38.769h20.81c1.145 0 2.116.84 2.28 1.972a1.37 1.37 0 0 1-1.34 1.581c-25.161.202-72.815-.014-74.388-.014z" fill="#2B4E64"/><path d="M1009.28 331.863c-1.08.54-4.05.674-5.4.674.95-3.504 2.65-4.661 3.21-4.886 1.29 1.236 3.54 3.538 2.19 4.212zM1028.33 318.551c-1.08-.539-2.92-.393-3.88-.169l1.69 2.191c.84-.45 2.19-1.348 2.19-2.022z" fill="#DDD1B1"/><path d="M1028.33 318.552c-9.17 6.74-18.1 8.875-21.41 9.1 1.35.674 3.26 4.606 3.71 6.235l22.59-9.606c-.28-1.91-1.65-5.729-4.89-5.729z" fill="#F9F9E2"/><path d="M1000.59 409.132l-7.079 1.349c-2.866-48.366 5.732-71.959 6.069-73.138.337-1.18-.506-1.18-1.011-1.18-.506 0 0-1.011 0-2.865-1.619-.944-1.54-1.995-1.596-2.276.169-2.696.921-2.78.921-2.78 1.349-.674 1.18 2.865 1.686 3.202 3.51-.404 4.61.506 4.72 1.011 2.43-.134 4.5-.73 5.23-1.011 1.01 1.011.67 2.697.67 2.697-1.62.539-4.49.786-5.73.842v1.854c-.95-.135-1.41.281-1.52.506-7.281 19.009-4.606 55.78-2.36 71.789z" fill="#335561"/><path d="M964.438 408.036c.674-.135 1.742-1.18 2.191-1.685.394-.225.607-.472-1.686.337-2.865 1.011-4.214 0-3.708-1.011 1.753-.27 2.866-.562 3.203-.674 3.877-1.18 4.046-.843 4.046-.843s2.416 1.404 3.371 2.191c.944-2.966 2.304-3.034 2.866-2.697-.809 1.753-.337 4.663 0 5.899.506 1.516.675 1.685 2.698 2.359 9.44-.337 31.351-5.224 37.091-6.909 4.58-1.349 5 7.302 4.55 11.459.05.225-.17.741-1.52 1.011-34.895 1.685-41.976-2.022-43.999-3.033-1.245-.178-3.413-2.246-4.65-3.876-.473.337-1.969 1.626-3.61 1.011-1.349-.506.337-1.18.843-1.348.404-.135 1.236-.941 1.854-1.243a.475.475 0 0 1 0-.274c-1.517.562-4.754 1.517-5.563.843-1.012-.843 1.18-1.349 2.023-1.517z" fill="#F9B071"/><path d="M1001.36 327.314c-2.701.27-3.544 1.404-3.713 2.022.135 2.426 2.863 2.359 4.213 2.022 0-1.404-.23-4.044-.5-4.044z" fill="#DDD1B1"/><path d="M1018.65 297.467c.24 1.286.12 2.945-1.17 3.166a2.376 2.376 0 0 1-2.75-1.932l-1.32-7.745a2.374 2.374 0 0 1 1.95-2.735c1.3-.221 2.66.627 2.75 1.931.13 1.83-.11 3.824.54 7.315z" fill="#FCC287"/><path d="M1017.02 297.01c.21-.65-.76-.735-.76-.313 0 .286-.06.557.1.79 0 0 .14.636.34.842.27.286.82.012.93-.384.06-.234.15-.694.15-.935 0-.289-.02-.36 0-.65.05-.695.09-1.347-.05-2.035-.15-.743-.36-1.757-.5-2.504-.21-.57-.87-1.244-1.35-1.011-.07.23-.7.61-.53 1.452.36.843 1.18.674 1.18 0" stroke="#F5B47B" stroke-width="2" stroke-linecap="round" stroke-linejoin="round"/><path d="M986.184 295.632c.237 1.307 1.292 13.314 1.18 20.223l2.866 6.572c1.685 1.011 6.439 3.168 15.34.337 8.9-2.831 11.58-7.471 11.8-9.437l-5.22-24.098c-.29-3.933-1.39-12.572-3.55-15.673-2.15-3.101-6.74-2.977-8.761-2.528-5.002 1.966-15.24 6.404-16.184 8.426-.944 2.023.169 4.607.337 6.404.221 2.359 1.854 7.921 2.192 9.774z" fill="#FCBA80"/><path d="M987.464 295.779c.236 1.115.448 13.094.336 18.994l2.856 4.604c1.681.864 7.26 1.986 16.134-.431 8.87-2.418 11.54-6.38 11.76-8.058l-5.21-20.577c-.28-3.358-1.38-10.734-3.53-13.382-2.15-2.648-6.72-2.542-8.73-2.158-4.99 1.678-15.196 5.467-16.137 7.194-.941 1.727-.168 2.864 0 4.399-.614 1.516 2.185 7.832 2.521 9.415z" fill="#FCBA80"/><path d="M1004.9 318.888c1.68 3.371 12.81-4.381 10.56-10.54l-3.99-17.603-1.52-9.605c2.04.879 1.85 1.986 3.88 2.865l1.63 11.29 2.75 11.797.51 2.022.34 2.191c.11 2.544-.31 5.166-1.91 7.145-6.75 8.332-19.503 8.022-19.503 8.022l2.363-11.459c2.36.168 3.2.505 4.89 3.875z" fill="#514947"/><path d="M1001.19 312.99c-1.08.269-6.071 0-8.263-.169l.675-.337c2.247-.168 6.978-.539 7.918-.674.95-.135 1.52-.505 1.69-.674-.22.506-.94 1.584-2.02 1.854z" fill="#fff"/><path d="M998.659 311.473c-4.046-.539-5.507.675-5.732 1.349 2.735-.339 1.738-.286 2.698-.337 6.235-.337 6.405-.169 7.415-1.012.81-.674.56-1.292.34-1.516.11.73-.67 2.056-4.721 1.516z" fill="#F7AE74"/><path d="M991.126 296.501c-1.088-.083-2.049.413-2.75.983-.685.557-.697 1.608-.085 2.245.489.508 1.035.668 2.608.447 2.493-.351 2.696-1.607 2.634-2.41-.126-.459-.602-1.127-2.407-1.265zM1005.07 294.125c-1.26-.075-2.39.335-3.25.839-.92.54-.99 1.907-.09 2.486.57.37 1.31.47 3.05.278 3.13-.344 3.39-1.575 3.31-2.363-.16-.45-.76-1.105-3.02-1.24z" fill="#514947"/><path d="M991.015 296.882c-.99-.082-1.862.419-2.492.988-.611.55-.595 1.495-.083 2.138.523.658 1.075.98 2.575.749 2.234-.343 2.415-1.572 2.359-2.359-.112-.449-.741-1.381-2.359-1.516z" fill="#E9FBFF"/><path d="M992.194 299.241c.169 1.011-.754 1.516-1.685 1.516s-1.854-.505-1.686-1.516c0-.744.755-1.348 1.686-1.348.931 0 1.685.604 1.685 1.348z" fill="#343C47"/><path d="M1008.1 295.296c-1.96-1.15-4.87-.42-6.62.308-.51.21-.87.909-.78 1.449.14.789.65 1.222 1.43 1.392.59.129 1.4.189 2.43.053 2.53-.338 3.88-2.528 3.54-3.202z" fill="#E9FBFF"/><path d="M1005.08 296.812c.17 1.011-.75 1.516-1.68 1.516-.93 0-1.86-.505-1.69-1.516 0-.745.76-1.348 1.69-1.348.93 0 1.68.603 1.68 1.348z" fill="#343C47"/><path d="M1003.49 296.631l-.84.476c-.05.028-.11.046-.16.033-.27-.07-.05-.503.25-.8.23-.234.56-.214.72-.185a.21.21 0 0 1 .14.114c.07.131.02.29-.11.362zM990.619 299.06l-.842.476a.218.218 0 0 1-.158.033c-.269-.07-.052-.503.248-.8.236-.234.557-.214.717-.185a.205.205 0 0 1 .144.114.274.274 0 0 1-.109.362z" fill="#fff"/><path d="M993.512 291.104c-2.157-1.024-5.83.16-7.468.82l1.078 5.495c2.257-2.337 5.112-2.683 7.038-1.157-.266-1.221-.286-4.329-.648-5.158z" fill="url(#paint1_linear)"/><path d="M994.246 291.726c-3.715 1.209-6.834 1.614-8.416 1.693a.6.6 0 0 1-.623-.644c.053-.998.302-2.017 1.047-2.684 1.388-1.244 3.515-1.988 5.213-2.369 1.059-.237 2.218.094 2.642 1.093.322.759.483 1.756.137 2.911z" fill="url(#paint2_linear)"/><path d="M1008.83 291.33c-2.04-.985-5.12-.243-7.39.646-1.1.432-2.403-.025-2.861-1.116l-.45-1.07c-.005-1.753.583-1.951.877-1.831l.964 1.424c-.036-.229-.091-.913-.031-1.815 3.711-1.265 6.351-.108 7.211.629.19.164.79 1.019 1.68 3.133z" fill="url(#paint3_linear)"/><path d="M996.846 315.762c-3.515 2.791-6.664 6.777-8.137 2.537-.705-2.028-1.034-4.496-1.187-6.607l-.495-6.791-.044 1.349v5.603c.373 4.262.919 8.854 3.96 11.863 4.15 4.108 8.939 2.358 8.939 2.358l.558-11.023c-1.601-.288-2.743.035-3.594.711z" fill="#514947"/><path d="M998.808 301.107c-.657-2.566-1.126-3.729-1.537-3.98l.511 11.41a2.89 2.89 0 0 1 .059-.006c1.378-.169 2.479-.807 2.449-1.424 0 0-.584-2.485-1.482-6z" fill="#FCBA80"/><path d="M996.075 301.428c.381-2.713.816-3.947 1.196-4.301l.589 11.402-.059.009c-1.377.187-2.527-.162-2.565-.78 0 0 .318-2.615.839-6.33z" fill="#F5B47B"/><path d="M1003.82 291.973c3.21-.603 7.48-.452 7.48-.452.11.712.11 1.141.14 1.516.1 1.09-.07 1.038-.33 1.448-1.14 1.9-.04 5.503-5.3 6.608-5.25 1.106-6.249-1.857-6.894-3.141-.606-1.197-1.075-1.503-1.447-1.491l-.328-2.273c2.399-.43 3.509-1.621 6.679-2.215zm-4.279 4.925c1.039 3.258 2.079 4.333 6.149 3.6 4.07-.734 4.21-2.984 4.06-4.957-.14-1.975-.42-3.467-4.79-2.842-2.22.318-6.453.942-5.419 4.199z" fill="#3F3B3B"/><path d="M989.935 294.081c3.275-.383 4.697.433 7.173.114l.034-.007.328 2.273c-.01.001-.021 0-.035.002-.375.082-.764.501-1.017 1.869-.262 1.421-.386 4.554-5.818 5.071-5.44.519-5.395-3.258-7.046-4.734-.494-.424-.591-.097-.992-2.876 0 0 4.077-1.327 7.373-1.712zm-4.757 5.19c.426 1.931 1.192 4.045 5.369 3.526 4.177-.518 4.88-1.858 4.962-5.286.078-3.426-4.218-2.756-6.469-2.394-4.434.711-4.286 2.223-3.862 4.154zM1011.27 291.508l3.57.754.22 1.088-3.76-.751-.03-1.091z" fill="#3F3B3B"/><path d="M983.633 295.62l2.551.686v.843l-2.426-.526-.125-1.003z" fill="#3F3B3B"/><path d="M914.874 415.957l-5.732-16.667-8.577-26.306c13.037.112 18.186.269 22.907 0 4.72-.27 6.687 2.022 7.08 3.202l12.981 39.771h-28.659z" fill="#109985"/><path d="M878.292 372.984h22.886l14.708 43.141h-24.444c-3.653-9.999-11.498-31.379-13.656-36.906-2.562-5.258-.73-6.348.506-6.235z" fill="#008378"/><path d="M1010.46 275.578c1.31 1.209 3.37 8.426 3.37 8.426s-2.66 1.858-2.67 1.82c-.37-2.995-1.37-1.819-4.58-.977-2.02-4.818-6.24-3.539-6.24-3.539.26-.119-.07.035 0 0l3.4-3.28s3.7-3.089 6.72-2.45z" fill="#514947"/><path d="M992.46 262.723c-1.838-2.449 31.24 11.636 13.79 19.427l-6 1.458c-4.721 2.469-10.139 5.106-13.969 4.91-5.04-.258-5.1-7.762-2.527-12.103 2.621-4.422 6.505-5.772 8.706-13.692z" fill="url(#paint4_linear)"/><path d="M1001.02 432.64h-5.733a1.349 1.349 0 0 0 0 2.697h5.733c.74 0 1.35-.604 1.35-1.348 0-.745-.61-1.349-1.35-1.349z" fill="#B7BAB1"/><path d="M992.423 435.336h-.339a1.516 1.516 0 0 1 0-3.033h.339a1.517 1.517 0 0 1 0 3.033zM1009.18 434.471v-.425a1.345 1.345 0 1 1 2.69 0v.425a1.346 1.346 0 0 1-2.69 0z" fill="#335561"/><path d="M878.628 422.529l-32.467 122.346h-22.49L855.8 422.529h22.828z" fill="#826A48"/><path d="M1048.22 414.103h-1.64c-1.51 0-2.74-1.257-2.74-2.808v-7.864c0-1.551 1.23-2.809 2.74-2.809h1.64v2.247h-1.09c-.61 0-1.1.503-1.1 1.123v6.741c0 .621.49 1.124 1.1 1.124h1.09v2.246z" fill="#F7B85B"/><path d="M1050.45 417.81h11.73c1.23 0 2.23-1.012 2.23-2.26v-16.951h-16.19v16.951c0 1.248 1 2.26 2.23 2.26z" fill="#EF914D"/><path d="M1050.25 415.55v-16.951h14.16v16.951c0 1.248-.98 2.26-2.18 2.26h-9.81c-1.2 0-2.17-1.012-2.17-2.26z" fill="#F7B85B"/><path d="M1064.41 401.295h-16.19v1.686h16.19v-1.686z" fill="#EF914D"/><path d="M1050.92 405.677h-.68v7.077h.68v-7.077zM1050.92 413.429h-.68v1.348h.68v-1.348z" fill="#DDEEEC"/><g clip-path="url(#clip0)" class="steam"><path d="M1054.38 396.577s3.46-4.44 3.57-5.758c.44-5.287-2.17-6.169-4.33-7.05 0 0 3.03 4.847 1.3 6.61-1.3.881-.54 6.198-.54 6.198z" fill="#fff"/></g><path d="M1056.65 396.576s3.27-.621 1.49-2.988c-.64-1.027.25-1.393.25-1.393s-2.11.06-1.22 1.688c.71 1.309.5 2.052-.52 2.693z" fill="#fff"/><path d="M876.969 417.551h-20.822c-2.239 0-4.053-1.286-4.053-2.873v-.551c0-1.587 1.814-2.873 4.053-2.873h20.822v6.297z" fill="#FFEBB7"/><path d="M855.204 411.884h-2.221v5.036h2.221v-5.036z" fill="#5C546A"/><path d="M874.861 410.309h-23.654v-4.407h23.654c.674 0 1.221.387 1.221.865v2.677c0 .478-.547.865-1.221.865zM876.969 400.235h-22.654v4.723h22.654v-4.723z" fill="#FFEBB7"/><path d="M876.982 418.181h-20.433c-2.939 0-5.331-1.695-5.331-3.778 0-2.084 2.392-3.778 5.331-3.778h20.433c.491 0 .888.281.888.629s-.397.63-.888.63h-20.433c-1.96 0-3.554 1.13-3.554 2.519 0 1.388 1.594 2.518 3.554 2.518h20.433c.491 0 .888.282.888.63 0 .348-.397.63-.888.63z" fill="#00C37A"/><path d="M874.316 410.624h-23.542c-.246 0-.444-.14-.444-.314 0-.175.198-.315.444-.315h23.542c.735 0 1.333-.424 1.333-.945v-1.889c0-.521-.598-.944-1.333-.944h-23.542c-.246 0-.444-.141-.444-.315 0-.174.198-.315.444-.315h23.542c1.225 0 2.221.706 2.221 1.574v1.889c0 .868-.996 1.574-2.221 1.574z" fill="#009BCA"/><path d="M876.969 401.809h-20.433c-.245 0-.444-.141-.444-.315 0-.174.199-.315.444-.315h20.433v.63zM876.969 403.069h-20.433c-.245 0-.444-.141-.444-.315 0-.174.199-.315.444-.315h20.433v.63zM876.969 404.328h-20.433c-.245 0-.444-.141-.444-.315 0-.174.199-.315.444-.315h20.433v.63zM851.207 406.847h23.098c.246 0 .445.141.445.315 0 .173-.199.314-.445.314h-23.098v-.629zM851.207 408.106h23.098c.246 0 .445.141.445.315 0 .174-.199.315-.445.315h-23.098v-.63zM851.207 409.365h23.098c.246 0 .445.141.445.315 0 .174-.199.315-.445.315h-23.098v-.63z" fill="#E6BE94"/><path d="M877.426 405.587h-21.321c-1.47 0-2.666-.847-2.666-1.889v-2.519c0-1.041 1.196-1.889 2.666-1.889h21.321c.491 0 .889.282.889.63 0 .348-.398.63-.889.63h-21.321c-.49 0-.889.282-.889.629v2.519c0 .347.399.63.889.63h21.321c.491 0 .889.282.889.629 0 .348-.398.63-.889.63z" fill="#FF4F19"/><path d="M856.536 416.292c-.246 0-.444.141-.444.315 0 .174.198.314.444.314h20.433v-.629h-20.433zM856.536 415.032c-.246 0-.444.141-.444.315 0 .174.198.315.444.315h20.433v-.63h-20.433zM856.536 413.772c-.246 0-.444.141-.444.315 0 .174.198.315.444.315h20.433v-.63h-20.433zM856.536 412.514c-.246 0-.444.14-.444.315 0 .174.198.314.444.314h20.433v-.629h-20.433z" fill="#E6BE94"/><path d="M838.569 389.492l-2.649 13.122h3.733l2.65-12.4-3.734-.722z" fill="#4ACEA7"/><path d="M843.026 390.455l-.723-.241-2.77 12.159h.964l2.529-11.918z" fill="#42AF8F"/><path d="M829.537 394.428l1.807 8.667h2.649c-.441-2.086-1.421-6.862-1.806-9.269-.603-2.288-3.011-1.084-2.65.602z" fill="#7284D8"/><path d="M841.279 402.012h-3.071v15.65h1.927l.963-14.085h.181a.782.782 0 1 0 0-1.565z" fill="#EF914D"/><path d="M838.449 402.012h-7.279a.91.91 0 1 0 0 1.82h.068l1.222 13.83h5.989v-15.65z" fill="#F7B85B"/><path class="glare_1" d="M947.576 330.701a6.575 6.575 0 0 1-6.577 6.573 6.575 6.575 0 1 1 0-13.147 6.576 6.576 0 0 1 6.577 6.574z" stroke="#F3BC48" stroke-width="4"/><path class="glare_2" d="M1082.85 180.048a4.626 4.626 0 0 1-9.25 0 4.626 4.626 0 0 1 9.25 0z" stroke="#4DCEA8" stroke-width="3"/><path class="glare_3" d="M949.576 244.963v-6.124h3.676v6.124h6.126v3.675h-6.126v6.124h-3.676v-6.124h-6.126v-3.675h6.126z" fill="#4DCEA8"/><path class="glare_4" d="M1076.81 301.117v-4.711h2.83v4.711h4.71v2.826h-4.71v4.711h-2.83v-4.711h-4.71v-2.826h4.71z" fill="#F3BC48"/><g clip-path="url(#clip0)" class="think"><path d="M1002.04 254.001c3.49-5.013 3.67-8.269 3.16-8.553 2.48-1.52 6.68-1.053 6.86-.287.89 3.841-7.54 7.32-10.02 8.84z" fill="#31AE86"/><path d="M1002.04 254.078c3.49-5.013 2.65-9.184 2.14-9.468 2.48-1.52 7.07-.766 7.24 0 .9 3.84-6.9 7.948-9.38 9.468z" fill="#4CCDA7"/><rect x="1031.62" y="221" width="10.486" height="25.467" rx="3" fill="#31AE86"/><rect x="1003.16" y="221" width="37.451" height="25.467" rx="3" fill="#4CCDA7"/><rect x="1010.53" y="237.938" width="17.33" height="2.887" rx="1" fill="#FCFFFF"/><rect x="1010.53" y="237.938" width="17.33" height="2.887" rx="1" fill="#FCFFFF"/><rect x="1010.53" y="237.938" width="17.33" height="2.887" rx="1" fill="#FCFFFF"/><rect x="1010.53" y="232.164" width="25.994" height="2.887" rx="1" fill="#FCFFFF"/><rect x="1010.53" y="232.164" width="25.994" height="2.887" rx="1" fill="#FCFFFF"/><rect x="1010.53" y="232.164" width="25.994" height="2.887" rx="1" fill="#FCFFFF"/><rect x="1010.53" y="226.39" width="25.994" height="2.887" rx="1" fill="#FCFFFF"/><rect x="1010.53" y="226.39" width="25.994" height="2.887" rx="1" fill="#FCFFFF"/><rect x="1010.53" y="226.39" width="25.994" height="2.887" rx="1" fill="#FCFFFF"/></g><path d="M370 284h32v34a2 2 0 0 1-2 2h-28a2 2 0 0 1-2-2v-34z" fill="#C3DDE1"/><path d="M351.997 250.812a2.7 2.7 0 0 0-2.702 2.697v146.484a2.701 2.701 0 0 0 2.702 2.696h210.232a2.698 2.698 0 0 0 2.698-2.696V253.508a2.696 2.696 0 0 0-2.698-2.696H351.997z" fill="#fff"/><path d="M477 359l5-7 4 4 7-9.5h4.5l3.5 4.5 4-6.5 5 9.5" stroke="#F3764B"/><path d="M399.327 354H369v1.756h30.327V354zM440 263h-71v4h71v-4zM547 263h-71v4h71v-4zM526 282h-50v4h50v-4zM526 296h-50v4h50v-4zM526 310h-50v4h50v-4zM399.327 358.246H369v1.757h30.327v-1.757zM399.327 362.492H369v1.756h30.327v-1.756zM550 378h-74v2h74v-2zM550 382h-74v2h74v-2zM550 386h-74v2h74v-2zM440.215 354h-30.327v1.756h30.327V354zM440.215 358.246h-30.327v1.757h30.327v-1.757zM440.215 362.492h-30.327v1.756h30.327v-1.756z" fill="#93C4CC"/><path d="M530.364 339.401c1.58-1.253 3.35-1.791 5.057-1.63 1.713.162 3.355 1.029 4.674 2.564.04.045.082.087.122.136 1.195 1.45 1.761 3.218 1.663 4.956-.1 1.796-.915 3.561-2.495 4.918-.041.037-.077.074-.119.109-1.496 1.233-3.382 1.734-5.2 1.554-1.81-.179-3.553-1.035-4.782-2.526-.04-.048-.07-.099-.109-.146l-3.479 2.867c.037.048.069.098.109.146a11.598 11.598 0 0 0 7.828 4.198 11.539 11.539 0 0 0 8.508-2.605c.042-.034.077-.073.119-.107 2.543-2.151 3.985-5.011 4.281-7.955.3-2.96-.555-6.004-2.596-8.481-.04-.049-.084-.089-.122-.136-2.148-2.531-4.99-3.972-7.948-4.258-2.952-.282-6.01.588-8.589 2.661l3.078 3.735z" fill="#F3764B"/><path d="M535 349a4 4 0 1 0 0-8 4 4 0 0 0 0 8z" fill="#93C4CC"/><path d="M370 284h32v34a2 2 0 0 1-2 2h-28a2 2 0 0 1-2-2v-34z" fill="#C3DDE1"/><path d="M402 290h-32v1h32v-1zM402 298h-32v1h32v-1zM402 305h-32v1h32v-1zM402 313h-32v1h32v-1z" fill="#fff"/><path d="M399 287h-26v1h26v-1zM399 294h-26v1h26v-1zM399 302h-26v1h26v-1zM399 309h-26v1h26v-1zM436 305h-24v1h24v-1zM436 310h-24v1h24v-1zM436 315h-24v1h24v-1zM399 316h-26v1h26v-1z" fill="#93C4CC"/><path d="M407 284h32v11a2 2 0 0 1-2 2h-28a2 2 0 0 1-2-2v-11z" fill="#C3DDE1"/><path d="M439 290h-32v1h32v-1z" fill="#fff"/><path d="M436 287h-26v1h26v-1zM436 294h-26v1h26v-1z" fill="#93C4CC"/><rect x="406" y="278" width="34" height="7" rx="2" fill="#93C4CC"/><path d="M436 283l-2-3h4l-2 3z" fill="#F3764B"/><path d="M433 280h-25v3h25v-3z" fill="#fff"/><rect x="369" y="278" width="34" height="7" rx="2" fill="#93C4CC"/><path d="M399 283l-2-3h4l-2 3z" fill="#F3764B"/><path d="M396 280h-25v3h25v-3z" fill="#fff"/><circle cx="408.5" cy="305.5" r="1" fill="#F3764B" stroke="#93C4CC"/><circle cx="408.5" cy="310.5" r="1" stroke="#93C4CC"/><circle cx="408.5" cy="315.5" r="1" stroke="#93C4CC"/><path d="M370 342.5h69" stroke="#F3764B"/><path d="M372.136 340h-.545v-3.612l-1.093.401v-.492l1.553-.583h.085V340zM435.136 340h-.545v-3.612l-1.093.401v-.492l1.553-.583h.085V340zm4.262-1.819c0 .634-.108 1.106-.325 1.415-.217.308-.555.463-1.016.463-.455 0-.792-.151-1.011-.452-.219-.302-.332-.753-.34-1.353v-.724c0-.627.108-1.092.325-1.397.217-.305.557-.457 1.02-.457.459 0 .797.147 1.013.442.217.293.329.746.334 1.36v.703zm-.542-.742c0-.459-.064-.793-.193-1.001-.129-.211-.333-.317-.612-.317-.278 0-.48.105-.607.314-.127.209-.192.53-.196.963v.868c0 .461.066.801.199 1.022.135.219.338.328.61.328.267 0 .465-.103.594-.31.131-.207.2-.534.205-.979v-.888zM502.234 338.861l.217-2.127h2.186v.501h-1.726l-.129 1.163c.209-.123.447-.184.712-.184.389 0 .697.129.926.387.228.255.343.602.343 1.04 0 .439-.119.786-.358 1.04-.236.252-.567.378-.993.378-.377 0-.684-.105-.923-.314-.238-.209-.374-.498-.407-.867h.513c.033.244.12.429.26.554.141.123.327.184.557.184.252 0 .449-.086.592-.258.144-.171.217-.409.217-.712 0-.285-.078-.513-.235-.685a.784.784 0 0 0-.618-.261c-.236 0-.422.052-.556.155l-.144.118-.434-.112zm5.795.32c0 .634-.108 1.106-.325 1.415-.217.308-.556.463-1.016.463-.456 0-.792-.151-1.011-.452-.219-.302-.332-.753-.34-1.353v-.724c0-.627.108-1.092.325-1.397.217-.305.557-.457 1.02-.457.459 0 .797.147 1.013.442.217.293.328.746.334 1.36v.703zm-.542-.742c0-.459-.064-.793-.193-1.001-.129-.211-.333-.317-.612-.317-.278 0-.48.105-.607.314-.127.209-.192.53-.196.963v.868c0 .461.066.801.199 1.022.135.219.338.328.61.328.267 0 .465-.103.594-.31.131-.207.199-.534.205-.979v-.888zM477.345 364.181c0 .634-.109 1.106-.325 1.415-.217.308-.556.463-1.017.463-.455 0-.792-.151-1.011-.452-.219-.302-.332-.753-.34-1.353v-.724c0-.627.109-1.092.326-1.397.216-.305.556-.457 1.019-.457.459 0 .797.147 1.014.442.217.293.328.746.334 1.36v.703zm-.542-.742c0-.459-.065-.793-.194-1.001-.129-.211-.333-.317-.612-.317-.277 0-.479.105-.606.314-.127.209-.193.53-.197.963v.868c0 .461.067.801.2 1.022.134.219.337.328.609.328.268 0 .466-.103.595-.31.131-.207.199-.534.205-.979v-.888zM540.356 287h-4.873v-.967l2.3-2.451c.316-.345.549-.646.698-.903.153-.257.23-.502.23-.733 0-.315-.08-.563-.239-.742-.16-.182-.388-.273-.684-.273-.319 0-.571.11-.757.332-.182.218-.273.506-.273.864h-1.416c0-.433.102-.828.307-1.187.209-.358.502-.638.879-.839a2.65 2.65 0 0 1 1.284-.308c.733 0 1.301.176 1.705.527.407.352.61.848.61 1.49 0 .351-.091.709-.273 1.074-.183.364-.495.789-.938 1.274l-1.616 1.704h3.056V287zm1.08-3.496l.41-3.613h3.984v1.176h-2.827l-.176 1.529a2.238 2.238 0 0 1 1.069-.269c.678 0 1.208.21 1.592.63.384.42.576 1.008.576 1.763 0 .459-.097.87-.293 1.235a2.053 2.053 0 0 1-.83.845c-.361.198-.787.298-1.279.298-.43 0-.828-.087-1.196-.259a2.164 2.164 0 0 1-.874-.737 2.014 2.014 0 0 1-.337-1.08h1.396c.03.297.132.528.308.694.179.163.412.244.698.244.319 0 .565-.114.738-.342.172-.231.258-.556.258-.976 0-.404-.099-.713-.298-.928-.198-.215-.48-.322-.844-.322-.336 0-.607.087-.816.263l-.136.127-1.123-.278zM538.911 301H537.5v-5.439l-1.685.522v-1.147l2.945-1.055h.151V301zm2.525-3.496l.41-3.613h3.984v1.176h-2.827l-.176 1.529a2.238 2.238 0 0 1 1.069-.269c.678 0 1.208.21 1.592.63.384.42.576 1.008.576 1.763 0 .459-.097.87-.293 1.235a2.053 2.053 0 0 1-.83.845c-.361.198-.787.298-1.279.298-.43 0-.828-.087-1.196-.259a2.164 2.164 0 0 1-.874-.737 2.014 2.014 0 0 1-.337-1.08h1.396c.03.297.132.528.308.694.179.163.412.244.698.244.319 0 .565-.114.738-.342.172-.231.258-.556.258-.976 0-.404-.099-.713-.298-.928-.198-.215-.48-.322-.844-.322-.336 0-.607.087-.816.263l-.136.127-1.123-.278zM540.356 315h-4.873v-.967l2.3-2.451c.316-.345.549-.646.698-.903.153-.257.23-.502.23-.733 0-.315-.08-.563-.239-.742-.16-.182-.388-.273-.684-.273-.319 0-.571.11-.757.332-.182.218-.273.506-.273.864h-1.416c0-.433.102-.828.307-1.187.209-.358.502-.638.879-.839a2.65 2.65 0 0 1 1.284-.308c.733 0 1.301.176 1.705.527.407.352.61.848.61 1.49 0 .351-.091.709-.273 1.074-.183.364-.495.789-.938 1.274l-1.616 1.704h3.056V315zm5.655-2.939c0 .983-.204 1.735-.611 2.255-.407.521-1.002.782-1.787.782-.774 0-1.367-.256-1.777-.767-.41-.511-.62-1.243-.63-2.197v-1.309c0-.993.205-1.746.615-2.261.414-.514 1.008-.771 1.783-.771.774 0 1.367.256 1.777.767.41.507.62 1.238.63 2.192v1.309zm-1.411-1.436c0-.589-.082-1.017-.245-1.284-.159-.27-.41-.405-.751-.405-.333 0-.578.128-.738.385-.156.254-.239.653-.249 1.197v1.728c0 .58.078 1.011.235 1.294.159.28.413.42.761.42.345 0 .594-.135.747-.405.153-.27.233-.684.24-1.241v-1.689zM410.702 327.886v.766h-.166c-.703.013-1.263.222-1.68.625-.416.404-.657.972-.722 1.704.374-.429.885-.644 1.533-.644.618 0 1.112.218 1.479.654.372.436.557 1 .557 1.69 0 .732-.2 1.318-.6 1.757-.398.44-.931.66-1.602.66-.68 0-1.232-.261-1.655-.782-.423-.524-.635-1.198-.635-2.021v-.347c0-1.308.278-2.308.835-2.998.56-.693 1.392-1.048 2.495-1.064h.161zm-1.186 3.203c-.31 0-.594.093-.855.278-.26.186-.441.418-.542.698v.332c0 .586.132 1.058.396 1.416.263.359.592.538.986.538.407 0 .726-.15.957-.45.234-.299.352-.691.352-1.176 0-.489-.119-.883-.357-1.182a1.124 1.124 0 0 0-.937-.454zm3.369 3.437a.57.57 0 0 1 .136-.39c.095-.104.235-.157.42-.157.186 0 .326.053.42.157a.547.547 0 0 1 .147.39c0 .15-.049.275-.147.376-.094.101-.234.152-.42.152-.185 0-.325-.051-.42-.152a.54.54 0 0 1-.136-.376zm2.939-3.09l.362-3.545h3.642v.835h-2.876l-.215 1.938a2.298 2.298 0 0 1 1.187-.308c.648 0 1.162.215 1.543.645.381.426.571 1.004.571 1.733 0 .733-.198 1.311-.596 1.734-.393.42-.945.63-1.655.63-.628 0-1.141-.174-1.538-.523-.397-.348-.623-.83-.679-1.445h.855c.055.407.2.714.434.923.235.205.544.307.928.307.42 0 .749-.143.986-.429.241-.287.362-.682.362-1.187 0-.475-.13-.856-.391-1.142-.257-.29-.6-.435-1.03-.435-.394 0-.703.086-.928.259l-.239.195-.723-.185z" fill="#93C4CC"/><path fill="#C3DDE1" d="M438 341h1v2h-1zM370 341h1v2h-1z"/><circle cx="413.5" cy="342.5" r="1.5" fill="#C3DDE1"/><path d="M413.5 341l-2.5-2h5l-2.5 2z" fill="#F3764B"/><rect x="383" y="378" width="42" height="10" rx="1" fill="#F3764B"/><path d="M419 382h-30v3h30v-3z" fill="#C3DDE1"/><path stroke="#C3DDE1" d="M476.5 360v-25M477 359.5h36"/><path d="M297.212 246.117c-9.535.454-8.135 40.043-6.243 59.781h44.268l8.135 31.215c3.027-6.243 8.438-24.934 5.865-49.755-3.216-31.026-23.837-47.484-31.593-49.187-6.206-1.362-12.171 5.739-14.378 9.459-.442-.504-2.27-1.513-6.054-1.513z" fill="#F3764B"/><path d="M304.969 297.385c-.427-5.185-1.656-15.774-3.243-17.968l-.162-.194c.054.055.109.12.162.194 3.605 4.279 11.274 12.321 14.405 11.725l.378 6.243c-1.135 2.396-5.032 5.751-11.54 0z" fill="#EBA874"/><path d="M298.348 279.034c1.513 1.816 2.648.757 3.027 0 4.389 7.567 11.792 11.982 14.945 13.243 2.838 1.324 9.08-.151 11.351-16.648 2.27-16.496-4.982-22.386-8.892-23.269-2.119 13.015-12.612 18.54-17.594 19.675l-.946-1.514c-.756-1.135-2.686-2.989-4.351-1.324-2.081 2.081.568 7.567 2.46 9.837z" fill="#FAB87E"/><mask id="a" maskUnits="userSpaceOnUse" x="295" y="252" width="34" height="41"><path d="M298.688 278.974c1.493 1.825 2.613.76 2.987 0 4.331 7.604 11.636 12.04 14.748 13.307 2.8 1.33 8.961-.152 11.201-16.729 2.24-16.576-4.916-22.494-8.774-23.381-2.091 13.078-12.446 18.629-17.362 19.77l-.934-1.521c-.746-1.141-2.65-3.004-4.293-1.331-2.054 2.091.56 7.604 2.427 9.885z" fill="#FAB87E"/></mask><g mask="url(#a)"><path d="M326.919 268.064c-2.46.084-4.544 2.05-4.544 2.665 2.12-1.908 4.501-3.275 6-1.06 0 0-.489-1.638-1.456-1.605z" fill="#2C2924"/><path d="M322.009 270.897c1.559-1.562 5.124-3.967 6.909-1.082-.858 1.967-4.964 1.541-6.909 1.082z" fill="#fff"/><mask id="b" maskUnits="userSpaceOnUse" x="321" y="268" width="9" height="4"><path d="M322.009 270.897c1.559-1.562 5.124-3.967 6.909-1.082-.858 1.967-4.964 1.541-6.909 1.082z" fill="#fff"/></mask><g mask="url(#b)"><circle cx="324.495" cy="270.56" r="2.12" fill="#647A8F"/><circle cx="324.403" cy="270.469" r="1.272" fill="#2C2924"/></g><path d="M327.986 265.28c-3.728-.252-6.403 2.045-5.642 2.957 3.117-2.092 5.026-2.037 5.591-1.748-.014-.076.221-.295.051-1.209z" fill="#514947"/><path d="M307.996 268.649c2.838-1.891 6.622-.756 7.379 1.703-1.703-1.324-6.243-2.459-8.514-.189 0 0 .568-1.135 1.135-1.514z" fill="#2C2924"/><path d="M306.752 270.124c1.813-1.475 3.515-3.556 8.722.199-2.558 1.353-6.72 2.11-8.722-.199z" fill="#fff"/><mask id="c" maskUnits="userSpaceOnUse" x="305" y="268" width="10" height="4"><path d="M305.57 270.217c3.376-1.754 5.836-3.646 8.685.143-.904 1.309-4.147 2.059-8.685-.143z" fill="#fff"/></mask><g mask="url(#c)"><circle cx="310.649" cy="269.976" r="2.27" fill="#647A8F"/><circle cx="310.835" cy="270.143" r="1.324" fill="#2C2924"/></g><path d="M314.504 266.115c-3.818-2.284-7.827 1.614-8.4 3.082 4.964-3.523 7.637-2.463 9.928-.701.381-.661.763-1.011-1.528-2.381z" fill="#514947"/></g><path d="M323.138 282.44h-10.972c-.189 1.324 3.216 4.54 6.432 4.162 3.216-.379 4.729-3.784 4.54-4.162z" fill="#F5B47B"/><path d="M321.995 283.354l-8.702-.158c.335.472 1.484 2.129 3.347 2.518 3.012.63 4.853-1.154 5.355-2.36z" fill="#fff"/><path d="M210 535.66c36.052-7.211 120.729-17.307 171.019 0-43.536 15.991-135.097 9.595-171.019 0z" fill="#D1D3D3"/><path d="M283.53 380.056c-1.456 1.794-6.13 2.484-7.506 2.271l.952 10.349-1.128 9.159c-.587 4.766.211 9.634 2.61 13.794 1.735 3.01 3.377 5.505 3.756 4.99.872-2.043.178-3.92-.278-4.604l1.594-.096a.266.266 0 0 0 .142-.058c1.79-1.389-1.048-5.24-2.009-7.293-.78-1.667-.577-2.499-.484-4.338l.021-.434c.079-.656.446-1.449 1.283.634.73 2.868 1.047 6.977 2.197 6.977.988-1.304.475-.703.236-4.676-.139-2.302-1.878-7.844-3.031-12.218-.757-5.5 1.218-11.706 1.645-14.457zM367.398 352.436c-3.329-1.211-5.17-5.108-4.729-7.189 7-1.892 17.293-5.403 18.806-7.068.757-2.838 14.3-8.255 15.814-9.012 1.513-.757 1.765 0 1.702.189-.189.568-1.513 1.135-2.081 1.514-.537.358-1.891 1.324-4.084 2.769-.126.126-.302.491 0 .946 1.968 0 1.436 1.392.946 2.081-.183.257-.645.945-.456 1.513.151 1.211 1.087 1.582.456 1.771.379.378 0 .568-1.402 1.513-.757.379-1.183.941-1.246 1.067-3.935 3.481-7.315 1.955-8.513.757-6.054 3.09-12.791 8.241-15.213 9.149z" fill="#FCBA80"/><path d="M390.874 336.806c.595-.109 1.495-.14 2.285-.138.655.001 1.172.659 1.15 1.313-.028.803-.052 1.68-.481 2.235-.35.452-3.256.317-4.569.467-.172.019-1.334-.678-.498-1.561-1.284.165-1.293-.91-.863-1.387.093-.104.226-.159.358-.205.61-.209 1.742-.563 2.618-.724z" fill="#FFBF87"/><path d="M383.1 335.788c-2.307 1.291-1.776 4.112-1.484 5.16.319.666.542 2.18 2.31 2.767 2.447-2.192 1.156-5.342 3.368-6.565.335-.185.722-.251 1.104-.283 2.989-.251 4.357-.053 4.279-.852-.065-.656-1.239-.935-2.658-1.016-2.33-.133-4.814-.218-6.919.789z" fill="#FFBF87"/><path d="M290.023 336.734c-.151 9.081 2.081 28.882 3.216 37.647 16.497 6.054 31.215 1.766 36.512-1.135l3.027-36.323c1.135 5.613 3.821 18.162 5.486 23.459 2.724 4.389 7.189 3.468 9.081 2.459 6.684-3.531 20.431-10.783 21.945-11.54-1.514-3.935-3.784-5.928-4.73-6.432l-16.648 5.486-8.135-42.944c-.945-3.973-5.297-5.108-9.648-5.297-2.873-.125-8.324-2.207-10.405-2.838l-3.216-1.702c-.378.378-1.665 1.438-3.783 2.648-2.119 1.211-8.45.126-11.351-.567-.505-.126-2.46 0-6.243 1.513-4.73 1.892-9.081 2.081-10.783 3.405-2.838 1.892-5.297 22.135-8.135 36.512-3.33 11.351-3.405 19.486-3.027 22.134l3.027 21.189c3.935-.606 6.432-1.766 7.189-2.271 0-1.954.189-9.459.946-23.836 2.875-13.47 4.981-19.99 5.675-21.567z" fill="#627D71"/><path d="M301.475 298.069c.633-.791 1.323-1.236 1.946-1.465.962-.354 1.906.256 2.669.941 4.937 4.427 8.555 1.809 10.164-.699.277-.432.812-.653 1.288-.461 2.815 1.132 3.176 1.868 3.696 3.081.441 2.35-1.4 5.841-3.042 6.576-.811.362-1.271-.66-1.334-1.546-.265-3.737-2.122-4.562-3.229-4.48.617.3 1.204 4.955-.126 7.017-.39.605-1.167.748-1.884.688-6.834-.571-9.115-3.584-10.426-6.72-.405-.97-.379-2.11.278-2.932z" fill="#fff"/><path d="M272.808 513.996c-4.389-.454-7.126-2.459-7.946-3.405 3.027-6.243 7.378-23.648 8.324-28.566 5.297-27.999 10.405-28.945 12.865-34.431-2.422-53.122 3.657-71.7 6.999-74.348 17.405 5.6 31.846 1.703 36.89-.946 2.081 5.486 9.081 23.269 7.946 43.89-1.135 20.621-5.297 38.593-6.811 42.187-1.513 3.595-5.675 55.052-6.053 58.457-3.33 1.211-6.937-.252-8.324-1.135-3.216-35.566-3.216-28.188-3.784-32.918-1.992-16.597 2.27-26.107 4.351-28.755l-4.351-42.187c-2.901 11.918-8.816 36.436-9.27 39.16-.567 3.405-10.972 25.918-17.026 34.053-4.843 6.507-11.225 22.008-13.81 28.944z" fill="#BB7C74"/><path d="M325.022 516.266c-2.119.454-6.432-1.072-8.324-1.891v8.891l6.81 4.919c2.712 2.837 9.005 8.475 12.486 8.324 4.351-.19 6.621-.568 6.621-1.892 0-1.06-.126-1.577-.189-1.703-.441-.189-2.156-.984-5.486-2.648-2.573-2.422-9.018-6.811-11.918-8.703v-5.297zM273.376 512.483c-1.968.454-6.243-1.829-8.135-3.027l-5.865 15.134c.82 2.271 3.254 6.773 6.433 6.622 3.178-.152 5.044-2.712 5.486-3.973 0-1.703-.189-5.411-.189-6.621-.152-1.363 1.45-5.991 2.27-8.135z" fill="#FCBA80"/><path d="M314.806 528.563c-1.211-3.027 1.009-5.423 2.27-6.243 3.216 0 6.18 3.153 7.946 4.73.887 1.034 2.374 3.501 5.22 5.758 1.704 1.351 3.785 2.137 5.925 2.521 4.49.804 5.251-.114 5.881-.901.567-1.514-2.901-2.838-4.162-3.595-.946-.567-.757-.567-.568-.567 10.784 4.54 10.808 3.784 11.54 3.972 1.312.338 1.703.379 1.325 1.325-2.46 2.648-4.541 3.027-6.432 3.783-6.811.757-9.838-.378-11.162-1.324-1.324-.946-10.405-6.054-12.108-7-.946-.567-.946 1.135-.946 2.46v5.486h-1.891c0-7.378-1.325-6.621-2.838-10.405zM258.43 526.293c.189-3.595 3.027-8.639 4.919-12.108-1.4 4.201-2.158 6.86-2.548 8.576-.548 2.418.406 5.082 2.402 6.553 3.486 2.569 6.715-.313 8.091-2.454.19 1.514-4.351 13.054-8.513 10.784-3.329-1.816-4.288-8.324-4.351-11.351z" fill="#CA494D"/><path d="M319.932 273.92c-.458-2.343-.785-3.405-1.073-3.634l.352 10.417.041-.006c.964-.153 1.733-.734 1.714-1.298 0 0-.407-2.269-1.034-5.479z" fill="#FAB87E"/><path d="M318.02 274.211c.268-2.476.574-3.602.839-3.925l.407 10.41-.042.008c-.963.17-1.767-.15-1.793-.714 0 0 .224-2.387.589-5.779z" fill="#F5B47B"/></g><defs><linearGradient id="paint0_linear" x1="958.705" y1="346.021" x2="918.929" y2="374.346" gradientUnits="userSpaceOnUse"><stop stop-color="#EAF1FF" stop-opacity="0"/><stop offset=".946" stop-color="#EAF1FF" stop-opacity=".69"/></linearGradient><linearGradient id="paint1_linear" x1="989.495" y1="290.672" x2="991.322" y2="296.825" gradientUnits="userSpaceOnUse"><stop stop-color="#EB9973"/><stop offset=".998" stop-color="#EB9973" stop-opacity="0"/></linearGradient><linearGradient id="paint2_linear" x1="989.945" y1="288.09" x2="989.709" y2="292.58" gradientUnits="userSpaceOnUse"><stop stop-color="#514947"/><stop offset="1" stop-color="#3F3B3B"/></linearGradient><linearGradient id="paint3_linear" x1="1002" y1="287.251" x2="1003.7" y2="291.292" gradientUnits="userSpaceOnUse"><stop stop-color="#514947"/><stop offset="1" stop-color="#3F3B3B"/></linearGradient><linearGradient id="paint4_linear" x1="1010.28" y1="268.185" x2="983.935" y2="285.314" gradientUnits="userSpaceOnUse"><stop offset=".661" stop-color="#3F3B3B"/><stop offset="1" stop-color="#514947"/></linearGradient><clipPath id="clip0"><path fill="#fff" d="M0 0h1300v625.881H0z"/></clipPath></defs></svg>