<svg width="350" height="37" viewBox="0 0 350 37" fill="none" xmlns="http://www.w3.org/2000/svg">
<path d="M173.152 33.7918C173.152 35.4672 171.81 36.8253 170.155 36.8253H125.459C123.804 36.8253 122.463 35.4671 122.463 33.7918V4.47001C122.463 2.79467 123.804 1.43665 125.459 1.43665H170.155C171.81 1.43665 173.152 2.79477 173.152 4.47001V33.7918Z" fill="#1F424C"/>
<path opacity="0.15" d="M124.593 33.7918V4.47001C124.593 2.79467 125.935 1.43665 127.59 1.43665H125.459C123.804 1.43665 122.463 2.79467 122.463 4.47001V33.7918C122.463 35.4672 123.804 36.8253 125.459 36.8253H127.59C125.935 36.8253 124.593 35.4671 124.593 33.7918Z" fill="#202121"/>
<path d="M155.375 8.35364C154.265 7.06826 152.202 6.42603 149.346 6.42603H141.411C140.935 6.42603 140.459 6.9083 140.301 7.38948L137.127 28.4332C137.127 28.9158 137.444 29.2364 137.761 29.2364H142.68L143.95 21.3654V21.6868C144.109 21.2044 144.584 20.7231 145.061 20.7231H147.441C152.043 20.7231 155.533 18.7955 156.644 13.4937V13.0119C156.485 13.0119 156.485 13.0119 156.644 13.0119C156.803 10.9241 156.485 9.63871 155.375 8.35364Z" fill="#263B80"/>
<path d="M156.643 13.4941V13.0123C156.644 12.9964 156.645 12.9815 156.646 12.9657C156.364 12.7672 156.1 12.6287 155.898 12.5389C154.934 12.1359 153.949 12.0599 153.494 12.0484L153.492 12.0464H151.178L151.181 12.0483H146.327C145.501 12.0787 145.274 12.7522 145.214 13.0453L143.949 21.3654V21.5629V21.6866C144.108 21.2043 144.584 20.7231 145.06 20.7231H147.441C152.042 20.7231 155.532 18.7955 156.643 13.4941Z" fill="#263B80" fill-opacity="0.62"/>
<path d="M158.202 15.003C157.844 14.0015 157.209 13.3616 156.646 12.9653C156.645 12.9812 156.645 12.996 156.644 13.0119V13.4938C155.533 18.7953 152.042 20.723 147.441 20.723H145.06C144.584 20.723 144.108 21.2041 143.949 21.6866V21.5627C143.931 21.6038 143.915 21.6452 143.901 21.6866L143.004 27.2235L142.68 29.2362H142.679L142.314 31.4853C142.314 31.8064 142.473 32.127 142.949 32.127H146.904C147.7 32.127 147.95 31.5003 148.027 31.1627L148.06 30.9529V30.9528L148.82 26.1839C148.82 26.1839 148.919 25.0595 150.002 25.0595H150.407C154.374 25.0595 157.548 23.4535 158.341 18.6346C158.562 17.2912 158.551 16.0271 158.202 15.003Z" fill="#139AD6"/>
<path d="M50.6886 33.7918C50.6886 35.4672 49.3471 36.8253 47.6923 36.8253H2.99627C1.34147 36.8253 0 35.4671 0 33.7918V4.47001C0 2.79467 1.34147 1.43665 2.99627 1.43665H47.6923C49.3472 1.43665 50.6886 2.79477 50.6886 4.47001V33.7918Z" fill="#1F424C"/>
<path opacity="0.15" d="M2.1302 33.7918V4.47001C2.1302 2.79467 3.47186 1.43665 5.12666 1.43665H2.99616C1.34146 1.43665 0 2.79467 0 4.47001V33.7918C0 35.4672 1.34146 36.8253 2.99626 36.8253H5.12675C3.47196 36.8253 2.1302 35.4671 2.1302 33.7918Z" fill="#202121"/>
<path d="M24.7139 20.5374H25.3603V22.0234H25.8273L26.6653 20.5374H27.372L26.366 22.2815V22.2937L27.4319 24.197H26.7014L25.8391 22.6002H25.3725V24.197H24.7257V20.537H24.7139V20.5374ZM28.8807 21.5077C29.6584 21.5077 30.2931 22.0849 30.2931 22.8831C30.2931 23.6939 29.6706 24.2588 28.8925 24.2588C28.114 24.2588 27.4915 23.6939 27.4915 22.8831C27.4795 22.0727 28.102 21.5077 28.8807 21.5077ZM30.796 21.5688H31.4068V23.6324H32.2091V21.5692H32.8192V23.6324H33.6215V21.5692H34.2323V24.197H30.8199V21.5688H30.796ZM36.0406 21.5077C36.7706 21.5077 37.1778 22.0605 37.1778 22.7483C37.1757 22.8347 37.1678 22.9208 37.154 23.006H35.3938C35.4299 23.4602 35.777 23.7061 36.1604 23.7061C36.4234 23.7061 36.687 23.5832 36.8904 23.4236L37.142 23.8905C36.8786 24.1233 36.4833 24.271 36.1123 24.271C35.2621 24.271 34.7354 23.6446 34.7354 22.8953C34.7354 22.0727 35.2739 21.5077 36.0406 21.5077ZM37.4769 23.6446C37.7884 23.5954 38.0159 23.3255 38.0159 22.3918V21.5692H39.8839V24.197H39.2491V22.0967H38.6266V22.3914C38.6266 23.5335 38.3273 24.197 37.4769 24.2214V23.6442V23.6446ZM41.7036 21.5077C42.4338 21.5077 42.8409 22.0605 42.8409 22.7483C42.8389 22.8347 42.831 22.9208 42.817 23.006H41.0568C41.0929 23.4602 41.4403 23.7061 41.8235 23.7061C42.0867 23.7061 42.35 23.5832 42.5537 23.4236L42.8052 23.8905C42.5416 24.1233 42.1466 24.271 41.7756 24.271C40.9255 24.271 40.3986 23.6446 40.3986 22.8953C40.3986 22.0727 40.9374 21.5077 41.7036 21.5077ZM43.3678 21.5688H44.0024V22.5762H44.3139L44.9364 21.5692H45.6428L44.8286 22.8216V22.8342L45.7384 24.197H44.9964L44.3257 23.1289H43.9908V24.197H43.3556V21.5688H43.3674H43.3678ZM28.8807 23.6939C29.2996 23.6939 29.6467 23.3621 29.6467 22.8709C29.6467 22.3918 29.2996 22.0479 28.8803 22.0479C28.4616 22.0479 28.1262 22.38 28.1262 22.8709C28.1262 23.3621 28.4612 23.6939 28.8807 23.6939ZM36.5314 22.5517C36.5314 22.2078 36.3035 21.999 36.0163 21.999C35.6932 21.999 35.4537 22.22 35.3938 22.5517H36.5314ZM42.1945 22.5517C42.1945 22.2078 41.9672 21.999 41.6798 21.999C41.3561 21.999 41.1168 22.22 41.0568 22.5517H42.1945Z" fill="#5D647F"/>
<path d="M33.3491 11.4499V17.7883C33.3495 17.8115 33.3454 17.8345 33.3367 17.8561C33.3281 17.8776 33.3154 17.8972 33.2989 17.9136C33.2827 17.93 33.2631 17.9429 33.2417 17.9515C33.2204 17.9602 33.1973 17.9644 33.1743 17.9638H31.8879C31.8649 17.9644 31.8418 17.9602 31.8205 17.9515C31.7991 17.9429 31.7795 17.93 31.7633 17.9136C31.7468 17.8972 31.7341 17.8776 31.7255 17.8561C31.7168 17.8345 31.7127 17.8115 31.7133 17.7883V11.4499C31.7127 11.4267 31.7168 11.4036 31.7255 11.3821C31.7341 11.3605 31.7468 11.341 31.7633 11.3246C31.7795 11.3082 31.7991 11.2953 31.8205 11.2866C31.8418 11.278 31.8649 11.2738 31.8879 11.2743H33.1743C33.1973 11.2738 33.2204 11.278 33.2417 11.2866C33.2631 11.2953 33.2827 11.3082 33.2989 11.3246C33.3154 11.341 33.3281 11.3605 33.3367 11.3821C33.3454 11.4036 33.3495 11.4267 33.3491 11.4499ZM43.39 11.2743C43.4402 11.2743 43.5027 11.2993 43.5648 11.3497C43.6024 11.3871 43.6024 11.4499 43.5901 11.5002L41.4668 17.8511C41.4538 17.884 41.4316 17.9122 41.4026 17.9324C41.3738 17.9525 41.3397 17.9636 41.3045 17.9642H40.1555C40.0807 17.9642 40.0181 17.9264 39.9933 17.8511L38.7562 14.1486L37.5198 17.8507C37.507 17.8836 37.4846 17.9118 37.4558 17.932C37.4268 17.9521 37.3927 17.9632 37.3575 17.9638H36.2085C36.1337 17.9638 36.0711 17.9264 36.0463 17.8507L33.923 11.4998C33.9106 11.4499 33.9106 11.3996 33.9479 11.3497C33.9731 11.2993 34.0357 11.2743 34.0854 11.2743H35.5215C35.5966 11.2743 35.6589 11.3243 35.6842 11.3996L36.8204 15.1524L38.0694 11.3996C38.0824 11.3667 38.1046 11.3384 38.1336 11.3183C38.1624 11.2982 38.1965 11.2871 38.2317 11.2865H39.2433C39.3182 11.2865 39.3807 11.3243 39.4056 11.3996L40.6548 15.1524L41.7912 11.3996C41.8013 11.364 41.8227 11.3327 41.8519 11.3102C41.8811 11.2876 41.9167 11.2751 41.9535 11.2743H43.39ZM45.563 11.2743C45.6504 11.2743 45.7253 11.3497 45.7378 11.4499V17.7883C45.7382 17.8115 45.7341 17.8345 45.7255 17.8561C45.7169 17.8776 45.7041 17.8972 45.6877 17.9136C45.6714 17.93 45.6519 17.9429 45.6305 17.9515C45.6091 17.9602 45.5861 17.9644 45.563 17.9638H44.2766C44.2536 17.9644 44.2306 17.9602 44.2092 17.9515C44.1878 17.9429 44.1683 17.93 44.152 17.9136C44.1356 17.8972 44.1228 17.8776 44.1142 17.8561C44.1056 17.8345 44.1015 17.8115 44.1021 17.7883V11.4499C44.1015 11.4267 44.1056 11.4036 44.1142 11.3821C44.1228 11.3605 44.1356 11.341 44.152 11.3246C44.1683 11.3082 44.1878 11.2953 44.2092 11.2866C44.2306 11.278 44.2536 11.2738 44.2766 11.2743H45.563ZM30.9636 17.7384C31.0387 17.8261 30.9762 17.9513 30.8635 17.9513H29.2898C29.259 17.9522 29.2281 17.9458 29.2 17.9328C29.1718 17.9197 29.1471 17.9003 29.1276 17.876L28.8656 17.5499C28.316 17.901 27.6662 18.1148 26.9796 18.1148C25.0566 18.1148 23.4953 16.5458 23.4953 14.6129C23.4953 12.6799 25.0566 11.1109 26.9796 11.1109C28.9028 11.1109 30.4641 12.6799 30.4641 14.6129C30.4641 15.3033 30.2643 15.956 29.9145 16.508L30.9636 17.738V17.7384ZM17.8126 20.8131C18.1374 20.9387 18.2624 21.4279 18.2873 21.6413C18.3374 22.0307 18.2252 22.1812 18.1002 22.1812C17.9752 22.1812 17.8001 22.0307 17.613 21.7295C17.4256 21.4279 17.3506 21.0893 17.4508 20.9134C17.5129 20.8003 17.6503 20.7503 17.813 20.8131H17.8126ZM15.9144 22.2315C16.1143 22.2315 16.3391 22.3193 16.539 22.4949C16.926 22.8214 17.0385 23.1978 16.8387 23.474C16.7261 23.6121 16.539 23.6999 16.3266 23.6999C16.1143 23.6999 15.8896 23.6246 15.7397 23.4865C15.39 23.1853 15.2902 22.6829 15.5146 22.4071C15.6023 22.294 15.7397 22.2315 15.9144 22.2315ZM11.5436 25.8587C6.79753 25.8587 2.95117 21.9928 2.95117 17.2234C2.95117 12.454 6.79792 8.5885 11.5433 8.5885C16.289 8.5885 20.1357 12.4544 20.1357 17.2234C20.1357 18.8423 19.6862 20.3614 18.9247 21.6542C18.8994 21.6916 18.8369 21.6792 18.8245 21.6288C18.5248 19.5079 17.2385 18.3403 15.3652 17.9892C15.2025 17.9638 15.1777 17.8636 15.39 17.8386C15.9645 17.7883 16.7761 17.8008 17.2008 17.876C17.2256 17.6627 17.2385 17.4368 17.2385 17.2109C17.2385 14.0605 14.6905 11.4998 11.5557 11.4998C8.42124 11.4998 5.8733 14.0605 5.8733 17.2109C5.8733 20.3614 8.42124 22.922 11.5561 22.922H11.8181C11.7291 22.4124 11.6914 21.8952 11.7055 21.378C11.7183 21.0265 11.7933 20.9762 11.9431 21.2524C12.7299 22.6205 13.854 23.8505 16.0518 24.3401C17.8502 24.7419 19.6486 25.2061 21.5844 27.6785C21.7591 27.8919 21.497 28.1178 21.2971 27.9423C19.3241 26.1848 17.5257 25.6075 15.8896 25.6075C14.0535 25.6204 12.8048 25.8587 11.5433 25.8587H11.5436ZM27.8412 16.3324L27.1542 15.4914C27.0797 15.4036 27.1423 15.2655 27.2543 15.2655H28.703C28.778 15.0646 28.8156 14.8387 28.8156 14.6129C28.8156 13.5713 28.0413 12.6674 26.9796 12.6674C25.9184 12.6674 25.1436 13.5713 25.1436 14.6129C25.1436 15.6544 25.9184 16.5458 26.9796 16.5458C27.2792 16.5583 27.5792 16.4705 27.8412 16.3324Z" fill="#FF8C00"/>
<path d="M230.276 33.3698C230.276 35.0452 228.934 36.4033 227.279 36.4033H182.583C180.928 36.4033 179.587 35.0451 179.587 33.3698V4.04801C179.587 2.37268 180.928 1.01465 182.583 1.01465H227.279C228.934 1.01465 230.276 2.37278 230.276 4.04801V33.3698Z" fill="#1F424C"/>
<path opacity="0.15" d="M181.717 33.3698V4.04801C181.717 2.37268 183.059 1.01465 184.714 1.01465H182.583C180.928 1.01465 179.587 2.37268 179.587 4.04801V33.3698C179.587 35.0452 180.928 36.4033 182.583 36.4033H184.714C183.059 36.4033 181.717 35.0451 181.717 33.3698Z" fill="#202121"/>
<g clip-path="url(#clip0)">
<rect width="44.2005" height="32.0352" transform="translate(184.327 2.75256)" fill="#1F424C"/>
<path d="M225.074 2.75256H187.78C185.876 2.75256 184.327 4.30507 184.327 6.21316V31.1294C184.327 33.0375 185.876 34.59 187.78 34.59H225.074C226.979 34.59 228.528 33.0375 228.528 31.1294V6.21316C228.528 4.30507 226.979 2.75256 225.074 2.75256Z" fill="#1F424C"/>
<path d="M199.521 16.595H191.234C190.471 16.595 189.853 15.9753 189.853 15.2107V9.67379C189.853 8.90925 190.471 8.28955 191.234 8.28955H199.521C200.284 8.28955 200.903 8.90925 200.903 9.67379V15.2107C200.903 15.9753 200.284 16.595 199.521 16.595Z" fill="#FFD100"/>
<path d="M194.687 25.5923H191.234C190.471 25.5923 189.853 24.9726 189.853 24.2081V23.5159C189.853 22.7514 190.471 22.1317 191.234 22.1317H194.687C195.45 22.1317 196.068 22.7514 196.068 23.5159V24.2081C196.068 24.9726 195.45 25.5923 194.687 25.5923Z" fill="#B8BAC0"/>
<path d="M203.665 25.5923H200.211C199.448 25.5923 198.83 24.9726 198.83 24.2081V23.5159C198.83 22.7514 199.448 22.1317 200.211 22.1317H203.665C204.427 22.1317 205.046 22.7514 205.046 23.5159V24.2081C205.046 24.9726 204.427 25.5923 203.665 25.5923Z" fill="#B8BAC0"/>
<path d="M212.643 25.5923H209.19C208.427 25.5923 207.809 24.9726 207.809 24.2081V23.5159C207.809 22.7514 208.427 22.1317 209.19 22.1317H212.643C213.406 22.1317 214.024 22.7514 214.024 23.5159V24.2081C214.024 24.9726 213.406 25.5923 212.643 25.5923Z" fill="#B8BAC0"/>
<path d="M221.622 25.5923H218.168C217.405 25.5923 216.787 24.9726 216.787 24.2081V23.5159C216.787 22.7514 217.405 22.1317 218.168 22.1317H221.622C222.384 22.1317 223.003 22.7514 223.003 23.5159V24.2081C223.003 24.9726 222.384 25.5923 221.622 25.5923Z" fill="#B8BAC0"/>
<path d="M204.356 29.7452H190.543C190.161 29.7452 189.853 29.4353 189.853 29.0531C189.853 28.6709 190.161 28.361 190.543 28.361H204.356C204.738 28.361 205.046 28.6709 205.046 29.0531C205.046 29.4353 204.738 29.7452 204.356 29.7452Z" fill="#8A8895"/>
<path d="M213.334 29.7452H207.118C206.737 29.7452 206.428 29.4353 206.428 29.0531C206.428 28.6709 206.737 28.361 207.118 28.361H213.334C213.716 28.361 214.025 28.6709 214.025 29.0531C214.025 29.4353 213.716 29.7452 213.334 29.7452Z" fill="#8A8895"/>
<path d="M216.097 15.2109C215.338 16.0604 214.235 16.595 213.008 16.595C210.719 16.595 208.864 14.7358 208.864 12.4423C208.864 10.1487 210.719 8.28955 213.008 8.28955C214.235 8.28955 215.337 8.82395 216.096 9.67319" fill="#FF4F19"/>
<path d="M200.902 13.8265C200.902 13.4443 200.592 13.1344 200.21 13.1344H194.688C194.305 13.1344 193.996 12.8245 193.996 12.4423V12.4423C193.996 12.06 194.305 11.7501 194.688 11.7501H200.21C200.592 11.7501 200.902 11.4403 200.902 11.058V11.058C200.902 10.6758 200.592 10.3659 200.21 10.3659H195.034C194.46 10.3659 193.996 9.9011 193.996 9.32773V8.98018C193.996 8.59876 193.686 8.28955 193.305 8.28955V8.28955C192.923 8.28955 192.614 8.59876 192.614 8.98018V15.9043C192.614 16.2858 192.923 16.595 193.305 16.595V16.595C193.686 16.595 193.996 16.2858 193.996 15.9043V15.5568C193.996 14.9834 194.46 14.5186 195.034 14.5186H200.21C200.592 14.5186 200.902 14.2087 200.902 13.8265V13.8265Z" fill="#FF9500"/>
<path d="M218.859 16.595C221.147 16.595 223.002 14.7357 223.002 12.4423C223.002 10.1488 221.147 8.28955 218.859 8.28955C216.57 8.28955 214.715 10.1488 214.715 12.4423C214.715 14.7357 216.57 16.595 218.859 16.595Z" fill="#FFD100"/>
</g>
<path d="M287.704 32.2554C287.704 33.9256 286.367 35.2796 284.717 35.2796H240.159C238.509 35.2797 237.172 33.9256 237.172 32.2554V3.02402C237.172 1.35384 238.509 0 240.159 0H284.717C286.367 0 287.704 1.35394 287.704 3.02402V32.2554Z" fill="#204956"/>
<path d="M248.387 17.8428L247.201 12.0807C246.998 11.2861 246.408 11.0497 245.67 11.0184H240.23L240.182 11.2817C244.419 12.3215 247.222 14.8299 248.387 17.8428Z" fill="#F79F1A"/>
<path d="M261.241 12.1494H257.726L255.531 25.1907H259.04L261.241 12.1494Z" fill="#059BBF"/>
<path d="M250.779 25.1777L256.307 12.1577H252.587L249.148 21.0532L248.781 19.7101C248.107 18.0943 246.181 15.7687 243.919 14.3047L247.062 25.1821L250.779 25.1777Z" fill="#059BBF"/>
<path d="M271.266 20.9273C271.279 19.4466 270.34 18.3172 268.317 17.3843C267.087 16.7818 266.337 16.38 266.346 15.7686C266.346 15.2285 266.981 14.6482 268.356 14.6482C269.507 14.6303 270.336 14.8847 270.984 15.1481L271.302 15.2955L271.778 12.4701C271.081 12.2066 269.992 11.9254 268.63 11.9254C265.16 11.9254 262.718 13.6931 262.696 16.2284C262.673 18.1031 264.442 19.1476 265.773 19.7724C267.14 20.4093 267.598 20.8169 267.589 21.3882C267.581 22.2618 266.5 22.6602 265.491 22.6602C264.084 22.6602 263.339 22.4638 262.184 21.9764L261.734 21.7676L261.241 24.6901C262.061 25.0528 263.577 25.3697 265.151 25.3829C268.841 25.3829 271.24 23.6377 271.266 20.9273Z" fill="#059BBF"/>
<path d="M275.441 23.236C275.842 23.236 279.427 23.2405 279.938 23.2405C280.044 23.6946 280.366 25.1953 280.366 25.1953H283.624L280.78 12.1627H278.069C277.227 12.1627 276.601 12.3948 276.23 13.2427L271.015 25.1953H274.705C274.705 25.1953 275.304 23.5888 275.441 23.236ZM277.848 16.9204C277.831 16.9561 278.139 16.1662 278.316 15.6752L278.554 16.7998C278.554 16.7998 279.224 19.9154 279.365 20.567H276.451C276.742 19.8173 277.848 16.9204 277.848 16.9204Z" fill="#059BBF"/>
<path d="M284.966 1.01465H240.408C238.758 1.01465 237.421 2.36842 237.421 4.0385V7.17685H287.953V4.0385C287.953 2.36842 286.616 1.01465 284.966 1.01465Z" fill="#1F424C"/>
<path d="M284.716 35.2796H240.158C238.508 35.2796 237.171 33.9257 237.171 32.2556V29.1171H287.703V32.2556C287.703 33.9257 286.366 35.2796 284.716 35.2796Z" fill="#1F424C"/>
<path opacity="0.15" d="M239.296 32.2554V3.02401C239.296 1.35384 240.633 0 242.283 0H240.159C238.509 0 237.172 1.35384 237.172 3.02401V32.2555C237.172 33.9256 238.509 35.2796 240.159 35.2796H242.283C240.633 35.2796 239.296 33.9255 239.296 32.2554Z" fill="#202121"/>
<path d="M111.92 33.7918C111.92 35.4672 110.579 36.8253 108.924 36.8253H64.2277C62.5729 36.8253 61.2314 35.4671 61.2314 33.7918V4.47001C61.2314 2.79467 62.5729 1.43665 64.2277 1.43665H108.924C110.579 1.43665 111.92 2.79477 111.92 4.47001V33.7918Z" fill="#1F424C"/>
<path opacity="0.15" d="M63.3617 33.7918V4.47001C63.3617 2.79467 64.7033 1.43665 66.3581 1.43665H64.2276C62.5729 1.43665 61.2314 2.79467 61.2314 4.47001V33.7918C61.2314 35.4672 62.5729 36.8253 64.2277 36.8253H66.3582C64.7034 36.8253 63.3617 35.4671 63.3617 33.7918Z" fill="#202121"/>
<path fill-rule="evenodd" clip-rule="evenodd" d="M87.2463 4.51538C88.8796 4.51538 90.4263 4.89961 91.8047 5.58437C92.0208 5.68824 92.2369 5.8022 92.4531 5.92826L91.496 6.79655L90.0568 5.28989L87.6287 7.48333L86.1866 5.88893L81.6631 10.0186L84.5633 13.2538L83.4229 14.2694L86.2793 17.5106L85.1469 18.5231L89.2282 23.1238L91.6513 20.8648L93.7468 23.2851C93.3305 23.6129 92.8763 23.9225 92.3764 24.2079C90.8616 25.0822 89.1107 25.5825 87.2473 25.5825C81.5167 25.5825 76.8438 20.8507 76.8438 15.0489C76.8438 9.24715 81.5167 4.51538 87.2463 4.51538Z" fill="#1A5EAB"/>
<path fill-rule="evenodd" clip-rule="evenodd" d="M85.3516 14.3833L87.8245 12.1274L90.0524 14.6324L87.5785 16.8883L85.3516 14.3833Z" fill="#1A5EAB"/>
<path fill-rule="evenodd" clip-rule="evenodd" d="M87.1113 18.7117L89.5842 16.4567L91.8121 18.9618L89.3382 21.2168L87.1113 18.7117Z" fill="#1A5EAB"/>
<path fill-rule="evenodd" clip-rule="evenodd" d="M83.5811 10.1053L86.055 7.85046L88.2819 10.3554L85.808 12.6103L83.5811 10.1053Z" fill="#1A5EAB"/>
<path fill-rule="evenodd" clip-rule="evenodd" d="M88.1201 8.89214L89.9756 7.19995L91.6457 9.07972L89.7913 10.7709L88.1201 8.89214Z" fill="#1A5EAB"/>
<path fill-rule="evenodd" clip-rule="evenodd" d="M91.417 16.6396L93.2724 14.9485L94.9426 16.8282L93.0872 18.5184L91.417 16.6396Z" fill="#1A5EAB"/>
<path fill-rule="evenodd" clip-rule="evenodd" d="M93.0479 20.4345L94.9033 18.7423L96.5735 20.621L94.718 22.3122L93.0479 20.4345Z" fill="#1A5EAB"/>
<path fill-rule="evenodd" clip-rule="evenodd" d="M93.7959 11.7371L95.0328 10.6088L96.1463 11.8611L94.9093 12.9894L93.7959 11.7371Z" fill="#1A5EAB"/>
<path fill-rule="evenodd" clip-rule="evenodd" d="M92.2158 8.01583L93.4528 6.88806L94.5663 8.14092L93.3293 9.26869L92.2158 8.01583Z" fill="#1A5EAB"/>
<path fill-rule="evenodd" clip-rule="evenodd" d="M95.3779 15.4584L96.6149 14.3309L97.7284 15.5824L96.4924 16.7108L95.3779 15.4584Z" fill="#1A5EAB"/>
<path fill-rule="evenodd" clip-rule="evenodd" d="M89.8311 12.6699L91.6855 10.9778L93.3567 12.8565L91.5012 14.5476L89.8311 12.6699Z" fill="#1A5EAB"/>
<path fill-rule="evenodd" clip-rule="evenodd" d="M86.3774 28.0584L86.3426 28.0817L86.3079 28.0584C86.0555 27.8256 85.7796 27.733 85.4358 27.733C84.6434 27.733 84.127 28.2912 84.127 29.1629C84.127 29.1629 84.127 33.1497 84.127 33.2428C84.2077 33.2428 84.8386 33.2428 84.9194 33.2428C84.9194 33.1497 84.9194 29.1629 84.9194 29.1629C84.9194 28.5814 85.3097 28.5354 85.4358 28.5354C85.5278 28.5354 85.6658 28.5587 85.7802 28.6518C85.8951 28.7677 85.9523 28.9306 85.9523 29.1629C85.9523 29.1629 85.9523 33.1497 85.9523 33.2428C86.0331 33.2428 86.664 33.2428 86.7447 33.2428C86.7447 33.1497 86.7447 29.1629 86.7447 29.1629C86.7447 28.5814 87.135 28.5354 87.2612 28.5354C87.3532 28.5354 87.4912 28.5587 87.6055 28.6518C87.7205 28.7677 87.7777 28.9306 87.7777 29.1629C87.7777 29.1629 87.7777 33.1497 87.7777 33.2428C87.8585 33.2428 88.4893 33.2428 88.5701 33.2428C88.5701 33.1497 88.5701 29.1629 88.5701 29.1629C88.5701 28.7097 88.4327 28.3378 88.1798 28.0817C87.9499 27.8608 87.6285 27.733 87.2612 27.733C86.9057 27.7324 86.6186 27.8375 86.3774 28.0584Z" fill="#1A5EAB"/>
<path fill-rule="evenodd" clip-rule="evenodd" d="M92.1512 29.6159C91.8877 29.3371 91.4508 29.0929 90.8541 29.0929C90.2799 29.0929 89.8436 29.3371 89.58 29.6159C89.1667 30.0696 89.0859 30.709 89.0859 31.2081C89.0859 31.6964 89.1667 32.3364 89.58 32.789C89.8436 33.0683 90.2804 33.3119 90.8541 33.3119C91.4514 33.3119 91.8877 33.0683 92.1512 32.789C92.5645 32.3358 92.6447 31.6964 92.6447 31.2081C92.6447 30.7084 92.5645 30.069 92.1512 29.6159ZM91.8417 31.383C91.8417 31.7669 91.8417 32.1967 91.5545 32.5107C91.4396 32.6266 91.222 32.7782 90.8541 32.7782C90.5098 32.7782 90.2916 32.6266 90.1767 32.5107C89.8901 32.1973 89.8901 31.7669 89.8901 31.383V31.0224C89.8901 30.6385 89.8901 30.2087 90.1767 29.9066C90.2916 29.7789 90.5098 29.6272 90.8541 29.6272C91.2214 29.6272 91.439 29.7783 91.5545 29.9066C91.8417 30.2087 91.8417 30.6391 91.8417 31.0224V31.383Z" fill="#1A5EAB"/>
<path fill-rule="evenodd" clip-rule="evenodd" d="M93.2984 29.1623L93.9647 29.1742V29.5348C94.1598 29.3957 94.332 29.2906 94.5277 29.2214C94.7683 29.1169 94.9405 29.0936 95.1816 29.0936C95.5259 29.0936 95.882 29.1635 96.1686 29.4888C96.4445 29.8142 96.5017 30.1981 96.5017 30.5234V33.232H95.7665V30.4655C95.7665 29.8035 95.3538 29.6285 95.0094 29.6285C94.6645 29.6285 94.309 29.7796 94.0219 30.047V33.232H93.2979V29.7563V29.1623H93.2984Z" fill="#1A5EAB"/>
<path fill-rule="evenodd" clip-rule="evenodd" d="M100.096 32.4404C99.9591 32.5102 99.8099 32.5682 99.626 32.6267C99.4078 32.6965 99.2357 32.7317 99.0057 32.7317C98.6266 32.7317 98.2823 32.604 98.0989 32.3944C97.9616 32.2559 97.8124 31.9765 97.8124 31.4881V31.3831H100.292V31.1968C100.292 30.546 100.269 30.0111 99.8671 29.5807C99.603 29.2905 99.2009 29.0929 98.6962 29.0929C98.1337 29.0929 97.7204 29.3371 97.4681 29.6278C97.0548 30.1048 97.0088 30.7323 97.0088 31.1389C97.0088 31.592 97.0778 32.2673 97.4905 32.7317C97.7546 33.0452 98.2251 33.3126 98.8913 33.3126C99.1897 33.3126 99.5116 33.278 99.8329 33.1503C100.005 33.081 100.2 32.9879 100.326 32.9174L100.096 32.4404ZM97.8124 30.7556C97.8124 30.2899 97.9616 30.0225 98.0765 29.8947C98.1909 29.7669 98.3749 29.6272 98.6844 29.6272C98.8913 29.6272 99.0971 29.6738 99.2469 29.8248C99.511 30.081 99.511 30.3944 99.511 30.6738V30.8481H97.8118V30.7556H97.8124Z" fill="#1A5EAB"/>
<path fill-rule="evenodd" clip-rule="evenodd" d="M104.263 29.1743L102.69 33.9633C102.632 34.1729 102.483 34.5215 102.31 34.7191C102.104 34.9519 101.829 35.0564 101.519 35.0564C101.3 35.0564 101.094 35.0098 100.887 34.8934C100.761 34.8122 100.634 34.731 100.555 34.6379L100.899 34.1962C100.957 34.2547 101.036 34.3126 101.106 34.3585C101.22 34.4284 101.359 34.4636 101.485 34.4636C101.703 34.4636 101.841 34.3472 101.91 34.2541C101.99 34.149 102.07 33.9054 102.128 33.7538L102.22 33.4284L100.532 29.1743H101.325L102.335 31.7199C102.438 31.9634 102.542 32.3359 102.565 32.4404H102.599C102.726 31.9527 102.783 31.7897 102.886 31.4876L103.609 29.1743H104.263V29.1743Z" fill="#1A5EAB"/>
<path fill-rule="evenodd" clip-rule="evenodd" d="M73.3699 32.9988L73.3929 32.9636L73.4277 32.9988C73.6912 33.2197 73.956 33.3247 74.3115 33.3247C75.1033 33.3247 75.6204 32.7546 75.6204 31.8944C75.6204 31.8944 75.6204 27.8958 75.6204 27.8146C75.5396 27.8146 74.897 27.8146 74.8168 27.8146C74.8168 27.8964 74.8168 31.8944 74.8168 31.8944C74.8168 32.4758 74.4265 32.5104 74.3115 32.5104C74.2083 32.5104 74.0703 32.4985 73.9672 32.394C73.8528 32.2896 73.795 32.1152 73.795 31.8944C73.795 31.8944 73.795 27.8958 73.795 27.8146C73.7148 27.8146 73.0716 27.8146 72.9914 27.8146C72.9914 27.8964 72.9914 31.8944 72.9914 31.8944C72.9914 32.4758 72.6011 32.5104 72.4749 32.5104C72.3829 32.5104 72.245 32.4985 72.1418 32.394C72.0268 32.2896 71.9696 32.1152 71.9696 31.8944C71.9696 31.8944 71.9696 27.8958 71.9696 27.8146C71.8894 27.8146 71.2462 27.8146 71.166 27.8146C71.166 27.8964 71.166 31.8944 71.166 31.8944C71.166 32.3361 71.3034 32.7081 71.5563 32.9636C71.7857 33.1964 72.1188 33.3241 72.4749 33.3241C72.831 33.3241 73.1176 33.2077 73.3699 32.9988Z" fill="#1A5EAB"/>
<path fill-rule="evenodd" clip-rule="evenodd" d="M79.3061 32.4403C79.1799 32.4988 79.0307 32.5681 78.8468 32.6266C78.6286 32.6965 78.4565 32.7317 78.2271 32.7317C77.848 32.7317 77.5037 32.6039 77.3198 32.3944C77.1936 32.2558 77.0444 31.9764 77.0444 31.4881V31.383H79.5006V31.1967C79.5006 30.546 79.4777 30.011 79.0873 29.5806C78.8232 29.3017 78.4217 29.1041 77.9046 29.1041C77.3652 29.1041 76.9519 29.3483 76.6995 29.6271C76.275 30.1155 76.2402 30.743 76.2402 31.1382C76.2402 31.5914 76.298 32.2666 76.7107 32.7311C76.9867 33.0332 77.4454 33.312 78.111 33.312C78.4093 33.312 78.7194 33.266 79.0526 33.1377C79.2247 33.0798 79.4087 32.9753 79.5348 32.9054L79.3061 32.4403ZM77.0444 30.7555C77.0444 30.2898 77.1818 30.0343 77.3086 29.8946C77.4117 29.7788 77.5957 29.6271 77.9052 29.6271C78.1122 29.6271 78.3185 29.6856 78.4683 29.8367C78.7324 30.0809 78.7324 30.3949 78.7324 30.6851V30.8481H77.045V30.7555H77.0444Z" fill="#1A5EAB"/>
<path fill-rule="evenodd" clip-rule="evenodd" d="M82.9099 29.5114C82.6233 29.2553 82.2212 29.1042 81.8079 29.1042C81.624 29.1042 81.4288 29.1389 81.2915 29.1621C81.1771 29.1974 81.0273 29.2553 80.9012 29.3019V27.7096H80.1777V32.8828C80.6028 33.1383 81.1075 33.3126 81.6818 33.3126C82.1063 33.3126 82.6805 33.2201 83.0938 32.6738C83.4269 32.2201 83.4965 31.6505 83.4965 31.1861C83.4959 30.7431 83.4617 29.9878 82.9099 29.5114ZM81.6706 29.6272C81.9577 29.6272 82.256 29.7204 82.44 29.918C82.6929 30.1968 82.6929 30.6153 82.6929 30.9753V31.324C82.6929 32.0093 82.5779 32.2888 82.4748 32.4398C82.3598 32.5914 82.1187 32.7771 81.7054 32.7771C81.5562 32.7771 81.3722 32.7305 81.2343 32.6953C81.1311 32.6601 81.0049 32.5908 80.9017 32.5329V29.8708" fill="#1A5EAB"/>
<path d="M350 33.3702C350 35.0455 348.659 36.4037 347.004 36.4037H302.308C300.653 36.4037 299.312 35.0454 299.312 33.3702V4.04804C299.312 2.37269 300.653 1.01465 302.308 1.01465H347.004C348.659 1.01465 350 2.37279 350 4.04804V33.3702Z" fill="#1F424C"/>
<path d="M301.442 33.3702V4.04804C301.442 2.37269 302.783 1.01465 304.438 1.01465H302.308C300.653 1.01465 299.312 2.37269 299.312 4.04804V33.3702C299.312 35.0455 300.653 36.4037 302.308 36.4037H304.438C302.784 36.4037 301.442 35.0454 301.442 33.3702Z" fill="#1F3D46"/>
<path fill-rule="evenodd" clip-rule="evenodd" d="M344.429 11.8434H335.729C336.197 14.779 339.004 17.5253 342.09 17.5253H349.013C349.106 17.2412 349.106 16.8624 349.106 16.5783C349.106 13.9267 347.048 11.8434 344.429 11.8434Z" fill="url(#paint0_linear)"/>
<path fill-rule="evenodd" clip-rule="evenodd" d="M336.478 17.9988V25.1014H340.687V21.3133H344.429C346.487 21.3133 348.264 19.8928 348.825 17.9988H336.478Z" fill="#4DB45F"/>
<path fill-rule="evenodd" clip-rule="evenodd" d="M321.51 11.8434V25.1014H325.252C325.252 25.1014 326.187 25.1014 326.655 24.1544C329.18 19.0406 329.929 17.5254 329.929 17.5254H330.396V25.1014H334.606V11.8434H330.864C330.864 11.8434 329.929 11.9381 329.461 12.7904C327.309 17.1466 326.187 19.4194 326.187 19.4194H325.719V11.8434H321.51Z" fill="#4DB45F"/>
<path fill-rule="evenodd" clip-rule="evenodd" d="M303.737 25.1014V11.8434H307.947C307.947 11.8434 309.163 11.8434 309.818 13.7374C311.501 18.7565 311.689 19.4194 311.689 19.4194C311.689 19.4194 312.063 18.1883 313.559 13.7374C314.214 11.8434 315.43 11.8434 315.43 11.8434H319.64V25.1014H315.43V17.9989H314.963L312.624 25.1014H310.753L308.414 17.9989H307.947V25.1014H303.737Z" fill="#4DB45F"/>
<defs>
<linearGradient id="paint0_linear" x1="335.705" y1="14.6843" x2="349.106" y2="14.6843" gradientUnits="userSpaceOnUse">
<stop stop-color="#00B4E6"/>
<stop offset="1" stop-color="#088CCB"/>
</linearGradient>
<clipPath id="clip0">
<rect width="44.2005" height="32.0352" fill="white" transform="translate(184.327 2.75256)"/>
</clipPath>
</defs>
</svg>
