<svg width="222" height="268" viewBox="0 0 222 268" fill="none" xmlns="http://www.w3.org/2000/svg">
<ellipse cx="115.82" cy="244.781" rx="103.491" ry="22.8873" fill="white"/>
<path d="M0.387984 201.494C-2.3983 206.668 10.5048 218.576 17.3047 223.884C108.058 252.543 183.818 233.503 210.354 220.401C211.349 219.903 214.633 217.117 219.808 209.952C224.286 200.001 216.822 192.04 213.34 189.055C210.553 186.667 199.242 189.387 193.935 191.045L191.945 190.548C177.217 199.305 160.268 201.494 153.634 201.494H70.0451C36.4357 204.807 17.6884 190.106 12.9464 188.241C12.5485 188.085 12.1249 188.168 11.7522 188.377C5.7388 191.757 3.76509 195.222 0.387984 201.494Z" fill="#195A80"/>
<path d="M142.19 237.317C156.619 224.547 187.268 199.802 194.433 202.986C193.438 207.464 194.93 205.474 142.19 237.317Z" fill="#F5A260"/>
<path d="M179.009 251.747L143.185 252.742C175.526 245.776 175.526 243.288 180.004 242.293C184.482 242.791 187.965 242.791 189.955 243.288C180.501 242.791 179.672 249.259 179.009 251.747Z" fill="#F7AE74"/>
<path d="M206.404 250.784L178.511 251.746C180.004 246.771 180.501 239.805 196.92 244.78C207.792 247.046 207.529 246.836 207.394 249.784C207.37 250.322 206.942 250.766 206.404 250.784Z" fill="#FCBA80"/>
<path d="M20.29 196.518C14.3194 190.548 9.17803 194.694 7.35368 197.513C2.37818 202.987 2.87573 203.982 3.37328 205.474C3.87083 206.967 9.34388 211.445 14.3194 219.406C20.29 233.337 38.6994 244.449 47.1577 248.264C66.0646 246.771 105.172 243.786 110.347 243.786C115.521 243.786 131.741 237.152 139.205 233.835C129.254 234.332 101.888 230.849 72.5328 219.406C47.6553 202.489 30.241 201.494 20.29 196.518Z" fill="#F7AE74"/>
<path d="M54.5985 210.418C73.9292 227.833 75.3972 238.182 73.5274 241.298C31.2036 235.373 14.442 218.647 10.3791 213.782C9.74853 213.028 9.87271 211.956 10.5924 211.286C13.24 208.819 19.4077 202.971 22.2569 199.412C22.8797 198.634 23.9496 198.31 24.8771 198.674C29.3949 200.448 38.1496 203.302 45.5995 205.514C48.9141 206.499 52.0296 208.103 54.5985 210.418Z" fill="#FCBA80"/>
<path d="M58.1039 246.771C38.9979 241.995 18.6315 222.225 11.8317 213.435C17.8023 231.844 36.875 243.952 46.1626 246.771H58.1039Z" fill="#FCBA80"/>
<path d="M38.2019 247.269C34.6195 249.259 36.0459 251.746 37.2068 252.742L141.692 252.742C153.799 251.415 182.292 245.278 199.408 231.347C216.524 217.416 219.144 206.967 218.315 203.484C217.818 199.504 215.529 191.642 210.354 192.04C203.886 192.538 201.896 194.031 192.442 199.504C180.501 201.494 169.058 208.46 163.087 214.928C143.981 237.616 112.669 241.961 99.4005 241.298C98.9444 239.777 97.2337 236.779 93.8852 235.984C93.2742 235.839 92.6381 235.995 92.093 236.307C82.3347 241.894 77.9785 243.624 77.0107 243.786L57.6063 246.273C53.1283 246.273 42.9783 246.472 38.2019 247.269Z" fill="#FCBA80"/>
<path d="M3.871 201.494C0.850301 204.946 7.35364 211.113 10.3389 213.435C19.0958 204.28 27.2557 200.001 24.7679 198.509C23.9387 197.513 15.812 193.036 14.8172 193.533C10.3393 192.538 7.35367 197.513 3.871 201.494Z" fill="url(#paint0_linear)"/>
<path d="M36.2115 173.631C26.2605 175.621 24.4361 189.387 24.7678 196.021C46.262 205.972 65.8987 206.138 73.0303 204.977V189.055C61.0891 188.657 43.5089 178.607 36.2115 173.631Z" fill="#FCBA80"/>
<path d="M29.7438 164.178C15.0163 167.76 13.3242 181.094 13.8218 187.562C17.69 192.978 20.4938 195.842 23.2757 196.702C22.0815 175.354 32.2316 172.138 38.2022 172.138C32.6296 165.372 30.7389 164.012 29.7438 164.178Z" fill="#71C8C0"/>
<path d="M23.2751 197.016C24.2701 198.011 27.2556 197.016 27.2556 197.016C26.1319 183.531 33.2921 177.36 37.4572 175.851C37.8886 175.694 38.2017 175.299 38.2017 174.84L38.2017 173.133L38.2017 171.143C20.29 172.138 22.2801 196.021 23.2751 197.016Z" fill="#93D9D4"/>
<path d="M186.472 160.197L179.009 168.158C190.05 166.778 194.536 179.13 195.967 187.846C196.225 189.421 198.1 190.225 199.355 189.239L203.389 186.07C202.99 166.566 192.774 160.031 186.472 160.197Z" fill="#6FC6BE"/>
<path d="M198.594 190.755L194.188 192.428C193.546 192.672 192.856 192.211 192.809 191.526C191.835 177.128 183.38 173.073 180.004 171.143L179.009 170.646L179.009 169.651C193.021 158.006 199.148 180.824 199.226 189.854C199.23 190.26 198.973 190.611 198.594 190.755Z" fill="#93D9D4"/>
<path d="M11.8317 158.705C1.08464 173.432 8.68057 184.08 13.8219 187.563C21.3847 160.098 33.2264 165.836 38.2019 172.138L49.6455 140.793C44.869 134.822 40.6896 115.418 39.197 105.964C36.7092 104.472 23.7729 136.812 11.8317 158.705Z" fill="#3C9B95"/>
<path d="M40.6896 163.68C33.1269 156.117 20.1242 157.709 14.3195 159.202C26.2607 158.804 35.2166 165.836 38.6994 170.148C39.197 169.651 41.1872 164.675 40.6896 163.68Z" fill="#178386"/>
<path d="M205.379 157.212C216.126 171.939 208.53 182.587 203.389 186.07C195.826 158.605 183.984 164.343 179.009 170.646L167.565 139.3C172.342 133.329 176.521 112.93 178.014 103.476C183.984 109.945 193.438 135.32 205.379 157.212Z" fill="#3C9B95"/>
<path d="M176.023 162.685C176 162.213 197.086 156.217 202.891 157.709C190.95 157.311 182.492 166.334 179.009 170.646C177.546 168.642 176.047 163.157 176.023 162.685Z" fill="#178386"/>
<path d="M74.0255 190.05L59.5966 186.567C59.7624 179.933 59.7956 165.67 58.6015 161.69C57.1088 156.714 51.1382 148.754 48.1529 142.285C40.1921 128.354 38.2018 105.964 38.6994 105.964C42.6798 104.472 68.0549 86.0622 79.9961 77.1063C81.1571 83.5744 83.5785 96.7098 83.9765 97.5058C84.3746 98.3019 81.1571 144.939 79.4986 168.158L74.0255 190.05Z" fill="#5AB0AD"/>
<path d="M151.146 189.553C142.787 181.99 132.405 121.72 128.258 92.5303L129.751 74.121C144.081 86.8583 167.565 98.3351 178.013 103.476C178.013 108.452 175.924 123.279 171.545 134.822C166.072 149.251 159.107 158.207 159.107 159.202V189.553H151.146Z" fill="#59AFAC"/>
<path d="M183.096 169.83C192.565 171.229 195.141 184.86 195.245 191.501C175.685 202.7 157.256 204.023 150.486 203.285L149.489 187.394C160.677 186.293 176.555 175.226 183.096 169.83Z" fill="#FCBA80"/>
<path d="M102.883 168.158C84.1755 147.062 83.8106 109.945 85.9666 94.023C107.859 107.158 122.62 95.1839 127.263 87.5548L144.678 169.153L102.883 168.158Z" fill="#EEE7D5"/>
<path d="M79.001 168.158H103.878C78.5034 132.334 89.2394 96.3531 87.4593 95.0181C85.4691 93.5254 84.3082 91.2035 83.9765 89.545L79.001 168.158Z" fill="#E8DCC6"/>
<path d="M72.0356 211.079C72.0356 213.083 73.5229 214.723 75.3349 214.723H154.336C156.154 214.723 157.635 213.084 157.635 211.079V170.807C157.635 168.803 156.154 167.163 154.336 167.163H75.3349C73.5229 167.163 72.0356 168.803 72.0356 170.807V211.079Z" fill="#109985"/>
<path d="M72.0356 217.313C72.0356 215.888 72.7825 214.722 73.6852 214.722H155.986C156.895 214.722 157.635 215.888 157.635 217.313C157.635 218.738 156.895 219.903 155.986 219.903H73.6852C72.7825 219.903 72.0356 218.738 72.0356 217.313Z" fill="#109985"/>
<path d="M73.685 214.722H114.894V219.903H73.685C72.7822 219.903 72.0353 218.738 72.0353 217.313C72.0353 215.888 72.7822 214.722 73.685 214.722Z" fill="#008378"/>
<path d="M75.3346 167.163H114.894V214.723H75.3346C73.5226 214.723 72.0353 213.083 72.0353 211.079V170.807C72.0353 168.803 73.5226 167.163 75.3346 167.163Z" fill="#008378"/>
<path d="M86.8801 65.239L85.3875 73.6974C88.3728 78.1753 94.3434 84.6435 104.792 86.6337C114.743 86.6337 122.206 75.6876 124.196 70.7121L122.704 63.7464C116.236 73.1998 112.255 75.19 104.792 75.6876C98.8213 76.0856 90.363 68.8877 86.8801 65.239Z" fill="#F7AE74"/>
<path d="M128.258 87.5548C112.735 108.651 92.1031 99.1643 83.9764 91.5352C84.1423 84.9012 84.6375 69.3867 84.6375 71.7749C88.6179 76.7504 95.9348 85.7079 104.393 85.7079C115.339 86.2054 123.525 74.1287 123.525 68.6556L128.258 87.5548Z" fill="#FCBA80"/>
<path d="M123.781 63.6724C122.363 61.8342 121.498 64.2045 121.216 66.0743C124.024 72.9596 127.511 94.226 129.179 104.217C129.549 101.669 130.848 96.2072 130.874 92.9982C130.906 88.9869 138.806 96.5797 140.347 96.9006C133.448 72.159 125.552 65.9701 123.781 63.6724Z" fill="#17888E"/>
<path d="M85.9667 64.17C87.1608 62.1798 86.9618 67.3212 87.4593 69.1456C85.4691 76.3103 83.9765 97.8376 83.4789 107.955C82.8155 105.467 80.8917 100.193 80.4936 97.0084C79.9961 93.028 73.0304 101.486 71.5377 101.984C75.5181 76.6088 84.474 66.6577 85.9667 64.17Z" fill="#17888E"/>
<path d="M95.6591 76.7659C83.1819 69.6954 85.1372 47.1742 86.464 32.0818L91.9371 28.1014H121.293C125.671 65.1192 119.782 71.775 113.543 76.35C111.055 77.0134 104.69 81.8832 95.6591 76.7659Z" fill="#FCC287"/>
<path d="M109.849 64.01V63.5125L109.231 63.6154C107.656 63.878 106.061 64.01 104.464 64.01H104.376H103.594C102.127 64.01 100.662 63.9059 99.2097 63.6984L97.9078 63.5125L98.4054 64.01L101.391 64.5076H104.376H106.864L109.849 64.01Z" fill="#F7AE74"/>
<path d="M104.376 64.5076C100.396 64.5075 99.898 64.0101 98.4054 64.0101C100.396 66.0003 99.8379 65.6484 100.893 66.0002C102.386 66.4978 105.198 66.4978 106.864 66.4978C108.357 66.4978 108.821 65.1039 109.351 64.0101C108.854 64.0101 108.356 64.5076 104.376 64.5076Z" fill="#FDFBFC"/>
<path d="M111.882 42.9645C113.349 42.8185 115.131 43.1977 116.479 43.5856C117.297 43.8214 117.829 44.5919 117.823 45.4441L117.808 47.4396C114.861 44.4718 110.091 45.5865 109.646 47.9968C109.646 47.9968 109.746 46.6516 109.875 45.401C110 44.2021 110.682 43.0839 111.882 42.9645Z" fill="#FCBA80"/>
<path d="M90.9421 39.8077L91.3801 37.5164C93.302 35.0337 98.0994 34.5455 100.258 34.6117C100.856 35.2703 101.802 37.1335 100.806 39.318C96.0087 40.1824 92.2312 40.0046 90.9421 39.8077Z" fill="url(#paint1_linear)"/>
<path d="M117.81 42.0329C115.856 39.7598 111.025 39.6372 108.854 39.8601V36.5173C109.505 34.9128 110.102 34.9574 110.319 35.1802L110.645 36.8516C110.699 36.6288 110.906 35.9825 111.296 35.1802C115.074 35.4476 116.996 37.5202 117.484 38.523C117.593 38.7458 117.81 39.7598 117.81 42.0329Z" fill="url(#paint2_linear)"/>
<path d="M81.6469 51.746C81.6275 53.4419 82.1419 55.535 83.844 55.5323C85.546 55.531 86.9257 54.1536 86.9234 52.4594L86.9034 42.2759C86.9011 40.5809 85.5185 39.2085 83.8092 39.2108C82.1071 39.2135 80.5613 40.5963 80.7299 42.2823C80.97 44.6479 81.7078 47.1443 81.6469 51.746Z" fill="#FCC287"/>
<path d="M126.781 52.7411C126.8 54.437 126.286 56.5301 124.583 56.5274C122.881 56.5261 121.502 55.1487 121.504 53.4545L121.524 43.271C121.526 41.576 122.909 40.2036 124.618 40.2059C126.32 40.2086 127.866 41.5914 127.698 43.2774C127.457 45.643 126.72 48.1394 126.781 52.7411Z" fill="#FCC287"/>
<path d="M102.742 51.4842C103.352 48.1055 103.859 46.5593 104.387 46.1992L104.919 61.0152C104.894 61.0142 104.869 61.0139 104.839 61.0123C102.964 60.9125 101.417 60.1823 101.387 59.3812C101.387 59.3812 101.908 56.1128 102.742 51.4842Z" fill="#F5B47B"/>
<path d="M106.458 51.6635C105.655 48.1846 104.936 46.6251 104.387 46.1992L104.813 61.0119C104.838 61.0139 104.864 61.0166 104.893 61.0186C106.769 61.1416 108.28 60.5901 108.264 59.786C108.264 59.786 107.557 56.429 106.458 51.6635Z" fill="#FCC287"/>
<path d="M122.693 17.083C126.27 19.988 122.471 40.0404 122.471 40.0404C122.471 40.0404 121.971 38.3582 121.969 38.2694C121.453 31.4077 121.585 29.9132 112.174 31.4605C108.356 26.1113 102.883 29.0966 102.883 29.0966C103.64 28.8547 102.661 29.1676 102.883 29.0966L101.931 20.0423C101.931 20.0423 114.097 15.2785 122.693 17.083Z" fill="#514947"/>
<path d="M114.349 0.24078C113.197 -0.0340876 135.17 25.817 118.95 27.6886L108.539 28.9718C101.217 32.4366 93.358 35.9956 88.3807 34.775C82.9643 33.4466 83.3765 25.5242 86.0249 20.6162C90.4522 12.4115 99.7341 9.03951 114.349 0.24078Z" fill="url(#paint3_linear)"/>
<path d="M98.4053 47.506C98.4053 48.0555 97.2467 48.9986 94.9224 48.9986C93.2737 48.9986 91.4396 47.558 91.4396 47.0084C91.4396 46.4588 93.2737 47.0084 94.9224 47.0084C96.5712 47.0084 98.4053 46.9564 98.4053 47.506Z" fill="#FFFFFD"/>
<path d="M96.7254 42.9875C95.3357 42.8716 93.663 43.255 92.3907 43.6448C91.5944 43.8889 91.0809 44.6428 91.0809 45.4757L91.0809 47.5059C93.9273 44.5206 98.4931 45.5995 98.9029 48.0035C98.9029 48.0035 98.8169 46.662 98.7015 45.4144C98.5909 44.2175 97.9232 43.0874 96.7254 42.9875Z" fill="#FCBA80"/>
<path d="M94.4481 48.3751C92.4426 48.1016 91.1208 47.1521 90.9421 46.4679C91.0259 46.5424 91.2425 46.6064 91.5314 46.6626C93.2307 46.9931 94.9833 46.9313 96.7116 46.8309L98.1145 46.7494C98.4988 46.7271 98.8284 47.0205 98.8507 47.4048C98.8576 47.5244 98.6044 47.7086 97.7299 47.9897C96.6705 48.3302 95.5508 48.5254 94.4481 48.3751Z" fill="#3A171E"/>
<path d="M110.345 47.506C110.345 48.0555 111.503 48.9986 113.828 48.9986C115.476 48.9986 117.311 47.558 117.311 47.0084C117.311 46.4588 115.476 47.0084 113.828 47.0084C112.179 47.0084 110.345 46.9564 110.345 47.506Z" fill="#FFFFFD"/>
<path d="M114.302 48.3751C116.308 48.1016 117.629 47.1521 117.808 46.4679C117.724 46.5424 117.508 46.6064 117.219 46.6626C115.519 46.9931 113.767 46.9313 112.039 46.8309L110.636 46.7494C110.251 46.7271 109.922 47.0205 109.899 47.4048C109.892 47.5244 110.146 47.7086 111.02 47.9897C112.08 48.3302 113.199 48.5254 114.302 48.3751Z" fill="#3A171E"/>
<path d="M100.395 66.4977C98.8839 65.742 97.9652 64.0103 97.955 63.5129C99.2211 64.9329 101.032 65.792 102.934 65.8356C104.518 65.872 106.252 65.8783 106.864 65.7443C108.968 65.2832 109.838 63.2568 109.849 63.7541C109.988 64.548 109.638 65.348 108.961 65.7854L107.859 66.4977C106.864 66.9953 101.391 66.9953 100.395 66.4977Z" fill="#F7AE74"/>
<path d="M95.9345 71.3741C91.5155 75.7403 87.4654 66.4576 87.4654 59.6733V25.1647C85.24 26.4372 86.6549 22.9578 84.4295 24.2302L85.3322 55.6021C85.5422 62.9014 87.0012 70.529 92.3487 75.5015C98.5967 81.3114 104.809 82.1727 104.809 82.1727V67.8699C99.366 67.8795 97.8142 69.5154 95.9345 71.3741Z" fill="#514947"/>
<path d="M94.0206 40.2391C98.723 40.4767 100.537 41.949 104.098 42.0862C104.118 42.086 104.133 42.0852 104.148 42.085L104.081 45.3302C104.066 45.3289 104.051 45.325 104.031 45.3241C103.484 45.35 102.837 45.8424 102.163 47.6895C101.463 49.6081 100.558 53.9443 92.7855 53.3857C85.003 52.828 85.9463 47.5749 83.9637 45.1294C83.3668 44.4219 83.1541 44.8553 83.2358 40.8883C83.2358 40.8883 89.2885 39.999 94.0206 40.2391ZM86.1107 46.3513C86.2619 49.1422 86.8487 52.2679 92.8528 52.5286C98.857 52.7898 100.16 51.0882 101.073 46.3314C101.981 41.5756 95.7742 41.4972 92.5189 41.4713C86.1079 41.4182 85.9644 43.5603 86.1107 46.3513Z" fill="#3F3B3B"/>
<path d="M113.349 71.3809C117.601 75.7444 121.498 66.4675 121.498 59.6875L120.92 37.8091L120.417 28.9364C122.558 30.208 121.8 28.5987 123.941 29.8703L123.451 55.7526C123.314 62.9617 121.978 70.509 116.789 75.5155C110.78 81.3129 104.809 82.1727 104.809 82.1727V67.8789C110.047 67.8885 111.54 69.5234 113.349 71.3809Z" fill="#514947"/>
<path d="M114.075 40.5716C118.734 40.4873 124.649 41.5745 124.649 41.5745C124.567 45.5423 124.376 45.1021 123.761 45.7891C121.708 48.1682 122.42 53.4484 114.756 53.7499C107.092 54.053 106.381 49.6899 105.771 47.749C105.197 45.9379 104.607 45.4015 104.081 45.3302L104.148 42.0849C107.628 42.0514 109.47 40.6532 114.075 40.5716ZM106.897 46.4276C107.6 51.2118 108.815 52.9548 114.725 52.8917C120.63 52.8285 121.339 49.7237 121.596 46.9399C121.854 44.1551 121.806 42.0097 115.505 41.8515C112.3 41.7712 106.199 41.645 106.897 46.4276Z" fill="#3F3B3B"/>
<defs>
<linearGradient id="paint0_linear" x1="7.85119" y1="197.513" x2="15.812" y2="206.967" gradientUnits="userSpaceOnUse">
<stop offset="0.450988" stop-color="#F7AE74"/>
<stop offset="1" stop-color="#FCBA80"/>
</linearGradient>
<linearGradient id="paint1_linear" x1="96.7772" y1="34.837" x2="95.8738" y2="39.5629" gradientUnits="userSpaceOnUse">
<stop stop-color="#514947"/>
<stop offset="1" stop-color="#3F3B3B"/>
</linearGradient>
<linearGradient id="paint2_linear" x1="113.25" y1="35.6816" x2="113.25" y2="40.0272" gradientUnits="userSpaceOnUse">
<stop stop-color="#514947"/>
<stop offset="1" stop-color="#3F3B3B"/>
</linearGradient>
<linearGradient id="paint3_linear" x1="122.704" y1="9.29555" x2="87.8405" y2="34.3774" gradientUnits="userSpaceOnUse">
<stop offset="0.660573" stop-color="#3F3B3B"/>
<stop offset="1" stop-color="#514947"/>
</linearGradient>
</defs>
</svg>
