<svg width="373" height="246" fill="none" xmlns="http://www.w3.org/2000/svg"><path d="M101.8 50.5c-1-.3-1.8-.7-2.4-1.2a8.5 8.5 0 01-1.9-2.5c-1-2-1.7-4.8-1.8-8.5l-.2-4.4v-8.5a142.5 142.5 0 011-15c.3-1.4.7-3 1.4-4.5a8.3 8.3 0 012.3-3.3c.3-.3 1-.7 2-1l1.8-.9H107.4l.4.2.3.2.2.3v.4l-.9 1.1h-3c-1 0-1.9.5-2.7 1.4-.7 1-1.3 2-1.7 3.4a42.1 42.1 0 00-1.6 12v.4l-.2 7.5L98 35c0 2.1.2 4.1.5 6 .2 2 1 3.7 2.1 5.3 1.1 1.6 2.9 2.3 5.3 2.3.7 0 1.3-.2 1.8-.6.8 0 1.1.2 1.1.8 0 .3-.3.7-1 1.2-.5.5-1.1.8-1.8 1h-2.4l-1.8-.6zm34.3 6c-.8 0-1-.5-1-1.3l.4-2c.3-1 .4-2 .4-2.9a57.2 57.2 0 00-11.9 0l-7.1.8c-.4.4-.6 1-.6 1.6a35 35 0 00.4 2.2c0 .4-.3.7-.8.9h-.3c-.4 0-.8 0-1.1-.3-.4-.3-.6-.6-.6-1l-.3-4.6c0-.4.1-.7.5-1 .4-.2.8-.3 1.2-.2 1 0 1.7-.2 2.2-.8.4-.5.8-1.3 1.2-2.3a70 70 0 002.8-18.5 195.6 195.6 0 00.4-13 313.5 313.5 0 01.1-8.5l-.1-1.8c0-.8 0-1.3.3-1.6.4-.3 1-.4 1.7-.4l8.4-.3c.6 0 1 .2 1.4.5.4.4.6.9.5 1.5l-.6 15a187.6 187.6 0 000 29.4c1.8-.4 3-.6 4-.6.5 0 1 .2 1.4.5.3.3.5.6.5 1s0 .7-.3 1c-.7 1-1.1 2.2-1.3 3.5 0 1.4-.2 2.2-.2 2.4-.2.8-.7 1-1.6.9zm-15.5-8.3l10-.5.6-21 .2-7.1a266.5 266.5 0 000-13.1c0-.7 0-1.2-.2-1.4-.2-.3-.6-.4-1.2-.5h-5.1l-1 18c-.3 7.8-.6 12.3-.7 13.6l-1 6.8c-.3 1.5-.9 3.3-1.6 5.2zM147 51c-.9 0-1.4-.6-1.5-1.6v-1l.1-.8-.3-.3c.4-1 .6-2 .6-3 0-1.2 0-2.8-.2-5l-.2-4.8a405 405 0 01.5-22.3l-.1-4.5-.2-4.4c0-.7.2-1.3.6-1.5.3-.4.9-.6 1.6-.6.5 0 .9.2 1.2.5l2.1.3c1.3.1 2.3.3 3.2.6 1 .3 1.4.7 1.4 1.1 0 .5-.5 1-1.4 1.5-2.8-1-4.8-1.4-6-1.4l-.4.5.1 3.2-.1 5.6-.1 5.8c0 1.4.3 2 1 2h2.5c1.9 0 2.9.4 2.9 1.3 0 .5-.2 1-.4 1.4-.3.3-.6.5-1.1.5-.8 0-1.3-.2-1.7-.6l-2.4-.4h-.4l-.3.4v.2a67.6 67.6 0 010 11.1v5.3c0 2 0 3.9.2 5.9 0 1.1.3 1.9.7 2.3.5.3 1.3.5 2.5.5h1.3l1.5-.1c1.4 0 2.1.3 2.1 1 0 .8-1 1.3-3.2 1.3h-6zm17.8-1.4c-.6.3-1.1.5-1.5.5-.6 0-1-.3-1.1-1V49c0-.4.2-.7.6-1l.8-.5c1-.8 1.6-1.8 2.1-2.9a52 52 0 003-23.2 455.3 455.3 0 01-.7-18h-.4c-1 0-1.6-.3-1.6-.8 0-.6.4-1 1.2-1.3.7-.3 1.6-.4 2.5-.4h8.2c1.3-.1 2.2 0 2.7.3.5.4.8 1 .8 2v1c-.3 1.5-.4 3.2-.4 5l.1 5.3v6.7L181 28v2.2a281.9 281.9 0 00.8 17.5v.3c0 .5-.1.8-.3 1-.2.2-.5.4-1 .4h-.1c-.5 0-.8-.1-1.1-.4-.3-.2-.4-.6-.4-1v-4.7l.1-8.2-.2-19.5V11l-.1-5.7-.5-1.8h-8l.3 5.9.2 4.3.3 15.7c-.1 5.4-.9 10.3-2.3 14.8a9.6 9.6 0 01-4 5.4zm42.4 1c-.8 0-1.3 0-1.5-.2-.1-.2-.3-.6-.4-1.4l-.8-6.7-.4-3c-1-.2-2.3-.3-3.7-.3l-2.6-.2-2.6-.2c-.3 0-.5.1-.6.4v.2l-.2 1.5a53.1 53.1 0 01-1.7 8.4c-.4.9-.7 1.3-1 1.3-.4 0-.7-.2-1-.4-.4-.3-.6-.6-.6-.9l.1-.2v-.2c1-3.5 1.7-7 2.3-10.5l.9-4.6.9-5.6.8-4.9 1.3-6.4a101 101 0 002-13.8 7 7 0 01.5-2.2h1.1c.6 0 1 0 1.3-.4.4 0 .6.2.9.4.3.2.4.5.4.8a73.6 73.6 0 001 12c.5 6.4 2 18.3 4.1 35.8v.3c0 .4-.2.8-.5 1zm-3.5-13.3c-.4-7-1.4-17.5-2.8-31.4l-4 19.8a77.3 77.3 0 00-1.7 10.7 48 48 0 007.8 1h.7zM217.2 51c-1 0-1.4-.6-1.5-1.6v-1-.8l-.2-.3c.4-1 .6-2 .6-3l-.3-5-.1-4.8a405 405 0 01.5-22.3l-.1-4.5-.2-4.4c0-.7.2-1.3.5-1.5.4-.4 1-.6 1.7-.6.5 0 .9.2 1.2.5l2.1.3c1.2.1 2.3.3 3.2.6 1 .3 1.4.7 1.4 1.1 0 .5-.5 1-1.4 1.5-2.8-1-4.8-1.4-6-1.4l-.4.5V13L218 19c0 1.4.3 2 1 2h2.4c2 0 3 .4 3 1.3 0 .5-.2 1-.4 1.4-.3.3-.7.5-1.2.5-.7 0-1.3-.2-1.7-.6l-2.3-.4h-.4l-.4.4v.2a67.6 67.6 0 01.1 11.1v5.3c0 2 0 3.9.2 5.9 0 1.1.3 1.9.7 2.3.4.3 1.3.5 2.4.5h1.4l1.5-.1c1.4 0 2.1.3 2.1 1 0 .8-1 1.3-3.3 1.3h-6zm46.7 2.8c-1 0-1.4-1.5-1.4-4.7v-4.9c0-7-.2-12.6-.5-16.6l-.2-2.8a64.6 64.6 0 01-.1-7.8v-4.6c0-1.5 0-2.7-.2-3.5-1 .7-4 11.1-9 31.2v1l-.6 3c-.2.6-.4 1-.7 1.3-.2.3-.5.5-.9.5-.8 0-1.3-.2-1.7-.6-.3-.4-.5-1-.5-1.9a262.5 262.5 0 00-6-26.4c-1.4-5.1-2.4-8-3-8.5l-.5 12.2a467 467 0 00-1 26.8v3c-.2.6-.7 1-1.6 1l-.7-.5-.5-.6c0-4.5.4-12.3 1.2-23.4a358.2 358.2 0 001-24l-.3-.7c0-.8.6-1.1 2-1.1.8 0 1.3.3 1.4 1l.3 2.3v.9c.3 1.3 1 3.2 2.2 5.9a53.7 53.7 0 014.5 14.8l1 2 .9 3.5a72.3 72.3 0 011.2 8c.6-.8 2.1-5.8 4.6-15a255 255 0 005.4-21.8c.4-1 1-1.5 1.8-1.5.4 0 .8.2 1.2.5.4.2.7.5.7.8 0 20.6.3 31.5 1 32.7V39a92 92 0 00.4 11v.3l.2.3v.7c0 .5-.1 1-.5 1.6-.3.6-.6.8-1 .8zm-2.4-45.3h-.2l.2.1v-.1zM72 143.5c-1-.3-1.8-.8-2.4-1.5-.6-.7-1-1.6-1.3-2.8-.3-1.4-.5-2.7-.6-4.1a159 159 0 01-.2-8.9 18 18 0 00-.4-4c-.1-.6-.4-1.1-.8-1.4-.3-.3-1-.5-2-.6v2.2a97 97 0 000 9.4v2.4l.5 6.7.1.7c0 .5-.2 1-.7 1.1-.2.2-.5.2-.8.2-.4 0-.7 0-1-.3-.2-.2-.3-.6-.4-1a11.5 11.5 0 01.2-3.3v-3l.2-5.8V125c-.2-4-.2-7-.2-9v-2.3c0-2.3 0-5.5.3-9.5l.1-4.2v-3c0-1.2 0-1.8.3-2 .2-.2.3-.3.5-.3.3 0 .5 0 .8.2l.6.5c.2.3.3.7.3 1.2v.8l-.3 9-.4 10.4c.6.1 1 0 1.3-.2.4-.2.7-.6 1-1.2 1.1-2.1 1.8-4.8 2-7.9l.9-9.3c0-1 .5-2 1.3-2.8a5.4 5.4 0 013.5-1.7c.6 0 1.1.2 1.5.6.7.6.9 1 .6 1.5l-.7.8-.7.4c-1.4.2-2.3.5-2.8 1-.4.4-.7 1.3-.8 2.7l-.5 6a31.7 31.7 0 01-1.9 9.2 3 3 0 01-.7 1.2c-.7.8-1.7 1.2-2.7 1.3l.8.5 1 .4c.7.5 1.1 1 1.3 1.6.3.6.5 1.5.6 2.7.2.9.3 1.8.3 3v2a79.5 79.5 0 00.7 9.4c.3 2 1.4 3 3.2 3h.6c.6 0 1 .2 1.2.5l.2.5c0 .4-.2.8-.5 1.2-.4.4-1 .6-1.7.6-.5 0-1 0-1.4-.2zm26.1.2c-.7 0-1.2-.1-1.4-.3a804.1 804.1 0 01-1.3-8l-.3-3c-1-.3-2.3-.4-3.7-.4l-2.6-.2-2.6-.2c-.3 0-.5.1-.6.4v.2l-.2 1.5a53.1 53.1 0 01-1.7 8.4c-.4.9-.7 1.3-1 1.3-.4 0-.7-.2-1-.4-.4-.3-.6-.6-.6-.9l.1-.2v-.2c1-3.5 1.7-7 2.3-10.5l.9-4.6.9-5.6.8-4.9 1.3-6.4a101.4 101.4 0 002-13.8 7 7 0 01.5-2.2h1.1c.6 0 1 0 1.3-.4.3 0 .6.2.9.4.3.2.4.5.4.8a73.5 73.5 0 001 12c.5 6.4 2 18.3 4.1 35.8v.3c0 .4-.2.8-.6 1zm-3.4-13.4A1146 1146 0 0092 99l-4 19.8a77.4 77.4 0 00-1.7 10.7c0 .2 1 .5 2.8.7l5 .2h.7zm12.3 12.3c-.6.3-1 .5-1.5.5-.6 0-1-.3-1.1-1v-.1c0-.4.2-.7.6-1l.8-.5c1-.8 1.7-1.8 2.2-2.9.5-1.1 1-2.7 1.6-4.6a52 52 0 001.3-18.6 455.4 455.4 0 01-.7-18h-.3c-1.1 0-1.7-.3-1.7-.8 0-.6.4-1 1.2-1.3.8-.3 1.6-.4 2.5-.4h8.3c1.2-.1 2 0 2.6.3.6.4.8 1 .8 2v1c-.2 1.5-.3 3.2-.3 5v12l-.1 6.8v2.2a281.9 281.9 0 00.8 17.5v.3c0 .5 0 .8-.3 1-.1.2-.5.4-1 .4h-.1c-.4 0-.8-.1-1.1-.4-.3-.2-.4-.6-.4-1l.1-4.7V128l-.1-19.5V104c0-2 0-3.9-.2-5.7l-.4-1.8h-8.1l.3 5.9.2 4.3.3 15.7c0 5.4-.9 10.3-2.3 14.8a9.5 9.5 0 01-4 5.4zm30.4.5c-1 0-1.7-.2-2.1-.6-.4-.5-.6-1.2-.6-2.3l-.1-12.2.1-6.3a1092.1 1092.1 0 00.3-18.7 69 69 0 00-.5-6.6V96c0-.7.1-1.1.3-1.4.2-.3.5-.4 1-.4.7 0 1.2.2 1.5.6.4.3.6.8.5 1.4a933.3 933.3 0 01-.5 20.4h1.9a7 7 0 016 3.3c1.6 2.7 2.5 5.7 2.5 8.8 0 2.6-.4 4.9-1.3 7-.8 2-2 3.8-3.7 5.5-1.4 1.3-3.1 2-5.3 2zm.1-3a6 6 0 003.2-.7c1.1-.7 2-1.4 2.5-2.3a15.4 15.4 0 00.3-15.3c-1.1-2-3.2-2.9-6.2-2.8a99 99 0 00.1 16.3l.1 4.9zm27.5 3.4c-1-.3-1.9-.8-2.5-1.5-.5-.7-1-1.6-1.2-2.8-.4-1.4-.6-2.7-.7-4.1a160 160 0 01-.2-8.9 18 18 0 00-.4-4c-.1-.6-.4-1.1-.7-1.4-.4-.3-1-.5-2-.6l-.1 2.2a98 98 0 000 9.4v2.4l.6 6.7v.7c0 .5-.2 1-.6 1.1-.3.2-.6.2-.8.2-.4 0-.7 0-1-.3-.2-.2-.4-.6-.4-1a11.6 11.6 0 01.1-3.3v-3c.2-2.6.2-4.5.2-5.8V125l-.2-9v-2.3l.3-9.5.2-4.2-.1-3c0-1.2.1-1.8.3-2l.6-.3c.2 0 .5 0 .7.2l.7.5c.2.3.3.7.3 1.2l-.1.8-.3 9-.4 10.4c.6.1 1 0 1.4-.2.3-.2.6-.6 1-1.2 1-2.1 1.8-4.8 2-7.9l.8-9.3c.1-1 .6-2 1.3-2.8a5.4 5.4 0 013.5-1.7c.7 0 1.2.2 1.6.6.6.6.8 1 .5 1.5-.1.2-.3.5-.7.8-.3.3-.6.4-.7.4-1.4.2-2.3.5-2.8 1-.3.4-.6 1.3-.8 2.7l-.5 6a31.7 31.7 0 01-1.8 9.2 3 3 0 01-.8 1.2c-.7.8-1.6 1.2-2.7 1.3l.8.5 1 .4c.7.5 1.2 1 1.4 1.6l.6 2.7.2 3v2a79.8 79.8 0 00.7 9.4c.4 2 1.4 3 3.2 3h.7c.6 0 1 .2 1.2.5l.1.5c0 .4-.1.8-.4 1.2-.5.4-1 .6-1.8.6-.5 0-1 0-1.3-.2zm11.5-.7c-.5-.2-.7-.6-.7-1.3l.1-.7a41.7 41.7 0 003.1-13.1l.3-2.3v-.2l-.1-.8c-.5-1.2-.9-2.5-1.1-4a111.4 111.4 0 00-.9-5.4 569 569 0 00-2.6-17.6 30.4 30.4 0 01-.5-1.8c0-.3.1-.6.5-.8l.8-.2c.6 0 1 .2 1.3.6.3.4.5 1.2.7 2.2l.4 2.8.5 4.7 1.4 11.2.7 3.9.5-3.3c0-.9.2-1.7.4-2.5l.3-1.7 1.5-8.3a76.7 76.7 0 001.2-8.9c.1-.6.4-1 1-1l.7.2c.7.3 1 .7 1 1.4l-.1 1-.3.8-.8 4.5a203.4 203.4 0 00-3.6 20.5l-1 7.4a227.4 227.4 0 01-2 10.8c-.4 1.5-1 2.2-1.7 2.2l-1-.3zm17-.2c-.5.3-1 .5-1.4.5-.6 0-1-.3-1.1-1v-.1c0-.4.2-.7.6-1l.8-.5c1-.8 1.6-1.8 2.1-2.9.6-1.1 1.1-2.7 1.7-4.6a52 52 0 001.3-18.6 455.4 455.4 0 01-.7-18h-.3c-1.1 0-1.7-.3-1.7-.8 0-.6.4-1 1.2-1.3.7-.3 1.6-.4 2.5-.4h8.2c1.3-.1 2.2 0 2.7.3.5.4.8 1 .8 2v1c-.3 1.5-.4 3.2-.4 5l.1 5.3v6.7l-.1 6.8v2.2a281.9 281.9 0 00.8 17.5v.3c0 .5-.1.8-.3 1-.2.2-.5.4-1 .4h-.1c-.5 0-.8-.1-1.1-.4-.3-.2-.4-.6-.4-1v-4.7l.1-8.2-.2-19.5.1-4.6c0-2 0-3.9-.2-5.7l-.5-1.8h-8l.3 5.9.2 4.3.3 15.7c-.1 5.4-.9 10.3-2.3 14.8a9.5 9.5 0 01-4 5.4zm38.4 1.1c-.5 0-.8 0-1.1-.3-.3-.3-.4-.6-.4-1l.3-8.7.2-4-.7-11.3-1 .1-.7.2a23.3 23.3 0 01-2 1.4 2 2 0 00-.7.8 40.6 40.6 0 01-1.4 3.6l-.2 1.8v8.1c0 1.7-.4 3.5-1 5.3-.6 1.7-1.4 2.7-2.5 3a2.3 2.3 0 01-2-.3c-.3-.3-.5-.6-.5-1s.2-.8.7-1l1-.9.5-1.2c.7-2 1-4 1-6 0-2.4 0-4.4.2-6 .2-1.5.6-3.2 1.3-5l1.3-2.4.9-1.4a16 16 0 01-3.6-3.5 7.2 7.2 0 01-1.2-4.2 21.1 21.1 0 00.3-3.8l.1-1.8c.3-3.8 1.9-6.8 4.8-9a9 9 0 015.3-1.8c.9 0 1.5.2 1.8.6.3.4.4 1 .3 2-.3 2-.4 4.4-.4 7.3v7a250 250 0 00.4 18.8v10.5a11.6 11.6 0 00.2 2.4v.3c0 .4 0 .7-.2 1-.2.2-.5.4-.9.4h-.1zm-5.5-28.4a4 4 0 002 .5 3 3 0 001.8-.5V95.8l-1.3.6c-1 .4-1.5.7-1.9 1a10 10 0 00-3.3 5.5 36.6 36.6 0 00-.4 7.8 5.6 5.6 0 003.1 4.5zm22 26.7v-2.8a42.6 42.6 0 010-3.9V134l-.3-1.8c0-3.3-.3-9.5-.8-18.4a524 524 0 01-.8-17.7c-3 0-5 0-6.1-.2-1-.3-1.5-.7-1.5-1.2.3-.6.7-.8 1.4-.8 1.5 0 3.6 0 6.5.3l6.4.3h3.1c.9 0 1.3.3 1.3 1 0 .2-.1.5-.5.7l-1.1.2c-1 0-2 0-3.1-.2l-3.2-.1c-.2 0-.3 0-.3.2v1.4c0 4.8.2 12 .8 21.8.6 10 .8 17.3.8 21.7 0 .3-.2.6-.6 1a2 2 0 01-1.2.4l-.8-.6zm24.8 2.4c-5.8 0-8.7-9-8.7-27.2v-2.6c0-13.8 1.8-20.7 5.3-20.7l1 .3c1.6.5 3.2.8 4.7 1 1 .2 1.9 1.2 2.8 2.9a21 21 0 012.3 7c.6 3 .8 6 .8 9l-.1.3v4.4l.1 4.4c0 2.6 0 4.8-.2 6.9-.3 3-.8 5.6-1.5 7.9a14 14 0 01-1.6 3.3c-.5.9-1.2 1.6-2 2.2-.8.6-1.8 1-3 1zm-.3-2.1c1.9 0 3.3-1.4 4.3-4.1.9-2.8 1.5-5.6 1.7-8.4a111.7 111.7 0 00-.2-15.9l-.4-8.7-.3-.6.2-.4c0-2.1-.6-4-1.9-5.6a5.3 5.3 0 00-4.3-2.4c-2.3 0-3.7 1.1-4.1 3.3a57 57 0 00-.3 3.2 41 41 0 01-.4 7.4l-.3 3.5-.1 3.5v2.9l.1 3a62.4 62.4 0 001.7 13.6c.4 1.5 1 2.8 1.7 3.9.7 1.2 1.6 1.8 2.6 1.8zm19.2 1.6a62.5 62.5 0 01-.6-17.6l.1-6.8a4 4 0 01-.5-1.7c.5-.8.8-3 .8-6.8 0-9-.2-13.8-.4-14.4.4-1.2.8-1.8 1-1.8h3.3c.5 0 1.3.2 2.3.8 1 .5 1.9 1 2.6 1.6 1.2 1.1 1.8 4 1.8 8.7 0 2.5 0 4.5-.2 5.8-.1 1-.3 1.7-.5 2.2-.2.6-.5 1.2-1 1.9-.7 1.1-2 2-3.8 3l-3 1.1v8.8c0 1.3 0 3.7.3 7.3l.1 2.3.2 4.8c0 1-.5 1.4-1.4 1.4l-1.1-.6zm2.3-26.5c1.5 0 2.7-.7 3.7-2l1-2 .5-2.4c.3-1.5.5-3.1.5-5v-2a25.7 25.7 0 00-.4-3.8c-.2-.7-.5-1.2-.8-1.6-.3-.4-.7-.8-1.3-1.1-.6-.3-1.3-.5-2.1-.5-.6 0-1 .2-1.3.5-.2.3-.3.8-.3 1.5 0 1.2 0 3 .2 5.4l.1 5.3-.1 3.5-.2 3.5.5.7z" fill="#2F485E"/><path d="M33 245.1a4 4 0 01-1 .2c-.5 0-1-.4-1.2-1.2-.2-.6-.3-1.3-.3-2.2l.1-5v-.9l-.2-.7h-8.5l-3.6.7-6.6.9-3.3.3-3.7.4v4.2c0 .8-.2 1.4-.6 1.8-.4.4-.8.6-1.1.6-.2 0-.5 0-.9-.3a3.5 3.5 0 01-1.5-2.6l-.2-5.4c0-2 .7-3 2.4-3 1 0 1.6-.2 2.2-.7l2-2c.7-1 1.2-2.1 1.6-3.3a38.8 38.8 0 002.2-10l.8-7.5c.4-5.2.6-10.4.6-15.7v-4.1c0-1 .2-1.7.8-2.3.5-.6 1.3-1 2.2-1l.7.1c2.2.4 4 .7 5.5.8h.4c.6 0 1-.2 1.1-.4a2 2 0 011.6-.9c.5 0 .9.1 1.2.3.8.3 1.3 1 1.6 2.2l-.4 12.7a1164.5 1164.5 0 00.2 23.5v4l.2 1.2.1 1a24.3 24.3 0 003.1 0c1.1 0 2 .2 3 1a3 3 0 011.2 2.4 88.9 88.9 0 01-.4 9c-.1 1-.5 1.7-1.3 1.9zm-21.3-11.8l6.5-.6c1.6-.3 3.2-.6 4.8-1.1a233.3 233.3 0 000-40l-7.2-.4v3.5l-.9 17a61.5 61.5 0 01-5 21.8l1.8-.2zm27 4.3c-.4 0-.7 0-1-.3l-.7-1v-.4c0-.7.3-1.2 1-1.6a6.4 6.4 0 003-2.7c.8-1.2 1.4-2.6 1.6-4.3a87.4 87.4 0 001.3-20.5c-.3-8.4-.6-14.2-.9-17.6v-.3c0-.5.1-.8.3-1 .2-.3.6-.5 1-.6a43.3 43.3 0 019.8-.8c1.2 0 2 .4 2.6 1 .6.7.9 1.6.9 2.7v4c.2 3.4.2 6 .2 7.7v3.5a415.9 415.9 0 001 28.2c.1 1 0 1.6-.4 2-.3.4-.8.6-1.5.7-1.7 0-2.5-.7-2.6-2.3a41.7 41.7 0 00.1-7.8v-8.5a365.2 365.2 0 00-1.3-28.4l-1.9.4-3.8.5a85.4 85.4 0 000 7.8l.3 5.9v1.6a377 377 0 01-.4 18l-.6 4.8c-.5 2.6-2 5.3-4.5 8-.7.8-1.8 1.2-3.3 1.3h-.2zm28-1c-.5 0-.8-.2-1.1-.4-.3-.1-.4-.4-.5-.9 0-.3.2-.6.4-1 .2-.3.4-.5.6-.5.4 0 .7-.2 1-.5l.5-1 .4-2.2c.2-1.2.4-2.3.4-3.4l.1-1.3-.1-2.5-.2-2.4c0-2.8 1-5.6 3.2-8.4-2.9-2.6-4.3-5.5-4.3-8.6v-2.4a17.2 17.2 0 012.5-10.1 4 4 0 011.4-1.7l2-1.2a75 75 0 003-1.2l1.3-.8c.7-.3 1.3-.4 2-.4.9 0 1.7.2 2.4.6.7.5 1.1 1 1.1 1.6l-.1 10-.3 10.5v8.3l.6 9.6.3 4.8.2 1.5.2 1.3c0 1.4-.7 2-2 2-.7 0-1.2-.1-1.7-.4-.5-.3-.7-.7-.8-1.3l-.2-3.5-.2-18.4c-1.7.3-3 .6-3.8 1a4 4 0 00-1.9 1.4 7 7 0 00-.8 2.4c-.2.6-.2 1.6-.2 2.8l.1 2.8v2.8c0 2.1 0 4-.3 5.4-.2 1.4-.8 2.8-1.6 4-.4.7-1 1.2-1.6 1.5-.7.3-1.4.4-2 .3zm7.3-26.5h1c1 0 2.3-.1 4-.6a176.6 176.6 0 00-.4-13.4c0-2 0-4.2.2-6.3-1.3.2-2.5.6-3.5 1-1 .6-1.8 1.1-2.1 1.7-1.3 2.4-2 4.8-2 7l.1 5.9c0 1 .3 2 .8 3 .4 1 1 1.5 1.9 1.7zm34.2 26.6c-1 0-1.7-.4-2-1.4-.2-.6-.3-1.4-.3-2.5l.3-7.8c.3-3 .4-5.6.4-8 0-2.6 0-6.5.2-11.7l.2-11.7-.2-2-.3-1.8v-.4c0-1.2.2-2 .6-2.5.3-.6 1-.8 1.9-.8 1.3 0 2.7.3 4.2 1 1.5.8 2.6 1.7 3.3 2.9a17 17 0 012.2 8.9c0 2.6-.3 4.9-.7 6.7-.4 1.8-1.2 3.4-2.3 5 1.3 1.2 2.2 2.9 2.7 4.9.5 2 .7 4.5.7 7.5s-.5 5.6-1.5 7.8a9.8 9.8 0 01-5.2 5.2c-1.4.5-2.8.7-4.2.7zm2.4-28.3c2.6 0 3.9-3 3.9-9 0-6.3-1-9.7-3-10-.6 1.2-.9 3.9-.9 8v11zm-.4 24.6a5.5 5.5 0 003.7-2.8c.8-1.6 1.3-3.3 1.3-5.3s-.1-3.9-.4-5.5a12.6 12.6 0 00-2-5.3 3.4 3.4 0 00-2.1-1.3 167.3 167.3 0 00-.5 14l-.1 2.5v3.7zm31.6 3.7c-1.2 0-2-.2-2.5-.6-.6-.3-.9-1-.9-1.9 0-1.5-.2-4-.7-7.5l-.3-1.6-7.3-1c-.3 1-.7 3.3-1.3 6.8-.3 2.4-.7 4-1.4 4.8-.3.4-.8.7-1.5.7-.6 0-1.1-.2-1.6-.5-.5-.4-.7-1-.7-1.5l.1-.3v-.3a329.3 329.3 0 007.7-40.6l.5-4.3a6 6 0 01.8-2.5h2.6a3 3 0 011.7.5c.5.3.8.8.8 1.4 0 3.7.5 9.3 1.5 16.7 1 7.6 1.5 13 1.5 16l.4 2.3.3 2.2.8 4.4.7 4.6c0 1.2-.4 1.9-1.2 2.2zm-5-14.2l-.1-2.8c0-4.4-.4-10-1.2-17l-.8-7.7a597.8 597.8 0 00-4.3 26.3c.7.5 2.9.9 6.5 1.2zm20 14c-1.4 0-2.8 0-4.5-.4-.6-.2-1-.5-1.1-1a470 470 0 01-.6-15.5v-4.5c0-3.2 0-5.5-.2-7l-.9-13.2-.3-6c0-.6 0-1 .3-1.2.2-.3.5-.4 1-.4 1.7 0 2.7.7 2.9 2.2a81.9 81.9 0 011 15.6v6a188.8 188.8 0 00.4 19l.1 2.9.2.6h2.6c1.7 0 2.5-.1 2.5-.4v-1.9-1.4-2.1l-.2-11.1-.2-8.4a482.4 482.4 0 010-20c0-.6.1-1 .4-1.2.3-.3.8-.3 1.5-.2 1 .1 1.6.4 1.8.7.3.3.4 1 .4 2-.3 2.8-.5 6.5-.5 10.8l.1 6.6a205.3 205.3 0 010 17.2l.2 5.2.3 3.7h6.6V218.5a175 175 0 00-.2-13.4l-.2-6.5-.2-7v-3.8c0-.5.2-.8.4-1l1.2-.2c1 0 1.6.3 2 .7.4.5.5 1.1.5 2v9.6l.1 1.9a69.7 69.7 0 01-.3 13.3v2a19.7 19.7 0 01.2 4v5.2a44.7 44.7 0 00.2 4.7l.2 1.6.1.8a5.6 5.6 0 01.6 1.8c0 .7-.5 1.3-1.4 1.5-1 .3-2.2.4-3.7.4l-9.1.1-2 .2-2.2.2zm30.7.5c-.7 0-1.3-.3-1.8-.7-.5-.4-.8-1-.8-1.6v-3.4-1.6l-.3-4.7-.2-4.8a381.3 381.3 0 01.6-21.6l-.3-3-.2-3.2c0-3.5 1-5.2 3.1-5.2 1.6 0 3.5.3 5.6 1 2.2.6 3.3 1.3 3.3 2.2 0 .5-.2 1-.7 1.4l-1.4 1c-2.1-.8-4-1.2-5.7-1.5a51.7 51.7 0 010 8.5l-.2 5.3.2 1.2h1.2l1.5-.1c2.4 0 3.5.7 3.5 2 0 .6-.2 1-.6 1.5-.5.3-1 .5-1.7.5-1 0-1.6 0-2.1-.2h-1.8l.1 5.7a270.6 270.6 0 01-.3 13.3c0 2.8 0 4.2.2 4.2h2.4l3-.2c1.9 0 2.8.6 2.8 1.8 0 .7-.3 1.2-1 1.6a4 4 0 01-2.1.6h-6.3zm18.3-.4l-.3-1c-.1-.5-.2-1-.1-1.3a267.2 267.2 0 01.5-17.4c0-3.6-.2-8-.5-13.2-.3-6.4-.5-11.1-.5-14.4 0-.7.3-1.4 1-2a3 3 0 012-.9c2.9 0 5.3.2 7.4.7 1 .2 1.6.5 2 1 .2.5.3 1.2.2 2.3a4 4 0 01-3.2.5l-3.6-.3h-.1c-.7 0-1 .4-1 1.1l-.4 12.3a684 684 0 00.3 14 110.5 110.5 0 000 15.9c0 1-.2 1.8-.5 2.2-.3.4-.8.6-1.6.6l-1.6-.1zm25.4.8c-1.2 0-2.4-.4-3.5-1.3-1.1-.7-2-1.8-2.7-3.2-1.4-3-2.3-6.3-2.6-9.8a74 74 0 01-.6-11.2v-1.4l-.1-.3v-6.5l.7-7.6c.2-2.4.8-4.6 1.7-6.9.3-1 .8-1.7 1.3-2.2.5-.5 1.2-.8 1.8-.8a12.4 12.4 0 019.4 4 26 26 0 014 10.3c.3 2.1.4 4.3.4 6.6v4.8l.2 4.2c0 14.2-3.3 21.3-10 21.3zm-.3-3.1c1 0 1.7-.3 2.5-1 .7-.8 1.3-1.8 1.7-3 1-2.5 1.5-5.2 1.7-8.1a68 68 0 00-.2-15.3c-.3-3.8-.4-6.6-.4-8.5v-1.3a8 8 0 00-2-5 5.3 5.3 0 00-4.1-2c-1.7 0-2.8 1-3.4 3a31.9 31.9 0 00-.7 8.3v5.3c-.2 1-.2 2.2-.2 3.4 0 2.7 0 5.3.2 8 .2 3.6.7 7.2 1.5 10.7.8 3.7 2 5.5 3.4 5.5zm41.8 2.7c-1.1 0-2.3-.1-3.5-.5a10 10 0 01-2.7-1c-3.3-2.1-5-8-5-17.4V212a166 166 0 01.4-10.3 23.6 23.6 0 012.1-8.8 9.5 9.5 0 012.2-3.4c.9-.8 2-1.4 3.4-2 1.2-.5 2.7-.8 4.6-.8.7 0 1.3.2 1.7.5.4.4.6.8.6 1.4 0 .5-.2.9-.6 1.3-.3.4-.6.6-1 .7h-3.6c-1 0-1.8.6-2.5 1.8-.8 1.2-1.3 2.9-1.6 4.8-.6 3.7-1 6.6-1 8.9v.4l-.1 7a155.5 155.5 0 000 11.8c.3 1.8.7 3.3 1.3 4.5a5.5 5.5 0 003 2.9c.8.3 1.6.4 2.5.4.5 0 1-.2 1.6-.6.7 0 1.2.2 1.6.5.4.2.6.6.6 1.2 0 1.9-1.3 2.8-4 2.8zm25.3-.3c-1.1 0-2-.2-2.5-.6-.6-.3-.8-1-.8-1.9 0-1.5-.3-4-.8-7.5l-.3-1.6-7.3-1a88 88 0 00-1.2 6.8c-.3 2.4-.8 4-1.4 4.8-.4.4-.9.7-1.5.7s-1.2-.2-1.7-.5c-.4-.4-.7-1-.7-1.5l.2-.3v-.3a329.1 329.1 0 007.6-40.6l.5-4.3a6 6 0 01.9-2.5h2.5a3 3 0 011.8.5c.5.3.7.8.7 1.4 0 3.7.5 9.3 1.6 16.7 1 7.6 1.4 13 1.4 16l.4 2.3.4 2.2.7 4.4c.5 2.4.7 4 .7 4.6 0 1.2-.4 1.9-1.2 2.2zm-4.9-14.2l-.2-2.8c0-4.4-.4-10-1.2-17l-.7-7.7a599.3 599.3 0 00-4.4 26.3c.8.5 3 .9 6.5 1.2zm14.8 13.4c-.6-.2-1-.7-1-1.3v-1.1l-.3-9.3a914.4 914.4 0 01-1-35c.1-1.6 1-2.4 2.5-2.3 1.3 0 2 .8 2.2 2.4v.9l-.1 18.6v13.3a24 24 0 00.4 4.4 25.1 25.1 0 012.3-7.2l1.6-4.4a608.5 608.5 0 016-18.1c1.2-4.2 2.2-7 2.7-8.2.4-1.1 1-1.9 2-2.2l1.3-.2c.7 0 1.4.2 2.1.7v3.5a306.3 306.3 0 00.3 15.3v6.5l.2 20c0 .7-.1 1.5-.5 2.4a2 2 0 01-.7 1c-.4.2-.7.3-1.1.3-1.4 0-2-.7-2-2l.1-4.3.2-4.3a1165.8 1165.8 0 00-.7-25.5l-.2-2.7c-.5.5-.7.9-.7 1l-1.2 3.6-1.9 5.7-6.4 18-3.4 9c-.3 1-1 1.6-1.7 1.6l-1-.1zm7.5-53.4c-1.2 0-2.3-.5-3.4-1.4-1-1-1.6-2-1.6-3.1 0-.5.2-.9.5-1.2a2 2 0 011.2-.5l1.7.1c.5.1.9.4 1.3 1 .4.5.9.7 1.4.7.5 0 1-.3 1.5-1l.6-1 .3-.7c.6-1 1.2-1.4 2-1.4l.6.1c.3.2.7.5 1 1a2 2 0 010 2 77 77 0 01-.2.7 6 6 0 01-2.6 3.7c-1.2.7-2.6 1-4.3 1zm26.8 52.3V232l-.1-2.8v-2.5a1109.3 1109.3 0 01-2.1-36c-2.9 0-4.7-.4-5.5-.8-.5-.4-.8-.9-.8-1.4 0-.4.2-.7.7-1a3 3 0 011.7-.5c1.3 0 3 0 5 .3l5 .3h1.2c1.5 0 2.3.6 2.3 1.8 0 .6-.2 1-.7 1.5-.5.3-1 .5-1.7.5-.5 0-1.1 0-2-.2l-1.4-.3-.1.4v.3c0 4.4.3 11.4 1.2 21 .8 9 1.2 16 1.2 21a2 2 0 01-.9 1.6c-.5.5-1 .7-1.7.7l-1.3-1zm29.4 1.9c-1.2 0-2-.2-2.5-.6-.6-.3-.9-1-.9-1.9 0-1.5-.2-4-.7-7.5l-.3-1.6-7.3-1a88 88 0 00-1.3 6.8c-.3 2.4-.7 4-1.4 4.8-.3.4-.8.7-1.5.7-.6 0-1.1-.2-1.6-.5-.5-.4-.7-1-.7-1.5l.1-.3v-.3a329.1 329.1 0 007.7-40.6l.5-4.3a6 6 0 01.8-2.5h2.6a3 3 0 011.7.5c.5.3.8.8.8 1.4 0 3.7.5 9.3 1.5 16.7 1 7.6 1.5 13 1.5 16l.4 2.3.4 2.2.7 4.4.7 4.6c0 1.2-.4 1.9-1.2 2.2zm-5-14.2l-.1-2.8c0-4.4-.4-10-1.2-17l-.8-7.7a600.9 600.9 0 00-4.3 26.3c.7.5 2.9.9 6.5 1.2z" fill="#4BB3A3"/></svg>