<svg width="1300" height="628" viewBox="0 0 1300 628" fill="none" xmlns="http://www.w3.org/2000/svg">
<g clip-path="url(#clip0)">
<path d="M7.67398 454.553C53.506 568.433 249.673 622.888 413.913 599.998C664.714 565.043 559.741 507.161 903.476 599.998C1247.23 692.834 1069.58 451.848 1186.18 329.406C1303.99 205.7 1340.7 130.623 1246.79 120.386C1152.88 110.148 1152.16 163.521 968.979 43.9142C785.796 -75.6923 612.135 90.1006 509.445 61.2531C406.755 32.4054 148.937 37.6308 201.013 263.714C233.734 405.769 -49.616 312.202 7.67398 454.553Z" fill="black" fill-opacity="0.0509804"/>
<path d="M644.16 222.667L643.115 205.606L628.296 201.376C626.275 196.362 624.255 191.349 621.381 186.387L627.371 172.32L614.694 161.109L601.46 168.77C597.036 166.472 591.76 164.226 585.735 163.739L579.727 149.551L562.662 150.596L558.431 165.412C553.416 167.431 548.4 169.451 544.291 172.271L530.22 166.283L518.206 179.862L525.868 193.093C523.569 197.515 522.177 202.738 520.784 207.961L506.592 213.967L507.638 231.029L522.457 235.258C524.477 240.272 526.497 245.286 529.371 250.247L523.381 264.314L536.058 275.525L549.292 267.864C553.716 270.162 558.992 272.408 565.017 272.896L571.025 287.084L588.091 286.039L592.322 271.223C597.336 269.203 602.352 267.184 607.315 264.311L621.385 270.3L632.599 257.625L624.936 244.394C627.235 239.973 629.481 234.697 629.968 228.674L644.16 222.667ZM577.467 252.439C558.695 253.589 542.396 239.175 541.245 220.408C540.096 201.641 554.513 185.345 573.285 184.195C592.057 183.046 608.357 197.46 609.507 216.227C610.656 234.994 596.239 251.29 577.467 252.439Z" fill="#4BB3A3"/>
<path d="M596.337 216.783C597.059 228.564 588.096 238.694 576.312 239.416C564.529 240.137 554.396 231.177 553.674 219.396C552.952 207.616 561.915 197.485 573.699 196.763C585.482 196.042 595.615 205.002 596.337 216.783Z" fill="#C0C7C7"/>
<path d="M553.602 219.197C554.326 231.034 564.391 240.144 576.063 239.429L573.426 196.404L573.45 196.781C561.778 197.496 552.875 207.353 553.602 219.197Z" fill="#D1D8D8"/>
<path d="M939.162 465.48C888.69 465.48 847.775 460.333 847.775 453.983C847.775 447.634 888.69 442.487 939.162 442.487C989.634 442.487 1030.55 447.634 1030.55 453.983C1030.55 460.333 989.634 465.48 939.162 465.48Z" fill="#D5D6D6" fill-opacity="0.53"/>
<path d="M321.369 576.694C371.841 576.694 412.756 571.547 412.756 565.198C412.756 558.849 371.841 553.702 321.369 553.702C270.897 553.702 229.981 558.849 229.981 565.198C229.981 571.547 270.897 576.694 321.369 576.694Z" fill="#D5D6D6" fill-opacity="0.5"/>
<path d="M476.909 224.701V192.935L449.901 183.406C446.724 173.876 443.546 164.346 438.78 154.817L451.49 129.405L429.248 107.168L403.829 119.875C395.886 115.11 386.354 110.345 375.233 108.757L365.701 81.7555H333.927L324.395 108.757C314.863 111.933 305.33 115.11 297.387 119.875L271.968 107.168L248.138 130.993L260.848 156.405C256.082 164.346 252.904 173.876 249.727 183.406L222.719 192.935V224.701L249.727 234.231C252.904 243.761 256.082 253.29 260.848 262.82L248.138 288.232L270.38 310.468L295.799 297.762C303.742 302.527 313.274 307.292 324.395 308.88L333.927 335.881H365.701L375.233 308.88C384.765 305.703 394.297 302.527 403.829 297.762L429.248 310.468L451.49 288.232L438.78 262.82C443.546 254.878 448.312 245.349 449.901 234.231L476.909 224.701ZM349.814 272.349C314.863 272.349 286.267 243.761 286.267 208.818C286.267 173.876 314.863 145.287 349.814 145.287C384.765 145.287 413.361 173.876 413.361 208.818C413.361 243.761 384.765 272.349 349.814 272.349Z" fill="#70909A"/>
<path d="M388.871 208.356C388.871 230.289 371.093 248.062 349.153 248.062C327.213 248.062 309.436 230.289 309.436 208.356C309.436 186.422 327.213 168.649 349.153 168.649C371.093 168.649 388.871 186.422 388.871 208.356Z" fill="#C0C7C7"/>
<path d="M309.324 207.979C309.324 230.018 326.957 248.06 348.69 248.06V167.952V168.653C326.957 168.653 309.324 185.926 309.324 207.979Z" fill="#D1D8D8"/>
<path d="M275.373 341.895V335.314L269.778 333.34C269.12 331.366 268.462 329.393 267.474 327.419L270.107 322.154L265.5 317.549L260.235 320.18C258.59 319.193 256.614 318.206 254.311 317.878L252.337 312.284H245.755L243.78 317.878C241.806 318.535 239.832 319.193 238.186 320.18L232.92 317.549L227.984 322.483L230.617 327.748C229.63 329.393 228.972 331.366 228.314 333.34L222.719 335.314V341.895L228.314 343.868C228.972 345.842 229.63 347.816 230.617 349.791L227.984 355.054L232.591 359.66L237.857 357.028C239.502 358.015 241.477 359.002 243.78 359.331L245.755 364.925H252.337L254.311 359.331C256.285 358.673 258.26 358.015 260.235 357.028L265.5 359.66L270.107 355.054L267.474 349.791C268.462 348.145 269.449 346.171 269.778 343.868L275.373 341.895ZM249.046 351.765C241.806 351.765 235.883 345.842 235.883 338.605C235.883 331.366 241.806 325.444 249.046 325.444C256.285 325.444 262.209 331.366 262.209 338.605C262.209 345.842 256.285 351.765 249.046 351.765Z" fill="#4BB3A3"/>
<path d="M257.136 338.508C257.136 343.052 253.454 346.733 248.909 346.733C244.365 346.733 240.682 343.052 240.682 338.508C240.682 333.965 244.365 330.284 248.909 330.284C253.454 330.284 257.136 333.965 257.136 338.508Z" fill="#C0C7C7"/>
<path d="M240.659 338.43C240.659 342.996 244.311 346.733 248.813 346.733V330.138V330.284C244.311 330.284 240.659 333.862 240.659 338.43Z" fill="#D1D8D8"/>
<path d="M702.612 117.72L703.338 104.428L692.255 99.8241C691.142 95.7642 690.031 91.7044 688.254 87.608L694.152 77.265L685.353 67.4535L674.427 72.1902C671.212 70.0152 667.333 67.8039 662.715 66.8856L659.343 55.3704L646.049 54.6454L641.443 65.7257C637.382 66.8373 633.322 67.949 629.889 69.7615L619.543 63.8649L609.028 73.2898L613.765 84.2126C611.59 87.4269 610.043 91.3421 608.496 95.2574L596.978 98.6284L596.253 111.92L607.336 116.524C608.448 120.584 609.56 124.644 611.337 128.74L605.438 139.083L614.238 148.895L625.163 144.158C628.378 146.333 632.258 148.544 636.875 149.462L640.247 160.977L653.542 161.703L658.147 150.622C662.208 149.51 666.269 148.399 670.366 146.623L680.712 152.519L690.526 143.723L685.788 132.8C687.964 129.586 690.175 125.707 691.094 121.091L702.612 117.72ZM648.345 134.757C633.72 133.96 622.408 121.345 623.205 106.724C624.003 92.1032 636.621 80.7935 651.245 81.5906C665.87 82.3882 677.183 95.0031 676.385 109.624C675.588 124.245 662.97 135.554 648.345 134.757Z" fill="#70909A"/>
<path d="M666.148 108.871C665.648 118.048 657.803 125.079 648.622 124.579C639.443 124.079 632.41 116.236 632.91 107.059C633.412 97.8805 641.255 90.8493 650.436 91.3497C659.616 91.8508 666.649 99.6927 666.148 108.871Z" fill="#C0C7C7"/>
<path d="M632.872 106.899C632.369 116.121 639.335 124.072 648.429 124.568L650.257 91.0492L650.241 91.3424C641.148 90.8469 633.376 97.671 632.872 106.899Z" fill="#D1D8D8"/>
<path d="M790.409 174.671V164.914L782.114 161.987C781.138 159.06 780.162 156.134 778.699 153.206L782.602 145.401L775.771 138.572L767.963 142.474C765.523 141.01 762.596 139.547 759.18 139.059L756.253 130.766H746.494L743.566 139.059C740.638 140.035 737.711 141.01 735.271 142.474L727.463 138.572L720.144 145.889L724.048 153.694C722.584 156.134 721.608 159.06 720.632 161.987L712.337 164.914V174.671L720.632 177.598C721.608 180.525 722.584 183.452 724.048 186.379L720.144 194.184L726.975 201.014L734.782 197.111C737.222 198.574 740.15 200.038 743.566 200.526L746.494 208.819H756.253L759.18 200.526C762.108 199.55 765.036 198.574 767.963 197.111L775.771 201.014L782.602 194.184L778.699 186.379C780.162 183.94 781.626 181.013 782.114 177.598L790.409 174.671ZM751.373 189.306C740.638 189.306 731.855 180.525 731.855 169.792C731.855 159.06 740.638 150.279 751.373 150.279C762.108 150.279 770.892 159.06 770.892 169.792C770.892 180.525 762.108 189.306 751.373 189.306Z" fill="#4BB3A3"/>
<path d="M763.369 169.65C763.369 176.387 757.909 181.846 751.17 181.846C744.432 181.846 738.971 176.387 738.971 169.65C738.971 162.913 744.432 157.454 751.17 157.454C757.909 157.454 763.369 162.913 763.369 169.65Z" fill="#C0C7C7"/>
<path d="M738.937 169.535C738.937 176.304 744.353 181.845 751.028 181.845V157.241V157.456C744.353 157.456 738.937 162.761 738.937 169.535Z" fill="#D1D8D8"/>
<path d="M1016.63 410.292C1016.63 407.953 1018.53 406.056 1020.87 406.056H1026.19C1028.53 406.056 1030.43 407.953 1030.43 410.292V446.356V482.42C1030.43 484.759 1028.53 486.655 1026.19 486.655H1020.87C1018.53 486.655 1016.63 484.759 1016.63 482.42V446.356V410.292Z" fill="#80B6BC"/>
<path d="M1037.33 385.039C1037.33 382.013 1039.3 379.561 1041.72 379.561H1046.74C1049.16 379.561 1051.13 382.013 1051.13 385.039V454.682C1051.13 457.707 1049.16 460.159 1046.74 460.159H1041.72C1039.3 460.159 1037.33 457.707 1037.33 454.682V385.039Z" fill="#80B6BC"/>
<path d="M850.023 383.576C850.023 381.237 848.13 379.34 845.79 379.34H840.947C838.607 379.34 836.706 381.237 836.706 383.576V456.585C836.706 458.924 838.607 460.82 840.947 460.82H845.79C848.13 460.82 850.023 458.924 850.023 456.585V383.576Z" fill="#80B6BC"/>
<path d="M830.832 410.714C830.832 407.655 828.931 405.177 826.591 405.177H821.748C819.408 405.177 817.515 407.655 817.515 410.714V481.119C817.515 484.177 819.408 486.656 821.748 486.656H826.591C828.931 486.656 830.832 484.177 830.832 481.119V442.752V410.714Z" fill="#80B6BC"/>
<path d="M526.781 308.912C527.671 303.763 527.485 298.597 526.312 293.682L534.498 289.394L529.51 278.007L520.983 281.503C518.189 277.346 514.538 273.782 510.209 271.054L513.061 262.066L501.695 257.674L498.062 266.346C495.964 265.95 493.86 265.81 491.776 265.81L487.085 275.816L491.776 285.066C501.092 285.066 508.636 292.851 508.636 302.449C508.636 312.051 501.092 319.836 491.776 319.836L487.085 327.417L491.776 339.061C494.659 339.061 497.503 338.741 500.257 338.043L504.413 346.461L515.458 341.331L512.085 332.551C516.095 329.663 519.563 325.911 522.198 321.425L530.923 324.369L535.191 312.656L526.781 308.912Z" fill="#D1D8D8"/>
<path d="M491.777 319.837C482.467 319.837 474.919 312.052 474.919 302.45C474.919 292.852 482.464 285.067 491.774 285.067L491.777 265.81C488.901 265.81 486.056 266.138 483.306 266.821L479.152 258.392L468.092 263.542L471.494 272.32C467.469 275.201 464 278.962 461.384 283.413L452.658 280.51L448.363 292.219L456.779 295.952C455.878 301.089 456.07 306.288 457.225 311.191L449.073 315.453L454.082 326.857L462.588 323.369C465.375 327.528 469.012 331.1 473.368 333.811L470.533 342.779L481.882 347.226L485.501 338.554C487.599 338.934 489.693 339.074 491.777 339.062V319.837Z" fill="#C6E3E5"/>
<path d="M508.637 302.451C508.637 292.852 501.092 285.067 491.777 285.067L487.086 302.63L491.777 319.836C501.092 319.837 508.637 312.052 508.637 302.451Z" fill="#C0C7C7"/>
<path d="M474.918 302.451C474.918 312.052 482.464 319.837 491.773 319.837L491.777 285.068C482.467 285.067 474.918 292.852 474.918 302.451Z" fill="#D1D8D8"/>
<path d="M341.082 427.146C341.898 422.447 341.726 417.725 340.656 413.237L348.133 409.318L343.577 398.914L335.788 402.112C333.235 398.316 329.9 395.061 325.946 392.563L328.553 384.36L318.17 380.34L314.853 388.269C312.935 387.909 311.014 387.773 309.111 387.779L304.826 395.998L309.111 405.364C317.618 405.364 324.511 412.472 324.511 421.247C324.511 430.011 317.618 437.123 309.111 437.127L304.826 445.16L309.111 454.69C311.742 454.687 314.342 454.393 316.856 453.757L320.652 461.448L330.742 456.758L327.662 448.744C331.323 446.1 334.492 442.676 336.898 438.579L344.868 441.27L348.766 430.564L341.082 427.146Z" fill="#D1D8D8"/>
<path d="M324.511 421.247C324.511 412.472 317.618 405.364 309.111 405.364L304.826 421.222L309.111 437.127C317.618 437.123 324.511 430.01 324.511 421.247Z" fill="#C0C7C7"/>
<path d="M293.71 421.247C293.71 430.017 300.603 437.127 309.105 437.127H309.11V405.364H309.105C300.603 405.364 293.71 412.472 293.71 421.247Z" fill="#D1D8D8"/>
<path d="M423.211 517.399C420.491 517.399 419.838 513.606 422.403 512.698L463.414 498.176C463.673 498.084 463.946 498.037 464.221 498.037H539.079C541.8 498.037 542.452 501.831 539.888 502.739L498.877 517.26C498.618 517.352 498.345 517.399 498.069 517.399H423.211Z" fill="#888E8F" fill-opacity="0.17"/>
<path d="M558.111 242.097H356.116C347.967 242.097 341.341 248.731 341.341 256.87V397.891C341.341 406.037 347.967 412.667 356.116 412.667H451.017V506.438C432.271 507.28 417.885 511.816 417.885 516.284C417.885 516.465 417.959 517.917 418.011 517.917H496.212C496.269 517.917 496.343 516.114 496.343 515.919C496.343 511.465 481.952 507.21 463.206 506.425V412.667H558.112C566.251 412.667 572.887 406.037 572.887 397.891V256.87C572.887 248.731 566.251 242.097 558.111 242.097Z" fill="#93C4CC"/>
<path d="M558.111 242.097H457.111V517.917H496.211C496.268 517.917 496.342 516.114 496.342 515.919C496.342 511.465 481.952 507.21 463.206 506.425V412.667H558.112C566.25 412.667 572.886 406.037 572.886 397.891V256.87C572.886 248.731 566.25 242.097 558.111 242.097Z" fill="#80B6BC"/>
<path d="M351.997 251.297C350.51 251.297 349.295 252.501 349.295 253.998V400.766C349.295 402.259 350.509 403.466 351.997 403.466H562.229C563.717 403.466 564.927 402.259 564.927 400.766V253.997C564.927 252.501 563.717 251.296 562.229 251.296H351.997V251.297Z" fill="white"/>
<path d="M562.229 251.296H457.111V403.466H562.229C563.717 403.466 564.927 402.258 564.927 400.765V253.993C564.927 252.5 563.717 251.296 562.229 251.296Z" fill="#F7FAF9"/>
<path d="M438.093 278.137C430.343 270.392 419.811 265.475 408.078 265.078C407.569 265.062 407.074 265.001 406.555 265.001V309.667L438.093 278.137Z" fill="#F3764B"/>
<path d="M429.877 291.316C429.675 291.109 429.457 290.926 429.25 290.727L404.124 315.848L429.26 340.978C429.458 340.776 429.675 340.594 429.877 340.385C435.966 333.999 439.731 325.373 439.731 315.849C439.731 306.335 435.966 297.704 429.877 291.316Z" fill="#80B6BC"/>
<path d="M404.123 315.848V280.255C394.598 280.255 385.973 284.016 379.576 290.105C379.375 290.303 379.186 290.524 378.989 290.728C372.539 297.167 368.516 306.024 368.516 315.849C368.516 325.68 372.539 334.535 378.985 340.979C379.187 341.181 379.375 341.402 379.576 341.6C385.973 347.686 394.599 351.447 404.123 351.447H404.126C404.528 351.447 404.927 351.402 405.336 351.387C414.677 351.073 423.082 347.151 429.26 340.979L404.123 315.848Z" fill="#93C4CC"/>
<path d="M398.842 364.786H368.516V366.545H398.842V364.786Z" fill="#93C4CC"/>
<path d="M398.842 369.04H368.516V370.799H398.842V369.04Z" fill="#93C4CC"/>
<path d="M398.842 373.294H368.516V375.053H398.842V373.294Z" fill="#93C4CC"/>
<path d="M439.731 381.564H368.516V383.323H439.731V381.564Z" fill="#93C4CC"/>
<path d="M439.731 385.818H368.516V387.578H439.731V385.818Z" fill="#93C4CC"/>
<path d="M439.731 390.072H368.516V391.832H439.731V390.072Z" fill="#93C4CC"/>
<path d="M550.005 381.564H470.872V383.323H550.005V381.564Z" fill="#93C4CC"/>
<path d="M550.005 385.818H470.872V387.578H550.005V385.818Z" fill="#93C4CC"/>
<path d="M550.005 390.072H470.872V391.832H550.005V390.072Z" fill="#93C4CC"/>
<path d="M550.006 314.096H525.589V315.855H550.006V314.096Z" fill="#93C4CC"/>
<path d="M550.006 318.348H525.589V320.109H550.006V318.348Z" fill="#93C4CC"/>
<path d="M550.006 322.603H525.589V324.362H550.006V322.603Z" fill="#93C4CC"/>
<path d="M550.006 299.537H525.589V301.296H550.006V299.537Z" fill="#93C4CC"/>
<path d="M550.006 303.791H525.589V305.551H550.006V303.791Z" fill="#93C4CC"/>
<path d="M550.006 308.045H525.589V309.804H550.006V308.045Z" fill="#93C4CC"/>
<path d="M439.731 364.786H409.404V366.545H439.731V364.786Z" fill="#93C4CC"/>
<path d="M439.731 369.04H409.404V370.799H439.731V369.04Z" fill="#93C4CC"/>
<path d="M439.731 373.294H409.404V375.053H439.731V373.294Z" fill="#93C4CC"/>
<path d="M470.881 374.409C470.876 374.409 470.872 374.361 470.872 374.285V344.656C470.872 342.99 472.237 341.626 473.904 341.626H473.979C475.647 341.626 477.077 342.99 477.077 344.656V374.285C477.077 374.361 477.007 374.409 477.002 374.409H470.881Z" fill="#93C4CC"/>
<path d="M479.976 374.409C479.971 374.329 479.939 374.25 479.939 374.173V349.237C479.939 347.571 481.331 346.207 482.999 346.207H483.074C484.741 346.207 486.142 347.571 486.142 349.237V374.173C486.142 374.25 486.102 374.329 486.096 374.409H479.976Z" fill="#93C4CC"/>
<path d="M489.07 374.41C489.065 374.329 489.085 374.302 489.085 374.224V340.126C489.085 338.459 490.426 337.095 492.092 337.095H492.169C493.836 337.095 495.289 338.459 495.289 340.126V374.224C495.289 374.302 495.197 374.329 495.191 374.41H489.07Z" fill="#F3764B"/>
<path d="M498.24 374.409C498.234 374.409 498.231 374.361 498.231 374.286V360.207C498.231 358.54 499.595 357.176 501.261 357.176H501.337C503.004 357.176 504.433 358.54 504.433 360.207V374.286C504.433 374.361 504.364 374.409 504.359 374.409H498.24Z" fill="#93C4CC"/>
<path d="M507.333 374.409C507.328 374.33 507.297 374.25 507.297 374.174V335.832C507.297 334.164 508.688 332.801 510.356 332.801H510.431C512.099 332.801 513.5 334.164 513.5 335.832V374.174C513.5 374.25 513.46 374.33 513.454 374.409H507.333Z" fill="#93C4CC"/>
<path d="M516.429 374.41C516.423 374.329 516.443 374.302 516.443 374.224V340.126C516.443 338.459 517.784 337.095 519.452 337.095H519.527C521.195 337.095 522.646 338.459 522.646 340.126V374.224C522.646 374.302 522.555 374.329 522.549 374.41H516.429Z" fill="#93C4CC"/>
<path d="M525.598 374.409C525.593 374.409 525.589 374.361 525.589 374.285V344.656C525.589 342.99 526.952 341.626 528.621 341.626H528.696C530.364 341.626 531.792 342.99 531.792 344.656V374.285C531.792 374.361 531.723 374.409 531.719 374.409H525.598Z" fill="#93C4CC"/>
<path d="M534.693 374.409C534.688 374.33 534.655 374.25 534.655 374.174V340.831C534.655 339.164 536.047 337.799 537.715 337.799H537.79C539.458 337.799 540.859 339.164 540.859 340.831V374.174C540.859 374.25 540.818 374.33 540.812 374.409H534.693Z" fill="#93C4CC"/>
<path d="M543.787 374.409C543.781 374.328 543.802 374.301 543.802 374.223V350.324C543.802 348.657 545.142 347.293 546.809 347.293H546.884C548.552 347.293 550.004 348.657 550.004 350.324V374.223C550.004 374.301 549.912 374.328 549.907 374.409H543.787Z" fill="#93C4CC"/>
<path d="M509.542 316.115L514.273 312.562V270.545H504.812V312.562L509.542 316.115Z" fill="#93C4CC"/>
<path d="M509.541 324.363C511.132 324.363 512.422 323.074 512.422 321.484C512.422 319.894 511.132 318.605 509.541 318.605C507.951 318.605 506.662 319.894 506.662 321.484C506.662 323.074 507.951 324.363 509.541 324.363Z" fill="#80B6BC"/>
<path d="M498.23 316.116L502.96 312.562V282.061H493.499V312.562L498.23 316.116Z" fill="#93C4CC"/>
<path d="M498.228 324.363C499.819 324.363 501.108 323.074 501.108 321.484C501.108 319.894 499.819 318.605 498.228 318.605C496.638 318.605 495.348 319.894 495.348 321.484C495.348 323.074 496.638 324.363 498.228 324.363Z" fill="#80B6BC"/>
<path d="M486.916 316.115L491.647 312.561V301.331H482.185V312.561L486.916 316.115Z" fill="#93C4CC"/>
<path d="M486.916 324.363C488.507 324.363 489.796 323.074 489.796 321.484C489.796 319.894 488.507 318.605 486.916 318.605C485.326 318.605 484.037 319.894 484.037 321.484C484.037 323.074 485.326 324.363 486.916 324.363Z" fill="#80B6BC"/>
<path d="M475.603 316.115L480.334 312.561V276.306H470.872V312.561L475.603 316.115Z" fill="#F3764B"/>
<path d="M475.602 324.363C477.193 324.363 478.482 323.074 478.482 321.484C478.482 319.894 477.193 318.605 475.602 318.605C474.012 318.605 472.723 319.894 472.723 321.484C472.723 323.074 474.012 324.363 475.602 324.363Z" fill="#80B6BC"/>
<path d="M545.165 283.197C545.127 285.216 544.417 286.928 543.207 288.145C541.992 289.366 540.279 290.083 538.255 290.125C538.195 290.127 538.135 290.133 538.073 290.133C536.193 290.133 534.469 289.444 533.19 288.261C531.868 287.039 531.024 285.284 530.982 283.197C530.98 283.142 530.974 283.09 530.974 283.036C530.974 281.094 531.786 279.316 533.082 278.025C534.371 276.74 536.141 275.937 538.073 275.937C538.135 275.937 538.194 275.946 538.255 275.946V271.429C538.194 271.427 538.135 271.42 538.073 271.42C534.851 271.42 531.952 272.708 529.854 274.798C527.751 276.896 526.453 279.803 526.453 283.036C526.453 283.09 526.461 283.142 526.461 283.197C526.503 286.533 527.793 289.47 529.876 291.576C531.97 293.694 534.863 294.973 538.073 294.973C538.135 294.973 538.194 294.964 538.255 294.964C541.574 294.917 544.494 293.638 546.595 291.533C548.69 289.43 549.965 286.512 550.004 283.197H545.165Z" fill="#F3764B"/>
<path d="M538.108 290.249C542.079 290.249 545.297 287.031 545.297 283.062C545.297 279.092 542.079 275.874 538.108 275.874C534.138 275.874 530.919 279.092 530.919 283.062C530.919 287.031 534.138 290.249 538.108 290.249Z" fill="#93C4CC"/>
<path d="M386.968 340.247L383.365 317.82C383.28 317.202 383.563 316.342 383.993 315.904L391.14 308.661C391.57 308.224 392.395 308.012 392.974 308.192L396.198 309.189C396.776 309.366 397.019 309.964 396.737 310.516L392.879 318.067C392.597 318.618 392.75 319.388 393.22 319.781L395.236 321.466C395.705 321.859 396.553 322.007 397.122 321.796L400.204 320.648C400.772 320.437 401.646 320.553 402.145 320.902L403.753 322.032C404.251 322.384 404.45 323.131 404.194 323.694L399.663 333.634C399.407 334.196 397.555 341.336 397.009 341.071L386.968 340.247Z" fill="#F8B77C"/>
<path d="M401.884 323.729C400.803 323.633 400.003 322.652 400.095 321.54L400.679 314.511C400.771 313.396 401.723 312.572 402.803 312.668L403.618 312.738C404.698 312.834 405.499 313.813 405.407 314.929L404.822 321.956C404.73 323.07 403.778 323.897 402.699 323.8L401.884 323.729Z" fill="#F8B77C"/>
<path d="M404.153 301.03C404.017 301.169 403.907 301.242 403.838 301.377L389.165 329.571C388.893 330.095 389.111 330.77 389.622 331.051L391.194 331.925C391.705 332.206 392.345 332.007 392.618 331.481L407.292 303.289C407.361 303.154 407.387 303.035 407.425 302.841L404.153 301.03Z" fill="#DE2E46"/>
<path d="M405.776 301.93L390.394 331.482L391.195 331.925C391.706 332.206 392.346 332.007 392.619 331.482L407.293 303.289C407.362 303.155 407.388 303.036 407.425 302.842L405.776 301.93Z" fill="#A72335"/>
<path d="M407.423 302.841L404.144 301.024L409.365 295.052L407.423 302.841Z" fill="#FFDBA9"/>
<path d="M408.669 297.797L409.344 295.091L407.531 297.165L408.669 297.797Z" fill="#233250"/>
<path d="M391.385 310.313C390.99 309.348 391.353 308.271 392.196 307.904L402.072 303.601C402.915 303.234 403.538 303.06 403.931 304.023C403.931 304.023 405.64 307.232 401.731 308.714L393.92 312.117C393.079 312.484 392.076 312.001 391.681 311.038L391.385 310.313Z" fill="#F8B77C"/>
<path d="M403.893 340.921L383.717 336.967C381.589 354.469 383.421 388.625 353.053 367.36C346.349 362.666 341.559 373.245 341.559 373.245L343.175 387.786C386.805 408.745 398.105 395.198 403.893 340.921Z" fill="#E96642"/>
<path d="M327.415 357.636H320.204L319.421 362.651L320.204 367.749H327.415V357.636Z" fill="#F8B77C"/>
<path d="M320.205 357.636H312.982V367.749H320.205V357.636Z" fill="#FCC287"/>
<path d="M336.373 555.166C336.373 555.166 336.426 553.057 340.521 553.703C344.616 554.355 347.241 555.056 348.763 554.787C350.286 554.516 350.286 559.011 350.024 559.171C349.76 559.336 343.461 560.256 343.04 560.094C342.622 559.929 336.373 555.166 336.373 555.166Z" fill="#8C643E"/>
<path d="M335.268 562.64C335.268 562.64 333.275 564.047 333.955 567.782C334.274 569.135 338.043 568.718 345.813 572.452C353.584 576.186 363.985 579.344 375.586 572.956C376.794 572.305 377.74 567.27 373.538 566.892C369.34 566.511 335.268 562.64 335.268 562.64Z" fill="#D6CCC0"/>
<path d="M351.932 558.739C351.932 559.728 351.033 560.527 349.925 560.527H340.191C339.083 560.527 338.182 559.728 338.182 558.739V544.988C338.182 544.002 339.083 543.203 340.191 543.203H349.925C351.033 543.203 351.932 544.002 351.932 544.988V558.739Z" fill="#F8B77C"/>
<path d="M336.373 555.166C336.373 555.166 334.64 561.718 334.694 563.233C339.524 564.751 338.044 564.115 342.822 566.443C347.598 568.773 366.664 575.336 375.013 568.136C376.06 567.053 373.749 560.711 362.044 557.786C359.784 556.868 356.376 553.166 355.063 551.215C352.859 550.564 349.604 552.947 345.719 556.629C341.833 560.309 336.533 553.433 336.373 555.166Z" fill="#724B2D"/>
<path d="M357.335 559.922C357.325 559.905 356.693 558.742 356.935 557.274C356.364 557.422 355.762 557.636 355.18 557.938C355.069 557.994 354.943 557.993 354.838 557.932C354.73 557.873 354.659 557.763 354.647 557.639C354.569 556.907 354.6 556.228 354.749 555.588C354.644 555.601 354.538 555.612 354.427 555.622C353.657 555.703 352.778 555.797 351.766 555.886C351.623 555.9 351.49 555.828 351.419 555.703C351.347 555.578 351.35 555.42 351.428 555.299C353.184 552.551 356.491 552.693 356.627 552.693C356.773 552.701 356.901 552.796 356.952 552.937C357.006 553.077 356.972 553.236 356.87 553.342C356.443 553.781 356.106 554.234 355.861 554.714C357.022 554.609 357.892 554.572 358.602 554.705C358.74 554.729 358.853 554.83 358.891 554.967C358.933 555.105 358.894 555.255 358.793 555.355C358.477 555.661 358.241 555.973 358.065 556.28C359.366 556.11 360.324 556.22 360.392 556.228C360.593 556.254 360.737 556.442 360.714 556.651C360.692 556.859 360.512 557.009 360.306 556.981C360.288 556.981 359.167 556.856 357.721 557.104C357.369 558.413 357.94 559.477 357.975 559.542C358.075 559.724 358.013 559.957 357.838 560.063C357.779 560.094 357.717 560.111 357.653 560.111C357.528 560.113 357.404 560.044 357.335 559.922ZM357.769 555.384C357.174 555.37 356.446 555.421 355.542 555.509C355.398 555.983 355.334 556.488 355.346 557.021C355.966 556.748 356.585 556.561 357.168 556.436C357.305 556.089 357.499 555.736 357.769 555.384ZM355.741 553.509C354.892 553.626 353.568 553.982 352.565 555.051C353.218 554.987 353.814 554.923 354.353 554.867C354.578 554.843 354.793 554.82 355 554.799C355.183 554.353 355.432 553.923 355.741 553.509Z" fill="#D6CCC0"/>
<path d="M303.369 555.166C303.369 555.166 303.315 553.057 299.22 553.703C295.125 554.355 292.5 555.056 290.977 554.787C289.453 554.516 289.453 559.011 289.717 559.171C289.981 559.336 296.28 560.256 296.7 560.094C297.119 559.929 303.369 555.166 303.369 555.166Z" fill="#8C643E"/>
<path d="M304.469 562.64C304.469 562.64 306.466 564.047 305.782 567.782C305.467 569.135 301.696 568.718 293.926 572.452C286.156 576.186 275.755 579.344 264.152 572.956C262.945 572.305 262.001 567.27 266.202 566.892C270.401 566.511 304.469 562.64 304.469 562.64Z" fill="#E1D5C9"/>
<path d="M287.808 558.739C287.808 559.728 288.708 560.527 289.815 560.527H299.549C300.658 560.527 301.557 559.728 301.557 558.739V544.988C301.557 544.002 300.657 543.203 299.549 543.203H289.815C288.708 543.203 287.808 544.002 287.808 544.988V558.739Z" fill="#FCC287"/>
<path d="M303.369 555.166C303.369 555.166 305.1 561.718 305.046 563.233C300.218 564.751 301.697 564.115 296.919 566.443C292.142 568.773 273.076 575.336 264.728 568.136C263.681 567.053 265.99 560.711 277.696 557.786C279.956 556.868 283.364 553.166 284.677 551.215C286.881 550.564 290.137 552.947 294.02 556.629C297.908 560.309 303.209 553.433 303.369 555.166Z" fill="#7F5634"/>
<path d="M281.906 560.114C281.842 560.114 281.778 560.098 281.721 560.066C281.545 559.961 281.484 559.727 281.585 559.546C281.62 559.481 282.189 558.417 281.838 557.107C280.39 556.859 279.272 556.984 279.254 556.985C279.045 557.012 278.868 556.863 278.845 556.655C278.821 556.445 278.966 556.257 279.168 556.232C279.236 556.223 280.194 556.113 281.495 556.283C281.318 555.976 281.083 555.665 280.767 555.358C280.665 555.258 280.626 555.108 280.667 554.971C280.708 554.833 280.819 554.732 280.956 554.708C281.665 554.575 282.535 554.612 283.7 554.717C283.451 554.237 283.117 553.785 282.689 553.346C282.587 553.239 282.552 553.08 282.604 552.94C282.659 552.799 282.786 552.705 282.931 552.696C283.068 552.696 286.376 552.554 288.129 555.302C288.209 555.423 288.211 555.581 288.139 555.706C288.067 555.83 287.937 555.903 287.791 555.889C286.781 555.8 285.902 555.706 285.129 555.625C285.019 555.614 284.914 555.604 284.809 555.591C284.957 556.231 284.992 556.91 284.913 557.643C284.901 557.766 284.827 557.876 284.723 557.935C284.618 557.996 284.489 557.997 284.381 557.941C283.796 557.639 283.196 557.425 282.625 557.277C282.867 558.745 282.234 559.907 282.224 559.925C282.154 560.045 282.032 560.114 281.906 560.114ZM282.392 556.438C282.972 556.563 283.594 556.75 284.214 557.023C284.225 556.488 284.159 555.984 284.018 555.51C283.115 555.423 282.386 555.371 281.79 555.386C282.059 555.738 282.253 556.09 282.392 556.438ZM284.554 554.8C284.765 554.821 284.982 554.844 285.204 554.869C285.746 554.924 286.341 554.989 286.995 555.052C285.991 553.984 284.667 553.627 283.816 553.51C284.129 553.925 284.375 554.354 284.554 554.8Z" fill="#E1D5C9"/>
<path d="M928.259 442.955C928.259 442.955 928.202 440.844 924.107 441.492C920.012 442.143 917.388 442.844 915.86 442.575C914.341 442.305 914.341 446.799 914.601 446.96C914.869 447.124 921.166 448.045 921.588 447.883C922.003 447.717 928.259 442.955 928.259 442.955Z" fill="#8C643E"/>
<path d="M929.355 450.427C929.355 450.427 931.346 451.833 930.671 455.569C930.346 456.922 926.576 456.504 918.817 460.239C911.041 463.972 900.641 467.13 889.039 460.743C887.836 460.092 886.886 455.057 891.086 454.678C895.287 454.298 929.355 450.427 929.355 450.427Z" fill="white"/>
<path d="M912.699 446.527C912.699 447.515 913.593 448.314 914.698 448.314H924.44C925.545 448.314 926.447 447.515 926.447 446.527V432.775C926.447 431.79 925.545 430.99 924.44 430.99H914.698C913.593 430.99 912.699 431.79 912.699 432.775V446.527Z" fill="#F8B77C"/>
<path d="M928.259 442.955C928.259 442.955 929.99 449.507 929.933 451.021C925.106 452.539 926.577 451.904 921.808 454.23C917.03 456.561 897.969 463.123 889.616 455.925C888.568 454.841 890.876 448.5 902.584 445.574C904.843 444.656 908.247 440.954 909.563 439.003C911.773 438.352 915.023 440.735 918.907 444.416C922.799 448.098 928.096 441.222 928.259 442.955Z" fill="#D17228"/>
<path d="M907.288 447.71C907.304 447.692 907.93 446.53 907.694 445.061C908.263 445.209 908.864 445.423 909.449 445.725C909.555 445.781 909.685 445.78 909.791 445.719C909.896 445.661 909.97 445.551 909.978 445.427C910.059 444.694 910.026 444.015 909.872 443.376C909.986 443.388 910.091 443.399 910.197 443.409C910.969 443.49 911.846 443.585 912.862 443.673C913.008 443.688 913.138 443.615 913.203 443.49C913.276 443.365 913.276 443.207 913.195 443.086C911.44 440.338 908.133 440.48 908.003 440.48C907.857 440.489 907.727 440.583 907.67 440.724C907.621 440.864 907.654 441.024 907.759 441.13C908.182 441.569 908.523 442.022 908.767 442.501C907.605 442.396 906.736 442.36 906.029 442.491C905.891 442.516 905.769 442.617 905.736 442.755C905.696 442.892 905.728 443.043 905.834 443.142C906.151 443.449 906.386 443.76 906.557 444.067C905.257 443.898 904.298 444.008 904.233 444.016C904.038 444.041 903.892 444.229 903.916 444.439C903.933 444.647 904.111 444.797 904.323 444.768C904.339 444.768 905.46 444.644 906.906 444.892C907.256 446.2 906.687 447.265 906.646 447.329C906.557 447.511 906.614 447.745 906.793 447.85C906.849 447.882 906.906 447.898 906.971 447.898C907.101 447.901 907.223 447.831 907.288 447.71ZM906.858 443.171C907.459 443.158 908.182 443.208 909.084 443.296C909.23 443.771 909.295 444.274 909.279 444.808C908.661 444.535 908.044 444.348 907.459 444.224C907.321 443.876 907.126 443.523 906.858 443.171ZM908.881 441.297C909.734 441.413 911.058 441.77 912.058 442.838C911.408 442.774 910.815 442.71 910.278 442.655C910.051 442.63 909.831 442.608 909.628 442.586C909.449 442.141 909.198 441.711 908.881 441.297Z" fill="#D6CCC0"/>
<path d="M976.822 446.527C976.822 447.515 975.92 448.314 974.815 448.314H965.073C963.968 448.314 963.066 447.515 963.066 446.527V432.775C963.066 431.79 963.968 430.99 965.073 430.99H974.807C975.92 430.99 976.814 431.79 976.814 432.775V446.527H976.822Z" fill="#FCC287"/>
<path d="M961.254 442.955C961.254 442.955 961.311 440.844 965.406 441.492C969.501 442.143 972.125 442.844 973.653 442.575C975.172 442.305 975.172 446.799 974.912 446.96C974.644 447.124 968.347 448.045 967.925 447.883C967.51 447.717 961.254 442.955 961.254 442.955Z" fill="#D17228"/>
<path d="M960.157 450.428C960.157 450.428 958.158 451.834 958.841 455.57C959.158 456.923 962.928 456.505 970.703 460.24C978.471 463.973 988.871 467.13 1000.47 460.743C1001.68 460.093 1002.63 455.057 998.426 454.679C994.225 454.299 960.157 450.428 960.157 450.428Z" fill="white"/>
<path d="M961.254 442.955C961.254 442.955 959.523 449.507 959.58 451.021C964.406 452.539 962.927 451.904 967.705 454.23C972.482 456.561 991.552 463.123 999.896 455.925C1000.94 454.841 998.637 448.5 986.929 445.574C984.67 444.656 981.266 440.954 979.949 439.003C977.747 438.352 974.489 440.735 970.606 444.416C966.722 448.098 961.416 441.222 961.254 442.955Z" fill="#D17228"/>
<path d="M982.72 447.902C982.785 447.902 982.85 447.885 982.907 447.853C983.078 447.748 983.143 447.514 983.046 447.333C983.005 447.268 982.436 446.203 982.786 444.895C984.24 444.646 985.353 444.771 985.369 444.771C985.581 444.799 985.759 444.65 985.784 444.442C985.808 444.232 985.662 444.044 985.459 444.019C985.394 444.01 984.435 443.901 983.135 444.07C983.306 443.763 983.541 443.453 983.858 443.145C983.964 443.046 984.004 442.896 983.964 442.758C983.915 442.62 983.809 442.519 983.671 442.495C982.964 442.363 982.095 442.399 980.925 442.504C981.177 442.025 981.51 441.572 981.941 441.133C982.038 441.027 982.07 440.867 982.022 440.727C981.965 440.586 981.843 440.491 981.697 440.483C981.559 440.483 978.252 440.341 976.497 443.09C976.416 443.211 976.415 443.368 976.489 443.494C976.562 443.617 976.692 443.691 976.838 443.676C977.845 443.587 978.723 443.494 979.495 443.412C979.609 443.401 979.714 443.391 979.82 443.379C979.674 444.018 979.633 444.697 979.714 445.43C979.731 445.554 979.795 445.663 979.901 445.722C980.007 445.783 980.137 445.784 980.242 445.728C980.827 445.426 981.429 445.212 982.005 445.064C981.762 446.532 982.395 447.694 982.404 447.713C982.477 447.832 982.599 447.902 982.72 447.902ZM982.233 444.226C981.656 444.35 981.031 444.537 980.413 444.81C980.405 444.276 980.47 443.771 980.608 443.298C981.51 443.21 982.241 443.159 982.834 443.173C982.566 443.524 982.371 443.878 982.233 444.226ZM980.072 442.588C979.86 442.608 979.649 442.631 979.422 442.656C978.886 442.711 978.284 442.776 977.634 442.84C978.634 441.772 979.958 441.414 980.811 441.298C980.494 441.712 980.25 442.142 980.072 442.588Z" fill="#E1D5C9"/>
<path d="M303.631 549.789H285.624V457.471L315.929 460.502C315.929 460.502 314.527 461.316 311.036 467.338C306.274 475.547 303.631 549.789 303.631 549.789Z" fill="#109985"/>
<path d="M336.765 549.789H354.774V457.471L324.466 460.502C324.466 460.502 325.869 461.316 329.363 467.338C334.124 475.547 336.765 549.789 336.765 549.789Z" fill="#109985"/>
<path d="M285.624 430.019V459.492C285.624 459.492 311.551 461.518 320.2 461.518L321.182 448.667L320.2 430.019H285.624Z" fill="#109985"/>
<path d="M320.2 430.018V461.517C328.848 461.517 354.774 459.49 354.774 459.49V430.017H320.2V430.018Z" fill="#109985"/>
<path d="M306.503 548.778C306.503 549.338 306.074 549.79 305.546 549.79H283.251C282.721 549.79 282.295 549.338 282.295 548.778V541.175C282.295 540.614 282.721 540.161 283.251 540.161H305.546C306.074 540.161 306.503 540.614 306.503 541.175V548.778Z" fill="#109985"/>
<path d="M357.673 548.778C357.673 549.338 357.244 549.79 356.716 549.79H334.419C333.891 549.79 333.461 549.338 333.461 548.778V541.175C333.461 540.614 333.891 540.161 334.419 540.161H356.716C357.244 540.161 357.673 540.614 357.673 541.175V548.778Z" fill="#109985"/>
<path d="M960.799 436.406H978.804V344.087L948.498 347.119C948.498 347.119 949.895 347.933 953.389 353.955C958.15 362.163 960.799 436.406 960.799 436.406Z" fill="#3969C9"/>
<path d="M927.665 436.406H909.652V344.087L939.959 347.119C939.959 347.119 938.553 347.933 935.067 353.955C930.298 362.163 927.665 436.406 927.665 436.406Z" fill="#3969C9"/>
<path d="M978.804 316.635V346.108C978.804 346.108 952.877 348.134 944.224 348.134L943.249 335.282L944.224 316.635H978.804Z" fill="#109985"/>
<path d="M944.224 316.635V348.133C935.579 348.133 909.652 346.107 909.652 346.107V316.634H944.224V316.635Z" fill="#109985"/>
<path d="M957.923 435.395C957.923 435.955 958.354 436.407 958.882 436.407H981.177C981.705 436.407 982.136 435.955 982.136 435.395V427.792C982.136 427.231 981.705 426.777 981.177 426.777H958.882C958.354 426.777 957.923 427.231 957.923 427.792V435.395Z" fill="#355088"/>
<path d="M906.751 435.395C906.751 435.955 907.182 436.407 907.71 436.407H930.013C930.533 436.407 930.964 435.955 930.964 435.395V427.792C930.964 427.231 930.533 426.777 930.013 426.777H907.71C907.182 426.777 906.751 427.231 906.751 427.792V435.395Z" fill="#355088"/>
<path d="M293.616 366.359C287.484 366.359 282.514 371.073 282.514 379.388L285.624 437.822H320.374L321.357 405.793L320.374 366.359H293.616Z" fill="#F3764B"/>
<path d="M358.102 379.388C358.102 371.073 353.132 366.359 346.999 366.359H320.2V437.821H354.771L358.102 379.388Z" fill="#E96642"/>
<path d="M320.188 366.103L319.205 375.006L320.188 378.06L320.219 378.141L324.483 373.417L338.835 366.358L320.188 366.103Z" fill="#F9F9F9"/>
<path d="M301.912 366.358L316.196 373.521L320.188 378.06V366.103L301.912 366.358Z" fill="white"/>
<path d="M305.304 390.715L316.196 373.522L301.912 366.359H295.505L305.304 390.715Z" fill="#E1593C"/>
<path d="M335.439 390.715L324.483 373.418L338.836 366.359H345.239L335.439 390.715Z" fill="#D65037"/>
<path d="M298.647 437.82V366.973C298.647 366.226 298.062 365.624 297.341 365.624H293.503C292.783 365.624 292.195 366.226 292.195 366.973V437.82H298.647Z" fill="#008378"/>
<path d="M347.554 437.82V366.973C347.554 366.226 346.969 365.624 346.247 365.624H342.411C341.688 365.624 341.102 366.226 341.102 366.973V437.82H347.554Z" fill="#008378"/>
<path d="M300.152 441.487C300.152 443.119 298.871 444.441 297.29 444.441H293.552C291.971 444.441 290.691 443.119 290.691 441.487V437.631C290.691 436.002 291.971 434.682 293.552 434.682H297.29C298.871 434.682 300.152 436.002 300.152 437.631V441.487Z" fill="#008378"/>
<path d="M349.06 441.487C349.06 443.119 347.777 444.441 346.196 444.441H342.459C340.878 444.441 339.598 443.119 339.598 441.487V437.631C339.598 436.002 340.878 434.682 342.459 434.682H346.196C347.776 434.682 349.06 436.002 349.06 437.631V441.487Z" fill="#C95230"/>
<path d="M356.491 319.955C356.411 322.027 355.671 324.551 353.664 324.435C351.658 324.323 350.119 322.549 350.232 320.479L350.902 308.038C351.012 305.967 352.729 304.381 354.738 304.497C356.747 304.613 358.478 306.405 358.173 308.453C357.741 311.326 356.711 314.329 356.491 319.955Z" fill="#F8B77C"/>
<path d="M285.789 319.955C285.87 322.027 286.608 324.551 288.616 324.435C290.623 324.323 292.16 322.549 292.048 320.479L291.379 308.038C291.268 305.967 289.549 304.381 287.542 304.497C285.533 304.613 283.802 306.405 284.106 308.453C284.537 311.326 285.569 314.329 285.789 319.955Z" fill="#FCC287"/>
<path d="M352.37 327.386C352.37 337.201 346.38 345.154 336.862 345.154H305.417C295.9 345.154 289.909 337.2 289.909 327.386L288.185 286.074C288.185 276.262 294.177 268.308 303.693 268.308H338.586C348.102 268.308 354.094 276.262 354.094 286.074L352.37 327.386Z" fill="#FCC287"/>
<path d="M338.449 268.308H321.004V345.154H336.727C346.243 345.154 352.233 337.2 352.233 327.386L353.957 286.074C353.958 276.262 347.967 268.308 338.449 268.308Z" fill="#F8B77C"/>
<path d="M305.715 333.918C298.044 340.57 291.014 326.428 291.014 316.092L289.938 286.698C289.216 288.714 286.506 281.584 286.506 286.524L289.787 328.078C289.787 356.512 321.004 364.559 321.004 364.559L321.865 344.79L321.004 328.589C311.556 328.603 308.978 331.086 305.715 333.918Z" fill="#7A5034"/>
<path d="M336.292 333.918C343.963 340.57 350.994 326.428 350.994 316.092L352.053 286.548C352.776 288.567 355.401 279.028 355.401 283.967L352.221 328.077C352.221 356.511 321.003 364.558 321.003 364.558V328.588C330.451 328.603 333.029 331.086 336.292 333.918Z" fill="#684127"/>
<path d="M321.425 342.874C316.458 342.874 311.315 340.14 311.666 337.774C311.786 336.968 312.775 336.629 313.516 336.918C313.592 336.948 321.262 339.864 328.761 336.918C329.501 336.629 330.513 336.963 330.613 337.774C330.87 339.844 326.665 342.874 321.425 342.874Z" fill="#F8B77C"/>
<path d="M331.249 301.588C338.988 298.954 346.738 301.554 346.813 301.579C348.131 302.011 349.837 298.76 348.524 298.32C348.134 298.19 338.702 294.242 328.877 297.376C327.552 297.799 329.892 302.051 331.249 301.588Z" fill="#684127"/>
<path d="M338.431 310.172C340.157 310.172 341.555 308.731 341.555 306.952C341.555 305.174 340.157 303.732 338.431 303.732C336.705 303.732 335.307 305.174 335.307 306.952C335.307 308.731 336.705 310.172 338.431 310.172Z" fill="#3A2A21"/>
<path d="M339.203 307.362C339.788 307.362 340.262 306.872 340.262 306.27C340.262 305.666 339.788 305.177 339.203 305.177C338.618 305.177 338.144 305.666 338.144 306.27C338.144 306.872 338.618 307.362 339.203 307.362Z" fill="#F7D8BA"/>
<path d="M311.066 301.588C309.368 300.85 307.739 299.58 304.887 299.553C299.662 299.509 295.557 301.56 295.502 301.579C294.185 302.011 292.479 298.76 293.791 298.32C294.063 298.228 298.706 295.404 304.813 295.287C307.488 295.235 311.132 296.171 313.439 297.376C314.675 298.022 312.383 302.161 311.066 301.588Z" fill="#7A5034"/>
<path d="M314.783 327.496C314.783 329.451 317.709 331.037 321.162 331.085L321.011 291.553C318.676 294.564 314.783 327.496 314.783 327.496Z" fill="#FCC287"/>
<path d="M324.444 305.055C323.064 296.591 322.029 292.516 321.01 291.553V331.084C321.062 331.084 321.111 331.087 321.162 331.087C324.686 331.087 327.542 329.479 327.542 327.495C327.543 327.495 326.335 316.651 324.444 305.055Z" fill="#F8B77C"/>
<path d="M316.511 326.809C317.656 326.809 318.585 326.022 318.585 325.052C318.585 324.08 317.656 323.293 316.511 323.293C315.366 323.293 314.438 324.08 314.438 325.052C314.438 326.022 315.366 326.809 316.511 326.809Z" fill="#FCC287"/>
<path d="M303.754 310.172C305.479 310.172 306.877 308.731 306.877 306.952C306.877 305.174 305.479 303.732 303.754 303.732C302.03 303.732 300.631 305.174 300.631 306.952C300.631 308.731 302.03 310.172 303.754 310.172Z" fill="#443328"/>
<path d="M304.527 307.36C305.112 307.36 305.586 306.871 305.586 306.269C305.586 305.666 305.112 305.177 304.527 305.177C303.942 305.177 303.468 305.666 303.468 306.269C303.468 306.871 303.942 307.36 304.527 307.36Z" fill="#F7D8BA"/>
<path d="M321.004 253.117C316.857 252.797 312.222 253.039 307.024 254.171C292.579 257.31 294.189 266.93 294.189 266.93C292.054 265.374 287.842 266.442 286.327 275.742C284.748 285.439 288.326 292.076 288.326 292.076C288.326 292.076 289.428 292.653 289.934 287.133C289.934 272.934 297.689 280.566 297.689 280.566C297.689 280.566 297.808 280.38 298.05 280.085C298.051 280.081 302.959 274.161 321.004 279.923L321.866 265.973L321.004 253.117Z" fill="#7A5034"/>
<path d="M321.004 253.118V279.923C345.018 287.659 355.57 292.058 355.573 282.033C355.574 271.076 350.729 254.493 321.004 253.118Z" fill="#684127"/>
<path d="M313.192 337.692C313.192 337.692 321.165 340.976 329.012 337.595C329.245 337.928 329.266 338.44 329.266 338.44C329.266 338.44 327.687 340.607 320.994 340.601C317.41 340.688 313.908 339.159 313.066 338.459C313.021 337.988 313.192 337.692 313.192 337.692Z" fill="white"/>
<path d="M372.591 378.658L361.908 378.626L372.591 378.658Z" fill="#E1593C"/>
<path d="M357.112 378.919L318.102 379.233L318.23 457.225L372.36 457.396L345.295 457.31L357.112 378.919Z" fill="#7F5634"/>
<path d="M345.527 378.969L345.296 457.31L372.36 457.395L372.232 379.03L345.527 378.969Z" fill="#724B2D"/>
<path d="M345.527 378.97L361.907 379.022L361.909 378.628L361.916 376.277L329.153 376.175L329.145 378.524L329.144 378.919L345.527 378.97Z" fill="#D6CCC0"/>
<path d="M319.277 439.151H335.348C336.446 439.151 337.335 438.235 337.335 437.103C337.335 435.972 336.446 435.054 335.348 435.054H324.422C323.523 434.35 324.469 433.884 324.469 433.884H337.998C339.094 433.884 339.983 432.967 339.983 431.835C339.983 430.705 339.094 429.788 337.998 429.788H324.707C323.783 429.178 324.707 428.616 324.707 428.616H339.605C340.702 428.616 341.591 427.7 341.591 426.568C341.591 425.438 340.702 424.52 339.605 424.52H324.823C323.689 423.816 324.965 423.349 324.965 423.349H338.943C340.04 423.349 340.928 422.432 340.928 421.301C340.928 420.168 340.04 419.252 338.943 419.252H325.25C320.097 419.252 318.348 418.719 318.427 418.435C318.984 417.73 318.435 413.445 318.435 413.445C316.428 414.348 310.342 417.241 307.246 420.399C305.117 421.224 297.224 421.007 297.224 421.007C297.224 421.007 296.703 432.519 296.703 435.154C299.305 434.714 306.259 434.568 306.922 435.593C307.583 436.616 309.211 437.505 313.375 438.578C315.218 439.053 317.41 439.263 319.277 439.151Z" fill="#F8B77C"/>
<path d="M302.641 440.163C301.873 439.501 259.637 438.12 259.637 406.322C259.637 374.243 282.295 369.305 289.325 367.334L291.627 376.68C291.627 376.68 291.663 387.446 289.225 388.859C283.477 392.191 278.842 395.502 279.003 406.738C279.003 417.034 302.654 420.772 302.654 420.772L302.641 440.163Z" fill="#F3764B"/>
<g filter="url(#filter0_d)">
<path d="M831.847 353.138C833.952 350.015 835.008 348.454 836.478 347.426C837.12 346.975 837.827 346.603 838.558 346.32C840.232 345.677 842.117 345.677 845.887 345.677H1049.5C1059.19 345.677 1064.04 345.677 1066.81 348.174C1067.98 349.238 1068.88 350.576 1069.42 352.069C1070.69 355.572 1068.85 360.058 1065.19 369.027L1047.69 411.856C1045.88 416.263 1044.98 418.468 1043.35 419.946C1042.63 420.594 1041.82 421.13 1040.94 421.538C1038.95 422.47 1036.56 422.443 1031.8 422.389L915.145 421.057L818.408 419.953C806.66 419.818 800.793 419.751 797.966 416.73C796.763 415.454 795.943 413.878 795.577 412.169C794.7 408.127 797.982 403.261 804.555 393.53L831.847 353.138Z" fill="#80B6BC"/>
</g>
<path d="M935.539 294.028H943.111L943.94 299.136L943.111 304.331H935.539V294.028Z" fill="#F8B77C"/>
<path d="M943.111 294.028H950.7V304.331H943.111V294.028Z" fill="#FCC287"/>
<path d="M969.363 303.918C975.384 303.918 980.259 307.751 980.259 314.512L976.806 362.025H943.111L942.136 335.983L943.111 303.918H969.363Z" fill="#E9B540"/>
<path d="M905.939 314.513C905.939 307.751 910.806 303.918 916.827 303.918H943.111V362.026H909.603L905.939 314.513Z" fill="#E1A836"/>
<path d="M955.68 322.899L946.475 313.039L958.451 303.918H963.895L955.68 322.899Z" fill="#DCA036"/>
<path d="M930.33 322.899L939.52 312.954L927.446 303.918H922.116L930.33 322.899Z" fill="#D0932E"/>
<path d="M943.119 303.095L943.94 310.951L943.119 321.678L943.095 321.743L939.52 312.955L927.479 303.919L943.119 303.095Z" fill="#F9F9F9"/>
<path d="M958.451 303.919L946.475 313.04L943.119 321.678V303.095L958.451 303.919Z" fill="white"/>
<path d="M981.226 366.638C980.567 366.73 979.958 366.269 979.861 365.608L972.865 315.831C972.792 315.345 973.255 306.764 974.027 305.109C974.124 304.886 974.384 304.894 974.604 305.003L977.066 306.235C977.212 306.309 977.342 306.413 977.456 306.542L978.804 308.163C980.316 310.583 980.616 312.398 980.982 314.691L987.978 364.466C988.075 365.128 987.612 365.74 986.946 365.833L981.226 366.638Z" fill="#E9B540"/>
<path d="M902.193 364.373C899.87 363.984 898.293 361.797 898.651 359.465L905.305 316.378C905.687 313.931 906.15 311.467 907.353 309.301C908.742 306.786 910.749 304.22 911.626 306.651C912.569 308.73 914.048 311.024 914.503 313.265C914.698 314.262 914.811 315.151 914.771 315.362L907.158 360.835C906.768 363.182 904.541 364.766 902.193 364.373Z" fill="#E1A836"/>
<path d="M959.93 357.247C959.93 358.574 961.002 359.647 962.327 359.647H965.463C966.787 359.647 967.86 358.574 967.86 357.247V354.112C967.86 352.788 966.787 351.713 965.463 351.713H962.327C961.002 351.713 959.93 352.788 959.93 354.112V357.247Z" fill="#C55A28"/>
<path d="M918.907 357.247C918.907 358.574 919.98 359.647 921.312 359.647H924.44C925.773 359.647 926.845 358.574 926.845 357.247V354.112C926.845 352.788 925.773 351.713 924.44 351.713H921.312C919.98 351.713 918.907 352.788 918.907 354.112V357.247Z" fill="#BD5328"/>
<path d="M907.637 269.642C907.719 271.566 908.417 273.907 910.343 273.8C912.26 273.694 913.731 272.048 913.625 270.128L912.984 258.586C912.878 256.665 911.229 255.194 909.311 255.301C907.385 255.408 905.736 257.07 906.029 258.971C906.435 261.638 907.426 264.422 907.637 269.642Z" fill="#F8B77C"/>
<path d="M978.593 269.642C978.512 271.566 977.805 273.907 975.887 273.8C973.97 273.694 972.499 272.048 972.605 270.128L973.247 258.586C973.352 256.665 974.993 255.194 976.919 255.301C978.837 255.408 980.494 257.07 980.202 258.971C979.787 261.638 978.804 264.422 978.593 269.642Z" fill="#FCC287"/>
<path d="M911.448 275.712C911.448 284.817 918.833 292.197 927.933 292.197H958.028C967.136 292.197 974.514 284.817 974.514 275.712L976.163 236.561C976.163 227.456 968.786 220.076 959.678 220.076H926.292C917.184 220.076 909.798 227.456 909.798 236.561L911.448 275.712Z" fill="#FCC287"/>
<path d="M926.414 220.076H943.111V298.735L929.981 296.003C920.873 296.003 911.578 284.817 911.578 275.712L909.928 236.561C909.928 227.456 917.314 220.076 926.414 220.076Z" fill="#FCC287"/>
<path d="M959.808 220.076H943.111V298.735L956.249 296.003C965.349 296.003 974.644 284.817 974.644 275.712L976.293 236.561C976.293 227.456 968.916 220.076 959.808 220.076Z" fill="#FCC287"/>
<path d="M942.705 282.767C947.466 282.767 952.317 280.29 952.049 279.581C951.781 278.873 950.985 278.518 950.278 278.786C950.205 278.814 942.868 281.521 935.685 278.788C934.978 278.518 934.19 278.873 933.914 279.581C933.646 280.29 937.7 282.767 942.705 282.767Z" fill="#E09F6E"/>
<path d="M925.61 265.268C923.961 265.268 922.62 263.93 922.62 262.281C922.62 260.631 923.961 259.293 925.61 259.293C927.268 259.293 928.6 260.631 928.6 262.281C928.6 263.93 927.268 265.268 925.61 265.268Z" fill="#4E2C14"/>
<path d="M925.415 263.752C924.863 263.752 924.408 263.298 924.408 262.739C924.408 262.18 924.863 261.727 925.415 261.727C925.984 261.727 926.431 262.18 926.431 262.739C926.431 263.298 925.984 263.752 925.415 263.752Z" fill="#F7D8BA"/>
<path d="M952.853 249.532C960.279 247.421 967.714 249.504 967.787 249.525C969.046 249.871 970.687 247.264 969.42 246.913C969.046 246.808 960.003 243.644 950.578 246.157C949.311 246.496 951.553 249.903 952.853 249.532Z" fill="#67432A"/>
<path d="M932.248 249.532C924.822 247.421 917.396 249.504 917.323 249.525C916.055 249.871 914.414 247.264 915.681 246.913C916.055 246.808 925.098 243.644 934.523 246.157C935.791 246.496 933.548 249.903 932.248 249.532Z" fill="#67432A"/>
<path d="M949.489 271.692C949.489 273.506 946.491 274.977 942.956 275.021L943.111 240.818C945.508 243.61 949.489 271.692 949.489 271.692Z" fill="#FCC287"/>
<path d="M939.601 253.345C941.015 245.492 942.071 241.712 943.111 240.818V275.02C943.062 275.021 943.013 275.024 942.957 275.024C939.357 275.024 936.432 273.532 936.432 271.692C936.432 271.692 937.667 264.103 939.601 253.345Z" fill="#F8B77C"/>
<path d="M948.343 274.476C947.173 274.476 946.223 273.745 946.223 272.844C946.223 271.943 947.173 271.212 948.343 271.212C949.513 271.212 950.464 271.943 950.464 272.844C950.464 273.745 949.513 274.476 948.343 274.476Z" fill="#FCC287"/>
<path d="M937.651 274.476C936.481 274.476 935.531 273.745 935.531 272.844C935.531 271.943 936.481 271.212 937.651 271.212C938.821 271.212 939.772 271.943 939.772 272.844C939.772 273.745 938.821 274.476 937.651 274.476Z" fill="#F8B77C"/>
<path d="M960.441 265.268C958.792 265.268 957.46 263.93 957.46 262.281C957.46 260.631 958.792 259.293 960.441 259.293C962.099 259.293 963.431 260.631 963.431 262.281C963.431 263.93 962.099 265.268 960.441 265.268Z" fill="#4E2C14"/>
<path d="M960.255 263.752C959.694 263.752 959.239 263.298 959.239 262.739C959.239 262.18 959.694 261.727 960.255 261.727C960.815 261.727 961.262 262.18 961.262 262.739C961.262 263.298 960.815 263.752 960.255 263.752Z" fill="#F7D8BA"/>
<path d="M919.467 226.458C919.467 226.458 910.4 229.986 911.147 246.702C910.172 247.549 910.156 246.968 910.156 246.968C910.156 246.968 907.516 225.685 912.772 222.335C917.038 219.618 919.484 224.668 919.467 226.458Z" fill="#51321D"/>
<path d="M973.328 226.551C980.372 227.263 976.212 248.781 976.212 248.781C976.212 248.781 974.977 249.457 974.977 249.324C974.595 239.014 973.303 237.379 969.59 238.478C970.468 229.873 955.16 228.588 945.678 233.259C944.85 233.668 943.988 234.032 943.111 234.364L942.29 221.185L943.111 205.365C967.486 204.336 975.668 216.264 973.328 226.551Z" fill="#514947"/>
<path d="M939.812 205.567C940.95 205.486 942.047 205.41 943.111 205.364V234.363C928.6 241.482 911.83 248.998 909.498 233.96C909.213 220.253 914.478 207.379 939.812 205.567Z" fill="#3F3B3B"/>
<path d="M889.567 378.992C889.567 381.263 891.428 383.121 893.695 383.121H992.528C994.803 383.121 996.655 381.263 996.655 378.992V333.357C996.655 331.086 994.803 329.228 992.528 329.228H893.695C891.428 329.228 889.567 331.086 889.567 333.357V378.992Z" fill="#109985"/>
<path d="M889.567 386.056C889.567 384.442 890.502 383.12 891.631 383.12H994.591C995.729 383.12 996.655 384.441 996.655 386.056C996.655 387.67 995.729 388.99 994.591 388.99H891.631C890.502 388.99 889.567 387.67 889.567 386.056Z" fill="#109985"/>
<path d="M891.631 383.12H943.184V388.99H891.631C890.501 388.99 889.567 387.67 889.567 386.056C889.567 384.442 890.501 383.12 891.631 383.12Z" fill="#008378"/>
<path d="M893.695 329.228H943.184V383.121H893.695C891.428 383.121 889.567 381.263 889.567 378.992V333.356C889.567 331.086 891.428 329.228 893.695 329.228Z" fill="#008378"/>
<path d="M581.823 85.9237L580.778 68.8623L565.959 64.6325C563.939 59.6187 561.918 54.6049 559.045 49.6434L565.035 35.5766L552.357 24.3655L539.123 32.0261C534.7 29.7282 529.424 27.4826 523.398 26.9954L517.39 12.8072L500.325 13.8524L496.094 28.6678C491.079 30.6874 486.064 32.7071 481.954 35.5275L467.884 29.5393L455.869 43.1189L463.532 56.3495C461.233 60.7715 459.84 65.9943 458.447 71.2172L444.255 77.2238L445.301 94.2846L460.12 98.515C462.14 103.528 464.16 108.542 467.033 113.503L461.044 127.571L473.721 138.782L486.955 131.121C491.378 133.419 496.655 135.664 502.68 136.152L508.689 150.34L525.754 149.295L529.984 134.479C535 132.46 540.015 130.44 544.977 127.567L559.048 133.556L570.261 120.881L562.6 107.651C564.897 103.229 567.144 97.9537 567.631 91.9297L581.823 85.9237ZM515.13 115.696C496.358 116.845 480.059 102.431 478.909 83.6639C477.758 64.8969 492.176 48.6013 510.948 47.4517C529.72 46.302 546.02 60.7161 547.169 79.4831C548.32 98.2502 533.902 114.546 515.13 115.696Z" fill="#4BB3A3"/>
<path d="M534 80.0402C534.723 91.8204 525.759 101.951 513.975 102.673C502.193 103.395 492.059 94.4335 491.338 82.6528C490.615 70.8726 499.579 60.7422 511.362 60.0205C523.146 59.2988 533.279 68.2596 534 80.0402Z" fill="#C0C7C7"/>
<path d="M491.264 82.4552C491.99 94.2919 502.054 103.402 513.727 102.687L511.09 59.6616L511.113 60.0383C499.44 60.7532 490.539 70.6098 491.264 82.4552Z" fill="#D1D8D8"/>
<path d="M945.344 139.426V136.022L942.452 135.001C942.11 133.98 941.769 132.959 941.257 131.938L942.622 129.215L940.242 126.833L937.512 128.194C936.667 127.683 935.643 127.173 934.448 127.003L933.433 124.11H930.029L929.005 127.003C927.981 127.343 926.965 127.683 926.112 128.194L923.39 126.833L920.831 129.385L922.196 132.108C921.684 132.959 921.343 133.98 921.002 135.001L918.109 136.022V139.426L921.002 140.447C921.343 141.468 921.684 142.489 922.196 143.51L920.831 146.233L923.22 148.615L925.942 147.254C926.795 147.764 927.81 148.275 929.005 148.445L930.029 151.338H933.433L934.448 148.445C935.472 148.104 936.496 147.764 937.512 147.254L940.242 148.615L942.622 146.233L941.257 143.51C941.769 142.659 942.281 141.638 942.452 140.447L945.344 139.426ZM931.727 144.531C927.981 144.531 924.918 141.468 924.918 137.724C924.918 133.98 927.981 130.917 931.727 130.917C935.472 130.917 938.535 133.98 938.535 137.724C938.535 141.468 935.472 144.531 931.727 144.531Z" fill="#70909A"/>
<path d="M935.911 137.675C935.911 140.025 934.01 141.929 931.654 141.929C929.306 141.929 927.404 140.025 927.404 137.675C927.404 135.324 929.306 133.42 931.654 133.42C934.01 133.42 935.911 135.324 935.911 137.675Z" fill="#C0C7C7"/>
<path d="M927.388 137.634C927.388 139.995 929.281 141.929 931.605 141.929V133.345V133.421C929.281 133.421 927.388 135.271 927.388 137.634Z" fill="#D1D8D8"/>
<path d="M874.534 178.036V170.624L868.229 168.4C867.49 166.177 866.75 163.953 865.637 161.73L868.603 155.8L863.411 150.612L857.48 153.577C855.627 152.465 853.401 151.353 850.809 150.982L848.583 144.682H841.173L838.947 150.982C836.72 151.723 834.502 152.465 832.65 153.577L826.718 150.612L821.153 156.17L824.118 162.1C823.005 163.953 822.266 166.177 821.527 168.4L815.222 170.624V178.036L821.527 180.26C822.266 182.483 823.005 184.707 824.118 186.93L821.153 192.86L826.345 198.048L832.276 195.083C834.128 196.195 836.355 197.307 838.947 197.678L841.173 203.978H848.583L850.809 197.678C853.035 196.936 855.262 196.195 857.48 195.083L863.411 198.048L868.603 192.86L865.637 186.93C866.75 185.077 867.863 182.853 868.229 180.26L874.534 178.036ZM844.878 189.153C836.72 189.153 830.05 182.483 830.05 174.33C830.05 166.177 836.72 159.506 844.878 159.506C853.035 159.506 859.706 166.177 859.706 174.33C859.706 182.483 853.035 189.153 844.878 189.153Z" fill="#70909A"/>
<path d="M853.994 174.222C853.994 179.339 849.842 183.486 844.724 183.486C839.605 183.486 835.461 179.339 835.461 174.222C835.461 169.103 839.605 164.957 844.724 164.957C849.842 164.957 853.994 169.103 853.994 174.222Z" fill="#C0C7C7"/>
<path d="M835.429 174.134C835.429 179.277 839.548 183.486 844.618 183.486V164.795V164.958C839.548 164.958 835.429 168.989 835.429 174.134Z" fill="#D1D8D8"/>
<path d="M927.794 91.0588V79.7139L918.149 76.3105C917.012 72.907 915.874 69.5036 914.176 66.1001L918.718 57.0243L910.772 49.0828L901.696 53.6207C898.852 51.919 895.448 50.2173 891.483 49.65L888.079 40.0069H876.728L873.324 49.65C869.919 50.7845 866.515 51.919 863.679 53.6207L854.604 49.0828L846.089 57.5915L850.631 66.6674C848.924 69.5036 847.795 72.907 846.657 76.3105L837.013 79.7139V91.0588L846.657 94.4623C847.795 97.8658 848.924 101.269 850.631 104.673L846.089 113.749L854.035 121.69L863.111 117.152C865.946 118.854 869.351 120.556 873.324 121.123L876.728 130.766H888.079L891.483 121.123C894.887 119.989 898.292 118.854 901.696 117.152L910.772 121.69L918.718 113.749L914.176 104.673C915.874 101.836 917.581 98.4328 918.149 94.4623L927.794 91.0588ZM882.399 108.076C869.919 108.076 859.706 97.8658 859.706 85.3866C859.706 72.907 869.919 62.6967 882.399 62.6967C894.887 62.6967 905.1 72.907 905.1 85.3866C905.1 97.8658 894.887 108.076 882.399 108.076Z" fill="#4BB3A3"/>
<path d="M896.35 85.2209C896.35 93.0546 890.004 99.4018 882.164 99.4018C874.331 99.4018 867.986 93.0546 867.986 85.2209C867.986 77.3872 874.331 71.0398 882.164 71.0398C890.004 71.0398 896.35 77.3872 896.35 85.2209Z" fill="#C0C7C7"/>
<path d="M867.945 85.0871C867.945 92.9582 874.242 99.4013 882.001 99.4013V70.7914V71.042C874.242 71.042 867.945 77.2105 867.945 85.0871Z" fill="#D1D8D8"/>
<path d="M928.885 288.791C921.275 295.576 914.3 281.152 914.3 270.61L913.249 240.476C912.533 242.535 909.928 232.806 909.928 237.843L911.147 279.429C911.147 308.43 942.429 312.733 942.429 312.733V284.06C933.055 284.075 932.122 285.903 928.885 288.791Z" fill="#3F3B3B"/>
<path d="M957.236 289.39C964.664 296.042 971.473 281.9 971.473 271.564L972.499 242.02C973.199 244.039 975.741 234.5 975.741 239.439L974.522 282.271C974.522 310.705 942.429 312.732 942.429 312.732V284.06C951.579 284.075 954.076 286.558 957.236 289.39Z" fill="#514947"/>
<path d="M926.422 251.38C934.117 251.629 937.131 253.875 942.957 253.997C942.989 253.996 943.014 253.995 943.038 253.994V259.051C943.014 259.05 942.989 259.044 942.957 259.043C942.063 259.098 941.023 259.881 939.983 262.776C938.902 265.784 937.57 272.562 924.846 271.893C912.106 271.225 913.471 263.017 910.148 259.258C909.149 258.172 908.815 258.852 908.815 252.67C908.815 252.67 918.679 251.128 926.422 251.38ZM913.699 261.106C914.04 265.451 915.104 270.305 924.927 270.556C934.75 270.808 936.822 268.123 938.155 260.689C939.479 253.256 929.331 253.295 924.009 253.338C913.528 253.421 913.365 256.762 913.699 261.106Z" fill="#D17228"/>
<path d="M959.491 251.38C967.234 251.128 977.106 252.669 977.106 252.669C977.106 258.852 976.773 258.172 975.773 259.258C972.442 263.017 973.807 271.224 961.075 271.892C948.343 272.562 947.011 265.784 945.93 262.776C944.915 259.969 943.915 259.149 943.038 259.051V253.994C948.823 253.852 951.837 251.626 959.491 251.38ZM947.758 260.688C949.091 268.123 951.171 270.807 960.994 270.556C970.809 270.305 971.881 265.45 972.215 261.106C972.548 256.761 972.393 253.42 961.912 253.337C956.582 253.295 946.434 253.256 947.758 260.688Z" fill="#D17228"/>
<path d="M1013.02 379.341H1011.19C1009.51 379.341 1008.14 377.901 1008.14 376.125V367.123C1008.14 365.347 1009.51 363.907 1011.19 363.907H1013.02V366.479H1011.8C1011.13 366.479 1010.58 367.055 1010.58 367.766V375.482C1010.58 376.193 1011.13 376.769 1011.8 376.769H1013.02V379.341Z" fill="#D2D2D2"/>
<path d="M1015.59 383.402H1029.13C1030.55 383.402 1031.71 382.247 1031.71 380.822V361.47H1013.02V380.822C1013.02 382.247 1014.17 383.402 1015.59 383.402Z" fill="#D2D2D2"/>
<path d="M1015.46 380.822V361.47H1031.71V380.822C1031.71 382.247 1030.59 383.402 1029.21 383.402H1017.95C1016.57 383.402 1015.46 382.247 1015.46 380.822Z" fill="#F9F9F9"/>
<path d="M1031.71 364.72H1013.02V366.344H1031.71V364.72Z" fill="#D2D2D2"/>
<path d="M1016.27 369.593H1015.46V377.716H1016.27V369.593Z" fill="#109985"/>
<path d="M1016.27 378.528H1015.46V380.153H1016.27V378.528Z" fill="#109985"/>
<path d="M1020.38 359.033C1020.38 359.033 1024.77 358.728 1022.76 355.23C1021.14 352.422 1021.51 350.774 1023.58 349.285C1023.58 349.285 1016.8 350.915 1020.76 355.959C1022.21 358.157 1020.38 359.033 1020.38 359.033Z" fill="#EBEAEA"/>
<path d="M1022.77 359.033C1022.77 359.033 1026.71 358.343 1024.57 355.709C1023.79 354.567 1024.86 354.16 1024.86 354.16C1024.86 354.16 1022.32 354.226 1023.39 356.038C1024.25 357.494 1024 358.321 1022.77 359.033Z" fill="#EBEAEA"/>
<g clip-path="url(#clip1)" filter="url(#filter1_d)">
<path d="M1062.99 159.21C1048.87 159.21 1037.39 170.688 1037.39 184.797C1037.39 198.906 1048.87 210.384 1062.99 210.384C1077.1 210.384 1088.58 198.906 1088.58 184.797C1088.58 170.688 1077.1 159.21 1062.99 159.21ZM1062.99 204.939C1051.88 204.939 1042.84 195.904 1042.84 184.797C1042.84 173.69 1051.88 164.654 1062.99 164.654C1074.1 164.654 1083.14 173.69 1083.14 184.797C1083.14 195.904 1074.1 204.939 1062.99 204.939Z" fill="#70909A"/>
<rect x="1060.96" y="162.459" width="3.25" height="4.87375" rx="1" fill="#70909A"/>
<path d="M1041.64 182.766C1041.09 182.766 1040.64 183.213 1040.64 183.766V185.015C1040.64 185.567 1041.09 186.015 1041.64 186.015H1044.52C1045.07 186.015 1045.52 185.567 1045.52 185.015V183.766C1045.52 183.213 1045.07 182.766 1044.52 182.766H1041.64Z" fill="#70909A"/>
<path d="M1081.46 182.766C1080.9 182.766 1080.46 183.213 1080.46 183.766V185.015C1080.46 185.567 1080.9 186.015 1081.46 186.015H1084.33C1084.88 186.015 1085.33 185.567 1085.33 185.015V183.766C1085.33 183.213 1084.88 182.766 1084.33 182.766H1081.46Z" fill="#70909A"/>
<rect x="1060.96" y="202.261" width="3.25" height="4.87375" rx="1" fill="#70909A"/>
<path d="M1061.16 177.081C1061.16 176.183 1061.89 175.456 1062.79 175.456V175.456C1063.69 175.456 1064.41 176.183 1064.41 177.081V189.265H1061.89C1061.49 189.265 1061.16 188.939 1061.16 188.538V177.081Z" fill="#70909A"/>
<path d="M1061.82 189.291C1061.34 189.145 1061.07 188.64 1061.22 188.163L1061.91 185.921L1072.01 189.025C1072.87 189.289 1073.35 190.198 1073.08 191.055V191.055C1072.82 191.913 1071.91 192.394 1071.05 192.131L1061.82 189.291Z" fill="#70909A"/>
</g>
</g>
<defs>
<filter id="filter0_d" x="791.437" y="345.677" width="282.385" height="84.7334" filterUnits="userSpaceOnUse" color-interpolation-filters="sRGB">
<feFlood flood-opacity="0" result="BackgroundImageFix"/>
<feColorMatrix in="SourceAlpha" type="matrix" values="0 0 0 0 0 0 0 0 0 0 0 0 0 0 0 0 0 0 127 0"/>
<feOffset dy="4"/>
<feGaussianBlur stdDeviation="2"/>
<feColorMatrix type="matrix" values="0 0 0 0 0 0 0 0 0 0 0 0 0 0 0 0 0 0 0.25 0"/>
<feBlend mode="normal" in2="BackgroundImageFix" result="effect1_dropShadow"/>
<feBlend mode="normal" in="SourceGraphic" in2="effect1_dropShadow" result="shape"/>
</filter>
<filter id="filter1_d" x="1033.39" y="159.21" width="59.1875" height="59.1744" filterUnits="userSpaceOnUse" color-interpolation-filters="sRGB">
<feFlood flood-opacity="0" result="BackgroundImageFix"/>
<feColorMatrix in="SourceAlpha" type="matrix" values="0 0 0 0 0 0 0 0 0 0 0 0 0 0 0 0 0 0 127 0"/>
<feOffset dy="4"/>
<feGaussianBlur stdDeviation="2"/>
<feColorMatrix type="matrix" values="0 0 0 0 0 0 0 0 0 0 0 0 0 0 0 0 0 0 0.25 0"/>
<feBlend mode="normal" in2="BackgroundImageFix" result="effect1_dropShadow"/>
<feBlend mode="normal" in="SourceGraphic" in2="effect1_dropShadow" result="shape"/>
</filter>
<clipPath id="clip0">
<rect width="1300" height="627.09" fill="white"/>
</clipPath>
<clipPath id="clip1">
<rect width="51.1875" height="51.1744" fill="white" transform="translate(1037.39 159.21)"/>
</clipPath>
</defs>
</svg>
