<svg width="138" height="95" fill="none" xmlns="http://www.w3.org/2000/svg"><path d="M138 86.65a8.124 8.124 0 0 1-8.123 8.123H8.7A8.124 8.124 0 0 1 .577 86.65V8.124A8.123 8.123 0 0 1 8.7 0h121.177A8.123 8.123 0 0 1 138 8.124v78.525z" fill="#5D647F"/><path opacity=".15" d="M6.352 86.65V8.123A8.124 8.124 0 0 1 14.476 0H8.7A8.123 8.123 0 0 0 .577 8.124v78.525A8.124 8.124 0 0 0 8.7 94.773h5.776a8.124 8.124 0 0 1-8.124-8.124z" fill="#202121"/><g clip-path="url(#clip0)"><path fill="#5D647F" d="M10.471 3.848h119.833v86.85H10.471z"/><path d="M120.942 3.848H19.833c-5.162 0-9.362 4.209-9.362 9.382v67.55c0 5.174 4.2 9.383 9.362 9.383h101.109c5.163 0 9.362-4.21 9.362-9.382V13.23c0-5.173-4.199-9.382-9.362-9.382z" fill="#5D647F"/><path d="M51.664 41.376H29.195a3.749 3.749 0 0 1-3.744-3.753V22.612a3.749 3.749 0 0 1 3.744-3.753h22.469a3.749 3.749 0 0 1 3.745 3.753v15.011a3.749 3.749 0 0 1-3.745 3.753z" fill="#FFD100"/><path d="M38.557 65.77h-9.362a3.749 3.749 0 0 1-3.744-3.753V60.14a3.749 3.749 0 0 1 3.744-3.753h9.362a3.749 3.749 0 0 1 3.745 3.753v1.877a3.749 3.749 0 0 1-3.745 3.752zM62.898 65.77h-9.362a3.749 3.749 0 0 1-3.744-3.753V60.14a3.749 3.749 0 0 1 3.744-3.753h9.362a3.749 3.749 0 0 1 3.745 3.753v1.877a3.749 3.749 0 0 1-3.745 3.752zM87.24 65.77h-9.363a3.749 3.749 0 0 1-3.744-3.753V60.14a3.749 3.749 0 0 1 3.744-3.753h9.362a3.749 3.749 0 0 1 3.745 3.753v1.877a3.749 3.749 0 0 1-3.745 3.752zM111.58 65.77h-9.362a3.748 3.748 0 0 1-3.744-3.753V60.14a3.748 3.748 0 0 1 3.744-3.753h9.362a3.748 3.748 0 0 1 3.745 3.753v1.877a3.748 3.748 0 0 1-3.745 3.752z" fill="#B8BAC0"/><path d="M64.77 77.028H27.324a1.874 1.874 0 0 1-1.872-1.877c0-1.036.837-1.876 1.872-1.876H64.77c1.035 0 1.872.84 1.872 1.876a1.874 1.874 0 0 1-1.872 1.877zM89.112 77.028H72.26a1.874 1.874 0 0 1-1.872-1.877c0-1.036.837-1.876 1.872-1.876h16.852c1.035 0 1.872.84 1.872 1.876a1.874 1.874 0 0 1-1.872 1.877z" fill="#8A8895"/><path d="M96.601 37.624a11.196 11.196 0 0 1-8.373 3.752c-6.205 0-11.234-5.04-11.234-11.258 0-6.218 5.03-11.259 11.234-11.259 3.327 0 6.315 1.449 8.372 3.751" fill="#FF4F19"/><path d="M55.409 33.87c0-1.036-.84-1.876-1.877-1.876h-14.97a1.876 1.876 0 0 1 0-3.753h14.97a1.876 1.876 0 1 0 0-3.753H39.5a2.815 2.815 0 0 1-2.815-2.814v-.942a1.872 1.872 0 1 0-3.745 0v18.772a1.872 1.872 0 0 0 3.745 0v-.942a2.815 2.815 0 0 1 2.814-2.815h14.033c1.037 0 1.877-.84 1.877-1.877z" fill="#FF9500"/><path d="M104.091 41.376c6.204 0 11.234-5.04 11.234-11.258 0-6.218-5.03-11.259-11.234-11.259-6.205 0-11.234 5.04-11.234 11.259 0 6.218 5.03 11.258 11.234 11.258z" fill="#FFD100"/></g><defs><clipPath id="clip0"><path fill="#fff" transform="translate(10.471 3.848)" d="M0 0h119.833v86.851H0z"/></clipPath></defs></svg>