<svg width="138" height="95" fill="none" xmlns="http://www.w3.org/2000/svg"><path d="M137.423 86.65a8.124 8.124 0 0 1-8.123 8.123H8.123A8.124 8.124 0 0 1 0 86.65V8.124A8.123 8.123 0 0 1 8.123 0H129.3a8.123 8.123 0 0 1 8.123 8.124v78.525z" fill="#F0F0F0"/><path d="M5.775 86.65V8.123A8.124 8.124 0 0 1 13.9 0H8.123A8.123 8.123 0 0 0 0 8.124v78.525a8.124 8.124 0 0 0 8.123 8.124H13.9a8.124 8.124 0 0 1-8.124-8.124z" fill="#DDE1E1"/><path fill-rule="evenodd" clip-rule="evenodd" d="M122.32 29H98.734c1.268 7.862 8.876 15.217 17.245 15.217h18.767c.254-.761.254-1.776.254-2.537 0-7.1-5.579-12.68-12.68-12.68z" fill="url(#paint0_linear)"/><path fill-rule="evenodd" clip-rule="evenodd" d="M100.763 45.484v19.021h11.412V54.361h10.145c5.579 0 10.398-3.804 11.919-8.877h-33.476zM60.185 29v35.505H70.33s2.536 0 3.804-2.536l8.876-17.752h1.268v20.288h11.413V29H85.546s-2.536.254-3.804 2.536L72.866 49.29h-1.268V29H60.185zM12 64.505V29h11.412s3.297 0 5.073 5.072c4.565 13.441 5.072 15.217 5.072 15.217s1.014-3.297 5.072-15.217C40.404 29 43.7 29 43.7 29h11.412v35.505H43.701v-19.02h-1.268l-6.34 19.02H31.02l-6.34-19.02h-1.269v19.02H12z" fill="#4DB45F"/><defs><linearGradient id="paint0_linear" x1="98.669" y1="36.608" x2="135" y2="36.608" gradientUnits="userSpaceOnUse"><stop stop-color="#00B4E6"/><stop offset="1" stop-color="#088CCB"/></linearGradient></defs></svg>