<svg width="138" height="96" fill="none" xmlns="http://www.w3.org/2000/svg"><path d="M137.437 87.497a8.124 8.124 0 0 1-8.123 8.124H8.137a8.124 8.124 0 0 1-8.123-8.124V8.971A8.123 8.123 0 0 1 8.137.848h121.177a8.123 8.123 0 0 1 8.123 8.123v78.526z" fill="#92DBEF"/><path opacity=".15" d="M5.79 87.497V8.971A8.124 8.124 0 0 1 13.912.848H8.137A8.123 8.123 0 0 0 .014 8.97v78.526a8.123 8.123 0 0 0 8.123 8.124h5.776a8.124 8.124 0 0 1-8.124-8.124z" fill="#202121"/><path d="M89.241 19.372c-3.011-3.442-8.604-5.162-16.347-5.162h-21.51c-1.292 0-2.582 1.292-3.012 2.58l-8.605 56.357c0 1.292.861 2.15 1.72 2.15h13.336l3.442-21.078v.86c.431-1.292 1.72-2.58 3.012-2.58h6.454c12.475 0 21.937-5.163 24.95-19.361v-1.29c-.43 0-.43 0 0 0 .43-5.592-.43-9.034-3.44-12.476z" fill="#263B80"/><path d="M92.68 33.138v-1.29c.004-.043.005-.083.008-.125a12.175 12.175 0 0 0-2.03-1.143c-2.611-1.08-5.282-1.283-6.516-1.314l-.006-.005h-6.274l.008.005H64.71c-2.237.081-2.854 1.885-3.015 2.67l-3.43 22.283V55.079c.431-1.292 1.72-2.58 3.012-2.58h6.454c12.475 0 21.938-5.163 24.95-19.361z" fill="#232C65"/><path d="M96.907 37.18c-.972-2.683-2.692-4.397-4.219-5.458l-.007.125v1.29c-3.012 14.198-12.474 19.36-24.95 19.36h-6.453c-1.292 0-2.581 1.29-3.012 2.582v-.332c-.05.11-.095.22-.132.332l-2.43 14.828-.88 5.39h-.004l-.987 6.024c0 .86.43 1.718 1.72 1.718h10.723c2.158 0 2.836-1.678 3.044-2.582l.09-.562 2.06-12.772s.268-3.011 3.206-3.011h1.098c10.755 0 19.358-4.301 21.51-17.207.597-3.598.568-6.983-.377-9.726z" fill="#139AD6"/></svg>