<svg width="138" height="96" fill="none" xmlns="http://www.w3.org/2000/svg"><path d="M137.423 87.497a8.124 8.124 0 0 1-8.123 8.124H8.123A8.124 8.124 0 0 1 0 87.497V8.971A8.123 8.123 0 0 1 8.123.848H129.3a8.123 8.123 0 0 1 8.123 8.123v78.526z" fill="#F7EEE8"/><path opacity=".15" d="M5.775 87.497V8.971A8.124 8.124 0 0 1 13.9.848H8.123A8.123 8.123 0 0 0 0 8.97v78.526a8.123 8.123 0 0 0 8.123 8.124H13.9a8.124 8.124 0 0 1-8.124-8.124z" fill="#396161"/><path d="M67 52.001h1.752v3.98h1.267L72.29 52h1.916l-2.728 4.671v.033l2.89 5.097h-1.98l-2.338-4.276h-1.265v4.276h-1.754V52H67v.001zM78.297 54.6c2.108 0 3.83 1.545 3.83 3.683 0 2.171-1.689 3.684-3.798 3.684-2.11 0-3.798-1.513-3.798-3.684-.033-2.17 1.655-3.683 3.766-3.683zm5.193.163h1.655v5.527h2.175v-5.526h1.655v5.526h2.175v-5.526h1.656v7.038h-9.252v-7.039h-.064zm14.218-.163c1.98 0 3.083 1.48 3.083 3.322a5.145 5.145 0 0 1-.064.69h-4.772c.097 1.217 1.038 1.875 2.078 1.875.713 0 1.428-.33 1.979-.756l.682 1.25c-.714.623-1.785 1.02-2.791 1.02-2.306 0-3.734-1.678-3.734-3.685 0-2.203 1.46-3.716 3.54-3.716zm3.894 5.722c.845-.131 1.461-.854 1.461-3.355v-2.203h5.065v7.038h-1.721v-5.625h-1.688v.79c0 3.058-.811 4.835-3.117 4.9v-1.545zm11.459-5.722c1.98 0 3.084 1.48 3.084 3.322a4.988 4.988 0 0 1-.065.69h-4.772c.098 1.217 1.039 1.875 2.078 1.875.714 0 1.428-.33 1.98-.756l.682 1.25c-.715.623-1.786 1.02-2.792 1.02-2.304 0-3.733-1.678-3.733-3.685 0-2.203 1.461-3.716 3.538-3.716zm4.512.163h1.721v2.698h.844l1.688-2.697h1.915l-2.208 3.354v.034l2.467 3.65h-2.012l-1.818-2.86h-.908v2.86h-1.722v-7.039h.033zm-39.276 5.691c1.136 0 2.077-.888 2.077-2.204 0-1.283-.941-2.204-2.078-2.204-1.136 0-2.045.89-2.045 2.204 0 1.316.908 2.204 2.046 2.204zm20.742-3.058c0-.921-.618-1.48-1.397-1.48-.876 0-1.525.591-1.687 1.48h3.084zm15.353 0c0-.921-.616-1.48-1.395-1.48-.878 0-1.527.591-1.689 1.48h3.084z" fill="#5D647F"/><path d="M90.412 27.663v16.975a.461.461 0 0 1-.473.47H86.45a.465.465 0 0 1-.44-.288.45.45 0 0 1-.033-.182V27.663a.45.45 0 0 1 .135-.335.464.464 0 0 1 .338-.135h3.488a.469.469 0 0 1 .44.289c.023.057.035.12.033.181zm27.223-.47c.136 0 .305.067.473.202.103.1.103.268.069.403l-5.756 17.008a.489.489 0 0 1-.44.303h-3.115c-.203 0-.373-.101-.44-.303l-3.354-9.915-3.352 9.914a.483.483 0 0 1-.44.303h-3.115c-.203 0-.373-.1-.44-.303l-5.757-17.008c-.033-.134-.033-.268.068-.402.068-.135.238-.202.373-.202h3.893c.204 0 .373.134.441.335l3.08 10.05 3.387-10.05a.476.476 0 0 1 .44-.302h2.743c.202 0 .372.1.439.303l3.387 10.05 3.081-10.05a.468.468 0 0 1 .44-.336h3.895zm5.891 0c.237 0 .44.202.474.47v16.975a.453.453 0 0 1-.136.336.46.46 0 0 1-.338.134h-3.488a.462.462 0 0 1-.473-.47V27.663a.46.46 0 0 1 .473-.47h3.488zm-39.58 17.311c.203.236.033.57-.272.57h-4.267a.55.55 0 0 1-.44-.2l-.71-.874c-1.49.94-3.252 1.513-5.113 1.513-5.214 0-9.446-4.202-9.446-9.379s4.232-9.379 9.446-9.379c5.214 0 9.447 4.202 9.447 9.379 0 1.85-.542 3.597-1.49 5.075l2.844 3.294v.002zM48.29 52.74c.88.337 1.22 1.647 1.287 2.218.136 1.043-.168 1.446-.507 1.446-.339 0-.814-.403-1.32-1.21-.51-.807-.712-1.714-.44-2.185.168-.303.54-.437.981-.269zm-5.146 3.799c.542 0 1.151.235 1.693.705 1.05.874 1.355 1.883.813 2.622-.306.37-.813.605-1.388.605-.576 0-1.185-.201-1.592-.571-.948-.807-1.218-2.152-.61-2.891.238-.303.61-.47 1.084-.47zm-11.85 9.714C18.428 66.252 8 55.898 8 43.126 8 30.352 18.429 20 31.294 20 44.16 20 54.59 30.354 54.59 43.126c0 4.335-1.22 8.403-3.284 11.866-.068.1-.238.067-.271-.068-.813-5.68-4.3-8.807-9.38-9.748-.44-.068-.507-.336.068-.403 1.558-.135 3.758-.101 4.91.1.067-.571.102-1.176.102-1.781 0-8.437-6.908-15.295-15.407-15.295-8.498 0-15.406 6.858-15.406 15.295 0 8.437 6.908 15.295 15.407 15.295h.71a20.488 20.488 0 0 1-.305-4.135c.035-.941.238-1.076.644-.337 2.133 3.664 5.181 6.959 11.14 8.27 4.875 1.076 9.75 2.319 14.999 8.94.473.572-.237 1.177-.779.707-5.349-4.707-10.225-6.253-14.66-6.253-4.978.035-8.364.673-11.784.673h.001zM75.48 40.739l-1.863-2.252c-.201-.235-.032-.605.272-.605h3.927a4.99 4.99 0 0 0 .306-1.748c0-2.79-2.1-5.21-4.978-5.21-2.877 0-4.978 2.42-4.978 5.21s2.1 5.177 4.978 5.177c.812.033 1.626-.202 2.336-.572z" fill="#FF8C00"/></svg>