<svg width="137" height="95" fill="none" xmlns="http://www.w3.org/2000/svg"><path d="M137 86.382a8.099 8.099 0 0 1-8.098 8.099H8.098A8.098 8.098 0 0 1 0 86.382V8.1A8.098 8.098 0 0 1 8.098 0h120.804A8.098 8.098 0 0 1 137 8.099v78.283z" fill="#fff"/><path d="M30.408 47.785L27.19 32.354c-.55-2.128-2.15-2.761-4.15-2.845H8.293l-.131.705c11.486 2.785 19.087 9.502 22.246 17.571z" fill="#F79F1A"/><path d="M64.581 29.82h-9.53l-5.95 34.925h9.513L64.58 29.82zM36.215 64.71l14.987-34.867H41.117l-9.323 23.822-.995-3.597c-1.828-4.327-7.05-10.555-13.183-14.475l8.523 29.129 10.076-.012zM91.76 53.328c.036-3.965-2.51-6.99-7.996-9.488-3.334-1.613-5.367-2.69-5.342-4.327 0-1.446 1.72-3 5.45-3 3.12-.048 5.366.634 7.124 1.339l.86.395 1.292-7.567c-1.889-.705-4.842-1.458-8.534-1.458-9.408 0-16.03 4.733-16.09 11.523-.06 5.02 4.735 7.817 8.344 9.49 3.705 1.706 4.948 2.797 4.925 4.327-.024 2.34-2.953 3.407-5.69 3.407-3.813 0-5.834-.526-8.967-1.831l-1.217-.56-1.337 7.827c2.221.97 6.333 1.82 10.6 1.855 10.004 0 16.507-4.674 16.579-11.932zM103.08 59.51c1.088 0 10.805.013 12.192.013.287 1.216 1.16 5.235 1.16 5.235h8.833l-7.71-34.903h-7.351c-2.283 0-3.98.622-4.984 2.893l-14.14 32.01h10.005c-.001 0 1.624-4.303 1.995-5.247zm6.526-16.913c-.047.095.789-2.02 1.267-3.335l.646 3.012s1.817 8.343 2.199 10.089h-7.901c.789-2.008 3.789-9.766 3.789-9.766zM128.902 0H8.098A8.098 8.098 0 0 0 0 8.099v8.405h137V8.099A8.098 8.098 0 0 0 128.902 0z" fill="#059BBF"/><path d="M128.902 94.481H8.098A8.098 8.098 0 0 1 0 86.383v-8.405h137v8.405a8.098 8.098 0 0 1-8.098 8.099z" fill="#F79F1A"/><path opacity=".15" d="M5.757 86.382V8.1A8.099 8.099 0 0 1 13.857 0H8.097A8.098 8.098 0 0 0 0 8.099v78.283a8.099 8.099 0 0 0 8.098 8.1h5.758a8.1 8.1 0 0 1-8.099-8.1z" fill="#202121"/></svg>