<svg width="138" height="96" fill="none" xmlns="http://www.w3.org/2000/svg"><path d="M137.43 87.497a8.124 8.124 0 0 1-8.123 8.124H8.13a8.124 8.124 0 0 1-8.123-8.124V8.971A8.123 8.123 0 0 1 8.13.848h121.177a8.123 8.123 0 0 1 8.123 8.123v78.526z" fill="#D9DAE3"/><path opacity=".15" d="M5.782 87.497V8.971A8.124 8.124 0 0 1 13.906.848H8.13A8.123 8.123 0 0 0 .007 8.97v78.526a8.123 8.123 0 0 0 8.123 8.124h5.776a8.124 8.124 0 0 1-8.124-8.124z" fill="#84A7DB"/><path fill-rule="evenodd" clip-rule="evenodd" d="M70.536 9.093c4.428 0 8.621 1.03 12.358 2.863.586.278 1.172.583 1.758.92l-2.595 2.326-3.901-4.035-6.583 5.874-3.91-4.27-12.264 11.06 7.863 8.664-3.092 2.72 7.744 8.68-3.07 2.712 11.065 12.32 6.57-6.049 5.68 6.482a30.199 30.199 0 0 1-3.715 2.471 27.991 27.991 0 0 1-13.905 3.681c-15.537 0-28.206-12.672-28.206-28.21 0-15.537 12.67-28.209 28.203-28.209z" fill="#1A5EAB"/><path fill-rule="evenodd" clip-rule="evenodd" d="M65.398 35.52l6.704-6.042 6.04 6.71-6.707 6.04-6.037-6.708zM70.169 47.112l6.704-6.039 6.04 6.709-6.707 6.039-6.037-6.709zM60.597 24.064l6.707-6.039 6.037 6.709-6.707 6.039-6.037-6.71zM72.904 20.814l5.03-4.532 4.528 5.035-5.027 4.529-4.531-5.032zM81.844 41.562l5.03-4.53 4.528 5.035-5.03 4.526-4.528-5.031zM86.267 51.725l5.03-4.532 4.528 5.031-5.03 4.53-4.528-5.03zM88.294 28.433l3.354-3.022 3.019 3.354-3.354 3.022-3.019-3.354zM84.01 18.468l3.353-3.02 3.019 3.355-3.354 3.019-3.019-3.354zM92.58 38.4l3.353-3.02 3.018 3.351-3.35 3.023-3.022-3.355zM77.543 30.932L82.57 26.4l4.531 5.032-5.03 4.529-4.528-5.03zM68.18 72.142l-.094.062-.094-.062c-.684-.623-1.433-.871-2.364-.871-2.149 0-3.549 1.495-3.549 3.829v10.926h2.148V75.1c0-1.557 1.058-1.68 1.4-1.68.25 0 .624.062.934.311.312.31.467.747.467 1.369v10.926h2.148V75.1c0-1.557 1.058-1.68 1.4-1.68.25 0 .624.062.934.311.312.31.467.747.467 1.369v10.926h2.148V75.1c0-1.214-.373-2.21-1.058-2.896-.624-.591-1.495-.933-2.49-.933-.965-.002-1.743.28-2.397.871zM83.836 76.313c-.715-.746-1.9-1.4-3.517-1.4-1.557 0-2.74.654-3.454 1.4-1.12 1.215-1.34 2.928-1.34 4.264 0 1.308.22 3.022 1.34 4.234.714.748 1.899 1.4 3.454 1.4 1.62 0 2.802-.652 3.517-1.4 1.12-1.213 1.338-2.926 1.338-4.234 0-1.338-.218-3.05-1.338-4.264zm-.84 4.733c0 1.028 0 2.18-.778 3.02-.312.31-.901.716-1.899.716-.933 0-1.525-.406-1.837-.716-.776-.84-.776-1.992-.776-3.02v-.966c0-1.028 0-2.179.776-2.988.312-.342.904-.748 1.837-.748.996 0 1.586.404 1.899.748.778.809.778 1.962.778 2.988v.966zM86.946 75.098l1.806.032v.966c.53-.373.996-.654 1.527-.84.652-.28 1.119-.342 1.773-.342.933 0 1.899.187 2.675 1.059.749.871.904 1.9.904 2.77v7.255h-1.994v-7.41c0-1.773-1.118-2.241-2.052-2.241-.935 0-1.899.404-2.677 1.12v8.53h-1.963V75.1h.001zM105.373 83.877a8.404 8.404 0 0 1-1.275.5c-.592.186-1.058.28-1.682.28-1.028 0-1.961-.341-2.458-.903-.373-.37-.777-1.119-.777-2.427v-.281h6.721v-.499c0-1.743-.062-3.175-1.151-4.328-.716-.777-1.806-1.306-3.174-1.306-1.525 0-2.645.654-3.33 1.432-1.12 1.278-1.245 2.958-1.245 4.047 0 1.214.187 3.022 1.306 4.266.716.84 1.992 1.555 3.798 1.555.809 0 1.682-.092 2.553-.435.467-.185.996-.434 1.338-.623l-.624-1.278zm-6.192-4.511c0-1.248.404-1.964.716-2.306.31-.342.809-.716 1.648-.716.561 0 1.119.124 1.525.529.716.686.716 1.525.716 2.273v.467h-4.607v-.248h.002zM116.671 75.13l-4.263 12.826c-.157.561-.561 1.495-1.029 2.024-.56.624-1.306.904-2.147.904a3.411 3.411 0 0 1-1.712-.437c-.342-.217-.686-.435-.902-.684l.934-1.183c.157.156.372.311.561.435.31.187.686.281 1.028.281.591 0 .965-.312 1.152-.561.218-.282.435-.934.592-1.34l.247-.871-4.574-11.394h2.148l2.738 6.818c.281.652.561 1.65.624 1.93h.094c.342-1.307.499-1.743.778-2.552l1.96-6.196h1.771zM32.917 85.372l.062-.094.095.094c.714.592 1.432.873 2.396.873 2.146 0 3.548-1.527 3.548-3.83V71.487H36.84v10.926c0 1.558-1.059 1.65-1.37 1.65-.28 0-.654-.032-.934-.311-.31-.28-.467-.747-.467-1.339V71.488h-2.178v10.926c0 1.558-1.058 1.65-1.4 1.65-.25 0-.624-.032-.904-.311-.311-.28-.466-.747-.466-1.339V71.488h-2.18v10.926c0 1.183.373 2.18 1.06 2.864.62.623 1.524.965 2.49.965.965 0 1.742-.311 2.426-.87zM49.008 83.878c-.342.156-.746.342-1.245.498-.591.188-1.058.282-1.68.282-1.027 0-1.961-.342-2.46-.903-.342-.371-.746-1.12-.746-2.427v-.282h6.659v-.499c0-1.742-.062-3.175-1.12-4.328-.717-.746-1.805-1.276-3.207-1.276-1.463 0-2.583.654-3.267 1.4-1.151 1.309-1.245 2.99-1.245 4.048 0 1.213.156 3.021 1.275 4.265.748.81 1.992 1.556 3.797 1.556.808 0 1.65-.123 2.552-.467.467-.155.966-.435 1.308-.622l-.62-1.245zm-6.131-4.512c0-1.247.372-1.932.716-2.306.28-.31.778-.716 1.618-.716.56 0 1.12.157 1.526.561.716.654.716 1.495.716 2.272v.437h-4.575v-.248h-.001zM58.78 76.033c-.777-.686-1.867-1.09-2.988-1.09-.498 0-1.028.093-1.4.155-.31.094-.716.25-1.058.374v-4.264h-1.962v13.854c1.153.684 2.521 1.151 4.078 1.151 1.151 0 2.708-.247 3.828-1.71.904-1.216 1.092-2.74 1.092-3.985-.001-1.186-.094-3.209-1.59-4.485zm-3.36.31c.778 0 1.587.25 2.086.78.685.746.685 1.867.685 2.83v.934c0 1.836-.311 2.584-.59 2.989-.313.406-.966.903-2.087.903-.404 0-.903-.125-1.277-.219-.28-.094-.622-.28-.902-.435v-7.13" fill="#1A5EAB"/></svg>